<svg xmlns="http://www.w3.org/2000/svg" xmlns:xlink="http://www.w3.org/1999/xlink" viewBox="0 0 761.3 349.01"><defs><style>.cls-1{fill:#c4c4c4;}.cls-2{fill:none;}.cls-3{fill:#edddcc;}.cls-4{clip-path:url(#clip-path);}.cls-5{mask:url(#mask);}.cls-6{fill:#323960;}.cls-7{fill:#efb29d;}.cls-8{fill:#f7f6f4;}.cls-9{fill:#9d586c;}.cls-10{fill:#282e54;}.cls-11{fill:#f0eeeb;}</style><clipPath id="clip-path" transform="translate(354.47 0.01)"><rect class="cls-2" width="406.84" height="347.72"/></clipPath><mask id="mask" x="0" y="-65.99" width="810.31" height="453" maskUnits="userSpaceOnUse"><g transform="translate(354.47 0.01)"><g id="mask0"><circle class="cls-1" cx="229.34" cy="160.5" r="226.5"/></g></g></mask></defs><g id="Слой_2" data-name="Слой 2"><g id="Слой_1-2" data-name="Слой 1"><ellipse class="cls-3" cx="536.31" cy="175.51" rx="177" ry="173.5"/><g class="cls-4"><g class="cls-5"><path class="cls-6" d="M49.59,115.49s-32.46,28.9-19.82,77.35l37.85-.3s8.28-46.8,6.49-63.46C74.09,129.08,70.36,99.31,49.59,115.49Z" transform="translate(354.47 0.01)"/><path class="cls-7" d="M51.73,70.44s-9.95,1.89-10.1,14.06c-.07,5.21-4.38,8.78-.84,9.9s-.8,6.58,2.86,9.67,22.93,1.35,24.15-16C67.8,88,72.77,65,51.73,70.44Z" transform="translate(354.47 0.01)"/><path class="cls-7" d="M48.62,105.35s5.15.07,4.4,8l12.34-.57s.74-17.7.74-17.73l0,0Z" transform="translate(354.47 0.01)"/><path class="cls-8" d="M67,111.93l-.17-4a1.16,1.16,0,0,0-1.29-1.12l-14.9,1.44a1.21,1.21,0,0,0-1.07,1.1l-.37,5.18a1.17,1.17,0,0,0,1.36,1.25L66,113.17A1.21,1.21,0,0,0,67,111.93Z" transform="translate(354.47 0.01)"/><path class="cls-9" d="M45.86,76.35a4.91,4.91,0,0,1-5.47-4.49,8,8,0,0,1,.77-3.57c2.63-6.06,6.27.93,10.87-.55s13.75-3.26,16.31,2.67c0,0,5.4-.57,5.47,5.44.1,10.5-4.65,17.28-7.61,19.2,0,0-1.91,1.44-2.46-4.29S60.13,85,57.3,84.7C52.52,84.15,57.85,75.1,45.86,76.35Z" transform="translate(354.47 0.01)"/><path class="cls-7" d="M57.62,84.72s5.18-4.71,7.61-.14c1.17,2.21-1.46,11.31-7.23,9.49Z" transform="translate(354.47 0.01)"/><path class="cls-8" d="M-20.95,168.23c.82.36,2.2,1,4,1.65.22-4.44.61-8.88,1.25-13.31-2.8-.39-4.53-.66-4.53-.66l-.93,6.9C-21.06,164.61-21,166.42-20.95,168.23Z" transform="translate(354.47 0.01)"/><path class="cls-8" d="M54.14,116.71c-16.74,7.49-13.08,34.56-27.63,40.77-4.86,2.08-16.14,1.74-26.4.86,0,5.49-.25,11-.57,16.47,10.43,2.24,23.16,3.27,34.63-.62C64.74,163.84,70.88,109.21,54.14,116.71Z" transform="translate(354.47 0.01)"/><path class="cls-7" d="M163.38,152.17a25.22,25.22,0,0,1-18.68-6.38c-8.53-7.71,6.76-2.47,10.72-1.52,0,0-6.07-3.07-5.77-4.32.62-2.71,11.69,3,13.35,5.59Z" transform="translate(354.47 0.01)"/><path class="cls-10" d="M162.88,143.34s34.17,4.44,48.25-14.78,20.32-40.24,35.59-40-1.62,43.06-20.74,56-31.84,15.44-67.43,8.7Z" transform="translate(354.47 0.01)"/><path class="cls-9" d="M256.34,174.86l16.19-40.44a5.77,5.77,0,0,1,5.35-3.64h6.42a5.78,5.78,0,0,1,5.54,7.38L278.28,178.6a5.78,5.78,0,0,1-5.55,4.19h-11A5.77,5.77,0,0,1,256.34,174.86Z" transform="translate(354.47 0.01)"/><path class="cls-7" d="M205.23,123.57s-11.71-6.46-16.51-16.25l-5.37-2.2-13.23,32.59S185.16,180.27,205.23,123.57Z" transform="translate(354.47 0.01)"/><path class="cls-7" d="M156.81,103.38s15.49,8.15,23.15-.08l5.38,2.19L172.1,138.08S134.25,160.87,156.81,103.38Z" transform="translate(354.47 0.01)"/><path class="cls-7" d="M158.23,120.33s12.36-5.24-7.76-24.24c-19.1-18-14.33-30.17-3.19-49.19s7.37-29,4.83-29.17-1.2,15.51-7.46,21.09-24.18,19.67-18.93,40.94S150,127.36,158.23,120.33Z" transform="translate(354.47 0.01)"/><path class="cls-7" d="M165.31,95.27s11.84,3.57,2.37,17.43l26.51,1.84s-12.53-14.73-13.95-34.78Z" transform="translate(354.47 0.01)"/><path class="cls-7" d="M162.93,63.51s-7.12,2.64-6.64,10.17c.57,9-5.82,9.35-1.55,11.82,4,2.34,1,10.69,6.84,10.32C171,95.2,179.49,88.17,181,76S172.05,58.79,162.93,63.51Z" transform="translate(354.47 0.01)"/><path class="cls-6" d="M158.15,67.1c21.24-4,6.74,27.8,41,14.48,14.67-5.68,10.32,5.84,24.12,0s30.82,12,38.75-2.79c5.6-10.47-12.58-23.36-30.26-17.1-16.62,5.91-19.45-5.49-35.37-1.62C175.24,65.23,168.32,55.6,158.15,67.1Z" transform="translate(354.47 0.01)"/><path class="cls-7" d="M194.91,126.66s-10.2-5.46,8.18-24.26c19.38-19.82,13.91-30.14,2.76-49.17s-7.36-29-4.82-29.17,1.19,15.51,7.46,21.09,24.18,19.68,18.93,40.95S203.09,133.67,194.91,126.66Z" transform="translate(354.47 0.01)"/><path class="cls-8" d="M194,129.51c-5.42-7.68-19.7-1-19.7-1s-11.29-11-18.92-5.54c-17.19,12.35,9.47,32.87-5.3,54.63l15.52,2.62,15.52,2.62C174.27,157.43,206.18,146.83,194,129.51Z" transform="translate(354.47 0.01)"/><path class="cls-10" d="M253.21,84s15.07,4.76,16.44,26.91c1.29,20.94-9.58,34.78-14.95,62.21l-9.35,41.73C207.65,201,212.74,168.38,218,141.27,227,95.47,253.21,84,253.21,84Z" transform="translate(354.47 0.01)"/><path class="cls-11" d="M220,172.64s-1.69-52.76,29.79-86.74l14.4-1.2-11.91,87.94Z" transform="translate(354.47 0.01)"/><path class="cls-6" d="M264.2,84.7s12.54,4.16,12.86,26.05c.3,20.73-9.35,34.84-14.9,62.21l-9.45,41.72c-31.26-12.24-25.74-44.81-20.29-71.86C241.64,97.09,264.2,84.7,264.2,84.7Z" transform="translate(354.47 0.01)"/><path class="cls-6" d="M302.4,20.5S311,54,293.7,70.31s-37.36,25.16-35.24,40.32,42.43-6.88,52.87-27.53,11.39-33.56.35-68.14Z" transform="translate(354.47 0.01)"/><path class="cls-11" d="M263.8,84.87l-.92-3.16a1.18,1.18,0,0,0-1.44-.83L246.92,84.6a1.21,1.21,0,0,0-.9,1.22l.18,4.42a1.19,1.19,0,0,0,1.56,1.09l15.27-5A1.23,1.23,0,0,0,263.8,84.87Z" transform="translate(354.47 0.01)"/><path class="cls-7" d="M252.21,42.34s-10.24,1-11.46,13.36c-.52,5.29-6.79,8-3.28,9.4s.2,7.16,3.6,10.6,23.11,3.39,25.87-14.14C266.94,61.54,274,38.65,252.21,42.34Z" transform="translate(354.47 0.01)"/><path class="cls-7" d="M246,77.37s5.19.55,3.75,8.53l14.4-1.2s.45-16.16.48-16.21l0,0Z" transform="translate(354.47 0.01)"/><path class="cls-6" d="M266.22,64.68s8.18-11.22,1.64-20S243.46,41,242.42,44s.27,5.28,6.79,5.16c7.85-.15,6.51,5.68,6.09,8C254.28,62.91,264.15,58.69,266.22,64.68Z" transform="translate(354.47 0.01)"/><path class="cls-7" d="M255.07,56.87s5.68-4.31,7.71.53c1,2.34-2.48,11.32-8.15,9Z" transform="translate(354.47 0.01)"/><path class="cls-8" d="M266.29,84.2,265.37,81a1.18,1.18,0,0,0-1.44-.82L249.4,83.93a1.21,1.21,0,0,0-.89,1.22l.17,4.41a1.2,1.2,0,0,0,1.57,1.1l15.27-5A1.21,1.21,0,0,0,266.29,84.2Z" transform="translate(354.47 0.01)"/><path class="cls-9" d="M67.4,174.86l16.19-40.44a5.77,5.77,0,0,1,5.35-3.64h6.41a5.78,5.78,0,0,1,5.55,7.38L89.33,178.6a5.78,5.78,0,0,1-5.54,4.19H72.74A5.76,5.76,0,0,1,67.4,174.86Z" transform="translate(354.47 0.01)"/><path class="cls-6" d="M-57.21,185.05c.14-4.18.37-8.36.72-12.51h-3.1c-2.42,19.15-3,38.29.2,57.37C-57.43,215.11-57.72,200-57.21,185.05Z" transform="translate(354.47 0.01)"/><path class="cls-6" d="M-20.09,186.17c.18-3.75.48-7.51.93-11.28a6,6,0,0,1,.78-2.35h-2.44q.16,6.78.28,13.57A3.47,3.47,0,0,1-20.09,186.17Z" transform="translate(354.47 0.01)"/><path class="cls-6" d="M-18.65,267.93a89.34,89.34,0,0,0,0-11.8,5.58,5.58,0,0,1-5.88-.38C-22.68,259.89-20.71,264-18.65,267.93Z" transform="translate(354.47 0.01)"/><path class="cls-6" d="M-43.88,226.93c-4.36,14.72-2.49,31.07,2.46,45.86,1.77-12.15,1.05-24.72-.58-37Q-43.11,231.37-43.88,226.93Z" transform="translate(354.47 0.01)"/><path class="cls-6" d="M-8.16,272.88c-.26-.47-.53-.92-.78-1.39a75.21,75.21,0,0,1-2.4,12.73,4.83,4.83,0,0,1-1.86,2.62h8.44Q-6.45,279.87-8.16,272.88Z" transform="translate(354.47 0.01)"/><path class="cls-6" d="M-46.61,286.84a114.32,114.32,0,0,1-9-31.51" transform="translate(354.47 0.01)"/><path class="cls-6" d="M-150.75,286.84H-46.61" transform="translate(354.47 0.01)"/><path class="cls-6" d="M-160.65,278.73a9.9,9.9,0,0,0,9.9,8.11" transform="translate(354.47 0.01)"/><path class="cls-6" d="M-209.62,237.12a49.69,49.69,0,0,1,49,41.61" transform="translate(354.47 0.01)"/><path class="cls-6" d="M-258.54,278.73a49.63,49.63,0,0,1,48.92-41.61" transform="translate(354.47 0.01)"/><path class="cls-6" d="M-268.44,286.84a9.89,9.89,0,0,0,9.9-8.11" transform="translate(354.47 0.01)"/><path class="cls-6" d="M-342.6,286.84h74.16" transform="translate(354.47 0.01)"/><path class="cls-6" d="M-354,271.65a11.88,11.88,0,0,0,11.39,15.19" transform="translate(354.47 0.01)"/><path class="cls-6" d="M-348.52,252.78-354,271.65" transform="translate(354.47 0.01)"/><path class="cls-6" d="M-345.64,242.9l-2.88,9.88" transform="translate(354.47 0.01)"/><path class="cls-6" d="M-339.35,229.69a45.44,45.44,0,0,0-6.29,13.21" transform="translate(354.47 0.01)"/><path class="cls-6" d="M-315.47,212a45.51,45.51,0,0,0-23.88,17.74" transform="translate(354.47 0.01)"/><line class="cls-6" x1="200.59" y1="180.35" x2="169.2" y2="186.43"/><path class="cls-6" d="M-69.41,172.54h-42.51a22.25,22.25,0,0,0-3.39.32l-38.57,7.48" transform="translate(354.47 0.01)"/><path class="cls-6" d="M363.49,172.54H-.33c-.38,7.15-.93,14.3-1.34,21.45q8.32,22.48,16.18,45.14c6,17.37,17.08,32.13,26.54,47.71H224.86a9.91,9.91,0,0,0,9.9-8.11,49.59,49.59,0,0,1,97.89,0,9.89,9.89,0,0,0,9.9,8.11H384.4a12.46,12.46,0,0,0,12.27-10.3l4.27-23.76,4.16-23.09,1-5.93A43.47,43.47,0,0,0,363.49,172.54Z" transform="translate(354.47 0.01)"/><path class="cls-6" d="M-26.2,251.77q-.63-4.11-1.14-8.23c-.28,1-.59,2-.91,3Q-27.27,249.16-26.2,251.77Z" transform="translate(354.47 0.01)"/><path class="cls-6" d="M-44.81,220.2c-.15-1.43-.27-2.87-.35-4.31-.16-2.67,1.83-4.34,4.07-4.77.54-7.74,1.32-15.48,2-23.2.46-5.08.93-10.22,1.28-15.38h-8.6c-1.34,15.34-.95,31.08-2,46.58A5.66,5.66,0,0,1-44.81,220.2Z" transform="translate(354.47 0.01)"/><path class="cls-10" d="M-57.42,192.87h-4a174.42,174.42,0,0,0,2,37C-57.77,217.68-57.68,205.25-57.42,192.87Z" transform="translate(354.47 0.01)"/><path class="cls-10" d="M-43.88,226.93c-4.36,14.72-2.49,31.07,2.46,45.86,1.77-12.15,1.05-24.72-.58-37Q-43.11,231.37-43.88,226.93Z" transform="translate(354.47 0.01)"/><path class="cls-10" d="M381.1,213.63a21,21,0,0,0-20.94-20.57l-361.77-.17L-1.67,194q8.32,22.47,16.18,45.13c6,17.38,17.09,32.15,26.55,47.73h183.8a9.91,9.91,0,0,0,9.9-8.1,49.59,49.59,0,0,1,97.89,0,9.89,9.89,0,0,0,9.9,8.1h39.89Z" transform="translate(354.47 0.01)"/><path class="cls-10" d="M-26.2,251.77q-.63-4.11-1.14-8.23c-.28,1-.59,2-.91,3Q-27.27,249.16-26.2,251.77Z" transform="translate(354.47 0.01)"/><path class="cls-10" d="M-44.81,220.2c-.15-1.43-.27-2.87-.35-4.31-.16-2.67,1.83-4.33,4.07-4.77.42-6.09,1-12.17,1.57-18.25h-7.89c-.24,8.75-.37,17.54-1,26.25A5.66,5.66,0,0,1-44.81,220.2Z" transform="translate(354.47 0.01)"/><path class="cls-7" d="M311.21,19.92a25.42,25.42,0,0,0-8.61-17.8C294-5.41,301,9.15,302.4,13c0,0-3.78-5.66-5-5.22-2.61.95,4.4,11.27,7.16,12.62Z" transform="translate(354.47 0.01)"/><path class="cls-10" d="M325.71,286.86A42.06,42.06,0,1,0,283.65,329,42.11,42.11,0,0,0,325.71,286.86Z" transform="translate(354.47 0.01)"/><path class="cls-11" d="M304.89,286.86a21.24,21.24,0,1,0-21.24,21.29A21.25,21.25,0,0,0,304.89,286.86Z" transform="translate(354.47 0.01)"/><path class="cls-9" d="M404.2,234.65l-2.63,14.69a4.2,4.2,0,0,1-4.13,3.46h-24a8.25,8.25,0,0,1-7.22-12.17l3.61-6.63a8.21,8.21,0,0,1,7.21-4.29h23A4.18,4.18,0,0,1,404.2,234.65Z" transform="translate(354.47 0.01)"/><path class="cls-11" d="M394.63,288.43H339.31a10.65,10.65,0,0,1,0-21.29h55.32a10.65,10.65,0,0,1,0,21.29Z" transform="translate(354.47 0.01)"/></g></g></g></g></svg>