<svg width="515" height="574" viewBox="0 0 515 574" fill="none" xmlns="http://www.w3.org/2000/svg">
<circle cx="310" cy="287" r="287" fill="#FFF8F2"/>
<g clip-path="url(#clip0)">
<path d="M658.865 393.432C656.772 382.474 631.519 366.647 623.957 362.522C597.016 347.912 566.835 340.607 537.666 331.882C534.425 330.935 531.184 329.921 527.808 328.906C519.3 326.404 510.523 323.833 501.677 321.601C484.122 317.07 466.094 313.485 449.011 312.741C446.648 312.673 444.217 312.606 441.854 312.606C440.234 312.538 438.613 312.538 437.06 312.538C390.134 312.673 343.004 311.997 296.01 312.741C248.678 313.553 200.063 318.761 157.255 340.269C147.735 345.071 132.88 350.956 122.077 350.888C119.781 350.888 117.418 350.482 115.123 350.347C111.747 350.212 108.371 350.685 104.994 351.294C95.6767 352.917 58.3378 358.396 58.2028 371.788C58.1352 375.17 60.566 377.605 63.4019 379.093C63.942 379.363 64.5497 379.701 65.1574 379.904C64.9548 379.972 64.7523 380.04 64.5497 380.107C61.7138 381.122 58.8105 382.069 55.9071 382.948C55.1643 383.218 54.3541 383.421 53.5439 383.692C44.2935 386.668 35.0432 389.982 26.1305 393.973C19.9186 396.813 13.8418 399.925 8.10256 403.645C4.05133 406.283 -0.202464 409.935 -0.0674234 414.737C9.71183e-05 417.713 1.95819 420.351 4.32141 422.11C6.75215 423.868 9.65553 424.747 12.5589 425.491C40.985 432.729 75.353 430.564 104.387 428.467C119.917 427.385 134.771 424.274 150.301 427.115C150.436 427.115 150.571 427.182 150.706 427.182C150.436 427.453 150.098 427.656 149.761 427.926C144.021 432.526 133.353 441.792 145.439 446.121C148.073 447.068 150.976 447 153.812 446.865C196.08 444.971 239.158 431.985 279.13 419.066C280.75 418.525 282.438 417.984 284.059 417.443C285.342 417.037 286.625 416.563 287.975 416.09C290.338 415.278 292.769 414.399 295.132 413.52C296.348 413.046 297.563 412.64 298.778 412.167C301.142 411.288 303.505 410.408 305.8 409.529C306.138 409.394 306.543 409.259 306.881 409.123C324.166 402.563 341.586 396.002 359.344 392.688C365.219 391.605 371.295 390.794 377.305 390.253C377.777 390.185 378.25 390.185 378.655 390.117C433.617 385.924 486.148 394.852 540.164 402.833C569.333 407.162 597.962 407.568 626.995 405.403C631.654 405.065 636.381 404.659 641.04 404.186C646.982 403.712 660.486 402.021 658.865 393.432Z" fill="#498254"/>
<path d="M501.677 321.669C501.61 322.819 501.61 323.901 501.745 324.848C502.082 328.027 504.108 329.244 506.606 330.732C508.024 331.612 509.577 332.761 511.198 333.302C511.265 333.573 511.468 333.708 511.805 333.708C515.384 333.505 518.963 332.085 522.406 331.138C524.364 330.597 526.12 329.921 527.808 328.974C519.3 326.471 510.522 323.901 501.677 321.669Z" fill="#315940"/>
<path d="M352.254 328.838C360.559 326.133 398.101 322.21 395.062 319.166C393.577 317.678 338.21 318.625 336.252 318.152C332.944 317.273 329.432 316.867 326.056 317.002C319.845 317.205 312.89 317.881 307.218 320.384C302.357 322.548 296.753 325.998 295.942 331.747C295.605 334.249 296.28 336.346 297.428 338.443C298.913 341.216 299.318 344.463 301.209 347.033C303.505 350.144 306.948 352.917 309.852 355.42C311.675 356.908 312.957 357.99 313.835 360.29C314.443 361.913 314.916 363.536 315.658 365.159C316.941 368.135 318.764 371.653 320.992 374.02C322.815 375.914 324.571 376.59 326.597 378.01C326.664 378.349 328.487 378.552 328.487 378.552C328.487 378.552 335.509 373.141 336.927 369.353C339.29 363.063 339.223 357.314 337.265 351.023C336.185 347.709 335.374 344.124 337.062 340.81C338.683 337.631 343.949 331.544 352.254 328.838Z" fill="#315939"/>
<path d="M410.93 151.765L402.152 154.606L402.355 151.224L410.93 151.765Z" fill="#282E2D"/>
<path d="M315.591 186.598L331.863 190.589L344.624 186.598H315.591Z" fill="white"/>
<path d="M331.863 190.589L333.079 194.309L344.625 203.169V186.598L331.863 190.589Z" fill="#F1F4F5"/>
<path d="M331.863 190.589L333.078 194.309L315.591 203.169V186.598L331.863 190.589Z" fill="#E6EBED"/>
<path d="M333.078 194.309L315.591 203.169H344.624L333.078 194.309Z" fill="#D7DDDE"/>
<path d="M373.591 186.598L389.863 190.589L402.625 186.598H373.591Z" fill="white"/>
<path d="M389.863 190.589L391.079 194.309L402.625 203.169V186.598L389.863 190.589Z" fill="#F1F4F5"/>
<path d="M389.863 190.589L391.079 194.309L373.591 203.169V186.598L389.863 190.589Z" fill="#E6EBED"/>
<path d="M391.079 194.309L373.591 203.169H402.625L391.079 194.309Z" fill="#D7DDDE"/>
<path d="M344.625 186.598L353.132 191.874L361.235 191.265L373.591 186.598H344.625Z" fill="white"/>
<path d="M361.235 191.265L373.591 203.169V186.598L361.235 191.265Z" fill="#F1F4F5"/>
<path d="M353.132 191.874L344.625 203.169V186.598L353.132 191.874Z" fill="#E6EBED"/>
<path d="M361.235 191.265L353.132 191.874L344.625 203.169H373.591L361.235 191.265Z" fill="#D7DDDE"/>
<path d="M373.658 153.389L389.863 156.432L402.625 153.389H373.658Z" fill="white"/>
<path d="M389.863 156.432L391.079 160.22L402.625 170.027V153.389L389.863 156.432Z" fill="#F1F4F5"/>
<path d="M389.863 156.432L391.079 160.22L373.658 170.027V153.389L389.863 156.432Z" fill="#E6EBED"/>
<path d="M391.079 160.22L373.658 170.027H402.625L391.079 160.22Z" fill="#D7DDDE"/>
<path d="M315.591 153.389L331.863 156.432L344.624 153.389H315.591Z" fill="white"/>
<path d="M331.863 156.432L333.079 160.22L344.625 170.027V153.389L331.863 156.432Z" fill="#F1F4F5"/>
<path d="M331.863 156.432L333.078 160.22L315.591 170.027V153.389L331.863 156.432Z" fill="#E6EBED"/>
<path d="M333.078 160.22L315.591 170.027H344.624L333.078 160.22Z" fill="#D7DDDE"/>
<path d="M344.625 153.389L353.2 157.785L361.235 157.176L373.658 153.389H344.625Z" fill="white"/>
<path d="M361.235 157.176L373.658 170.027V153.389L361.235 157.176Z" fill="#F1F4F5"/>
<path d="M353.2 157.785L344.625 170.027V153.389L353.2 157.785Z" fill="#E6EBED"/>
<path d="M361.235 157.176L353.2 157.785L344.625 170.027H373.658L361.235 157.176Z" fill="#D7DDDE"/>
<path d="M373.591 219.808L390.268 225.625L402.625 219.808H373.591Z" fill="white"/>
<path d="M390.268 225.625L391.484 229.412L402.625 236.379V219.808L390.268 225.625Z" fill="#F1F4F5"/>
<path d="M390.268 225.625L391.484 229.412L373.591 236.379V219.808L390.268 225.625Z" fill="#E6EBED"/>
<path d="M391.484 229.412L373.591 236.379H402.625L391.484 229.412Z" fill="#D7DDDE"/>
<path d="M315.591 219.808L332.268 225.625L344.624 219.808H315.591Z" fill="white"/>
<path d="M332.268 225.625L333.416 229.412L344.625 236.379V219.808L332.268 225.625Z" fill="#F1F4F5"/>
<path d="M333.416 229.412L329.838 230.833L315.591 236.379V219.808L332.268 225.625L333.416 229.412Z" fill="#E6EBED"/>
<path d="M333.416 229.412L315.591 236.379H344.624L333.416 229.412Z" fill="#D7DDDE"/>
<path d="M344.625 219.808L353.537 226.977L361.64 226.301L373.591 219.808H344.625Z" fill="white"/>
<path d="M361.64 226.301L373.591 236.379V219.808L361.64 226.301Z" fill="#F1F4F5"/>
<path d="M353.537 226.977L344.625 236.379V219.808L353.537 226.977Z" fill="#E6EBED"/>
<path d="M361.64 226.301L353.537 226.977L344.625 236.379H373.591L361.64 226.301Z" fill="#D7DDDE"/>
<path d="M373.591 252.95L390.268 260.728L402.625 252.95H373.591Z" fill="white"/>
<path d="M390.268 260.728L391.484 264.516L402.625 269.589V252.95L390.268 260.728Z" fill="#F1F4F5"/>
<path d="M390.268 260.728L391.484 264.516L373.591 269.589V252.95L390.268 260.728Z" fill="#E6EBED"/>
<path d="M391.484 264.516L373.591 269.589H402.625L391.484 264.516Z" fill="#D7DDDE"/>
<path d="M344.624 252.95L337.332 257.482L332.268 260.728L315.591 252.95H344.624Z" fill="white"/>
<path d="M332.268 260.728L333.416 264.516L344.625 269.589V252.95L332.268 260.728Z" fill="#F1F4F5"/>
<path d="M333.416 264.516L315.591 269.589V252.95L332.268 260.728L333.416 264.516Z" fill="#E6EBED"/>
<path d="M333.416 264.516L315.591 269.589H344.624L333.416 264.516Z" fill="#D7DDDE"/>
<path d="M344.625 252.95L353.537 262.081L361.64 261.405L373.591 252.95H344.625Z" fill="white"/>
<path d="M361.64 261.405L373.591 269.589V252.95L361.64 261.405Z" fill="#F1F4F5"/>
<path d="M353.537 262.081L344.625 269.589V252.95L353.537 262.081Z" fill="#E6EBED"/>
<path d="M361.64 261.405L353.537 262.081L344.625 269.589H373.591L361.64 261.405Z" fill="#D7DDDE"/>
<path d="M373.658 286.16L390.268 295.223L402.625 286.16H373.658Z" fill="white"/>
<path d="M402.625 286.092V302.731L402.422 302.663L391.484 299.011L390.268 295.223L402.625 286.16V286.092Z" fill="#F1F4F5"/>
<path d="M390.268 295.223L391.484 299.011L373.658 302.731V286.16L390.268 295.223Z" fill="#E6EBED"/>
<path d="M391.484 299.011L373.658 302.731H402.625L391.484 299.011Z" fill="#D7DDDE"/>
<path d="M344.624 286.227L339.425 290.083L332.268 295.291L315.591 286.227H344.624Z" fill="white"/>
<path d="M332.268 295.358L333.484 299.078L344.625 302.798V286.227L332.268 295.358Z" fill="#F1F4F5"/>
<path d="M333.484 299.078L316.536 302.663L315.591 302.798V286.227L332.268 295.291L333.484 299.078Z" fill="#E6EBED"/>
<path d="M333.484 299.078L315.591 302.798H344.624L333.484 299.078Z" fill="#D7DDDE"/>
<path d="M344.625 286.16L353.605 296.576L361.64 295.899L373.658 286.16H344.625Z" fill="white"/>
<path d="M361.64 295.899L373.658 302.731V286.16L361.64 295.899Z" fill="#F1F4F5"/>
<path d="M353.605 296.576L344.625 302.731V286.16L353.605 296.576Z" fill="#E6EBED"/>
<path d="M361.64 295.899L353.605 296.576L344.625 302.731H373.658L361.64 295.899Z" fill="#D7DDDE"/>
<path d="M330.108 170.027L335.712 173.95L353.132 175.912L359.141 170.027H330.108Z" fill="white"/>
<path d="M330.108 170.027L335.712 173.95L330.108 186.598V170.027Z" fill="#E6EBED"/>
<path d="M353.132 175.912L359.141 170.027V186.598L353.132 175.912Z" fill="#F1F4F5"/>
<path d="M335.712 173.95L353.132 175.912L359.141 186.598H330.108L335.712 173.95Z" fill="#D7DDDE"/>
<path d="M330.108 170.027L315.591 171.853V170.027H330.108Z" fill="white"/>
<path d="M330.108 170.027V186.598L315.591 178.482V171.853L330.108 170.027Z" fill="#F1F4F5"/>
<path d="M330.108 186.598H315.591V178.482L330.108 186.598Z" fill="#D7DDDE"/>
<path d="M402.625 170.027V174.965L393.712 173.95L388.108 170.027H402.625Z" fill="white"/>
<path d="M388.108 170.027L393.712 173.95L388.108 186.598V170.027Z" fill="#E6EBED"/>
<path d="M402.625 174.965V186.598H388.108L393.712 173.95L402.625 174.965Z" fill="#D7DDDE"/>
<path d="M359.141 170.027L369.81 172.327L388.108 170.027H359.141Z" fill="white"/>
<path d="M359.141 170.027L369.81 172.327L368.999 175.912L359.141 186.598V170.027Z" fill="#E6EBED"/>
<path d="M369.81 172.327L388.108 170.027V186.598L368.999 175.912L369.81 172.327Z" fill="#F1F4F5"/>
<path d="M359.141 186.598L368.999 175.912L388.108 186.598H359.141Z" fill="#D7DDDE"/>
<path d="M402.625 203.169V210.947L393.104 209.865L388.108 203.169H402.625Z" fill="white"/>
<path d="M388.108 203.169L393.104 209.865L388.108 219.808V203.169Z" fill="#E6EBED"/>
<path d="M402.625 210.947V219.808H388.108L393.104 209.865L402.625 210.947Z" fill="#D7DDDE"/>
<path d="M359.141 203.169L369.135 208.31L388.108 203.169H359.141Z" fill="white"/>
<path d="M359.141 203.169L369.135 208.31L368.392 211.827L359.141 219.808V203.169Z" fill="#E6EBED"/>
<path d="M369.134 208.31L388.108 203.169V219.808L368.392 211.827L369.134 208.31Z" fill="#F1F4F5"/>
<path d="M359.141 219.808L368.392 211.827L388.108 219.808H359.141Z" fill="#D7DDDE"/>
<path d="M402.625 236.379V245.983L392.834 244.833L388.108 236.379H402.625Z" fill="white"/>
<path d="M388.108 236.379L392.834 244.834L388.108 252.95V236.379Z" fill="#E6EBED"/>
<path d="M402.625 245.983V252.95H388.108L392.834 244.833L402.625 245.983Z" fill="#D7DDDE"/>
<path d="M359.141 236.379L368.864 243.278L388.108 236.379H359.141Z" fill="white"/>
<path d="M359.141 236.379L368.864 243.278L368.122 246.863L359.141 252.95V236.379Z" fill="#E6EBED"/>
<path d="M368.864 243.278L388.108 236.379V252.95L368.122 246.863L368.864 243.278Z" fill="#F1F4F5"/>
<path d="M359.141 252.95L368.122 246.863L388.108 252.95H359.141Z" fill="#D7DDDE"/>
<path d="M402.625 269.589V280.546L392.834 279.464L388.108 269.589H402.625Z" fill="white"/>
<path d="M388.108 269.589L392.834 279.464L388.108 286.16V269.589Z" fill="#E6EBED"/>
<path d="M402.625 280.546V286.16H388.108L392.834 279.464L402.625 280.546Z" fill="#D7DDDE"/>
<path d="M359.141 269.589L368.864 277.84L388.108 269.589H359.141Z" fill="white"/>
<path d="M359.141 269.589L368.864 277.84L368.122 281.425L359.141 286.16V269.589Z" fill="#E6EBED"/>
<path d="M368.864 277.84L388.108 269.589V286.16L368.122 281.425L368.864 277.84Z" fill="#F1F4F5"/>
<path d="M359.141 286.16L368.122 281.425L388.108 286.16H359.141Z" fill="#D7DDDE"/>
<path d="M402.625 302.663V315.514L392.227 314.297L387.568 302.731L387.5 302.663H402.625Z" fill="white"/>
<path d="M387.5 302.663L392.227 314.297L387.5 319.234V302.663Z" fill="#E6EBED"/>
<path d="M402.625 315.514V319.234H387.5L392.227 314.297L402.625 315.514Z" fill="#D7DDDE"/>
<path d="M358.534 302.663L368.257 312.741L387.5 302.663H358.534Z" fill="white"/>
<path d="M358.534 302.663L368.257 312.741L367.514 316.326L358.534 319.234V302.663Z" fill="#E6EBED"/>
<path d="M368.257 312.741L387.5 302.663V319.234L367.514 316.326L368.257 312.741Z" fill="#F1F4F5"/>
<path d="M358.534 319.234L367.514 316.326L387.5 319.234H358.534Z" fill="#D7DDDE"/>
<path d="M329.5 302.663L334.226 314.297L351.647 316.326L358.534 302.663H329.5Z" fill="white"/>
<path d="M329.5 302.663L334.226 314.297L329.5 319.234V302.663Z" fill="#E6EBED"/>
<path d="M351.647 316.326L358.534 302.663V319.234L351.647 316.326Z" fill="#F1F4F5"/>
<path d="M358.534 319.234H329.5L334.226 314.297L338.885 314.838L351.647 316.326L358.534 319.234Z" fill="#D7DDDE"/>
<path d="M329.5 302.663L329.162 302.798L315.591 309.9V302.663H329.5Z" fill="white"/>
<path d="M329.5 302.663V319.234L315.591 317.205V309.9L329.162 302.798L329.5 302.663Z" fill="#F1F4F5"/>
<path d="M329.5 319.234H315.591V317.205L329.5 319.234Z" fill="#D7DDDE"/>
<path d="M330.108 269.589L334.834 279.464L352.254 281.425L359.141 269.589H330.108Z" fill="white"/>
<path d="M330.108 269.589L334.834 279.464L330.108 286.16V269.589Z" fill="#E6EBED"/>
<path d="M352.254 281.425L359.141 269.589V286.16L352.254 281.425Z" fill="#F1F4F5"/>
<path d="M359.141 286.16H330.108L334.834 279.464L341.249 280.208L352.254 281.425L359.074 286.092L359.141 286.16Z" fill="#D7DDDE"/>
<path d="M330.108 269.589L315.591 275.811V269.589H330.108Z" fill="white"/>
<path d="M330.108 269.589V286.16L315.591 282.71V275.811L330.108 269.589Z" fill="#F1F4F5"/>
<path d="M330.108 286.16H315.591V282.71L330.108 286.16Z" fill="#D7DDDE"/>
<path d="M330.108 236.379L334.834 244.833L352.254 246.863L359.141 236.379H330.108Z" fill="white"/>
<path d="M334.834 244.834L330.108 252.95V236.379L334.834 244.834Z" fill="#E6EBED"/>
<path d="M352.254 246.863L359.141 236.379V252.95L352.254 246.863Z" fill="#F1F4F5"/>
<path d="M359.141 252.95H330.108L334.834 244.833L337.94 245.172L352.322 246.795L359.141 252.95Z" fill="#D7DDDE"/>
<path d="M330.108 236.379L315.591 241.587V236.379H330.108Z" fill="white"/>
<path d="M330.108 236.379V252.95L315.591 248.554V241.587L330.108 236.379Z" fill="#F1F4F5"/>
<path d="M330.108 252.95H315.591V248.554L330.108 252.95Z" fill="#D7DDDE"/>
<path d="M330.108 203.169L335.104 209.865L352.524 211.827L359.141 203.169H330.108Z" fill="white"/>
<path d="M330.108 203.169L335.104 209.865L330.108 219.808V203.169Z" fill="#E6EBED"/>
<path d="M352.524 211.827L359.141 203.169V219.808L352.524 211.827Z" fill="#F1F4F5"/>
<path d="M335.104 209.865L352.524 211.827L359.141 219.808H330.108L335.104 209.865Z" fill="#D7DDDE"/>
<path d="M330.108 203.169L315.591 207.092V203.169H330.108Z" fill="white"/>
<path d="M330.108 203.169V219.808L315.591 213.923V207.092L330.108 203.169Z" fill="#F1F4F5"/>
<path d="M330.108 219.808H315.591V213.923L330.108 219.808Z" fill="#D7DDDE"/>
<path d="M410.93 151.765L402.625 153.389H334.159V151.224L410.93 151.765Z" fill="#282E2D"/>
<path d="M411.065 151.765C410.997 151.765 410.997 151.833 410.93 151.833C410.727 151.9 410.389 151.833 410.187 151.833C390.674 151.765 371.093 151.833 351.579 151.833C346.853 151.833 339.898 151.833 335.172 151.9C333.281 151.968 335.509 151.495 335.442 150.683C336.049 150.615 336.725 150.683 337.332 150.683C357.453 150.683 377.642 150.683 397.763 150.683C397.898 150.683 397.966 150.683 398.101 150.683C401.612 150.683 405.19 150.683 408.701 150.683C409.444 150.683 410.322 150.615 410.997 150.751C411.267 150.751 411.402 151.495 411.065 151.765Z" fill="#4F5958"/>
<path opacity="0.2" d="M373.591 252.95H371.565L373.591 248.486L372.173 242.06L367.379 236.379L368.324 231.982L365.151 224.34L360.83 219.74L362.045 217.238L359.074 214.194L356.711 206.28L350.161 203.034L353.2 191.806L347.123 186.463L351.309 175.573L346.988 169.824L347.528 165.698L344.625 162.722L343.679 153.659L342.059 152.374L315.523 150.345V194.782V257.143H315.591V288.121H315.523V319.234H368.797H383.787L387.365 317.814L383.787 313.079L378.317 300.837L376.629 263.907L373.523 258.699L373.591 252.95Z" fill="#656E7D"/>
<path d="M533.749 254.776C533.547 249.703 532.804 241.384 532.399 236.447C532.196 233.606 530.779 235.567 528.145 234.891C525.579 234.282 523.284 233.471 521.528 236.582C519.84 239.625 520.38 243.684 520.65 247.066C520.988 251.597 520.988 256.196 520.921 260.728C520.921 263.163 520.785 265.598 520.718 268.033C520.718 268.506 520.65 268.98 520.65 269.453C520.313 275.338 519.773 281.222 518.962 287.039C518.017 293.87 516.734 300.634 515.046 307.262C514.304 310.374 513.358 313.485 512.751 316.596C512.143 319.572 511.4 322.548 509.847 324.983C509.037 326.268 510.117 328.433 511.4 328.297C513.628 328.027 516.329 329.244 518.422 327.892C522.271 325.321 524.769 320.113 526.457 315.379C530.508 303.88 532.129 291.029 533.007 278.449C533.142 276.42 533.277 274.458 533.412 272.497C533.479 271.618 533.479 270.806 533.547 269.994C533.749 264.854 533.952 259.781 533.749 254.776Z" fill="#A6795A"/>
<path d="M532.872 278.381C531.184 279.869 529.496 281.628 528.348 283.725C527.605 285.077 526.93 288.324 526.052 291.029C526.12 290.759 526.12 290.421 526.187 290.15C526.457 287.851 526.457 285.348 526.457 283.048C526.457 280.546 526.322 278.043 525.242 275.811C524.162 273.512 522.271 272.159 521.056 270.062C520.988 269.792 520.853 269.453 520.583 269.386C520.245 275.27 519.705 281.154 518.895 286.971C517.95 293.803 516.667 300.566 514.979 307.195C514.236 310.306 513.291 313.417 512.683 316.529C512.075 319.505 511.333 322.481 509.78 324.915C508.969 326.201 510.05 328.365 511.333 328.23C513.561 327.959 516.262 329.177 518.355 327.824C522.203 325.254 524.702 320.046 526.39 315.311C530.373 303.813 531.994 290.962 532.872 278.381C532.939 278.381 532.872 278.381 532.872 278.381Z" fill="#825C41"/>
<path d="M550.359 277.57C547.996 278.652 545.633 280.478 543.54 282.169C535.572 288.459 529.023 297.049 525.039 307.668C524.026 310.306 523.081 313.079 521.933 315.717C521.056 317.678 520.178 319.64 519.097 321.398C517.815 323.427 516.397 325.862 514.709 327.486C513.223 328.838 511.603 329.447 509.847 330.056C509.374 330.191 509.239 329.38 509.645 329.177C510.995 328.703 512.278 328.23 513.493 327.283C514.641 326.403 515.451 325.118 516.397 323.901C518.085 321.601 519.368 319.166 520.65 316.529C520.92 315.987 521.123 315.514 521.326 314.973C523.081 310.847 524.364 306.383 526.39 302.392C528.753 297.658 531.521 293.261 534.897 289.541C538.138 285.889 541.312 282.575 545.228 279.937C546.713 278.922 548.199 277.773 549.819 276.961C550.022 277.096 550.224 277.299 550.359 277.57Z" fill="#23402E"/>
<path d="M525.444 217.17C524.837 212.841 524.297 208.648 523.351 204.522C523.149 203.507 522.879 202.425 522.541 201.411C520.245 193.294 518.692 184.704 516.059 176.723C513.561 169.216 510.387 162.181 507.146 155.147C504.378 149.06 500.664 141.62 495.87 137.697C494.925 136.953 493.575 135.871 492.292 135.6C491.954 135.532 491.549 135.465 491.212 135.532C490.604 135.668 490.131 136.006 489.659 136.682C488.308 138.847 489.591 143.108 490.266 145.137C492.697 152.374 494.993 159.611 497.491 166.781C498.031 168.404 498.571 170.095 499.044 171.786C500.934 178.685 502.217 185.854 504.378 192.686C505.728 196.947 507.687 200.802 508.564 205.266C509.307 209.189 510.05 213.112 511.333 216.764C512.413 219.74 514.101 222.919 515.654 225.557C517.274 228.262 518.557 231.509 520.515 233.944C521.866 235.567 524.702 237.529 526.525 235.567C526.66 235.432 526.727 235.297 526.862 235.161C527.065 234.823 527.2 234.485 527.267 234.079C527.335 234.012 527.335 233.876 527.402 233.741C527.47 233.471 527.538 233.132 527.538 232.794C527.2 227.518 526.12 222.378 525.444 217.17Z" fill="#49825E"/>
<path d="M525.444 217.17C524.837 212.841 524.297 208.648 523.351 204.522C522.744 203.575 522.203 202.628 521.528 201.614C519.57 198.57 517.815 196 515.586 193.294C513.628 190.859 511.468 188.695 509.442 186.328C507.552 184.096 505.863 181.39 504.243 178.82C502.69 176.385 500.799 174.221 499.111 171.853C501.002 178.752 502.285 185.922 504.446 192.753C505.796 197.014 507.754 200.87 508.632 205.334C509.375 209.257 510.117 213.179 511.4 216.832C512.481 219.808 514.169 222.987 515.721 225.625C517.342 228.33 518.625 231.577 520.583 234.012C521.933 235.635 524.769 237.596 526.592 235.635C526.727 235.5 526.795 235.364 526.93 235.229C527.132 234.891 527.267 234.553 527.335 234.147C527.403 234.079 527.403 233.944 527.47 233.809C527.538 233.538 527.605 233.2 527.605 232.862C527.2 227.518 526.12 222.378 525.444 217.17Z" fill="#315940"/>
<path d="M524.837 231.577C524.837 230.833 524.769 230.089 524.702 229.412C524.634 228.398 524.499 227.451 524.499 226.91C523.486 215.75 518.152 206.416 512.683 197.894C509.24 192.55 505.593 189.507 500.664 186.463C497.018 184.231 493.507 183.893 489.659 183.149C489.186 183.081 488.781 183.216 488.443 183.419C487.498 183.622 486.688 184.096 486.148 184.84C485.945 185.11 485.81 185.381 485.675 185.651C485 187.139 484.932 189.236 485.675 191.265C486.755 194.241 488.781 196.338 490.401 198.773C492.089 201.411 493.642 203.846 495.6 206.213C495.938 206.619 496.343 207.092 496.681 207.498C496.748 207.566 496.748 207.566 496.816 207.633C497.086 207.971 497.356 208.242 497.626 208.58C500.327 211.759 503.163 215.073 505.458 218.59C508.294 222.987 511.333 227.316 514.371 231.577C515.992 233.876 519.368 240.099 522.541 239.152C524.364 238.611 524.837 235.905 524.904 233.065C524.837 232.591 524.837 232.05 524.837 231.577Z" fill="#49825E"/>
<path d="M521.123 276.352C520.785 273.647 520.043 270.603 518.085 269.724C517.882 269.656 517.68 269.589 517.545 269.521C517.207 269.453 517.004 269.521 516.869 269.724C516.667 269.927 516.532 270.333 516.397 270.806C516.397 270.806 516.397 270.806 516.397 270.874C515.316 273.917 515.046 277.773 514.709 281.222C514.236 286.024 513.966 290.556 514.776 295.561C515.114 297.726 515.789 301.107 517.274 302.257C517.342 302.325 517.477 302.392 517.545 302.46C517.68 302.528 517.882 302.595 518.017 302.595C519.368 302.798 520.178 300.093 520.515 298.334C521.798 291.706 521.933 283.522 521.123 276.352Z" fill="#315940"/>
<path d="M519.03 285.145C519.03 289.947 518.22 294.682 518.085 299.484C518.085 300.499 518.017 301.581 517.95 302.595C517.882 303.813 517.747 305.098 517.612 306.315C517.274 308.683 516.667 310.982 516.329 313.35C515.586 318.49 513.291 323.225 512.953 328.5C512.886 329.041 512.21 329.041 512.21 328.5C512.48 323.63 514.439 319.099 515.384 314.432C516.194 310.441 516.869 306.383 517.139 302.257C517.207 301.31 517.274 300.431 517.274 299.484C517.409 294.682 518.22 289.947 518.22 285.145C518.22 279.937 517.207 274.932 516.734 269.724C516.869 269.589 517.139 269.521 517.41 269.521C517.95 274.797 519.03 279.869 519.03 285.145Z" fill="#23402E"/>
<path d="M524.837 231.577C524.837 230.833 524.769 230.089 524.702 229.412C523.351 227.316 521.528 225.895 519.773 224.272C516.127 220.89 512.143 219.808 508.159 217.373C504.175 214.938 500.799 212.3 497.626 208.648C500.327 211.827 503.163 215.141 505.458 218.658C508.294 223.054 511.333 227.383 514.371 231.644C515.992 233.944 519.368 240.167 522.541 239.22C524.364 238.679 524.837 235.973 524.904 233.132C524.837 232.591 524.837 232.05 524.837 231.577Z" fill="#315940"/>
<path d="M527.47 233.809C527.403 233.944 527.403 234.012 527.335 234.147C527.268 234.485 527.132 234.891 526.93 235.229C526.39 232.997 525.782 229.209 525.512 227.721C525.174 225.895 524.634 224.069 524.229 222.243C523.419 218.59 522.136 215.073 521.258 211.421C519.57 204.049 518.827 196.541 516.464 189.439C515.451 186.395 514.439 183.419 513.561 180.24C512.616 176.723 511.333 173.341 509.847 170.163C508.429 167.119 506.809 164.143 505.526 161.032C504.378 158.191 503.095 155.282 501.745 152.577C500.057 149.33 498.571 145.881 496.478 143.04C495.465 141.62 494.453 140.335 493.44 138.847C492.967 138.103 492.089 136.276 491.212 135.465C491.549 135.397 491.887 135.397 492.292 135.532C492.292 135.6 492.359 135.6 492.359 135.668C493.372 137.223 494.25 138.914 495.33 140.402C496.411 141.89 497.694 143.175 498.639 144.799C499.652 146.49 500.327 148.519 501.272 150.277C504.513 156.297 507.146 162.79 510.117 169.013C512.953 175.1 514.506 181.728 516.802 188.154C519.435 195.729 520.11 203.778 522.068 211.624C522.879 215.006 524.027 218.32 524.837 221.634C525.309 223.46 525.715 225.287 526.12 227.113C526.457 228.668 527.335 233.065 527.47 233.809Z" fill="#23402E"/>
<path d="M524.836 233.065C524.431 231.915 523.621 230.697 523.283 229.683C522.743 228.127 522.27 226.572 521.73 224.948C520.785 222.04 519.367 219.537 517.882 217.035C516.531 214.668 515.046 212.436 513.695 210.068C513.02 208.783 512.48 207.43 511.737 206.213C510.927 204.86 509.982 203.643 509.171 202.358C507.551 199.652 505.053 197.555 502.892 195.526C500.866 193.633 498.773 191.874 496.68 190.115C495.735 189.371 494.79 188.424 493.777 187.883C492.764 187.342 491.684 187.207 490.603 186.869C488.848 186.395 487.227 185.922 485.539 185.651C485.674 185.313 485.809 185.043 486.012 184.84C487.43 185.043 488.848 185.448 490.266 185.922C491.481 186.328 492.764 186.463 493.979 187.072C494.992 187.545 495.802 188.424 496.68 189.168C498.773 190.859 500.866 192.55 502.824 194.377C504.985 196.406 507.416 198.435 509.171 201.005C510.994 203.643 512.48 206.416 514.033 209.257C515.451 211.962 517.206 214.397 518.692 217.035C520.11 219.537 521.393 221.905 522.338 224.745C523.013 226.91 523.621 229.209 524.566 231.239C524.634 231.374 524.634 231.441 524.701 231.577C524.836 232.05 524.836 232.591 524.836 233.065Z" fill="#23402E"/>
<path d="M316.131 237.326V345.071H262.722V343.042H201.954V345.071H95.4065V237.326H316.131Z" fill="#4F5958"/>
<path d="M95.4065 237.326V248.824C100.403 249.23 105.67 248.959 110.869 249.027C116.203 249.095 121.469 249.568 126.263 251.733C126.601 251.868 126.939 252.003 127.276 252.206C137.404 256.467 148.343 257.414 159.078 259.511C164.21 260.525 168.936 262.013 173.865 263.501C178.794 264.989 183.521 266.883 188.652 267.83C191.286 268.304 194.054 268.439 196.687 269.115C198.443 269.521 200.131 269.994 201.886 270.468C202.899 270.738 203.912 270.941 204.925 271.144C207.153 271.618 209.449 272.429 211.677 273.444C213.297 274.188 214.985 275 216.538 275.744C216.808 275.879 217.011 275.946 217.281 276.082C217.956 276.42 218.631 276.69 219.307 277.029C219.442 277.096 219.577 277.164 219.712 277.164C219.847 277.232 219.914 277.232 220.049 277.299H220.117C221.737 278.043 223.358 278.923 224.978 279.734C225.181 279.869 225.451 280.005 225.654 280.072C227.747 281.222 229.907 282.304 232.203 282.981C235.444 283.928 238.482 285.077 241.521 286.43C243.681 287.377 245.775 288.392 247.868 289.474C249.488 290.285 250.974 291.165 252.527 292.112C255.97 294.208 259.279 296.44 262.79 298.334C262.925 298.402 263.06 298.47 263.195 298.537C268.191 301.175 272.985 304.557 276.091 309.291C277.239 311.05 278.725 312.267 279.67 314.229C280.683 316.258 281.56 318.422 282.708 320.451C284.734 323.969 286.76 327.553 288.988 330.935C291.283 334.385 292.836 338.916 294.997 342.907H316.131V237.394H95.4065V237.326Z" fill="#3D4544"/>
<path d="M128.424 279.464C128.289 275 127.276 270.671 127.276 266.207C127.276 261.472 127.276 256.805 127.344 252.071C127.411 249.636 127.276 245.916 125.048 244.36C122.212 242.331 118.161 244.495 114.987 244.563C114.312 243.616 112.692 243.346 112.084 244.563C111.476 245.983 111.071 247.404 110.801 248.892C109.991 254.37 111.476 260.39 111.476 265.801C111.544 269.859 111.004 274.188 111.476 278.179C111.881 281.831 112.287 285.619 112.489 289.271C112.894 297.252 112.557 305.166 113.434 313.079C113.772 316.393 114.11 319.708 114.515 322.954C115.055 327.08 114.785 331.273 115.528 335.399C115.865 337.428 116.405 341.757 117.891 344.936C119.106 347.777 121.064 349.738 124.17 348.724C125.858 348.183 126.466 346.559 126.803 344.936C126.939 344.192 127.006 343.448 127.141 342.772C127.681 339.052 127.411 335.264 127.546 331.476C127.749 322.819 128.154 314.229 128.154 305.571C128.154 296.982 128.762 288.189 128.424 279.464Z" fill="#3D4544"/>
<path d="M262.722 258.429H201.954V343.042H262.722V258.429Z" fill="#C9D1D0"/>
<path d="M262.722 260.999H201.954V342.975H262.722V260.999Z" fill="#C9D1D0"/>
<path d="M201.954 257.955V271.009C203.372 271.618 204.857 272.7 206.14 273.106C207.963 273.714 209.854 274.053 211.677 274.458C212.69 274.661 213.702 274.932 214.715 275.202C215.255 275.338 215.863 275.541 216.403 275.676C216.673 275.744 217.011 275.811 217.281 275.879C217.956 276.014 218.631 276.217 219.307 276.42C219.442 276.488 219.577 276.488 219.712 276.555C219.847 276.555 219.914 276.623 220.049 276.623C221.265 276.961 222.48 277.367 223.695 277.976C224.101 278.178 224.573 278.381 224.978 278.517C225.181 278.584 225.451 278.652 225.653 278.787C227.814 279.464 229.975 279.869 232.068 280.952C234.971 282.507 237.537 284.469 240.44 285.957C240.778 286.16 241.183 286.295 241.521 286.43C244.087 287.512 246.855 288.189 249.218 289.609C250.366 290.285 251.446 291.165 252.527 292.112C253.877 293.329 255.227 294.547 256.78 295.494C258.739 296.779 260.697 298.605 262.79 299.89V257.955H201.954Z" fill="#B5BDBC"/>
<path d="M262.722 262.351C250.298 262.351 237.875 262.284 225.451 262.284C225.451 262.284 225.586 272.835 225.586 278.72C225.586 279.125 225.586 279.599 225.586 280.005C225.653 300.431 225.451 322.413 225.451 342.975H224.776C224.776 322.345 224.978 300.228 224.911 279.667V278.517C224.911 272.7 224.776 262.284 224.776 262.284C217.146 262.284 209.516 262.284 201.954 262.284V261.607C209.651 261.607 217.348 261.607 224.978 261.607C225.046 261.607 225.046 261.607 225.113 261.607C225.181 261.607 225.181 261.607 225.248 261.607C237.74 261.607 250.231 261.675 262.722 261.675V262.351Z" fill="#9CA8A8"/>
<path d="M219.644 267.763H211.677V333.709H219.644V267.763Z" fill="#C4EFFF"/>
<path d="M219.712 268.98V302.257C219.577 301.987 219.509 301.716 219.374 301.513C218.159 298.537 216.876 295.426 215.795 292.518C214.445 288.933 213.027 285.348 211.677 281.763V267.695H218.969C219.239 268.168 219.442 268.574 219.712 268.98Z" fill="#E0F8FF"/>
<path d="M219.712 322.007V330.732C216.741 324.983 214.31 319.437 211.744 313.755V302.934C213.162 306.586 214.648 310.374 216.268 314.161C217.281 316.732 218.496 319.369 219.712 322.007Z" fill="#E0F8FF"/>
<path d="M219.982 289.812C220.049 282.44 219.982 275.067 220.049 267.695C220.049 267.627 219.982 267.492 219.982 267.492C219.982 267.492 219.982 267.492 219.914 267.492C219.847 267.424 219.779 267.424 219.712 267.424C217.078 267.424 214.445 267.424 211.879 267.424C211.474 267.424 211.474 268.101 211.879 268.101C214.378 268.101 216.876 268.101 219.374 268.101C219.239 286.092 219.307 304.083 219.374 322.075C219.374 325.93 219.442 329.785 219.374 333.708C219.374 334.114 220.049 334.114 220.049 333.708C220.252 319.099 219.847 304.489 219.982 289.812Z" fill="#9CA8A8"/>
<path d="M227.206 311.794C227.274 310.712 227.139 309.697 227.206 308.615C227.274 306.924 227.139 305.098 227.206 303.407C227.274 301.784 227.139 300.025 227.206 298.402C227.206 296.711 227.139 294.952 227.341 293.329C227.341 293.126 228.759 293.126 228.692 293.532C228.557 294.479 228.152 295.426 228.219 296.373C228.287 297.455 228.084 298.537 228.017 299.619C227.949 301.581 228.017 303.678 228.017 305.639C228.017 307.601 228.152 309.494 228.152 311.456C228.152 312.335 227.747 312.809 228.827 312.741C229.165 312.741 228.827 312.741 229.232 312.606C229.637 312.538 229.84 313.147 229.435 313.282C229.637 313.214 229.3 313.417 229.232 313.417C228.827 313.485 228.219 313.485 227.814 313.485C227.679 313.485 227.409 313.485 227.341 313.35C227.139 312.876 227.206 312.2 227.206 311.794Z" fill="#B5BDBC"/>
<path d="M228.017 312.777H229.84V292.688H228.017V312.777Z" fill="#81898C"/>
<path d="M173.864 261.878H139.226V334.385H173.864V261.878Z" fill="#C4EFFF"/>
<path d="M173.865 293.6V321.534C173.258 320.452 172.582 319.302 171.975 318.22C160.429 300.837 152.461 281.831 146.857 261.878H157.525C164.142 272.294 167.991 283.522 173.865 293.6Z" fill="#E0F8FF"/>
<path d="M173.865 334.249V334.385H162.116C157.93 328.771 154.284 322.684 150.84 316.934C149.827 314.973 148.882 313.079 147.937 311.05C146.991 309.089 146.114 307.059 145.236 305.03C144.493 303.069 143.885 301.175 143.21 299.214C141.927 295.291 140.712 291.368 139.497 287.512C139.429 287.174 139.294 286.836 139.159 286.498V267.154C140.915 271.482 142.603 275.879 144.291 280.275C145.168 282.507 146.046 284.739 146.856 287.039C147.464 289.068 148.139 291.029 148.882 293.059C149.625 295.088 150.367 297.049 151.178 299.078C151.853 300.769 152.596 302.46 153.338 304.083C154.081 305.707 154.891 307.33 155.769 308.953C160.901 318.355 166.437 327.08 173.865 334.249Z" fill="#E0F8FF"/>
<path d="M138.687 261.202V261.54V262.554V333.708V334.723V335.061H174.54V334.723V333.708V262.554V261.54V261.202H138.687ZM173.19 333.708H140.037V262.554H173.19V333.708Z" fill="#282E2D"/>
<path d="M262.722 343.042H201.954V345.071H262.722V343.042Z" fill="white"/>
<path d="M201.954 257.955L203.304 259.308H261.439L262.79 257.955H201.954Z" fill="#292E2D"/>
<path d="M201.954 345.071V257.955L203.304 259.308V343.042L201.954 345.071Z" fill="#2D3332"/>
<path d="M262.79 257.955L261.439 259.308V343.042L262.79 345.071V257.955Z" fill="#2D3332"/>
<path d="M335.037 139.929L339.29 137.629H334.294L335.037 139.929Z" fill="#282E2D"/>
<path d="M89.0595 332.288C88.6544 330.936 88.5194 329.515 88.4518 328.162C88.3168 325.592 88.4518 323.022 88.1818 320.384C87.9117 317.814 86.8314 315.244 85.751 312.809C85.5485 312.403 85.4134 312.065 85.2109 311.659C84.7382 310.577 84.2656 309.495 83.8604 308.48C82.3075 304.287 80.7545 300.228 79.6067 295.967C78.5939 292.112 78.2563 288.121 76.6358 284.469C75.758 282.372 74.8802 280.614 73.6649 278.99C73.4623 278.72 73.2597 278.517 73.1247 278.246C72.7871 277.841 72.4495 277.435 72.0444 277.029C69.3436 274.188 67.9256 271.28 66.0351 267.966C65.0898 266.275 63.9419 263.502 62.1189 262.555C61.3086 262.081 60.6334 261.946 60.0932 262.014C59.8232 262.081 59.6206 262.149 59.418 262.284C58.6078 262.758 58.2027 263.907 58.2702 265.328C58.3377 267.628 58.8104 269.927 59.148 272.227C59.2155 272.565 59.2155 272.903 59.283 273.241C59.3505 273.58 59.3505 273.985 59.418 274.324C59.7556 277.908 59.7556 281.628 60.971 285.078C61.3761 286.16 61.8488 287.242 62.3889 288.324C64.347 292.315 66.8453 295.967 68.5333 300.093C68.7359 300.634 68.9384 301.108 69.141 301.649C69.4786 302.596 69.7487 303.61 69.9512 304.625C70.0188 304.963 70.0863 305.301 70.1538 305.639C70.2213 306.113 70.2888 306.586 70.3564 307.06C70.694 309.292 70.829 311.524 70.964 313.688C71.1666 317.341 72.4495 320.384 73.7324 323.834C75.1503 327.757 74.8802 331.612 76.5682 335.467C78.1212 338.984 79.9443 342.299 82.1049 345.477C83.5904 347.709 84.7382 350.415 87.5741 351.227C88.5194 351.497 89.3971 351.497 90.0723 351.159C90.2749 351.091 90.4775 350.956 90.68 350.753C91.0851 350.415 91.3552 349.874 91.4903 349.13C91.5578 348.927 91.4227 348.724 91.3552 348.589C92.9757 343.11 90.4775 337.496 89.0595 332.288Z" fill="#315940"/>
<path d="M89.0595 332.288C88.6544 330.935 88.5194 329.515 88.4518 328.162C87.8442 327.283 87.304 326.336 86.6963 325.457C84.8733 322.751 83.0502 319.978 81.4297 317.07C79.8092 314.026 78.4588 310.847 76.7708 307.871C75.2178 305.098 73.5973 302.46 71.9093 299.755C70.0863 296.914 68.1957 294.005 65.8325 291.571C64.6846 290.421 63.6043 289.203 62.4565 288.189C64.4145 292.179 66.9128 295.832 68.6008 299.958C68.8034 300.499 69.0059 300.972 69.2085 301.513C69.5461 302.46 69.8162 303.475 70.0187 304.489C70.0863 304.827 70.1538 305.166 70.2213 305.504C70.2888 305.977 70.3564 306.451 70.4239 306.924C70.7615 309.156 70.8965 311.388 71.0316 313.553C71.2341 317.205 72.517 320.249 73.7999 323.698C75.2178 327.621 74.9477 331.476 76.6358 335.332C78.1887 338.849 80.0118 342.163 82.1724 345.342C83.6579 347.574 84.8057 350.279 87.6416 351.091C88.5869 351.362 89.4646 351.361 90.1399 351.023C90.3424 350.956 90.545 350.82 90.7475 350.617C91.1527 350.279 91.4227 349.738 91.5578 348.994C91.6253 348.791 91.4903 348.588 91.4227 348.453C92.9757 343.11 90.4775 337.496 89.0595 332.288Z" fill="#23402E"/>
<path d="M90.6125 350.618C90.4099 350.753 90.2074 350.888 90.0048 351.023C89.8698 350.753 89.8023 350.482 89.6672 350.212C88.9245 348.318 88.5869 346.356 87.9117 344.463C87.2365 342.636 86.9664 340.81 86.4262 338.984C86.2237 338.172 85.751 337.496 85.5485 336.684C85.3459 335.873 85.2784 334.993 85.0758 334.182C84.7382 332.491 84.2656 330.732 83.7254 329.109C82.7126 326.133 81.9024 323.157 81.0246 320.113C78.5939 318.017 76.3657 315.717 74.4076 313.147C73.1922 311.523 72.2469 309.833 71.1666 308.142C70.8965 307.736 70.6264 307.33 70.2888 306.924C70.2213 306.451 70.1538 305.977 70.0863 305.504C70.4914 305.977 70.8965 306.518 71.2341 306.992C72.382 308.75 73.3273 310.577 74.6101 312.267C76.3657 314.702 78.4588 316.934 80.687 318.896C80.2143 317.34 79.7417 315.852 79.2691 314.364C79.134 314.297 79.0665 314.229 79.0665 314.094C76.9734 311.862 75.0828 309.562 73.3273 307.059C72.2469 305.504 71.3016 303.948 70.0187 302.528C69.7487 302.19 69.4111 301.919 69.0735 301.581C68.8709 301.04 68.7359 300.566 68.5333 300.025C69.3435 300.972 70.4239 301.851 71.1666 302.798C72.1119 303.881 72.8546 305.098 73.5973 306.315C75.0828 308.615 76.8383 310.712 78.6614 312.673C78.2563 311.456 77.7836 310.238 77.311 309.021C75.893 305.639 75.0828 301.919 73.3948 298.672C71.7068 295.291 70.2888 291.774 68.6683 288.392C67.1829 285.28 66.3051 281.899 64.8197 278.787C64.6171 278.381 64.4145 277.976 64.2795 277.57C63.2667 276.69 62.3889 275.608 61.3086 274.729C60.6334 274.188 59.8907 273.647 59.283 273.106C59.2155 272.768 59.2155 272.429 59.1479 272.091C60.2283 272.97 61.3761 273.782 62.4565 274.729C62.7941 275.067 63.1992 275.473 63.5368 275.811C62.659 273.714 61.8488 271.55 61.3086 269.453C60.7009 267.086 59.6881 264.651 59.418 262.216C59.6206 262.081 59.8232 262.013 60.0932 261.946C60.2283 263.501 60.7684 265.26 61.1736 266.613C61.7137 268.304 62.1864 269.927 62.7265 271.618C63.3342 273.579 64.1445 275.405 64.9547 277.232C65.0222 277.299 65.0898 277.367 65.1573 277.435C65.2923 277.57 65.2923 277.705 65.2248 277.84C65.9 279.328 66.5752 280.816 67.1154 282.44C68.3983 286.024 69.9512 289.406 71.5717 292.923C71.6392 292.991 71.6392 293.126 71.7068 293.194C71.8418 290.015 72.382 286.904 72.5845 283.657C72.6521 281.831 72.7196 280.005 73.1247 278.246C73.3273 278.449 73.5298 278.72 73.6649 278.923C73.3948 280.478 73.3273 282.034 73.2597 283.657C73.0572 287.309 72.382 290.827 72.382 294.547C73.5298 296.982 74.8127 299.416 75.5554 301.919C76.5007 305.233 78.0537 308.345 79.134 311.591C80.0793 314.297 80.9571 317.07 81.6998 319.843C81.6998 319.843 81.6998 319.91 81.6998 319.978C81.8348 320.519 82.0374 321.128 82.1724 321.669C82.7126 323.766 83.3878 325.862 84.063 327.892C84.063 326.268 83.9955 324.645 84.1305 323.022C84.1981 322.075 84.4006 321.128 84.4681 320.181C84.6032 319.166 84.4681 318.219 84.5357 317.205C84.6032 315.379 84.8733 313.553 85.1433 311.659C85.2784 312.065 85.4809 312.403 85.6835 312.809C85.4809 314.229 85.2784 315.717 85.2109 317.205C85.0083 321.466 84.7382 325.66 84.7382 329.921C84.7382 329.988 84.7382 329.988 84.6707 330.056C84.8733 330.665 85.0758 331.341 85.2109 331.95C85.6835 333.708 85.8186 335.737 86.4938 337.428C87.0339 338.849 87.304 340.201 87.6416 341.689C88.0467 343.448 88.7219 345.071 89.2621 346.83C89.6672 348.115 90.1399 349.4 90.6125 350.618Z" fill="#163020"/>
<path d="M102.429 325.727C102.429 325.321 102.361 324.916 102.361 324.577C102.294 323.36 102.091 322.21 101.956 320.993C101.889 320.587 101.821 320.113 101.754 319.708C101.484 318.287 101.214 316.799 100.944 315.311C100.201 311.862 100.336 308.345 99.7957 304.895C99.5256 303.204 98.9179 301.648 98.3103 300.093C98.2427 299.89 98.1077 299.619 98.0402 299.416C97.635 298.47 97.2974 297.455 97.0949 296.44C97.0274 296.035 96.9598 295.629 96.8923 295.223C96.8248 294.75 96.8248 294.276 96.8248 293.803C96.8248 290.962 96.0146 289 95.2043 286.295C95.1368 286.092 95.0693 285.889 95.0693 285.686C94.3941 283.251 94.0565 280.884 93.5838 278.381C93.3137 276.893 92.706 274.323 91.018 273.85C90.883 273.85 90.748 273.782 90.6804 273.782C90.4104 273.714 90.2078 273.714 90.0052 273.782C87.7771 274.053 86.6967 277.232 86.1566 279.734C86.0215 280.275 85.954 280.816 85.8865 281.222C85.819 281.56 85.819 281.899 85.819 282.169C85.6164 285.348 86.4942 288.392 86.6292 291.638C86.7642 295.223 86.4266 298.875 86.7642 302.46C87.0343 305.301 88.3172 308.209 89.0599 310.915C89.2625 311.726 89.4651 312.47 89.6001 313.282C89.7351 314.094 89.9377 314.973 90.0727 315.785C90.3428 317.273 90.5454 318.761 90.8155 320.249C91.0856 321.601 91.3556 322.954 91.6257 324.307C92.7736 330.124 93.9214 336.008 94.3265 341.825C94.4616 343.989 94.6641 346.762 96.2171 348.521C96.4872 348.859 96.9598 349.197 97.365 349.468C97.635 349.671 97.9051 349.806 98.2427 349.874C98.8504 350.076 99.5256 350.009 100.066 349.468C101.349 348.183 100.673 345.004 100.673 343.38C100.741 339.931 101.484 336.684 102.091 333.37C102.429 330.732 102.564 328.23 102.429 325.727Z" fill="#315940"/>
<path d="M102.429 325.727C102.429 325.321 102.361 324.916 102.361 324.577C102.294 323.36 102.091 322.21 101.956 320.993C101.888 320.587 101.821 320.113 101.753 319.707C101.483 318.287 101.213 316.799 100.943 315.311C100.2 311.862 100.335 308.344 99.7953 304.895C99.5252 303.204 98.9176 301.648 98.3099 300.093C98.2423 299.89 98.1073 299.619 98.0398 299.416C97.6347 298.47 97.2971 297.455 97.0945 296.44C97.027 296.035 96.9595 295.629 96.8919 295.223C96.8244 294.749 96.8244 294.276 96.8244 293.803C96.8244 290.962 96.0142 289 95.2039 286.295C95.1364 286.092 95.0689 285.889 95.0689 285.686C95.0014 288.053 95.0689 290.421 95.0689 292.72C95.0689 297.59 94.4612 302.257 93.786 307.127C93.1108 311.794 92.8407 316.461 92.233 321.06C92.098 322.142 91.8954 323.225 91.6929 324.239C92.8407 330.056 93.9886 335.94 94.3937 341.757C94.5287 343.921 94.7313 346.695 96.2843 348.453C96.5543 348.791 97.027 349.13 97.4321 349.4C97.7022 349.603 97.9723 349.738 98.3099 349.806C98.9176 350.009 99.5928 349.941 100.133 349.4C101.416 348.115 100.741 344.936 100.741 343.313C100.808 339.863 101.551 336.617 102.159 333.302C102.429 330.732 102.564 328.23 102.429 325.727Z" fill="#23402E"/>
<path d="M96.2167 333.031C96.2842 336.21 96.4868 339.389 96.8919 342.5C97.2295 345.003 97.4996 347.438 98.1748 349.805C97.9047 349.737 97.5671 349.602 97.2971 349.399C96.4868 346.559 96.1492 343.38 96.0142 340.471C95.8791 337.495 95.609 334.587 95.474 331.611C95.339 328.432 95.7441 325.253 95.4065 322.142C95.4065 322.074 95.4065 321.939 95.4065 321.871C95.4065 321.871 95.4065 321.871 95.339 321.871C93.3809 320.654 91.7604 318.692 90.545 316.731C90.3424 316.393 90.1399 316.054 90.0048 315.716C89.8698 314.905 89.7348 314.025 89.5322 313.214C89.9373 314.093 90.3424 315.04 90.8151 315.919C91.8954 317.813 93.4484 319.707 95.2714 320.992C95.0689 318.692 95.2039 316.257 95.0014 313.958C94.7988 311.049 94.3937 308.208 93.6509 305.435C92.9082 302.595 92.3681 299.686 91.5578 296.845C90.9501 294.613 90.4775 292.381 90.3424 290.014C90.2749 290.014 90.2749 289.947 90.2074 289.879C89.3972 288.661 88.5194 287.579 87.8442 286.227C87.2365 284.941 86.5613 283.724 86.0887 282.439C85.9536 282.033 85.8186 281.627 85.6835 281.289C85.7511 280.816 85.8186 280.342 85.9536 279.801C86.1562 280.68 86.4938 281.492 86.7639 282.304C87.304 283.792 88.0467 285.212 88.7895 286.632C89.1946 287.444 89.8023 288.188 90.3424 288.864C90.41 283.859 89.6672 278.786 89.8023 273.781C90.0048 273.714 90.2749 273.781 90.4775 273.781C90.41 275.946 90.545 278.11 90.68 280.342C90.7476 282.168 90.8826 284.062 90.9501 285.888C91.0176 287.715 90.8826 289.608 91.0852 291.502C91.5578 295.019 92.5706 298.401 93.5159 301.783C93.786 300.498 94.3937 299.28 95.0689 298.266C95.6766 297.251 96.2167 296.237 96.7569 295.222C96.8244 295.628 96.8919 296.034 96.9595 296.44C96.8919 296.643 96.7569 296.845 96.6219 297.048C95.5415 298.942 94.1236 300.836 93.9885 303.136C93.9885 303.203 93.9886 303.271 93.921 303.339C94.0561 303.744 94.1236 304.218 94.2586 304.624C95.0014 302.662 96.4193 301.039 97.9047 299.483C97.9723 299.686 98.0398 299.957 98.1748 300.16C96.6218 301.851 95.2039 303.542 94.5962 305.774C94.5962 305.841 94.5287 305.841 94.5287 305.909C94.6638 306.653 94.7988 307.397 94.9338 308.141C95.7441 313.281 96.1492 318.76 96.0817 323.968C96.0817 325.997 96.0142 328.026 96.0817 330.055C98.5799 327.485 99.9979 323.833 101.281 320.586C101.416 320.315 101.483 320.045 101.618 319.707C101.686 320.113 101.753 320.586 101.821 320.992C101.753 321.195 101.618 321.465 101.551 321.668C100.2 324.915 98.7825 328.5 96.1492 330.934H96.0817C96.0817 331.34 96.0817 331.814 96.0817 332.22C97.2295 331.34 98.3099 329.852 99.1876 328.77C100.268 327.417 101.281 325.997 102.226 324.509C102.226 324.915 102.294 325.321 102.294 325.659C101.416 327.079 100.335 328.432 99.2551 329.649C98.4449 330.799 97.4321 332.287 96.2167 333.031Z" fill="#163020"/>
<path d="M85.481 355.758C85.3459 355.42 85.2109 355.014 85.0083 354.676C83.5229 351.7 80.0793 349.332 78.0537 346.965C77.9187 346.83 77.8511 346.695 77.7161 346.559C77.2435 346.018 76.7708 345.409 76.2306 344.801C74.8802 343.042 73.5973 341.013 72.8546 339.052C72.0444 336.82 71.4367 334.655 70.0863 332.626C68.9384 330.868 67.5205 329.38 65.9675 328.162C65.765 327.959 65.4949 327.756 65.2248 327.553C63.1992 325.93 60.971 324.51 58.8779 322.819C57.0548 321.331 55.3668 319.64 53.4087 318.355C52.1258 317.475 50.5729 317.07 49.1549 316.596C48.9524 316.529 48.7498 316.461 48.5472 316.393C48.1421 316.258 47.8045 316.123 47.3994 315.987C46.5216 315.649 45.6439 315.176 44.7661 314.77C44.4285 314.635 44.1584 314.432 43.7533 314.364C43.3482 314.297 43.0781 314.364 42.8755 314.567C42.7405 314.702 42.6054 314.905 42.5379 315.108C42.2003 316.055 42.5379 317.611 42.6054 318.287C42.673 318.558 42.7405 318.896 42.808 319.166C43.1456 320.519 43.7533 321.804 44.7661 322.684C45.4413 323.292 46.1165 323.901 46.8592 324.442C47.3319 324.848 47.872 325.186 48.4122 325.524C48.8848 325.862 49.3575 326.133 49.8977 326.404C51.2481 327.08 52.2609 327.756 53.0036 328.5C53.2737 328.771 53.5438 329.109 53.7463 329.38C54.489 330.394 54.9617 331.679 55.2993 333.37C55.8395 335.873 56.7847 338.172 58.0676 340.201C58.2702 340.54 58.4728 340.878 58.7428 341.216C59.283 341.96 59.8232 342.704 60.4309 343.448C60.7685 343.854 61.1061 344.192 61.4437 344.598C64.5496 347.912 68.3983 350.618 72.2469 352.985C75.4879 354.946 78.6614 357.449 82.5101 358.125C83.5229 358.328 84.4681 358.26 85.0758 357.787C85.2784 357.652 85.4134 357.449 85.481 357.246C85.751 356.908 85.6835 356.434 85.481 355.758Z" fill="#315940"/>
<path d="M85.4809 355.758C85.3459 355.42 85.2108 355.014 85.0083 354.676C83.928 354.135 82.8476 353.729 81.7673 353.255C81.2947 353.052 80.822 352.85 80.4169 352.647C79.7417 352.376 79.134 352.038 78.4588 351.767C75.5554 350.347 72.8546 348.521 70.3563 346.424C70.0187 346.154 69.6811 345.883 69.4111 345.612C68.8709 345.139 68.3307 344.665 67.8581 344.124C67.588 343.854 67.2504 343.516 66.9803 343.245C66.6427 342.907 66.3726 342.636 66.1026 342.298C64.9547 341.013 63.7393 339.728 62.659 338.375C61.5787 336.955 61.0385 335.129 60.6334 333.505C60.2958 332.22 60.3633 330.665 59.8231 329.447C59.8231 329.38 59.7556 329.312 59.7556 329.244C59.6206 329.041 59.4855 328.838 59.3505 328.636C58.6753 327.824 57.595 327.148 56.7847 326.606L56.7172 326.539C56.3121 326.268 55.907 326.065 55.4343 325.862C52.801 324.577 49.8301 323.833 47.2643 322.345C45.7789 321.534 44.361 320.451 43.0781 319.099C43.4157 320.451 44.0233 321.737 45.0362 322.616C45.7114 323.225 46.3866 323.833 47.1293 324.374C47.6019 324.78 48.1421 325.118 48.6823 325.457C49.1549 325.795 49.6276 326.065 50.1677 326.336C51.5181 327.012 52.5309 327.689 53.2737 328.433C53.5437 328.703 53.8138 329.041 54.0164 329.312C54.7591 330.326 55.2318 331.612 55.5694 333.302C56.1095 335.805 57.0548 338.105 58.3377 340.134C58.5403 340.472 58.7428 340.81 59.0129 341.148C59.5531 341.892 60.0932 342.636 60.7009 343.38C61.0385 343.786 61.3761 344.124 61.7137 344.53C64.8197 347.844 68.6683 350.55 72.517 352.917C75.758 354.879 78.9314 357.381 82.7801 358.058C83.7929 358.26 84.7382 358.193 85.3459 357.719C85.5485 357.584 85.6835 357.381 85.751 357.178C85.751 356.908 85.6835 356.434 85.4809 355.758Z" fill="#23402E"/>
<path d="M85.5481 357.246C85.4806 357.449 85.3456 357.652 85.143 357.787C82.8473 355.893 80.5516 353.864 78.4585 351.835C78.3234 351.767 78.2559 351.632 78.1209 351.497C76.6354 350.076 75.15 348.588 73.7321 347.033C73.5295 347.1 73.3269 347.1 73.2594 346.83C73.2594 346.897 71.7064 346.695 70.356 346.492C69.3432 346.356 68.4655 346.221 68.3979 346.221C66.7774 345.951 65.0894 345.68 63.4689 345.274C62.7937 345.071 62.186 344.868 61.5784 344.665C61.2408 344.327 60.9032 343.921 60.5656 343.516C61.5784 343.921 62.5912 344.327 63.6715 344.665C65.5621 345.207 67.5202 345.477 69.4107 345.748C70.6261 345.883 71.774 346.086 72.9893 346.289C72.5167 345.748 72.044 345.207 71.5714 344.665C70.2885 344.665 69.0731 344.53 67.8578 344.26C65.3595 343.786 62.9288 342.907 60.5656 341.96C60.0254 341.757 59.4177 341.554 58.8775 341.284C58.675 340.945 58.4049 340.607 58.2023 340.269C59.2151 340.743 60.2955 341.148 61.3083 341.487C63.1989 342.163 65.0219 342.839 66.9125 343.313C68.2629 343.651 69.6133 343.854 70.9637 343.921C70.356 343.177 69.7483 342.433 69.2082 341.622C66.7099 338.172 65.1569 334.182 62.8613 330.597C62.4561 329.988 62.051 329.447 61.6459 328.906C61.5784 328.974 61.5108 328.974 61.3758 329.041C60.7681 329.109 60.228 329.109 59.6203 329.177C58.5399 329.312 57.5271 329.447 56.4468 329.582C55.569 329.65 54.6913 329.582 53.8135 329.38C53.6109 329.041 53.3409 328.771 53.0708 328.5C54.2861 328.771 55.569 328.974 56.8519 328.838C57.5947 328.771 58.2699 328.703 59.0126 328.636C59.0126 328.636 59.0801 328.636 59.1476 328.636C59.6203 328.568 61.0382 328.365 61.0382 328.568C61.0382 328.5 61.1057 328.433 61.1057 328.433C60.5656 327.824 59.9579 327.283 59.3502 326.742C59.2827 326.742 59.2151 326.742 59.2151 326.674C58.7425 326.268 57.3921 326.471 56.5143 326.606C56.3118 326.606 56.1092 326.674 55.9742 326.674C54.8938 326.742 53.746 326.742 52.6657 326.606C51.2477 326.471 49.8298 325.998 48.4794 325.592C47.9392 325.254 47.3991 324.915 46.9264 324.51C49.4922 325.051 51.8554 325.998 54.4887 325.998C54.6913 325.998 54.9614 325.998 55.2314 325.93C56.0417 325.862 57.122 325.66 58.0673 325.727C55.7716 323.969 53.2058 322.481 50.8426 320.857C49.0871 319.572 47.3315 318.287 45.5085 317.07C44.5632 316.393 43.5504 315.852 42.6051 315.176C42.6726 314.973 42.8077 314.77 42.9427 314.635C44.4282 315.785 46.1162 316.731 47.6691 317.678C48.4119 318.152 49.0871 318.625 49.6948 319.099C49.2221 318.49 48.6819 317.881 48.2093 317.205C47.9392 316.867 47.6691 316.461 47.3991 316.055C47.7367 316.19 48.1418 316.326 48.5469 316.461C49.4247 317.678 50.37 318.828 51.2477 319.978C51.3152 320.046 51.3152 320.181 51.3152 320.249C52.058 320.79 52.8007 321.398 53.6109 321.872C57.3921 324.307 61.1057 326.471 63.5365 330.462C64.2117 331.544 64.8193 332.626 65.427 333.776C65.427 331.679 65.427 329.65 65.2245 327.553C65.4946 327.756 65.6971 327.959 65.9672 328.162C66.1022 330.259 66.1022 332.423 66.1022 334.588C66.1022 334.723 66.0347 334.79 65.9672 334.858C66.1698 335.264 66.3723 335.602 66.5749 336.008C67.5877 337.969 68.8031 340.201 70.221 341.892C72.9218 345.004 75.6901 348.115 78.5935 351.023C77.7833 348.994 77.0406 346.897 76.1628 344.868C76.6354 345.477 77.1081 346.086 77.6482 346.627C78.2559 348.183 78.8636 349.806 79.5388 351.361C79.6063 351.497 79.5388 351.632 79.4038 351.7C79.7414 352.038 80.079 352.376 80.4166 352.647C82.1046 354.338 83.7926 355.826 85.5481 357.246Z" fill="#163020"/>
<path d="M86.8314 242.06L95.4065 244.292L95.474 240.099L86.8314 242.06Z" fill="#81898C"/>
<path d="M159.213 156.973L167.856 161.37L167.451 153.321L159.213 156.973Z" fill="#81898C"/>
<path d="M318.291 154.944H167.788V219.402H318.291V154.944Z" fill="#C4EFFF"/>
<path d="M267.449 164.143C265.558 162.587 263.668 161.032 261.709 159.544C259.751 158.056 257.726 156.635 255.7 155.282C255.565 155.147 255.43 155.079 255.295 154.944H201.954C206.815 166.781 213.365 175.979 220.319 183.893C224.911 189.168 230.312 193.024 235.511 197.15C241.116 201.546 246.315 206.686 251.919 211.083C255.295 213.721 258.603 216.561 261.912 219.402H318.359V207.092C307.016 187.545 283.856 178.617 267.449 164.143Z" fill="#E0F8FF"/>
<path d="M196.755 204.928C195.202 201.14 193.851 196.947 192.163 193.294C190.34 189.304 188.585 185.178 187.167 180.511C185.006 173.003 183.858 164.549 183.521 154.944H174.676C173.528 165.36 173.663 174.829 174.27 183.487C175.148 195.12 177.106 205.807 180.415 214.194C181.157 216.02 181.9 217.711 182.643 219.402H202.967C200.941 214.6 198.78 209.865 196.755 204.928Z" fill="#E0F8FF"/>
<path d="M316.131 157.92H167.316V159.273H316.131V157.92Z" fill="#282E2D"/>
<path d="M168.396 202.696C168.261 197.285 168.531 191.739 168.396 186.328C168.329 182.472 168.396 178.685 168.396 174.897C168.464 169.486 168.396 164.143 168.464 158.732C168.464 157.785 167.316 157.785 167.316 158.732C167.248 163.872 167.316 168.945 167.383 174.153C167.451 178.144 167.113 182.337 167.248 186.328C167.383 191.806 167.113 197.285 167.248 202.696C167.248 204.116 167.383 216.426 167.383 217.035C167.451 217.643 167.518 217.779 168.261 217.643H168.329C168.599 217.576 168.464 217.643 168.464 217.305C168.599 212.774 168.531 207.363 168.396 202.696Z" fill="#282E2D"/>
<path d="M206.275 216.291C206.95 216.494 206.748 212.571 206.68 211.624C206.545 209.392 206.68 207.16 206.613 204.928C206.545 199.584 206.545 194.512 206.545 188.695C206.545 178.685 206.613 168.607 206.545 158.597C206.545 157.65 205.397 157.65 205.397 158.597V158.664C205.465 168.674 205.465 178.685 205.397 188.695C205.33 198.096 205.465 206.822 205.465 216.967C205.465 217.238 205.6 217.576 205.87 217.643H205.937C206.68 217.846 206.95 216.494 206.275 216.291Z" fill="#282E2D"/>
<path d="M243.141 186.598C243.209 182.134 243.074 177.603 243.276 173.138C243.479 168.404 243.276 163.602 243.411 158.867V158.799C243.411 157.92 242.331 157.92 242.331 158.799C242.196 163.737 242.263 168.674 242.128 173.612C241.993 177.941 242.196 182.337 242.061 186.598C241.858 196.811 242.263 207.43 242.263 217.711C242.263 218.59 243.344 218.59 243.344 217.711C243.411 207.43 243.006 196.947 243.141 186.598Z" fill="#282E2D"/>
<path d="M280.48 217.779C279.94 215.75 280.21 213.044 280.21 210.947C280.21 208.513 279.94 206.213 279.94 203.778C279.94 198.84 280.007 193.903 280.007 188.965C280.143 178.82 280.21 168.742 280.21 158.597C280.21 157.65 279.13 157.65 279.13 158.597C279.13 169.216 278.927 179.767 278.927 190.318C278.927 195.662 278.522 201.275 278.86 206.619C279.062 210.203 278.454 214.87 279.4 218.252C279.67 218.996 280.683 218.658 280.48 217.779Z" fill="#282E2D"/>
<path d="M316.401 188.019C316.469 182.675 316.469 177.332 316.401 171.989C316.401 169.96 316.063 167.93 316.131 165.901C316.198 163.534 316.063 160.626 316.469 158.326C316.604 157.447 315.456 157.109 315.321 157.988C314.916 160.152 315.118 162.587 315.051 164.752C314.916 166.781 315.118 168.742 315.253 170.771C315.523 176.25 315.388 181.796 315.253 187.207C315.051 197.014 315.456 206.889 315.456 216.764C315.456 217.643 316.671 217.643 316.671 216.764C316.604 207.227 316.266 197.623 316.401 188.019Z" fill="#282E2D"/>
<path d="M335.644 242.06L316.131 245.51V238.746L335.644 242.06Z" fill="#81898C"/>
<path d="M129.369 180.24C129.369 180.173 129.302 180.105 129.302 180.105C129.234 179.97 129.099 179.902 128.897 179.97C128.627 180.038 128.492 180.105 128.289 180.308C128.019 180.511 127.884 180.849 127.681 181.12C127.681 181.187 127.614 181.187 127.614 181.187C126.939 182.202 126.398 183.352 125.723 184.434C124.643 186.26 124.17 188.357 123.427 190.318C122.617 192.55 121.807 194.715 121.132 197.014C120.862 197.894 118.634 201.546 119.714 202.493C120.727 203.305 122.685 201.411 123.225 200.734C123.495 200.396 123.765 200.058 124.035 199.652C124.913 198.435 125.656 197.082 126.128 195.594C126.871 193.091 127.546 190.589 128.289 188.086C128.897 186.057 129.302 184.231 129.369 182.202C129.369 182.134 129.437 182.067 129.437 181.999C129.504 181.458 129.639 180.782 129.369 180.24Z" fill="#49825E"/>
<path d="M129.302 180.105C129.234 179.97 129.099 179.902 128.897 179.97C128.627 180.038 128.492 180.105 128.289 180.308C128.154 180.511 128.019 180.714 127.884 180.849C127.816 180.984 127.681 181.052 127.614 181.12C126.939 182.134 126.398 183.284 125.723 184.366C124.643 186.192 124.17 188.289 123.427 190.251C122.617 192.483 121.807 194.647 121.132 196.947C120.862 197.826 118.634 201.478 119.714 202.425C120.727 203.237 122.685 201.343 123.225 200.667C123.495 200.329 123.765 199.99 124.035 199.585C124.71 197.623 125.048 195.526 125.251 193.294C125.588 190.589 125.791 187.816 126.668 185.313C127.141 184.096 127.546 182.811 128.086 181.593C128.154 181.458 128.289 181.255 128.356 181.052C128.559 180.782 128.829 180.579 129.099 180.308C129.167 180.24 129.167 180.24 129.167 180.173C129.369 180.173 129.369 180.105 129.302 180.105Z" fill="#315940"/>
<path d="M120.524 193.565C120.254 190.048 119.376 186.531 119.106 182.946C118.971 180.917 118.769 178.955 118.498 176.926C118.296 175.506 118.093 174.153 117.823 172.733C117.081 168.945 117.081 165.09 116.81 161.235C116.743 160.288 116.405 156.162 114.92 158.123C114.447 158.732 114.447 159.544 114.245 160.22C113.975 161.167 113.705 162.046 113.569 163.061C113.232 164.819 113.367 166.578 113.367 168.404C113.367 168.877 113.367 169.283 113.367 169.757C113.434 173.071 113.367 176.318 113.84 179.564C114.11 181.458 114.515 183.284 114.717 185.11C114.92 187.275 114.852 189.371 114.987 191.536C115.122 193.768 115.46 196.067 115.663 198.299C115.798 199.855 116.203 201.478 117.081 202.831C117.081 203.508 117.148 204.522 117.958 204.657C118.769 204.793 119.916 203.913 120.254 203.237C120.727 202.222 120.659 200.802 120.659 199.72C120.659 197.758 120.727 195.662 120.524 193.565Z" fill="#49825E"/>
<path d="M120.524 193.565C120.254 190.048 119.376 186.531 119.106 182.946C118.971 180.917 118.769 178.955 118.498 176.926C118.228 177.061 117.958 177.4 117.553 177.941C117.486 178.008 117.283 178.549 117.216 178.617C116.81 178.888 116.405 177.332 116.27 176.859C115.865 175.776 115.528 174.694 115.19 173.612C114.92 172.733 114.717 171.853 114.245 171.109C114.042 170.704 113.705 170.298 113.367 169.892C113.434 173.206 113.367 176.453 113.84 179.699C114.11 181.593 114.515 183.419 114.717 185.246C114.92 187.41 114.852 189.507 114.987 191.671C115.122 193.903 115.46 196.203 115.663 198.435C115.798 199.99 116.203 201.614 117.081 202.966C117.081 203.643 117.148 204.657 117.958 204.793C118.769 204.928 119.916 204.049 120.254 203.372C120.727 202.358 120.659 200.937 120.659 199.855C120.659 197.758 120.727 195.662 120.524 193.565Z" fill="#315940"/>
<path d="M117.756 198.164C117.756 197.556 117.756 196.879 117.756 196.27C117.756 195.729 117.756 195.188 117.688 194.647C117.553 192.889 117.216 191.13 117.013 189.439C116.743 187.207 116.27 185.043 115.865 182.878C115.663 181.661 115.257 180.105 114.38 179.158C113.907 177.941 113.367 176.723 112.894 175.506C112.422 174.356 112.287 172.665 111.476 171.718C111.409 171.583 111.206 171.583 111.071 171.651C109.451 172.665 110.734 176.926 110.936 178.414C111.071 179.429 111.206 180.443 111.341 181.458C111.611 183.419 111.949 185.381 112.219 187.41C112.692 190.521 113.299 193.362 114.245 196.338C114.65 197.556 115.122 198.705 115.798 199.788C116.135 200.329 116.608 201.208 117.351 201.073C117.486 201.073 117.553 200.937 117.621 200.87C117.891 200.058 117.756 198.976 117.756 198.164Z" fill="#49825E"/>
<path d="M117.756 198.164C117.756 197.555 117.756 196.879 117.756 196.27C116.878 194.918 115.73 193.768 115.055 192.212C114.245 190.318 113.232 188.357 112.692 186.328C112.219 184.704 111.814 183.081 111.341 181.458C111.611 183.419 111.949 185.381 112.219 187.41C112.692 190.521 113.299 193.362 114.245 196.338C114.65 197.555 115.122 198.705 115.798 199.787C116.135 200.329 116.608 201.208 117.351 201.073C117.486 201.073 117.553 200.937 117.621 200.87C117.891 200.058 117.756 198.976 117.756 198.164Z" fill="#315940"/>
<path d="M117.216 200.599C117.216 200.464 117.081 200.396 116.945 200.396C116.81 199.855 116.675 199.314 116.473 198.773C116.405 198.638 116.338 198.502 116.27 198.3C115.73 197.353 114.92 196.609 114.38 195.662C113.097 193.565 111.814 190.927 111.139 188.56C111.004 187.951 110.599 185.922 109.586 186.193C109.248 186.26 109.113 186.531 108.978 186.869C108.708 187.816 109.181 189.439 109.248 189.913C109.451 191.806 109.383 193.633 110.126 195.459C110.464 196.203 111.004 196.879 111.409 197.623C111.881 198.435 112.219 199.382 112.759 200.126C113.434 201.005 115.393 202.831 116.675 202.561C117.756 202.29 117.351 201.343 117.216 200.599Z" fill="#49825E"/>
<path d="M117.215 200.599C117.215 200.464 117.08 200.396 116.945 200.396C116.81 199.855 116.675 199.314 116.473 198.773C115.798 198.029 114.92 197.488 114.177 196.812C113.434 196.135 112.759 195.323 112.151 194.579C110.261 192.347 109.923 189.574 109.045 186.869C108.775 187.816 109.248 189.439 109.316 189.913C109.518 191.806 109.451 193.633 110.193 195.459C110.531 196.203 111.071 196.879 111.476 197.623C111.949 198.435 112.286 199.382 112.827 200.126C113.502 201.005 115.46 202.831 116.743 202.561C117.756 202.29 117.351 201.343 117.215 200.599Z" fill="#315940"/>
<path d="M125.993 172.868C125.926 171.651 125.791 170.501 125.588 169.351C125.453 168.539 125.521 167.592 124.98 166.916C124.845 166.781 124.71 166.713 124.508 166.781C123.698 167.254 123.698 167.863 123.563 168.742C123.292 169.96 122.955 171.177 122.617 172.327C121.875 175.1 121.199 177.603 121.064 180.443C120.997 181.931 120.997 183.419 120.659 184.907C120.322 186.328 120.186 187.545 120.186 188.966C120.186 191.333 119.714 193.7 119.646 196.067C119.039 197.623 117.688 202.493 119.444 202.155C119.916 202.087 120.254 201.411 120.457 201.005C120.929 200.126 121.537 199.246 122.01 198.299C122.955 196.203 123.563 193.768 124.103 191.536C125.115 187.545 125.048 183.284 125.453 179.226C125.791 177.129 126.196 175.032 125.993 172.868Z" fill="#49825E"/>
<path d="M127.546 201.478C127.006 204.928 127.141 215.682 126.939 216.967H110.869C110.666 214.87 110.328 205.198 110.058 201.817C110.126 201.681 110.464 201.411 110.464 201.411C110.464 201.411 110.599 201.546 110.734 201.478C110.936 201.411 111.071 201.208 111.139 201.14L112.759 200.667C112.827 200.734 113.029 200.802 113.164 200.802C113.434 200.734 113.569 200.531 113.569 200.464L115.865 199.99C115.933 200.058 116.135 200.193 116.338 200.193C116.608 200.193 116.878 199.855 116.878 199.855L119.309 199.787C119.376 199.855 119.646 200.126 120.119 200.126C120.457 200.126 120.659 199.923 120.659 199.923L123.292 200.193C123.36 200.261 123.698 200.464 123.968 200.531C124.103 200.531 124.238 200.464 124.305 200.396L126.196 200.802C126.263 200.87 126.466 201.073 126.668 201.073C126.804 201.073 126.871 201.005 126.871 201.005C126.871 201.005 127.479 201.411 127.546 201.478Z" fill="#CF4D11"/>
<path d="M112.152 216.967H111.476C111.341 214.735 111.139 212.503 111.004 210.271C110.801 207.363 110.801 204.387 110.396 201.478C110.396 201.478 110.531 201.614 110.666 201.546C110.869 201.478 111.004 201.276 111.071 201.208C111.476 204.116 111.476 207.092 111.679 210.001C111.814 212.3 112.017 214.668 112.152 216.967Z" fill="#A83E0E"/>
<path d="M114.312 216.967H113.232C113.232 216.697 113.232 216.426 113.164 216.223C113.029 214.465 113.029 212.774 113.029 211.015C113.029 207.566 112.692 204.184 112.624 200.734C112.692 200.734 112.894 200.87 113.029 200.87C113.299 200.802 113.434 200.599 113.434 200.531C113.434 203.71 113.907 206.822 114.042 210.001C114.11 211.624 114.11 213.247 114.177 214.871C114.312 215.547 114.312 216.291 114.312 216.967Z" fill="#A83E0E"/>
<path d="M115.865 216.967V203.575C115.865 202.493 115.865 201.343 115.865 200.261V200.126C115.933 200.193 116.135 200.329 116.338 200.329C116.608 200.329 116.878 199.99 116.878 199.99C116.878 203.034 117.148 206.078 117.081 209.054C117.081 210.812 117.081 212.503 117.081 214.262C117.081 215.141 117.148 216.088 117.148 216.967H115.865Z" fill="#A83E0E"/>
<path d="M119.579 216.967C119.579 216.494 119.646 216.088 119.646 215.614C119.646 215.141 119.646 214.735 119.646 214.262C119.646 214.059 119.579 213.856 119.579 213.585C119.511 212.368 119.579 211.15 119.579 209.933V208.039C119.511 206.078 119.376 204.116 119.376 202.087C119.376 201.614 119.241 200.667 119.376 199.923C119.444 199.99 119.714 200.261 120.186 200.193C120.524 200.193 120.727 199.99 120.727 199.99C120.727 200.396 120.862 200.802 120.862 201.208C120.929 202.155 120.862 203.102 120.862 203.981V208.986C120.862 211.624 120.929 214.262 120.929 216.967H119.579Z" fill="#A83E0E"/>
<path d="M124.508 216.967H123.63C123.563 216.426 123.427 215.885 123.427 215.412C123.292 213.856 123.157 212.3 123.225 210.745C123.292 207.295 123.63 203.778 123.292 200.329C123.36 200.396 123.698 200.599 123.968 200.667C124.103 200.667 124.238 200.599 124.305 200.532C124.305 206.01 124.508 211.489 124.508 216.967Z" fill="#A83E0E"/>
<path d="M126.871 201.14C126.804 204.454 126.736 207.769 126.736 211.083C126.736 213.044 126.601 215.006 126.533 216.967H125.858C125.926 215.006 126.061 213.044 126.061 211.083C126.061 207.701 126.061 204.319 126.196 200.937C126.263 201.005 126.466 201.14 126.668 201.208C126.736 201.208 126.871 201.14 126.871 201.14Z" fill="#A83E0E"/>
<path d="M153.947 180.646C153.744 179.091 153.474 177.67 153.474 176.115V174.897C153.474 174.491 153.474 174.085 153.474 173.68C153.474 172.665 153.407 171.718 153.339 170.704C153.204 169.216 153.069 167.728 153.001 166.24C153.001 165.496 152.866 164.752 152.799 164.075C152.731 163.602 152.799 162.79 152.461 162.384C151.381 161.167 150.706 163.534 150.368 164.278C149.49 166.578 149.693 169.486 149.693 171.853C149.693 173.68 149.625 175.438 149.625 177.197C149.625 178.955 149.625 180.714 149.76 182.54C149.896 184.231 149.896 185.854 149.896 187.545C149.896 189.71 149.76 191.874 149.963 194.038C150.031 195.526 150.098 197.014 150.301 198.57C150.436 200.328 150.976 201.952 151.178 203.643C151.178 204.049 151.246 204.454 151.719 204.657C151.854 204.725 152.056 204.725 152.124 204.59C153.474 202.966 153.339 199.855 153.474 197.894C153.677 194.985 154.149 192.144 153.879 189.236C153.609 186.395 154.284 183.555 153.947 180.646Z" fill="#49825E"/>
<path d="M163.129 181.255C162.994 180.917 162.522 181.12 162.522 181.39C162.454 182.269 161.779 183.216 161.509 184.096C161.171 185.178 160.969 186.192 160.834 187.275C160.699 188.424 160.699 189.642 160.361 190.792C160.091 191.806 159.416 192.618 158.876 193.497C157.458 195.729 155.567 197.623 154.014 199.72C153.947 199.787 153.879 199.855 153.812 199.855C153.744 199.923 153.609 199.99 153.542 200.058C153.407 200.193 153.271 200.261 153.136 200.328C152.664 200.667 152.191 201.208 151.921 201.749C151.854 201.816 151.854 201.952 151.921 202.019C151.516 202.628 151.178 203.507 151.381 204.116C151.651 205.131 152.529 204.793 153.339 204.522C154.892 203.913 156.175 202.899 157.458 201.884C158.673 200.937 159.889 200.126 160.834 198.84C161.847 197.42 162.117 196 162.657 194.376C163.129 192.686 163.467 190.995 163.602 189.236C163.67 187.748 163.94 185.989 163.94 184.299C163.737 183.216 163.602 182.134 163.129 181.255Z" fill="#49825E"/>
<path d="M162.184 189.236C161.644 190.792 161.036 192.28 160.294 193.768C159.416 195.594 158.268 197.691 156.512 198.84C155.567 199.449 154.487 199.72 153.474 200.058C153.339 200.193 153.204 200.261 153.069 200.328C152.596 200.667 152.124 201.208 151.854 201.749C151.786 201.817 151.786 201.952 151.854 202.019C151.448 202.628 151.111 203.507 151.313 204.116C151.583 205.131 152.461 204.793 153.272 204.522C154.824 203.913 156.107 202.899 157.39 201.884C158.606 200.937 159.821 200.126 160.766 198.84C161.779 197.42 162.049 196 162.589 194.376C163.062 192.686 163.4 190.995 163.535 189.236C163.602 187.748 163.872 185.99 163.872 184.299C163.467 185.99 162.724 187.613 162.184 189.236Z" fill="#315940"/>
<path d="M153.947 180.646C153.744 179.091 153.474 177.67 153.474 176.114V174.897C153.474 174.491 153.474 174.085 153.474 173.68C153.407 173.815 153.339 173.95 153.272 174.153C152.934 174.965 152.394 175.709 152.124 176.588C151.516 178.347 151.516 180.24 151.516 182.067C151.516 182.946 151.516 183.96 151.246 184.84C150.908 186.192 151.111 185.516 150.841 184.569C150.166 182.405 150.031 180.173 150.031 177.941C150.031 177.805 149.963 177.67 149.828 177.67C149.76 177.535 149.76 177.4 149.693 177.264C149.693 179.023 149.693 180.781 149.828 182.608C149.963 184.299 149.963 185.922 149.963 187.613C149.963 189.777 149.828 191.941 150.031 194.106C150.098 195.594 150.166 197.082 150.368 198.638C150.503 200.396 151.043 202.019 151.246 203.71C151.246 204.116 151.313 204.522 151.786 204.725C151.921 204.792 152.124 204.792 152.191 204.657C153.542 203.034 153.407 199.923 153.542 197.961C153.744 195.053 154.217 192.212 153.947 189.304C153.609 186.395 154.284 183.555 153.947 180.646Z" fill="#315940"/>
<path d="M157.998 181.728C157.728 179.091 157.525 176.25 157.998 173.68C158.133 173.071 159.686 169.283 157.93 169.486C157.525 169.554 157.12 170.027 156.918 170.365C156.175 171.312 155.635 172.395 155.162 173.544C154.689 174.762 154.352 175.979 153.879 177.129C153.407 178.347 152.866 179.632 152.799 180.917C152.664 183.352 152.731 185.854 152.596 188.289C152.461 190.927 152.124 193.632 152.124 196.27C152.124 197.488 151.921 198.705 151.786 199.923C151.584 201.275 151.448 202.628 151.584 204.049C151.448 204.184 151.516 204.387 151.651 204.522C151.786 204.86 152.326 204.657 152.259 204.251C153.744 202.425 154.689 199.855 155.702 197.758C156.85 195.526 157.728 193.159 158.065 190.656C158.403 188.222 158.471 185.651 158.201 183.149C158.133 182.608 158.065 182.134 157.998 181.728Z" fill="#49825E"/>
<path d="M158.133 183.081C158.065 182.608 157.998 182.202 157.998 181.728C156.04 185.11 155.162 188.966 154.419 192.753C154.217 193.768 153.879 194.782 153.542 195.729C153.204 196.744 152.056 195.188 151.516 196.135C151.313 196.473 152.056 199.449 151.786 199.787C151.584 201.14 151.448 202.493 151.584 203.913C151.448 204.049 151.516 204.251 151.651 204.387C151.786 204.725 152.326 204.522 152.259 204.116C153.744 202.29 154.689 199.72 155.702 197.623C156.85 195.391 157.728 193.024 158.065 190.521C158.336 188.086 158.471 185.516 158.133 183.081Z" fill="#315940"/>
<path d="M152.326 204.725C152.326 204.59 152.259 204.522 152.124 204.454C152.056 204.049 151.921 203.575 151.921 203.169C151.786 201.817 151.989 200.464 151.921 199.043C151.921 198.705 151.854 198.299 151.786 197.961C151.516 196 150.976 194.038 150.233 192.28C149.423 190.386 148.748 188.492 147.735 186.666C147.06 185.448 146.925 184.028 146.317 182.743C146.047 182.202 145.642 180.917 145.102 180.579C143.751 179.699 144.021 182.134 144.021 182.675C144.021 183.893 143.954 185.11 144.089 186.26C144.089 186.328 144.089 186.395 144.089 186.463C144.224 187.613 144.696 188.695 144.967 189.777C145.642 192.212 146.114 194.715 147.06 197.082C147.6 198.299 147.937 199.585 148.478 200.802C148.815 201.546 149.625 202.493 149.896 203.372C149.896 203.44 149.896 203.507 149.896 203.575C149.963 203.71 149.963 203.846 150.031 203.981C150.166 204.319 150.436 204.657 150.638 204.928C150.908 205.266 151.178 205.807 151.584 206.01C151.719 206.078 151.854 206.078 151.989 205.942C152.461 205.604 152.326 205.131 152.326 204.725Z" fill="#49825E"/>
<path d="M152.326 204.725C152.326 204.59 152.258 204.522 152.123 204.454C152.056 204.048 151.921 203.575 151.921 203.169C151.786 201.816 148.95 195.323 148.14 193.971C147.329 192.618 146.519 191.333 145.844 189.845C145.304 188.695 144.561 187.477 144.156 186.26C144.156 186.328 144.156 186.395 144.156 186.463C144.291 187.613 144.764 188.695 145.034 189.777C145.709 192.212 146.182 194.715 147.127 197.082C147.667 198.299 148.005 199.584 148.545 200.802C148.882 201.546 149.693 202.493 149.963 203.372C149.963 203.44 149.963 203.507 149.963 203.575C150.03 203.71 150.03 203.846 150.098 203.981C150.233 204.319 150.503 204.657 150.706 204.928C150.976 205.266 151.246 205.807 151.651 206.01C151.786 206.078 151.921 206.078 152.056 205.942C152.461 205.604 152.326 205.131 152.326 204.725Z" fill="#315940"/>
<path d="M162.319 202.831C161.914 208.445 162.117 212.097 161.982 216.967H146.182C145.912 215.817 145.979 205.334 145.169 201.817C145.372 201.681 145.844 201.343 145.844 201.343C145.844 201.343 145.979 201.343 146.114 201.343C146.249 201.275 146.52 201.073 146.52 201.073L148.14 200.734C148.14 200.734 148.14 200.87 148.478 200.87C148.68 200.87 148.95 200.599 148.95 200.599C148.95 200.599 150.436 200.531 150.976 200.464C151.043 200.464 151.178 200.464 151.178 200.464C151.246 200.531 151.449 200.599 151.786 200.599C152.191 200.599 152.394 200.329 152.394 200.329L154.96 200.261C154.96 200.261 155.365 200.531 155.77 200.531C156.175 200.531 156.378 200.329 156.378 200.329L158.336 200.599C158.336 200.599 158.606 200.87 158.876 200.87C159.146 200.87 159.146 200.734 159.146 200.734L161.104 201.073C161.104 201.073 161.306 201.208 161.577 201.275C161.644 201.275 161.779 201.275 161.779 201.208C161.779 201.208 162.454 201.411 162.589 201.478C162.657 201.681 162.319 202.696 162.319 202.831Z" fill="#CF4D11"/>
<path d="M147.397 216.967H146.722C146.655 214.668 146.452 212.435 146.384 210.203C146.249 207.363 145.777 204.319 145.844 201.411C145.844 201.411 145.979 201.411 146.114 201.411C146.249 201.343 146.519 201.14 146.519 201.14C146.384 204.116 146.925 207.295 147.06 210.271C147.127 212.435 147.262 214.735 147.397 216.967Z" fill="#A83E0E"/>
<path d="M149.288 216.967C149.288 216.832 149.288 216.697 149.288 216.561C149.288 215.479 149.085 214.465 149.018 213.45C148.815 211.353 148.613 209.257 148.545 207.16C148.343 204.995 148.14 202.899 148.072 200.734C148.072 200.734 148.072 200.87 148.41 200.87C148.613 200.87 148.883 200.599 148.883 200.599C149.355 204.995 149.828 209.392 149.963 213.788C150.098 214.87 150.166 215.885 150.166 216.967H149.288Z" fill="#A83E0E"/>
<path d="M152.866 216.967H151.921C151.854 214.532 151.516 212.097 151.448 209.662C151.448 208.58 151.381 207.498 151.381 206.416C151.178 204.454 150.908 202.425 151.043 200.464C151.111 200.464 151.313 200.599 151.651 200.599C152.056 200.599 152.259 200.328 152.259 200.328C152.326 205.875 152.934 211.421 152.866 216.967Z" fill="#A83E0E"/>
<path d="M157.053 216.967H155.432C155.297 214.6 155.162 212.233 155.095 209.865C155.027 206.686 154.824 203.44 154.892 200.328C154.892 200.328 155.297 200.599 155.702 200.599C156.107 200.599 156.31 200.396 156.31 200.396C156.242 203.169 156.445 205.942 156.377 208.715C156.445 209.595 156.513 210.474 156.513 211.353C156.715 213.179 156.85 215.073 157.053 216.967Z" fill="#A83E0E"/>
<path d="M159.618 216.967H158.876C158.606 214.532 158.606 212.03 158.471 209.595C158.403 208.107 158.403 206.619 158.336 205.131C158.268 203.71 158.538 202.019 158.268 200.599C158.268 200.599 158.538 200.87 158.808 200.87C159.078 200.87 159.078 200.734 159.078 200.734C159.146 203.507 159.281 206.281 159.281 209.054C159.281 211.759 159.551 214.329 159.618 216.967Z" fill="#A83E0E"/>
<path d="M161.577 210.542C161.644 212.571 161.644 214.87 161.577 216.967H160.834C160.901 216.088 160.969 215.209 160.901 214.397C160.834 212.909 160.901 211.489 160.901 210.001C160.901 207.025 161.104 204.049 161.036 201.073C161.036 201.073 161.239 201.208 161.509 201.275C161.577 201.275 161.712 201.275 161.712 201.208C161.712 204.387 161.442 207.43 161.577 210.542Z" fill="#A83E0E"/>
<path d="M86.8314 242.06L95.4065 243.481H316.131L335.644 242.06H86.8314Z" fill="#81898C"/>
<path opacity="0.5" d="M316.13 192.956H97.0936V216.967H316.13V192.956Z" fill="#EBFAFF"/>
<path d="M97.3645 216.967H96.6893C96.6893 213.315 96.6218 209.933 96.5543 206.281C96.4868 201.884 96.5543 197.353 96.5543 192.956V192.483C96.5543 192.009 97.2295 192.009 97.2295 192.483V192.956C97.2295 197.353 97.162 201.884 97.2295 206.281C97.297 209.933 97.3645 213.382 97.3645 216.967Z" fill="#4F5958"/>
<path d="M141.253 216.967H140.578C140.443 215.479 140.51 213.856 140.51 212.368C140.51 210.271 140.375 208.445 140.443 206.213C140.51 204.387 140.24 202.628 140.375 200.802C140.578 198.232 140.375 195.594 140.375 193.024C140.375 192.889 140.375 192.686 140.375 192.55C140.375 192.145 141.05 192.145 141.05 192.55C141.05 192.686 141.05 192.889 141.05 193.024C141.05 195.526 141.253 198.164 141.118 200.667C141.05 202.425 141.32 204.184 141.185 205.942C141.05 207.972 141.05 210.001 141.185 212.03C141.32 213.585 141.05 215.344 141.253 216.967Z" fill="#4F5958"/>
<path d="M184.871 204.928C184.804 208.986 184.736 212.977 184.736 217.035H184.061C184.061 213.044 184.128 208.986 184.196 204.928C184.263 200.937 184.128 196.947 184.061 192.956C184.061 192.821 184.061 192.686 184.061 192.483C184.061 192.009 184.736 192.009 184.736 192.483C184.736 192.618 184.736 192.753 184.736 192.956C184.804 196.947 184.939 200.937 184.871 204.928Z" fill="#4F5958"/>
<path d="M228.354 216.967H227.679C227.679 212.977 227.882 209.054 227.747 205.063C227.612 201.005 227.544 196.947 227.544 192.956C227.544 192.753 227.544 192.483 227.544 192.28C227.544 191.874 228.219 191.874 228.219 192.28C228.219 192.483 228.219 192.753 228.219 192.956C228.219 197.014 228.287 201.072 228.422 205.063C228.557 209.054 228.354 212.977 228.354 216.967Z" fill="#4F5958"/>
<path d="M271.77 216.967H271.095C271.162 208.986 271.095 200.937 271.095 192.956V192.009C271.095 191.603 271.77 191.603 271.77 192.009V192.956C271.77 200.937 271.837 208.986 271.77 216.967Z" fill="#4F5958"/>
<path d="M160.024 140.267L155.23 137.629H160.766L160.024 140.267Z" fill="#282E2D"/>
<path d="M335.644 138.373H159.213V156.906H335.644V138.373Z" fill="#AAADAD"/>
<path d="M335.667 242.066V138.378H316.153V242.066H335.667Z" fill="#AAADAD"/>
<path d="M334.699 216.967H86.8314V242.06H334.699V216.967Z" fill="#AAADAD"/>
<path d="M159.213 138.373V140.808H159.281C164.007 141.552 169.409 141.011 174.135 140.876C179.807 140.74 185.681 141.484 191.286 142.026C193.919 142.296 196.62 142.702 199.253 142.77C202.629 142.837 206.005 142.499 209.381 142.702C214.85 142.972 220.454 143.581 225.924 143.581C238.752 143.581 251.446 143.446 264.275 143.987C266.909 144.122 269.609 143.784 272.243 143.581C275.281 143.311 278.455 143.784 281.493 144.122C287.367 144.866 293.309 145.34 299.251 144.799C306.543 144.122 314.24 144.663 321.6 144.731C326.327 144.731 330.985 145.543 335.577 146.287V138.373H159.213Z" fill="#81898C"/>
<path d="M339.29 137.697C339.223 137.697 339.155 137.764 338.953 137.764C338.48 137.832 337.737 137.764 337.197 137.764C290.338 137.697 243.479 137.764 196.62 137.764C185.276 137.764 168.666 137.764 157.323 137.832C153.339 137.832 154.554 136.818 154.554 136.547C154.487 136.276 161.104 136.412 162.589 136.412C210.934 136.412 259.211 136.412 307.556 136.412C307.826 136.412 308.028 136.412 308.299 136.412C316.806 136.412 325.246 136.412 333.754 136.412C335.509 136.412 337.67 136.344 339.223 136.479C339.831 136.479 340.101 137.426 339.29 137.697Z" fill="#4F5958"/>
<path d="M159.213 156.973H316.131V158.191L160.969 157.92L159.213 156.973Z" fill="#81898C"/>
<path d="M338.953 137.764L335.644 138.644H159.213L155.23 137.629H339.29L338.953 137.764Z" fill="#282E2D"/>
<path d="M286.152 344.936H116.743V347.506H286.152V344.936Z" fill="white"/>
<path d="M132.07 341.013V372.735L125.115 378.552H83.4553V345.071L91.8279 341.013H132.07Z" fill="#F5EADF"/>
<path d="M132.07 341.013L130.112 342.163L129.167 342.704L125.115 345.071C125.115 345.071 84.198 345.071 83.4553 345.071L91.8279 341.081H132.07V341.013Z" fill="white"/>
<path d="M114.92 341.013C114.65 341.148 114.38 341.351 114.177 341.622C113.84 342.028 113.772 342.366 113.907 342.636C113.434 342.636 113.029 342.636 112.624 342.501C112.219 342.366 112.017 342.975 112.422 343.177C113.164 343.448 114.11 343.38 114.987 343.313C115.055 343.313 115.122 343.313 115.257 343.313C115.325 343.313 115.393 343.313 115.393 343.245C115.46 343.245 115.595 343.245 115.663 343.245C117.081 343.177 119.241 342.839 120.592 342.839C122.887 342.772 127.006 342.433 129.977 342.231L131.935 341.081H114.92V341.013Z" fill="#F5EADF"/>
<path d="M132.07 341.013V372.735L125.115 378.552V345.071L132.07 341.013Z" fill="#E0D0BE"/>
<path d="M279.94 341.013V372.735L286.962 378.552H328.555L328.622 345.071L320.25 341.013H279.94Z" fill="#F5EADF"/>
<path d="M328.622 345.071C327.88 345.071 286.962 345.071 286.962 345.071L280.007 341.081H320.25L320.925 341.419L323.086 342.433L328.622 345.071Z" fill="white"/>
<path d="M320.925 341.351L320.25 341.013H309.109C309.109 341.081 309.109 341.148 309.041 341.216C308.839 342.569 311.202 343.313 312.215 343.245C312.282 343.245 312.282 343.245 312.282 343.245C314.105 343.11 319.304 342.704 323.086 342.366L320.925 341.351Z" fill="#E0D0BE"/>
<path d="M279.94 341.013V372.735L286.962 378.552V345.071L279.94 341.013Z" fill="#FAF6F3"/>
<path d="M281.696 366.106L281.763 357.178L279.94 355.217V347.439H257.793H254.957H132.07V355.217L130.247 357.178L130.382 366.106L128.356 368.068V375.643H254.957H257.793H283.721V368.068L281.696 366.106Z" fill="#F5EADF"/>
<path d="M257.793 357.178H281.763L279.94 355.217H257.793H254.957H132.07L130.247 357.178H254.957H257.793Z" fill="white"/>
<path d="M281.696 366.106H257.793H254.957H130.382L128.356 368.068H254.957H257.793H283.721L281.696 366.106Z" fill="white"/>
<path d="M116.945 243.481V342.028L114.582 343.38H99.7278V242.804H114.582L116.945 243.481Z" fill="#F5EADF"/>
<path d="M114.582 242.804H99.7278V252.138C101.281 251.868 102.901 251.597 104.522 251.732C106.615 252.003 109.991 252.477 111.746 253.559C112.692 254.167 113.704 255.047 114.65 256.061C115.528 257.008 116.27 258.023 116.81 258.902C116.878 259.037 117.013 259.24 117.081 259.375V243.481L114.582 242.804Z" fill="#E0D0BE"/>
<path d="M116.945 243.481V342.028L114.582 343.38V242.804L116.945 243.481Z" fill="#DECDBD"/>
<path d="M312.35 242.804V343.38H297.495L295.132 342.028V243.481L297.495 242.804H312.35Z" fill="#F5EADF"/>
<path d="M297.495 242.804L295.132 243.548V248.351C295.335 249.298 295.74 250.244 296.347 250.921C296.01 250.988 296.077 251.597 296.482 251.597C300.534 251.597 304.247 252.409 307.421 254.979C308.569 255.926 309.649 257.143 310.729 258.158C311.405 258.767 311.877 259.511 312.417 260.255V242.804H297.495Z" fill="#E0D0BE"/>
<path d="M297.495 242.804V343.38L295.132 342.028V243.481L297.495 242.804Z" fill="white"/>
<path d="M295.132 243.481V252.003C295.942 251.868 296.888 251.665 297.495 251.53V242.804L295.132 243.481Z" fill="#DECAB6"/>
<path d="M499.652 263.975V333.505L496.073 331.476V266.004L499.652 263.975Z" fill="#81898C"/>
<path d="M513.898 243.481V333.505H499.652L499.449 333.37L496.073 331.476H394.59V333.505H380.343V243.481H513.898Z" fill="#AAADAD"/>
<path d="M380.343 243.481L376.764 263.975V319.234L380.343 333.505V243.481Z" fill="#81898C"/>
<path d="M496.006 264.516H394.59V331.477H496.006V264.516Z" fill="#4F5958"/>
<path d="M394.59 264.516V331.476H399.384C399.316 329.244 399.586 326.877 399.586 324.78C399.586 320.384 399.249 315.785 399.991 311.388C401.342 304.219 402.76 296.981 406.473 290.624C410.525 283.725 415.926 279.396 422.948 275.811C424.906 274.797 426.459 274.188 428.755 274.323C438.208 274.864 447.458 272.024 456.776 271.144C460.557 270.806 464.338 271.415 468.12 270.806C474.602 269.724 481.354 271.144 487.768 270.062C490.942 269.521 490.334 269.047 493.372 267.83C494.318 267.424 495.195 267.154 496.073 266.815V264.448H394.59V264.516Z" fill="#3D4544"/>
<path d="M452.252 327.012C452.252 326.877 452.252 326.742 452.185 326.606V326.674C452.05 325.93 450.834 326.065 450.834 326.877C450.834 326.945 450.834 327.012 450.834 327.08C450.902 327.35 450.902 327.621 450.969 327.959C450.969 328.094 450.969 328.23 451.037 328.365C450.767 328.365 450.294 328.297 450.227 328.297C449.349 328.297 448.404 328.365 447.526 328.365C446.175 328.365 444.622 328.568 443.272 328.297C443.272 328.23 443.272 328.094 443.272 328.027C443.272 327.824 443.272 327.553 443.272 327.35C443.475 326.877 443.137 326.201 442.529 326.336C441.989 326.471 441.989 327.08 441.989 327.486C441.989 327.892 441.922 328.365 441.922 328.771C441.922 329.177 442.192 329.38 442.462 329.447C442.529 329.515 442.597 329.515 442.732 329.582C444.285 329.921 446.175 329.718 447.796 329.718C448.674 329.718 449.551 329.582 450.429 329.582C450.969 329.582 451.442 329.785 451.982 329.515C452.252 329.447 452.455 329.244 452.522 329.041C452.522 328.365 452.32 327.689 452.252 327.012Z" fill="#3D4544"/>
<path d="M422.476 331.476H421.801C421.733 309.156 421.53 286.836 421.733 264.516H422.408C422.206 286.836 422.408 309.156 422.476 331.476Z" fill="#293030"/>
<path d="M447.391 331.476H446.716C446.648 309.156 446.445 286.836 446.648 264.516H447.323C447.121 286.836 447.323 309.156 447.391 331.476Z" fill="#293030"/>
<path d="M472.103 331.476H471.428C471.361 309.156 471.158 286.836 471.428 264.516H472.103C471.901 286.836 472.036 309.156 472.103 331.476Z" fill="#293030"/>
<path d="M451.442 326.268H442.799V328.838H451.442V326.268Z" fill="#B8A698"/>
<path d="M394.59 264.448H499.449L496.073 266.477H394.59V264.448Z" fill="#6A7073"/>
<path d="M499.449 264.516V333.37L496.073 331.476V266.545L499.449 264.516Z" fill="#81898C"/>
<path d="M626.995 405.539C597.286 408.988 568.725 407.635 539.556 403.307C485.54 395.325 435.305 386.465 380.343 390.591C379.87 390.659 377.777 390.32 377.305 390.32C377.642 390.32 378.587 386.059 378.722 385.721C380.343 380.986 381.558 376.049 383.516 371.382C383.786 370.773 383.989 370.232 384.124 369.623C385.069 365.633 386.015 361.642 387.163 357.719C387.703 355.826 388.445 353.932 389.053 352.106C389.593 350.482 389.931 349.129 390.876 347.709C392.024 345.883 392.902 343.854 392.834 341.689C392.767 339.66 393.037 338.511 393.644 336.549C393.78 336.143 393.847 335.805 393.982 335.467C394.387 334.182 394.59 333.438 394.59 333.438V331.409H496.006C496.006 331.409 500.259 333.844 501.475 334.52C504.783 336.414 507.957 337.969 510.793 340.404C513.628 342.839 517.139 343.854 520.38 345.545C524.432 347.641 527.74 350.685 531.724 352.782C543.675 359.004 555.356 365.836 567.24 372.329C572.709 375.373 578.448 378.078 583.917 381.122C589.521 384.301 594.383 388.494 600.257 391.132C606.334 393.837 612.276 397.152 618.083 400.466C619.838 401.48 624.902 405.674 626.995 405.539Z" fill="#FFF7F0"/>
<path d="M402.017 336.076C401.477 334.993 400.059 335.264 399.046 335.264C398.844 335.264 398.641 335.399 398.506 335.534C397.628 335.602 396.548 335.602 396.008 336.346C395.873 336.549 395.873 336.955 396.143 337.158C396.885 337.834 397.966 337.564 398.844 337.564C399.789 337.496 401.207 337.699 401.882 336.887C402.152 336.684 402.152 336.346 402.017 336.076Z" fill="#EDDDCC"/>
<path d="M411.875 339.322H410.592C409.714 339.322 409.714 340.675 410.592 340.675H411.875C412.753 340.675 412.753 339.322 411.875 339.322Z" fill="#EDDDCC"/>
<path d="M504.243 340.607C504.108 340.472 503.973 340.337 503.703 340.337C502.487 340.337 501.34 340.269 500.192 340.607C499.449 340.81 498.369 340.878 498.166 341.825C497.896 343.313 499.584 343.245 500.597 343.245C501.677 343.245 502.555 343.177 503.635 342.975C504.378 342.839 505.121 342.772 505.323 341.892C505.458 341.013 504.918 340.675 504.243 340.607Z" fill="#EDDDCC"/>
<path d="M499.381 347.033C499.111 346.965 498.841 346.897 498.639 346.83C498.571 346.492 498.301 346.221 497.829 346.356C497.221 346.627 496.546 346.83 496.005 347.236C495.398 347.709 495.128 348.656 495.938 349.129C496.546 349.468 497.423 349.197 498.099 348.994C498.774 348.791 499.584 348.521 499.854 347.844C499.989 347.574 499.719 347.1 499.381 347.033Z" fill="#EDDDCC"/>
<path d="M491.482 342.704C490.334 342.636 488.578 342.569 488.173 343.719C487.633 345.207 490.199 345.139 491.009 345.004C491.819 344.936 493.98 344.801 493.845 343.583C493.777 342.569 492.359 342.636 491.482 342.704Z" fill="#EDDDCC"/>
<path d="M485.81 371.111C485.472 369.691 484.325 369.691 483.109 369.826H483.042C482.029 369.759 481.084 369.691 480.138 370.097C478.99 370.57 477.843 371.111 476.627 371.45C476.357 371.517 476.155 371.788 476.155 372.126C476.087 375.034 481.826 374.02 483.447 373.749C484.73 373.343 486.215 372.802 485.81 371.111Z" fill="#EDDDCC"/>
<path d="M491.752 374.358C491.617 374.29 491.482 374.29 491.279 374.29C491.144 374.087 491.009 373.952 490.739 373.952C490.064 373.952 489.389 373.817 488.713 374.02C488.038 374.223 487.228 375.102 487.836 375.846C488.308 376.455 489.389 376.387 490.064 376.319C490.806 376.252 491.684 376.049 492.157 375.305C492.427 375.034 492.224 374.493 491.752 374.358Z" fill="#EDDDCC"/>
<path d="M451.847 352.038C451.239 351.97 450.699 351.903 450.092 351.97C449.957 351.903 449.822 351.767 449.686 351.767C448.741 351.767 447.863 351.7 446.986 351.903C446.513 352.038 445.905 352.106 445.568 352.444C444.69 353.255 445.365 354.54 446.378 354.743C447.188 354.946 448.133 354.743 448.944 354.743C449.484 354.743 449.957 354.743 450.497 354.676C451.577 354.54 452.455 353.932 452.387 352.782C452.32 352.376 452.185 352.038 451.847 352.038Z" fill="#EDDDCC"/>
<path d="M443.204 356.637C442.934 356.299 442.462 356.164 442.057 356.164C441.922 356.096 441.786 356.028 441.651 356.028C440.774 356.028 440.031 356.231 439.221 356.57C438.748 356.772 438.005 357.043 437.87 357.652C437.533 359.207 440.706 359.004 441.516 358.937C442.327 358.802 444.082 357.719 443.204 356.637Z" fill="#EDDDCC"/>
<path d="M436.317 352.038C435.845 351.903 435.372 351.97 434.899 352.106C434.494 352.038 434.022 351.97 433.617 352.106C433.144 352.241 432.334 352.444 432.064 352.917C431.794 353.323 431.861 353.932 432.266 354.202C432.671 354.473 433.144 354.473 433.549 354.473C434.224 354.473 434.832 354.27 435.44 354.135C436.047 353.999 436.655 353.864 436.925 353.255C437.263 352.647 436.858 352.173 436.317 352.038Z" fill="#EDDDCC"/>
<path d="M393.847 371.517C393.104 370.841 391.484 370.841 390.539 371.314C389.458 371.314 387.905 371.382 387.297 372.194C386.555 373.141 387.5 373.952 388.445 374.02C390.201 374.087 393.374 374.358 393.982 372.126C394.05 371.991 393.982 371.72 393.847 371.517Z" fill="#EDDDCC"/>
<path d="M400.802 369.421C400.869 369.082 400.734 368.812 400.329 368.677C399.721 368.541 399.181 368.203 398.573 368.541C398.101 368.812 397.696 369.421 397.696 369.962C397.696 370.232 397.898 370.503 398.168 370.638C399.046 370.909 399.721 370.503 400.464 370.165C400.802 370.029 400.869 369.691 400.802 369.421Z" fill="#EDDDCC"/>
<path d="M124.305 384.03L130.72 378.281H280.615L287.3 384.03C238.077 383.962 151.854 383.895 124.305 384.03Z" fill="white"/>
<path d="M287.3 384.03H124.305V386.397H287.3V384.03Z" fill="#F5EADF"/>
<path d="M116.743 396.205C116.203 396.205 115.73 396.205 115.257 396.205L122.82 389.441C150.976 389.373 256.645 389.441 288.853 389.509L296.82 396.408C277.442 396.272 122.077 396.137 116.743 396.205Z" fill="white"/>
<path d="M296.82 396.205H115.257V399.316H296.82V396.205Z" fill="#F5EADF"/>
<path d="M305.8 409.529C303.437 410.408 301.074 411.288 298.778 412.167C297.563 412.64 296.347 413.046 295.132 413.52H101.956L113.772 402.968C138.349 402.698 235.039 402.901 298.373 403.104L305.8 409.529Z" fill="white"/>
<path d="M295.132 413.587C292.769 414.467 290.338 415.346 287.975 416.158C286.692 416.631 285.409 417.104 284.059 417.51H101.956V413.587H295.132Z" fill="#F5EADF"/>
<path d="M158.741 309.697C158.741 309.765 158.808 309.765 158.741 309.697V309.697Z" fill="#8E9974"/>
<path d="M504.108 262.554C503.703 264.651 503.028 267.898 504.783 269.589C506.471 271.144 508.699 270.333 510.32 269.183C511.535 268.303 512.751 267.357 513.898 266.274V248.012C508.969 250.65 505.121 257.482 504.108 262.554Z" fill="#81898C"/>
<path d="M526.255 232.05C525.174 232.253 524.702 232.05 524.364 231.847C523.891 231.509 523.554 231.171 522.203 231.441C519.705 231.983 517.207 232.862 514.911 234.079C512.818 235.161 511.198 236.379 509.51 238.138C507.687 240.031 505.661 241.249 504.243 243.616C501.812 247.539 499.247 251.868 498.436 256.805C498.031 259.443 498.166 262.284 499.719 263.163C499.922 263.298 500.124 263.366 500.394 263.434C500.934 263.569 501.61 263.434 502.352 263.163C504.378 262.351 506.066 259.917 507.889 258.699C509.712 257.482 511.468 256.197 513.088 254.709C515.249 252.747 517.68 251.462 519.908 249.5C521.663 247.877 523.419 246.186 525.309 244.834C527.74 243.075 532.872 240.167 533.007 235.905C533.142 233.403 530.508 231.171 526.255 232.05Z" fill="#49825E"/>
<path d="M526.12 232.118C525.512 232.321 524.904 232.591 524.229 232.794C523.554 233.065 522.879 233.335 522.271 233.538C518.557 234.823 515.451 237.123 512.278 239.828C506.066 245.104 501.475 254.167 500.394 263.366C500.124 263.298 499.922 263.231 499.719 263.096C500.867 253.829 505.323 244.901 511.535 239.423C515.046 236.311 518.625 233.944 522.744 232.456C523.149 232.321 523.554 232.118 524.026 231.983C524.162 231.915 524.297 231.915 524.364 231.847C524.702 232.05 525.107 232.253 526.12 232.118Z" fill="#23402E"/>
</g>
<defs>
<clipPath id="clip0">
<rect width="659" height="330" fill="white" transform="translate(0 117)"/>
</clipPath>
</defs>
</svg>
