<svg width="495" height="471" viewBox="0 0 495 471" fill="none" xmlns="http://www.w3.org/2000/svg">
<circle cx="237.5" cy="230.5" r="230.5" fill="#FFF8F2"/>
<path d="M393.123 370C377.081 370 364 382.97 364 399.122C364 415.03 377.081 428.245 393.123 428.245C409.166 428.245 422.247 415.274 422.247 399.122C422 382.97 409.166 370 393.123 370Z" fill="#07B0DE"/>
<path d="M179.018 209.737C178.633 208.14 177.864 206.654 176.709 205.277C176.38 204.892 176.05 204.561 175.665 204.231C175.28 203.901 174.841 203.57 174.456 203.295C168.245 199.331 158.681 202.689 152.58 207.7C138.949 218.877 131.144 235.451 123.779 251.474C146.149 201.698 155.273 145.921 149.887 91.5752C149.172 84.4723 147.853 76.7086 142.302 72.3037C140.763 71.0923 138.949 70.2114 137.08 69.6607C136.586 69.4956 136.091 69.4405 135.596 69.3304C132.299 68.7247 128.781 69.1101 125.648 70.2114C120.096 72.1385 115.534 76.158 111.687 80.5629C100.694 93.1169 94.758 109.305 90.4709 125.383C78.4337 170.478 77.2245 217.886 80.1376 264.523C80.3025 267.276 80.4674 270.085 79.4231 272.617C78.3788 275.15 75.7405 277.243 73.0472 276.692C72.4976 245.968 65.6271 215.794 58.8116 185.84C53.8648 164.201 48.8631 142.342 39.5192 122.189C35.232 112.994 27.9767 102.918 17.8084 103.579C17.1488 103.634 16.5442 103.689 15.9396 103.854C15.4449 103.964 14.9502 104.074 14.4555 104.239C8.62935 106.167 4.17726 111.893 2.47337 117.95C0.10992 126.374 1.9787 135.349 4.17726 143.774C16.874 192.283 41.278 236.993 54.7442 285.227C58.3718 298.111 61.175 311.271 66.5615 323.549C72.2777 336.654 89.7014 364.405 106.96 350.254C110.917 347.005 113.446 342.325 115.919 337.755C135.431 301.304 154.944 264.799 174.511 228.348C177.534 222.677 180.447 215.574 179.018 209.737Z" fill="#3D9976"/>
<path d="M137.08 69.6608C133.068 87.6659 129.111 105.671 125.263 123.676C109.598 196.688 95.4176 269.974 82.556 343.537C82.3911 344.528 80.9071 344.087 81.072 343.096C84.6996 322.283 88.4372 301.47 92.2846 280.656C105.421 209.957 119.877 139.479 135.596 69.2753C136.091 69.3855 136.586 69.4956 137.08 69.6608Z" fill="#1B7050"/>
<path d="M69.2547 306.205C65.2423 289.797 61.23 273.388 57.1077 257.035C49.7974 228.128 41.8276 199.386 32.9784 170.919C26.1079 148.894 19.1824 126.815 14.4006 104.294C14.8953 104.129 15.3899 104.019 15.8846 103.909C18.0832 114.316 20.7214 124.557 23.6345 134.799C31.6593 163.1 41.0032 190.961 48.8081 219.373C56.6679 248.06 63.7033 276.967 70.7387 305.82C71.0136 306.756 69.5295 307.141 69.2547 306.205Z" fill="#1B7050"/>
<path d="M175.665 204.286C144.61 250.207 113.776 297.615 99.7048 351.906C99.4849 352.897 97.9459 352.457 98.2208 351.521C101.464 338.967 105.641 326.633 110.533 314.629C126.747 274.82 150.492 238.81 174.456 203.35C174.896 203.625 175.28 203.901 175.665 204.286Z" fill="#1B7050"/>
<path d="M359.41 251.749H399.754C408.163 251.749 414.429 259.513 412.67 267.717L394.092 355.595H348.527L359.41 251.749Z" fill="#DBD5D5"/>
<path d="M384.803 302.516L370.788 308.297L368.974 293.21L384.803 302.516Z" fill="#452A20"/>
<path d="M163.903 343.757H145.875C143.236 343.757 141.038 341.609 141.038 338.911V333.956H163.903V343.757Z" fill="#E86E41"/>
<path d="M174.841 300.313L159.176 354.219L210.787 357.522L223.484 313.033L174.841 300.313Z" fill="#E86E41"/>
<path d="M203.477 208.581C203.477 208.581 194.188 212.876 188.087 224.439C181.986 236.002 162.749 300.589 162.749 300.589C162.749 300.589 186.548 307.471 203.477 311.876C220.406 316.281 222.879 316.557 222.879 316.557L203.477 208.581Z" fill="#8A3627"/>
<path d="M281.801 185.895L269.434 201.973L253.604 197.238C253.604 197.238 250.801 189.529 248.383 183.142C247.778 181.491 247.173 179.949 246.679 178.682C245.854 176.535 245.25 175.048 245.03 174.773L246.019 149.224L269.379 153.629L281.801 185.895Z" fill="#FF9C78"/>
<path d="M266.521 171.194C265.202 176.92 259.43 181.105 254.923 182.206C252.505 182.812 250.086 183.032 248.383 183.142C247.778 181.491 247.173 179.949 246.679 178.682L259.265 165.963L263.388 160.898C263.443 160.898 267.785 165.468 266.521 171.194Z" fill="#E86E41"/>
<path d="M263.883 157.325C273.413 147.778 273.413 132.299 263.883 122.751C254.353 113.204 238.901 113.204 229.371 122.751C219.841 132.299 219.841 147.778 229.371 157.325C238.901 166.872 254.353 166.872 263.883 157.325Z" fill="#FF9C78"/>
<path d="M223.484 147.683C223.484 147.683 227.661 163.596 233.487 171.304C240.688 180.885 244.645 182.096 250.966 180.224C258.551 177.967 261.904 174.167 266.301 165.963C270.148 158.75 270.918 137.166 270.918 137.166L223.484 147.683Z" fill="#FF9C78"/>
<path d="M236.51 192.062L249.867 183.418L278.173 176.425L306.699 188.153C306.699 188.153 289.386 228.348 288.561 229.009C287.737 229.614 256.242 235.836 255.638 235.836C255.033 235.781 236.51 192.062 236.51 192.062Z" fill="#FF9C78"/>
<path d="M236.016 154.015C235.741 152.859 234.916 151.647 234.092 151.317C233.762 151.207 233.322 151.207 233.048 151.427C232.773 151.647 232.608 152.033 232.553 152.363C232.333 153.409 232.608 154.566 233.212 155.447C233.597 155.997 234.257 156.438 234.916 156.273C236.016 155.997 236.236 155.006 236.016 154.015Z" fill="#452A20"/>
<path d="M251.516 148.178C251.241 147.022 250.416 145.811 249.592 145.48C249.262 145.37 248.822 145.37 248.547 145.59C248.273 145.811 248.108 146.196 248.053 146.526C247.833 147.573 248.108 148.729 248.712 149.61C249.097 150.161 249.757 150.601 250.416 150.436C251.461 150.105 251.735 149.169 251.516 148.178Z" fill="#452A20"/>
<path d="M244.425 161.008C241.072 160.457 242.556 157.098 242.282 154.896C242.062 153.079 241.182 151.427 240.303 149.885C239.808 148.949 238.324 149.665 238.819 150.601C239.588 151.923 240.413 153.354 240.633 154.896C240.852 156.327 240.193 157.759 240.468 159.191C240.798 161.173 242.391 162.384 244.315 162.715C245.36 162.825 245.47 161.173 244.425 161.008Z" fill="#E86E41"/>
<path d="M250.911 161.723C249.702 164.807 246.569 166.404 243.381 165.688C242.337 165.468 241.897 167.064 242.941 167.285C247.118 168.221 250.966 166.128 252.505 162.164C252.89 161.173 251.296 160.732 250.911 161.723Z" fill="#E86E41"/>
<path d="M234.257 144.434C234.037 144.379 233.762 144.324 233.487 144.324C231.124 144.269 227.826 145.425 226.562 147.573C226.397 147.793 226.287 148.068 226.287 148.344C226.287 149.94 228.65 148.619 229.255 148.289C230.629 147.573 232.058 147.132 233.542 146.857C234.257 146.747 235.136 146.527 235.301 145.811C235.411 145.37 235.136 144.93 234.752 144.655C234.587 144.544 234.422 144.489 234.257 144.434Z" fill="#452A20"/>
<path d="M243.93 141.296C244.095 141.13 244.26 140.965 244.48 140.8C246.404 139.369 249.757 138.432 252.01 139.479C252.285 139.589 252.505 139.754 252.67 139.974C253.604 141.296 250.856 141.516 250.196 141.626C248.712 141.846 247.228 142.287 245.854 142.892C245.195 143.168 244.37 143.498 243.821 143.003C243.491 142.727 243.436 142.177 243.601 141.736C243.656 141.626 243.766 141.461 243.93 141.296Z" fill="#452A20"/>
<path d="M265.751 108.589C263.883 104.349 260.475 102.422 254.814 104.074C249.207 105.726 249.977 101.321 242.886 99.9445C235.741 98.568 229.75 101.431 228.486 106.001C227.277 110.516 222.989 106.001 217.658 108.314C214.03 109.911 211.667 115.031 212.876 118.831C213.426 120.482 214.36 121.969 213.92 123.841C213.645 125.108 212.876 126.264 212.546 127.585C212.051 129.513 212.271 131.164 212.931 133.036C214.525 137.331 217.878 140.25 222.165 141.846C222.165 141.846 222.33 135.239 231.948 130.944C242.776 126.099 251.9 130.228 253.549 131.275C255.198 132.321 259.98 144.269 261.134 144.765C262.289 145.26 264.102 145.26 264.212 142.287C264.322 139.313 266.411 136.175 267.565 134.964C268.719 133.752 269.874 132.926 269.874 132.926C269.874 132.926 267.62 112.829 265.751 108.589Z" fill="#452A20"/>
<path d="M315.714 204.341C315.659 204.892 315.604 205.442 315.549 205.993C314.889 211.885 314.065 219.098 313.24 227.082C313.185 227.632 313.13 228.183 313.075 228.733C312.416 234.9 311.756 241.453 311.097 248.115C311.042 248.666 310.987 249.216 310.932 249.767C310.382 255.493 309.887 261.275 309.448 266.891C309.393 267.442 309.338 267.992 309.338 268.543C307.909 287.209 307.249 303.837 308.788 311.105C313.185 331.974 314.559 352.622 314.559 352.622L241.292 354.219C241.292 354.219 240.798 348.327 239.973 339.187C239.918 338.636 239.863 338.085 239.808 337.535C239.423 333.02 238.929 327.734 238.434 322.063C238.379 321.512 238.324 320.961 238.269 320.411C236.785 303.617 235.026 283.409 233.542 266.836C233.487 266.285 233.432 265.68 233.377 265.129C232.883 259.348 232.388 254.062 232.003 249.547C231.948 248.996 231.893 248.445 231.838 247.895C231.289 241.948 230.904 237.598 230.739 235.781C230.464 233.138 230.08 229.504 229.64 225.485C229.585 224.934 229.53 224.384 229.475 223.833C228.98 219.318 228.431 214.472 227.881 210.068C227.826 209.517 227.771 208.966 227.716 208.416C226.892 201.258 226.232 195.696 226.232 195.696L242.831 187.933C242.831 187.933 249.372 199.991 254.703 208.856C255.033 209.407 255.363 209.902 255.638 210.453C258.276 214.803 260.475 218.051 261.189 218.106C261.849 218.162 264.432 214.638 267.675 209.682C268.06 209.131 268.39 208.581 268.774 207.975C276.084 196.577 286.033 179.674 286.033 179.674C286.033 179.674 316.098 190.851 316.923 191.181C317.198 191.236 316.648 196.302 315.714 204.341Z" fill="white"/>
<path d="M255.693 210.453C246.459 210.894 237.225 210.894 227.936 210.068C227.881 209.517 227.826 208.966 227.771 208.416C236.73 209.242 245.744 209.242 254.758 208.856C255.088 209.407 255.363 209.957 255.693 210.453Z" fill="#DBD5D5"/>
<path d="M315.714 204.341C315.659 204.892 315.604 205.442 315.549 205.993C299.609 206.544 283.67 208.471 267.785 209.737C268.17 209.187 268.499 208.636 268.884 208.03C284.494 206.764 300.104 204.892 315.714 204.341Z" fill="#DBD5D5"/>
<path d="M313.24 227.027C313.185 227.577 313.13 228.128 313.075 228.678C285.264 229.725 257.397 228.678 229.75 225.485C229.695 224.934 229.64 224.384 229.585 223.833C257.342 227.082 285.318 228.128 313.24 227.027Z" fill="#DBD5D5"/>
<path d="M311.097 248.06C311.042 248.611 310.987 249.161 310.932 249.712C284.659 249.877 258.331 249.822 232.058 249.547C232.003 248.996 231.948 248.445 231.893 247.895C258.276 248.17 284.714 248.225 311.097 248.06Z" fill="#DBD5D5"/>
<path d="M309.448 266.836C309.393 267.387 309.338 267.937 309.338 268.488C284.219 272.397 258.606 271.847 233.652 266.836C231.234 266.34 228.76 265.79 226.342 265.239C225.298 265.019 225.737 263.422 226.782 263.642C229.035 264.193 231.234 264.633 233.487 265.129C258.496 270.195 284.219 270.745 309.448 266.836Z" fill="#DBD5D5"/>
<path d="M308.733 320.796C281.966 321.567 255.198 321.292 228.431 319.97C227.386 319.915 227.386 321.567 228.431 321.622C255.198 322.944 281.966 323.219 308.733 322.448C309.832 322.393 309.832 320.741 308.733 320.796Z" fill="#DBD5D5"/>
<path d="M309.997 341.224C286.638 341.885 263.113 342.435 240.028 339.132C239.973 338.581 239.918 338.03 239.863 337.48C263.058 340.784 286.638 340.233 309.997 339.572C311.042 339.572 311.042 341.224 309.997 341.224Z" fill="#DBD5D5"/>
<path d="M232.003 193.054C232.003 193.054 235.246 247.564 238.104 273.664C240.962 299.763 247.228 357.522 247.228 357.522H226.232C226.232 357.522 212.381 302.791 207.434 279.72C202.488 256.65 196.167 218.492 199.19 212.655C202.268 206.764 232.003 193.054 232.003 193.054Z" fill="#8A3627"/>
<path d="M298.84 184.464C298.84 184.464 291.2 244.536 289.001 286.052C286.803 327.569 289.001 357.522 289.001 357.522H359.52C359.52 357.522 361.444 223.613 356.497 212.931C351.55 202.194 298.84 184.464 298.84 184.464Z" fill="#8A3627"/>
<path d="M369.139 340.728C360.894 352.567 340.887 348.162 332.917 345.684C327.366 343.977 288.726 328.009 266.136 318.649C265.476 318.373 264.817 318.098 264.157 317.823C260.969 316.501 258.111 315.29 255.858 314.354C255.858 314.354 255.803 314.354 255.803 314.299C252.065 312.757 249.812 311.821 249.812 311.821L263.498 279.39L269.214 280.822H269.269L278.008 283.024L279.657 283.409L326.432 295.082L330.169 277.463L370.788 291.503C370.788 291.503 377.383 328.945 369.139 340.728Z" fill="#FF9C78"/>
<path d="M352.594 208.581C352.594 208.581 361.169 213.977 367.765 226.916C374.36 239.856 384.803 302.516 384.803 302.516L326.432 295.138C326.432 295.138 316.263 236.552 317.033 233.799C317.802 231.046 352.594 208.581 352.594 208.581Z" fill="#8A3627"/>
<path d="M263.443 279.445C263.443 279.445 250.581 260.449 236.51 254.722C222.44 248.941 218.592 248.115 218.592 248.115L214.745 258.687C214.745 258.687 244.81 272.727 245.36 273.113C245.909 273.498 263.443 279.445 263.443 279.445Z" fill="#FF9C78"/>
<path d="M220.076 266.065L184.899 267.992C183.58 268.047 182.481 267.056 182.426 265.79L181.381 246.298C181.326 244.976 182.316 243.875 183.58 243.82L218.757 241.893C220.076 241.838 221.175 242.829 221.23 244.096L222.275 263.532C222.33 264.854 221.34 265.955 220.076 266.065Z" fill="#FFD769"/>
<path d="M263.443 279.445C263.443 279.445 247.009 266.12 241.402 263.367C235.796 260.614 218.372 255.108 211.227 253.731C204.082 252.355 198.86 252.575 198.86 257.586C198.86 263.092 222.165 270.25 222.165 270.25C222.165 270.25 204.741 267.056 197.871 266.23C191 265.404 188.527 267.937 188.142 270.966C187.757 273.994 189.241 275.701 192.649 277.518C196.057 279.28 199.355 280.932 199.355 280.932C199.355 280.932 192.924 279.941 192.209 284.345C191.275 290.182 199.904 293.265 210.402 297.12C219.362 300.368 249.702 311.876 249.702 311.876L272.182 300.864L263.443 279.445Z" fill="#FF9C78"/>
<path d="M395.082 360H2.36345C1.04432 360 0 358.954 0 357.632V353.503C0 352.181 1.04432 351.135 2.36345 351.135H395.082C396.401 351.135 397.445 352.181 397.445 353.503V357.632C397.39 358.954 396.346 360 395.082 360Z" fill="#BDACAC"/>
<path d="M173.192 330.597C171.103 339.022 168.245 344.087 162.144 344.087C156.043 344.087 156.977 335.443 159.066 327.018C161.155 318.594 163.903 311.271 170.553 313.693C174.676 315.235 175.225 322.173 173.192 330.597Z" fill="#FF9C78"/>
<path d="M134.332 326.798C132.189 335.167 131.859 343.812 137.74 343.922C142.247 344.032 146.314 338.691 148.458 330.322C150.602 321.952 154.009 311.656 144.555 313.198C140.158 313.858 136.476 318.373 134.332 326.798Z" fill="#FF9C78"/>
<path d="M161.924 329.441C159.616 338.911 155.878 344.418 149.227 344.473C142.577 344.528 142.632 334.727 144.995 325.256C147.304 315.786 152.965 309.288 157.692 310.224C166.266 311.876 164.233 319.97 161.924 329.441Z" fill="#FF9C78"/>
<path d="M171.543 314.244C171.543 314.244 180.942 323.659 184.02 332.304C187.098 340.949 186.878 343.757 186.878 343.757L162.089 344.032L171.543 314.244Z" fill="#FF9C78"/>
<path d="M178.358 341.389C174.236 341.444 167.311 341.444 166.101 336.213C164.562 329.496 174.016 330.597 177.699 331.754C178.688 332.084 179.128 330.487 178.139 330.157C176.764 329.716 174.951 329.386 173.082 329.276C173.577 327.844 173.961 326.413 174.181 324.926C174.346 323.88 172.752 323.439 172.587 324.485C172.312 326.027 171.928 327.569 171.433 329.055C171.433 329.111 171.433 329.221 171.378 329.276C167.64 329.441 164.233 330.873 164.288 335.167C164.343 342.325 173.027 343.206 178.303 343.096C179.403 343.041 179.403 341.389 178.358 341.389Z" fill="#E86E41"/>
<path d="M162.309 317.162C160.055 323.219 158.736 329.441 158.297 335.938C158.242 336.984 159.89 336.984 159.945 335.938C160.33 329.606 161.704 323.549 163.903 317.603C164.233 316.612 162.639 316.171 162.309 317.162Z" fill="#E86E41"/>
<path d="M148.623 315.731C146.754 322.118 144.281 329.331 144.665 336.048C144.72 337.094 146.369 337.094 146.314 336.048C145.93 329.496 148.403 322.393 150.217 316.171C150.547 315.18 148.953 314.739 148.623 315.731Z" fill="#E86E41"/>
<path d="M222.769 286.438C216.394 284.18 209.798 282.694 203.202 281.207C202.158 280.987 201.608 282.529 202.653 282.749C209.248 284.235 215.844 285.722 222.22 287.98C223.209 288.365 223.759 286.768 222.769 286.438Z" fill="#E86E41"/>
<path d="M243.491 264.358C237.225 261.495 230.904 258.852 224.473 256.429C223.484 256.044 223.044 257.641 224.034 258.026C230.354 260.394 236.51 262.982 242.666 265.79C243.601 266.23 244.425 264.799 243.491 264.358Z" fill="#E86E41"/>
<path d="M228.98 272.122L224.143 270.25C223.154 269.864 222.714 271.461 223.704 271.847C225.298 272.452 226.947 273.113 228.541 273.719C229.53 274.104 229.97 272.507 228.98 272.122Z" fill="#E86E41"/>
<path d="M133.673 351.19H23.0299L0.714518 257.971C0.329769 256.429 1.53898 254.943 3.13294 254.943H108.664C109.818 254.943 110.808 255.714 111.082 256.815L133.673 351.19Z" fill="#DBD5D5"/>
<path d="M236.51 351.19H121.581V343.757H229.475C233.377 343.757 236.51 346.895 236.51 350.805V351.19Z" fill="#DBD5D5"/>
<path d="M323.958 293.981C323.903 293.981 323.903 293.981 323.848 293.981C323.409 293.926 323.134 293.541 323.189 293.155L328.85 241.453C328.905 241.012 329.29 240.737 329.674 240.792C330.114 240.847 330.389 241.232 330.334 241.618L324.673 293.321C324.673 293.651 324.343 293.981 323.958 293.981Z" fill="#452A20"/>
<path d="M295.157 235.781C294.772 235.781 294.442 235.506 294.387 235.121C294.333 234.68 294.607 234.295 294.992 234.24C300.598 233.248 306.754 231.982 308.293 231.431C307.854 227.797 304.446 202.084 302.577 188.208C302.522 187.768 302.797 187.382 303.237 187.327C303.676 187.272 304.061 187.547 304.116 187.988C305.105 195.201 309.887 231.101 309.887 231.817C309.887 232.588 309.887 233.138 295.267 235.726C295.267 235.781 295.212 235.781 295.157 235.781Z" fill="#452A20"/>
<path d="M233.707 240.572C233.652 240.572 233.597 240.572 233.542 240.572C220.516 237.323 220.241 236.497 220.076 236.057C219.856 235.396 221.78 222.236 225.792 197.018C225.847 196.577 226.232 196.302 226.672 196.357C227.112 196.412 227.386 196.798 227.331 197.238C225.078 211.334 221.78 232.533 221.56 235.451C222.824 236.112 228.651 237.763 233.872 239.085C234.312 239.195 234.532 239.58 234.422 240.021C234.367 240.296 234.037 240.572 233.707 240.572Z" fill="#452A20"/>
<path d="M232.443 161.558C229.75 161.558 227.221 159.907 226.287 157.209C225.078 153.795 226.837 150.051 230.244 148.839C233.652 147.628 237.39 149.39 238.599 152.804C239.808 156.217 238.049 159.962 234.642 161.173C233.927 161.448 233.158 161.558 232.443 161.558ZM232.443 149.225C231.783 149.225 231.124 149.335 230.519 149.555C229.09 150.051 227.881 151.152 227.221 152.528C226.562 153.905 226.507 155.502 227.002 156.933C227.496 158.365 228.596 159.576 229.97 160.237C231.344 160.898 232.938 160.953 234.367 160.457C237.335 159.411 238.929 156.052 237.83 153.079C237.005 150.711 234.806 149.225 232.443 149.225Z" fill="white"/>
<path d="M248.767 155.722C246.074 155.722 243.546 154.07 242.611 151.372C242.007 149.72 242.117 147.958 242.831 146.361C243.601 144.765 244.92 143.608 246.514 143.003C248.163 142.397 249.922 142.507 251.516 143.223C253.11 143.994 254.264 145.315 254.868 146.912C255.473 148.564 255.363 150.326 254.649 151.923C253.879 153.519 252.56 154.676 250.966 155.281C250.251 155.612 249.482 155.722 248.767 155.722ZM248.767 143.388C248.108 143.388 247.448 143.498 246.844 143.718C245.415 144.214 244.205 145.315 243.546 146.692C242.886 148.068 242.831 149.665 243.326 151.097C244.37 154.07 247.723 155.667 250.691 154.566C252.12 154.07 253.329 152.969 253.989 151.592C254.649 150.216 254.703 148.619 254.209 147.187C253.714 145.756 252.615 144.544 251.241 143.884C250.416 143.553 249.592 143.388 248.767 143.388Z" fill="white"/>
<path d="M242.83 150.871L238.121 152.56L238.381 153.286L243.09 151.597L242.83 150.871Z" fill="white"/>
<path d="M267.499 136.19L254.517 146.462L254.993 147.067L267.976 136.795L267.499 136.19Z" fill="white"/>
<path d="M277.569 141.186C276.414 150.601 267.785 155.391 267.785 155.391C267.785 155.391 265.037 147.518 264.432 142.342C263.883 137.166 266.631 132.596 270.588 132.156C274.6 131.715 278.228 136.01 277.569 141.186Z" fill="#FF9C78"/>
<path d="M267.785 140.525C267.125 139.699 265.971 140.855 266.631 141.681C268.17 143.553 268.225 146.086 266.96 148.123C266.356 149.004 267.785 149.83 268.389 148.949C270.038 146.306 269.764 142.948 267.785 140.525Z" fill="#E86E41"/>
<path d="M62.5491 300.313C69.9863 300.313 76.0153 298.169 76.0153 295.523C76.0153 292.877 69.9863 290.733 62.5491 290.733C55.1119 290.733 49.0829 292.877 49.0829 295.523C49.0829 298.169 55.1119 300.313 62.5491 300.313Z" fill="white"/>
<path d="M189.846 248.776C189.846 247.124 188.527 245.802 186.878 245.802C185.229 245.802 183.91 247.124 183.91 248.776C183.91 250.428 185.229 251.749 186.878 251.749C188.527 251.749 189.846 250.428 189.846 248.776Z" fill="white"/>
<path d="M194.573 248.445C194.573 246.794 193.254 245.472 191.605 245.472C189.956 245.472 188.637 246.794 188.637 248.445C188.637 250.097 189.956 251.419 191.605 251.419C193.254 251.419 194.573 250.097 194.573 248.445Z" fill="white"/>
<path d="M280.317 283.63C275.865 295.303 271.632 307.471 266.905 318.979C263.718 317.658 258.111 315.345 255.858 314.354C260.475 303.232 264.872 292.054 269.159 280.822H269.214L280.317 283.63Z" fill="#452A20"/>
<path d="M276.441 301.994C278.486 297.648 276.627 292.464 272.289 290.415C267.951 288.367 262.776 290.229 260.731 294.575C258.686 298.921 260.545 304.104 264.883 306.153C269.221 308.202 274.396 306.34 276.441 301.994Z" fill="white"/>
<path d="M127.297 345.244C126.967 345.244 126.637 345.023 126.527 344.638L106.081 259.678H2.96804C2.52833 259.678 2.19855 259.348 2.19855 258.907C2.19855 258.467 2.52833 258.136 2.96804 258.136H107.345L128.066 344.307C128.176 344.748 127.901 345.133 127.517 345.244C127.462 345.244 127.352 345.244 127.297 345.244Z" fill="#BDACAC"/>
<g clip-path="url(#clip0)">
<path d="M61.3879 278.554C48.9558 278.554 38.8189 288.609 38.8189 301.131C38.8189 313.463 48.9558 323.709 61.3879 323.709C73.8199 323.709 83.9568 313.653 83.9568 301.131C83.7655 288.609 73.8199 278.554 61.3879 278.554Z" fill="#F9EB34"/>
</g>
<g clip-path="url(#clip1)">
<path d="M310.999 108.438C304.122 115.265 304.167 126.351 311.207 133.224C318.14 139.993 329.508 140.05 336.386 133.223C343.264 126.396 343.219 115.31 336.179 108.437C329.033 101.668 317.877 101.61 310.999 108.438Z" fill="url(#paint0_linear)"/>
</g>
<defs>
<linearGradient id="paint0_linear" x1="310.999" y1="108.438" x2="335.991" y2="133.615" gradientUnits="userSpaceOnUse">
<stop stop-color="#05AFE4"/>
<stop offset="1" stop-color="#56D347"/>
</linearGradient>
<clipPath id="clip0">
<rect width="44.9466" height="44.965" fill="white" transform="translate(38.8189 278.554)"/>
</clipPath>
<clipPath id="clip1">
<rect width="35.0365" height="35.3307" fill="white" transform="matrix(0.709724 -0.70448 0.715521 0.698591 298.513 120.831)"/>
</clipPath>
</defs>
</svg>
