<svg width="387" height="361" viewBox="0 0 387 361" fill="none" xmlns="http://www.w3.org/2000/svg">
<g clip-path="url(#clip0)" filter="url(#filter0_b)">
<path d="M32.1906 12.0092C26.0263 18.1254 26.0668 28.0574 32.3763 34.2151C38.5902 40.2796 48.7789 40.3306 54.9432 34.2143C61.1075 28.0981 61.067 18.1661 54.7575 12.0084C48.3531 5.94478 38.3549 5.89294 32.1906 12.0092Z" fill="url(#paint0_linear)"/>
</g>
<g filter="url(#filter1_b)">
<ellipse cx="198" cy="173.5" rx="177" ry="173.5" fill="#FFF8F2"/>
</g>
<g clip-path="url(#clip1)">
<path d="M207 222.1C206.7 223.4 205.9 224.6 205.2 225.8C202.9 229.1 200.3 232.2 197.6 235.2C197.2 235.6 196.9 235.9 196.5 236.3C195.7 237.2 194.8 238.1 194.2 239.2C194 239.6 193.8 240 193.4 240.1C192.9 240.2 192.4 239.6 192.2 239.1C191.7 237.7 191.5 236.3 191 234.9C190.2 232.7 188.6 230.8 187.9 228.6C187.2 226.4 187.3 224 187.4 221.6C187.5 219.2 187.5 216.8 187.4 214.4C187.3 212.4 187.5 210.5 189.2 209.1C190.2 208.3 191.6 207.9 192.8 208.2C194.2 208.5 195.2 209.6 195.9 210.8C197 212.6 197.4 214.7 197.5 216.7C197.6 218.8 197.3 220.9 197.1 222.9C197.1 222.9 197.1 222.8 197.2 222.7C197.4 222.2 197.7 221.8 198 221.3C198.7 220.1 199.5 219 200.6 218.3C201.8 217.5 203.3 217.1 204.6 217.5C205.1 217.7 205.6 217.9 206 218.3C207 219.2 207.3 220.7 207 222.1Z" fill="#8BB59E"/>
<path d="M193.6 231.7C193.6 231.7 192.9 228.9 192.6 227.8C192.2 226.5 192.2 223.5 192.3 221.9C192.4 219.2 191.7 214 191.7 213.9C191.7 213.6 191.9 213.4 192.1 213.3C192.4 213.3 192.6 213.5 192.7 213.7C192.7 213.9 193.4 219 193.3 221.8C193.2 224.5 193.4 226.6 193.6 227.5C193.9 228.6 194.6 231.4 194.6 231.4L193.6 231.7Z" fill="#6D9C82"/>
<path d="M207 222.1C206.7 223.4 205.9 224.6 205.2 225.8C202.9 229.1 200.3 232.2 197.6 235.2C196.1 235.2 195 235.1 195 235.1C195 235.1 196.1 231.9 196.5 229.7C197 227.5 197.3 222.9 197.3 222.9C197.3 222.9 197.3 222.8 197.4 222.7C197.5 222.4 197.8 221.9 198.2 221.3C198.9 220.1 199.7 219 200.8 218.3C202 217.5 203.5 217.1 204.8 217.5C205.3 217.7 205.8 217.9 206.2 218.3C207 219.2 207.3 220.7 207 222.1Z" fill="#6D9C82"/>
<path d="M199.8 357.3C198.7 357.3 197.8 356.4 197.8 355.3V254.1C197.8 253 198.7 252.1 199.8 252.1C200.9 252.1 201.8 253 201.8 254.1V355.4C201.8 356.4 200.9 357.3 199.8 357.3Z" fill="#1E1915"/>
<path d="M213 357.6H186.5C185.7 357.6 185 356.9 185 356.1C185 355.3 185.7 354.6 186.5 354.6H213C213.8 354.6 214.5 355.3 214.5 356.1C214.5 356.9 213.9 357.6 213 357.6Z" fill="#1E1915"/>
<path d="M252.4 257.7H143.6C141.6 257.7 140 256.1 140 254.1C140 252.1 141.6 250.5 143.6 250.5H252.4C254.4 250.5 256 252.1 256 254.1C256 256.1 254.4 257.7 252.4 257.7Z" fill="#454659"/>
<path d="M198.2 250.5H190.5C187.3 250.5 184.7 247.9 184.7 244.7V235.8C184.7 234.9 185.4 234.2 186.3 234.2H202.4C203.3 234.2 204 234.9 204 235.8V244.7C204 247.9 201.4 250.5 198.2 250.5Z" fill="#913A3A"/>
<path d="M214.2 250.4H206.2L207.2 237.2C207.2 236.3 208 235.6 208.9 235.6H211.6C212.5 235.6 213.3 236.3 213.3 237.2L214.2 250.4Z" fill="white"/>
<path d="M212.5 249.2L207.9 249.3C207.6 249.3 207.3 249.1 207.3 248.7L207.9 241.6H212.4L213 248.6C213.1 248.9 212.8 249.2 212.5 249.2Z" fill="#F5EBDC"/>
<path d="M213.2 237.2H207.2C207.2 236.3 208 235.6 208.9 235.6H211.6C212.4 235.5 213.2 236.3 213.2 237.2Z" fill="#EBDBC3"/>
<path d="M211.3 236H209.4V232.1L211.3 234.1V236Z" fill="#EBDBC3"/>
<path d="M219.8 243.9V250.4H214.6V243.9C214.6 243 215.3 242.3 216.2 242.3H218.3C219.1 242.3 219.8 243 219.8 243.9Z" fill="white"/>
<path d="M219.8 243.9V244.1H214.6V243.9C214.6 243 215.3 242.3 216.2 242.3H218.3C219.1 242.3 219.8 243 219.8 243.9Z" fill="#EBDBC3"/>
</g>
<g clip-path="url(#clip2)">
<mask id="mask0" mask-type="alpha" maskUnits="userSpaceOnUse" x="21" y="0" width="354" height="347">
<ellipse cx="198" cy="173.5" rx="177" ry="173.5" fill="#FFF8F2"/>
</mask>
<g mask="url(#mask0)">
<path d="M291.371 55.3837H99.6292V200H291.371V55.3837Z" fill="#454659"/>
<path d="M288.089 55.3837H102.817V196.165H288.089V55.3837Z" fill="#DEEDF7"/>
<path d="M197.891 70.1633H196.484V196.258H197.891V70.1633Z" fill="white"/>
<path d="M243.834 70.1633H242.427V196.258H243.834V70.1633Z" fill="white"/>
<path d="M148.854 70.1633H147.447V196.258H148.854V70.1633Z" fill="white"/>
<path d="M288.089 105.99H102.817V107.393H288.089V105.99Z" fill="white"/>
<path d="M288.089 149.487H102.817V150.89H288.089V149.487Z" fill="white"/>
<path d="M122.319 68.9473C122.319 68.9473 126.632 75.4952 136.946 75.7758C147.26 76.0565 151.573 68.9473 151.573 68.9473C151.573 68.9473 138.259 65.9539 136.946 66.141C135.634 66.3281 122.319 68.9473 122.319 68.9473Z" fill="#EBDBC3"/>
<path d="M180.92 68.9473C180.92 68.9473 185.233 75.4952 195.547 75.7758C205.861 76.0565 210.174 68.9473 210.174 68.9473C210.174 68.9473 196.86 65.9539 195.547 66.141C194.234 66.3281 180.92 68.9473 180.92 68.9473Z" fill="#EBDBC3"/>
<path d="M239.146 68.9473C239.146 68.9473 243.459 75.4952 253.773 75.7758C264.086 76.0565 268.399 68.9473 268.399 68.9473C268.399 68.9473 255.085 65.9539 253.773 66.141C252.46 66.3281 239.146 68.9473 239.146 68.9473Z" fill="#EBDBC3"/>
<path d="M297.747 68.9473C297.747 68.9473 302.06 75.4952 312.373 75.7758C322.687 76.0565 327 68.9473 327 68.9473C327 68.9473 313.686 65.9539 312.373 66.141C311.061 66.3281 297.747 68.9473 297.747 68.9473Z" fill="#EBDBC3"/>
<path d="M64 68.9473C64 68.9473 68.313 75.4952 78.6267 75.7758C88.9405 76.0565 93.2535 68.9473 93.2535 68.9473C93.2535 68.9473 79.9394 65.9539 78.6267 66.141C77.3141 66.3281 64 68.9473 64 68.9473Z" fill="#EBDBC3"/>
<path d="M93.2535 68.9473C93.2535 68.9473 97.4727 75.4952 107.786 75.7758C118.006 76.0565 122.319 68.9473 122.319 68.9473C122.319 68.9473 109.099 65.9539 107.786 66.141C106.474 66.3281 93.2535 68.9473 93.2535 68.9473Z" fill="#F0542E"/>
<path d="M151.573 68.9473C151.573 68.9473 155.886 75.4952 166.2 75.7758C176.513 76.0565 180.826 68.9473 180.826 68.9473C180.826 68.9473 167.512 65.9539 166.2 66.141C164.981 66.3281 151.573 68.9473 151.573 68.9473Z" fill="#F0542E"/>
<path d="M210.174 68.9473C210.174 68.9473 214.393 75.4952 224.613 75.7758C234.833 76.0565 239.052 68.9473 239.052 68.9473C239.052 68.9473 225.926 65.9539 224.613 66.141C223.394 66.3281 210.174 68.9473 210.174 68.9473Z" fill="#F0542E"/>
<path d="M268.399 68.9473C268.399 68.9473 272.712 75.4952 283.026 75.7758C293.34 76.0565 297.653 68.9473 297.653 68.9473C297.653 68.9473 284.339 65.9539 283.026 66.141C281.713 66.3281 268.399 68.9473 268.399 68.9473Z" fill="#F0542E"/>
<path d="M327 3H93.2535V68.9473H327V3Z" fill="#FD7756"/>
<path d="M151.573 3H122.319V68.9473H151.573V3Z" fill="#F5EBDC"/>
<path d="M93.2535 3H64V68.9473H93.2535V3Z" fill="#F5EBDC"/>
<path d="M210.174 3H180.92V68.9473H210.174V3Z" fill="#F5EBDC"/>
<path d="M268.399 3H239.146V68.9473H268.399V3Z" fill="#F5EBDC"/>
<path d="M327 3H297.747V68.9473H327V3Z" fill="#F5EBDC"/>
</g>
</g>
<g clip-path="url(#clip3)">
<path d="M136.776 177.146L146.592 171.66L149.141 179.187L140.728 186.97L136.776 177.146Z" fill="#FF8F54"/>
<path d="M146.464 173.573C146.464 173.573 146.082 167.067 147.739 166.301C149.524 165.535 150.416 165.791 151.563 165.791C152.71 165.663 157.044 163.877 157.809 164.898C158.574 165.918 157.427 167.067 157.809 168.725C158.064 170.511 158.574 174.594 156.662 176.38C154.75 178.167 149.014 179.06 149.014 179.06C149.014 179.06 146.464 178.294 146.209 177.656C146.082 177.018 146.464 173.573 146.464 173.573Z" fill="#FF8F54"/>
<path d="M126.834 310.986H47.0368C46.0171 310.986 45.1248 310.092 45.1248 309.072C45.1248 308.051 46.0171 307.158 47.0368 307.158H126.961C127.981 307.158 128.873 308.051 128.873 309.072C128.873 310.092 127.981 310.986 126.834 310.986Z" fill="#1E1915"/>
<path d="M34.9271 360.873C34.6721 360.873 34.5447 360.873 34.2897 360.745C32.8875 360.362 32.1227 359.086 32.3776 357.683L50.0961 285.213C50.4785 283.809 51.7532 283.044 53.1554 283.299C54.5576 283.682 55.3224 284.958 55.0675 286.361L37.349 358.831C37.0941 360.107 36.0743 360.873 34.9271 360.873Z" fill="#1E1915"/>
<path d="M55.3224 360.873C55.0675 360.873 54.94 360.873 54.6851 360.745C53.2829 360.362 52.5181 359.086 52.773 357.683L70.4915 285.213C70.8739 283.809 72.1486 283.044 73.5508 283.299C74.953 283.682 75.7178 284.958 75.4629 286.361L57.7444 358.831C57.4894 360.107 56.4697 360.873 55.3224 360.873Z" fill="#1E1915"/>
<path d="M138.943 360.872C137.796 360.872 136.776 360.107 136.521 358.959L118.803 286.489C118.421 285.085 119.313 283.682 120.715 283.427C122.117 283.044 123.519 283.937 123.774 285.34L141.493 357.81C141.875 359.214 140.983 360.617 139.581 360.872C139.326 360.872 139.198 360.872 138.943 360.872Z" fill="#1E1915"/>
<path d="M118.803 360.872C117.656 360.872 116.636 360.107 116.381 358.959L98.6626 286.489C98.2802 285.085 99.1725 283.682 100.575 283.427C101.977 283.044 103.379 283.937 103.634 285.34L121.352 357.81C121.735 359.214 120.843 360.617 119.44 360.872C119.185 360.872 119.058 360.872 118.803 360.872Z" fill="#1E1915"/>
<path d="M31.8678 266.585C31.8678 266.585 41.1732 286.489 46.3995 288.02C51.6258 289.551 111.92 288.658 114.724 286.744C117.528 284.83 114.724 271.178 114.724 271.178L46.7819 264.416L31.8678 266.585Z" fill="#454659"/>
<path d="M123.01 329.613L125.686 350.155L133.717 349.9L134.482 327.7L123.01 329.613Z" fill="#FF8F54"/>
<path d="M148.121 360.617C147.866 361.255 123.01 361 122.372 360.745C121.99 360.617 121.99 359.852 121.99 359.086C121.99 358.959 121.99 358.959 121.99 358.831C122.245 356.917 122.882 354.876 123.137 352.962C123.264 351.814 123.519 349.389 125.049 349.007C125.177 349.007 125.431 349.007 125.686 349.007C127.471 349.007 131.295 349.645 132.06 349.389C132.57 349.134 133.207 348.879 133.972 348.752C134.737 348.624 135.502 348.624 136.012 349.134C136.649 349.645 142.513 353.727 143.787 354.748C145.19 355.769 147.739 357.3 148.249 359.214C148.249 359.469 148.249 359.979 148.121 360.617Z" fill="#913A3A"/>
<path d="M151.308 299.886L162.526 317.365L169.664 313.665L160.868 293.251L151.308 299.886Z" fill="#FF8F54"/>
<path d="M187 316.344C187 317.11 164.565 327.7 163.928 327.7C163.545 327.7 163.163 327.062 162.908 326.424C162.908 326.296 162.78 326.296 162.78 326.169C162.143 324.382 161.888 322.213 161.251 320.555C160.868 319.406 160.104 317.237 161.251 316.217C161.378 316.089 161.506 316.089 161.633 315.962C163.035 315.196 167.115 314.048 167.752 313.41C168.134 313.027 168.644 312.517 169.154 312.134C169.791 311.624 170.556 311.241 171.321 311.496C172.086 311.751 179.224 312.772 180.754 313.155C182.284 313.537 184.833 313.665 186.235 314.813C186.49 314.941 186.618 315.196 186.745 315.324C186.745 315.451 187 315.834 187 316.344Z" fill="#913A3A"/>
<path d="M36.8391 158.518C36.8391 158.518 12.2372 158.773 3.95161 168.725C-4.33401 178.805 1.91207 194.753 8.92298 215.55C15.9339 236.347 35.9468 277.047 38.8787 277.047C41.8105 277.047 57.6169 274.878 57.6169 274.878L36.8391 158.518Z" fill="#454659"/>
<path d="M71.6387 278.833C71.6387 278.833 97.5154 274.113 102.997 273.092C110.008 271.816 112.939 269.775 113.959 272.199C114.979 274.623 114.214 285.596 114.851 296.441C115.489 307.286 118.038 330.634 119.313 331.91C120.588 333.186 139.071 332.42 140.218 331.527C141.238 330.634 140.218 276.282 140.218 268.626C140.218 260.971 127.216 247.192 126.196 247.192C125.177 247.192 102.869 249.233 97.1329 251.657C91.3967 254.209 65.2652 265.819 65.2652 265.819L71.6387 278.833Z" fill="#F2A841"/>
<path d="M70.8739 151.118C70.8739 151.118 77.12 150.863 85.6605 160.304C94.2011 169.746 106.311 180.591 108.095 182.122C109.88 183.653 123.264 180.718 127.471 178.167C131.805 175.615 140.346 170.384 144.042 172.808C147.739 175.232 149.906 180.336 148.376 185.056C147.357 188.118 144.425 190.032 141.875 191.691C139.071 193.605 136.521 196.029 133.59 198.07C125.049 203.939 114.087 209.808 103.379 207.512C98.4076 206.364 91.9066 205.47 87.5726 202.536C85.1507 201.005 78.5222 197.688 78.5222 197.688L70.8739 151.118Z" fill="#3C5F4D"/>
<path d="M41.3006 133.128C41.3006 133.128 41.0457 139.635 40.4083 143.718C40.0259 146.27 38.8787 151.756 38.8787 151.756L54.5576 162.473L64.1179 155.584C64.1179 155.584 59.7839 151.501 59.7839 149.077C59.6564 146.525 59.6564 142.952 59.6564 142.952L41.8105 127.004L40.4083 130.449L41.3006 133.128Z" fill="#FF8F54"/>
<path d="M40.1534 133.128C39.3886 131.342 38.4963 129.428 38.1139 127.514C37.8589 125.728 37.2216 124.069 36.9666 122.283C36.7117 120.624 36.9666 119.093 36.8391 117.435C36.8391 117.18 37.2216 116.924 37.349 117.18C37.9864 117.945 37.9864 118.583 38.1139 119.604C38.2413 120.752 38.4963 121.9 38.8787 123.049C38.8787 122.666 38.8787 122.411 38.7512 122.028C38.6237 121.262 39.516 120.88 40.0259 121.39C41.5556 123.049 40.1534 125.218 40.6633 127.259C41.1732 129.428 41.1732 131.597 41.1732 131.597V134.787C41.3006 134.659 40.5358 133.894 40.1534 133.128Z" fill="#F5EBDC"/>
<path d="M68.7069 112.587C68.7069 112.587 70.7464 127.769 69.3442 134.787C68.3245 139.38 64.1179 146.397 60.4213 146.142C56.0873 145.887 46.9093 144.356 44.6149 140.273C41.683 135.042 39.1336 119.604 39.2611 116.797C39.3886 114.118 53.9202 106.335 53.9202 106.335L68.7069 112.587Z" fill="#FF8F54"/>
<path d="M41.683 123.049C41.683 123.049 39.2611 123.431 38.7512 126.621C38.2413 129.938 43.7226 133.511 43.7226 133.511L45.5072 125.473L41.683 123.049Z" fill="#FF8F54"/>
<path d="M65.7751 123.049C66.03 122.921 66.4124 123.049 66.5399 123.304C66.7948 123.687 66.7948 124.325 66.7948 124.707C66.7948 125.345 66.1575 125.728 65.6476 125.218C65.2652 124.835 65.1377 123.942 65.3926 123.304C65.3926 123.176 65.6476 123.049 65.7751 123.049Z" fill="#1E1915"/>
<path d="M51.6258 123.176C51.8807 123.049 52.2631 123.176 52.3906 123.431C52.6455 123.814 52.6455 124.452 52.6455 124.835C52.6455 125.473 52.0082 125.856 51.4983 125.345C51.1159 124.963 50.9884 124.069 51.2434 123.431C51.2434 123.431 51.4983 123.304 51.6258 123.176Z" fill="#1E1915"/>
<path d="M63.3531 120.114C63.863 121.135 65.6476 120.369 66.5399 120.497C67.1772 120.497 67.8146 120.752 68.5794 120.88C69.3442 120.88 69.8541 119.987 69.4717 119.349C69.3442 119.093 69.0893 118.966 68.8344 118.838C67.8146 118.328 62.9707 117.69 63.3531 119.731C63.2256 119.731 63.2256 119.987 63.3531 120.114Z" fill="#F5EBDC"/>
<path d="M53.7928 120.114C54.1752 118.073 49.3313 118.711 48.3115 119.221C48.0566 119.349 47.8016 119.476 47.6742 119.731C47.2918 120.369 47.8016 121.262 48.5665 121.262C49.2038 121.262 49.8412 120.88 50.4785 120.88C51.3708 120.88 53.1554 121.518 53.5378 120.497C53.6653 120.369 53.7928 120.242 53.7928 120.114Z" fill="#F5EBDC"/>
<path d="M62.2059 134.659C62.2059 135.042 61.9509 135.552 61.696 135.68C61.0586 136.318 60.0389 136.573 59.1466 136.573C57.7444 136.701 55.9598 136.19 55.4499 134.787V134.659C55.4499 134.276 55.5774 134.021 55.9598 133.894C56.0873 133.894 56.0873 133.894 56.2147 133.894C57.362 133.894 58.2543 134.276 59.529 134.149C60.1664 134.021 61.3136 133.511 61.9509 134.149C62.2059 134.149 62.3334 134.404 62.2059 134.659Z" fill="white"/>
<path d="M70.364 111.821C68.8344 114.245 66.1575 111.949 64.1179 111.693C63.3531 111.566 62.5883 111.693 61.696 111.566C60.0389 111.055 59.274 110.417 57.362 111.055C55.9598 111.566 54.5576 112.331 53.1554 112.842C51.6258 113.352 49.9686 113.352 48.5665 114.118C46.1445 115.521 45.1248 118.328 44.8698 121.007C44.8698 121.518 44.8698 122.156 44.8698 122.666C44.8698 123.304 44.9973 123.942 44.9973 124.58C45.1248 125.473 45.2522 126.238 45.2522 127.131C45.2522 127.642 45.2522 128.152 44.8698 128.407C44.105 129.173 43.85 130.194 43.85 130.194C43.85 130.194 43.0852 126.111 42.9577 125.728C42.8303 125.473 42.7028 125.218 42.4479 125.09C41.4281 123.942 40.1534 124.197 40.1534 124.197C40.1534 124.197 39.516 124.069 39.1336 123.942C38.7512 123.814 38.4963 123.304 38.2413 123.049C36.9666 121.518 36.5842 119.476 36.0743 117.69C35.6919 116.797 35.6919 116.031 35.8194 115.138C35.9468 112.842 35.5644 111.566 35.0545 109.524C34.1622 105.697 37.604 102.252 41.0457 100.721C41.8105 99.3173 43.0852 98.4242 44.4874 97.6587C45.6346 97.0208 46.9093 96.5104 48.1841 96.5104C49.3313 96.3828 50.0961 96.8932 51.1159 97.1483C52.5181 97.4035 53.9203 96.3828 55.3224 96.2552C56.3422 96 57.362 96 58.2543 96.2552C59.6565 96.638 60.9312 97.4035 61.9509 98.4242C63.863 98.4242 65.5201 98.4242 67.0498 100.083C68.7069 101.997 70.619 104.804 71.1288 107.355C71.5113 108.886 71.1288 110.545 70.364 111.821Z" fill="#F5EBDC"/>
<path d="M53.4104 132.618C53.6653 132.363 54.1752 132.107 54.6851 131.98C55.0675 131.852 55.4499 131.725 55.8323 131.725C55.9598 131.725 56.0873 131.725 56.3422 131.725C56.9796 131.725 57.6169 131.725 58.3817 131.852C59.0191 131.852 59.529 131.852 60.1663 131.725C61.8235 131.597 63.7355 131.725 65.0102 133.001C65.3926 133.511 65.2652 134.021 64.6278 134.021C63.863 134.021 63.0982 134.021 62.3333 134.021C60.2938 133.894 58.1268 134.021 56.0873 134.021C55.3224 134.021 54.5576 133.894 53.7928 133.766C53.028 133.766 52.773 133.256 53.4104 132.618Z" fill="#F5EBDC"/>
<path d="M58.6367 125.09C59.0191 125.09 60.9311 129.683 60.8037 130.959C60.6762 132.235 57.9993 132.363 57.6169 131.469C57.2345 130.321 58.2542 125.09 58.6367 125.09Z" fill="#E66740"/>
<path d="M43.2127 125.473C43.2127 124.963 43.9775 124.835 44.105 125.218C44.2324 125.09 44.8698 123.814 44.8698 123.814C44.8698 123.814 45.7621 128.918 46.6544 131.214C48.5665 135.552 48.3115 135.68 52.773 137.849C55.195 138.997 59.529 138.614 62.3333 138.359C63.9905 138.232 66.5399 137.466 67.6871 136.445C68.197 136.063 69.3442 134.404 69.3442 134.404C69.7267 135.042 69.8541 137.849 69.7267 138.614C69.5992 139.635 69.0893 141.677 68.7069 142.697C67.8146 144.994 66.1575 147.163 62.8432 148.311C61.5685 148.694 60.0389 148.694 58.6367 148.694C55.7048 148.821 52.773 148.566 50.3511 146.78C48.3115 145.249 47.0368 142.952 46.272 140.528C45.7621 139.125 45.3797 137.721 45.1247 136.318C45.2522 135.935 43.2127 128.79 43.2127 125.473Z" fill="#F5EBDC"/>
<path d="M46.9093 122.666V124.197L44.9973 124.452L42.3204 124.835C41.3006 123.687 40.0259 123.942 40.0259 123.942L44.7423 122.538L46.017 122.156L46.9093 122.666Z" fill="#4C331F"/>
<path d="M62.2059 134.659C62.2059 135.042 61.9509 135.552 61.696 135.68C61.0587 136.318 60.0389 136.573 59.1466 136.573C57.7444 136.701 55.9598 136.19 55.4499 134.787V134.659C56.0873 134.787 57.2345 134.914 59.1466 134.914C60.5488 134.914 61.5685 134.787 62.2059 134.659Z" fill="#D13E11"/>
<path d="M59.529 121.645C58.7641 121.645 57.362 121.645 56.4697 121.39C51.6258 120.369 46.9093 121.007 46.7819 122.028C46.5269 124.325 46.7819 128.025 49.4588 128.79C51.4983 129.428 54.1752 129.045 55.5774 127.132C55.9598 126.621 56.4697 125.473 56.7246 124.835C56.8521 124.452 56.9795 124.069 57.2345 123.687C57.4894 123.304 58.5092 123.176 59.529 123.176V121.645ZM51.8807 128.28C51.4983 128.28 51.1159 128.28 50.7335 128.28C50.0961 128.28 49.2038 128.025 48.8214 127.514C48.439 127.132 48.3115 126.494 48.184 125.983C47.9291 124.963 48.0566 123.942 48.184 122.921C48.184 122.666 48.439 122.538 48.6939 122.538C50.4785 122.156 54.6851 122.028 56.2147 122.794C56.8521 123.176 55.7048 125.983 55.4499 126.366C54.4301 127.514 53.2829 128.152 51.8807 128.28Z" fill="#4C331F"/>
<path d="M49.9687 121.007C49.9687 121.007 45.8896 121.262 45.7621 121.39C45.6346 121.518 45.6346 122.411 45.7621 122.538C45.8896 122.666 46.272 122.538 46.5269 122.794C46.7819 123.049 46.9093 124.197 46.9093 124.197C46.9093 124.197 47.5467 121.9 47.6742 121.773C47.9291 121.773 49.9687 121.007 49.9687 121.007Z" fill="#4C331F"/>
<path d="M46.9093 122.283C47.2613 122.283 47.5467 122.169 47.5467 122.028C47.5467 121.887 47.2613 121.773 46.9093 121.773C46.5573 121.773 46.272 121.887 46.272 122.028C46.272 122.169 46.5573 122.283 46.9093 122.283Z" fill="white"/>
<path d="M57.7444 123.304C58.7642 123.304 59.7839 123.431 60.0389 123.814C60.2938 124.069 60.4213 124.58 60.5487 124.963C60.8037 125.6 61.3136 126.621 61.696 127.259C63.0982 129.173 65.7751 129.556 67.8146 128.918C70.4915 128.152 70.619 124.452 70.4915 122.156C70.364 121.135 65.6476 120.497 60.8037 121.518C60.0389 121.645 58.5092 121.773 57.7444 121.773V123.304ZM61.9509 126.238C61.696 125.856 60.5487 123.049 61.1861 122.666C62.5883 121.9 66.9223 122.028 68.7069 122.411C68.9618 122.411 69.2168 122.538 69.2168 122.794C69.3442 123.814 69.3442 124.835 69.2168 125.856C69.0893 126.366 68.9618 127.004 68.5794 127.387C68.197 127.897 67.3047 128.152 66.6674 128.152C66.2849 128.152 65.9025 128.152 65.5201 128.152C63.9905 128.152 62.7158 127.514 61.9509 126.238Z" fill="#4C331F"/>
<path d="M67.1772 121.007C67.1772 121.007 71.2563 121.262 71.3838 121.39C71.5113 121.518 71.5113 122.411 71.3838 122.538C71.2563 122.666 70.8739 122.538 70.619 122.794C70.364 123.049 70.2365 124.197 70.2365 124.197C70.2365 124.197 69.5992 121.9 69.4717 121.773C69.3443 121.773 67.1772 121.007 67.1772 121.007Z" fill="#4C331F"/>
<path d="M70.2365 122.283C70.5885 122.283 70.8739 122.169 70.8739 122.028C70.8739 121.887 70.5885 121.773 70.2365 121.773C69.8845 121.773 69.5992 121.887 69.5992 122.028C69.5992 122.169 69.8845 122.283 70.2365 122.283Z" fill="white"/>
<path d="M38.8787 151.756C38.8787 151.756 45.7621 154.563 51.4983 154.308C58.3817 153.925 60.5487 151.373 60.5487 151.373C60.5487 151.373 68.8344 150.608 70.8739 151.118C81.5815 153.415 82.0913 164.132 82.3463 169.746C82.6012 174.339 84.5133 188.629 85.2781 194.625C86.043 200.622 92.6714 223.588 93.1813 226.012C98.2802 247.319 56.7246 245.023 51.3708 249.616C46.017 254.209 38.3688 250.764 35.4369 246.554C32.5051 242.343 11.8548 178.167 13.257 169.491C15.424 156.221 38.8787 151.756 38.8787 151.756Z" fill="#537864"/>
<path d="M41.4281 250.892C41.4281 250.892 46.3995 272.071 55.3224 276.792C64.3729 281.513 75.4629 278.833 84.3858 274.623C97.0055 268.754 115.871 260.078 118.421 259.695C120.97 259.312 124.412 271.178 129.638 279.216C134.992 287.254 147.484 307.03 149.778 307.286C152.073 307.541 165.075 299.375 166.35 298.354C167.624 297.334 145.062 249.488 141.493 241.323C137.924 233.285 130.275 224.991 118.93 227.671C107.841 230.605 41.4281 250.892 41.4281 250.892Z" fill="#FFC370"/>
<path d="M148.121 360.617C147.866 361.255 123.01 361 122.372 360.745C121.99 360.617 121.99 359.852 121.99 359.086C121.99 358.959 121.99 358.959 121.99 358.831C126.579 358.831 139.963 359.086 148.249 359.086C148.249 359.469 148.249 359.979 148.121 360.617Z" fill="white"/>
<path d="M187 316.344C187 317.11 164.565 327.7 163.928 327.7C163.545 327.7 163.163 327.062 162.908 326.424L186.618 315.196C186.745 315.451 187 315.834 187 316.344Z" fill="white"/>
<path d="M119.313 258.547C119.185 258.547 119.185 258.547 119.058 258.547C118.676 258.419 118.548 258.037 118.676 257.654L121.607 250.381C121.735 249.999 122.117 249.871 122.5 249.999C122.882 250.126 123.01 250.509 122.882 250.892L119.95 258.164C119.823 258.292 119.568 258.547 119.313 258.547Z" fill="#F2A841"/>
<path d="M81.0716 229.84C81.0716 229.84 89.4847 231.754 91.9066 231.881C94.3286 232.009 99.1725 235.454 99.6824 236.219C100.32 236.985 99.8098 238.388 99.8098 238.388C99.8098 238.388 100.83 239.154 100.192 240.302C99.5549 241.45 98.2802 241.195 98.2802 241.195C98.2802 241.195 97.1329 243.109 95.9857 243.109C94.8385 243.109 93.3088 242.981 93.3088 242.981C93.3088 242.981 92.9264 244.002 91.6517 244.13C90.377 244.257 88.3374 242.981 85.6605 243.236C85.4056 243.236 82.4738 244.64 79.0321 241.323C77.3749 239.664 75.8453 237.878 75.8453 237.878C75.8453 237.878 74.4431 234.816 74.5706 234.688C74.698 234.433 81.0716 229.84 81.0716 229.84Z" fill="#FF8F54"/>
<path d="M15.1691 164.642C15.1691 164.642 10.8351 170.639 10.9625 186.843C11.2175 203.046 11.09 228.691 22.5624 236.985C34.0348 245.278 75.0805 239.792 75.0805 239.792C75.0805 239.792 85.6606 227.671 82.3463 226.395C76.9925 224.353 15.1691 164.642 15.1691 164.642Z" fill="#537864"/>
<path d="M82.0914 226.905C81.9639 226.905 81.709 226.778 81.5815 226.65C81.5815 226.65 79.287 224.226 73.6783 222.95C69.5992 222.057 39.771 214.784 38.3688 213.764C37.7314 213.381 37.604 211.977 37.0941 202.664C36.5842 192.967 35.9469 179.57 33.7798 174.339C30.4656 166.173 22.3075 160.815 22.18 160.687C21.925 160.56 21.7976 160.049 22.0525 159.794C22.18 159.539 22.6899 159.411 22.9448 159.666C23.3272 159.922 31.4854 165.28 34.9271 173.956C37.0941 179.315 37.7314 192.839 38.2413 202.664C38.4963 207.257 38.7512 211.977 39.0062 212.871C41.1732 213.891 67.0498 220.271 73.6783 221.802C79.7969 223.205 82.0914 225.757 82.2188 225.885C82.4738 226.14 82.4738 226.522 82.2188 226.778C82.4738 226.905 82.2188 226.905 82.0914 226.905Z" fill="#3C5F4D"/>
<path d="M51.3708 242.471C43.2127 242.471 35.3095 241.705 35.182 241.705C34.7996 241.705 34.5446 241.323 34.5446 241.067C34.5446 240.685 34.9271 240.429 35.182 240.429C35.3095 240.429 45.1247 241.323 54.0477 241.195C62.9707 240.94 72.4036 239.536 72.531 239.536C72.9134 239.536 73.1684 239.664 73.2958 240.047C73.2958 240.429 73.1684 240.685 72.786 240.812C72.6585 240.812 63.2256 242.343 54.1752 242.471C53.2829 242.471 52.2631 242.471 51.3708 242.471Z" fill="#3C5F4D"/>
<path d="M29.4458 216.953C29.1909 216.953 29.0634 216.826 28.9359 216.698C28.681 216.443 28.8085 216.06 29.0634 215.805C29.0634 215.805 30.2106 215.04 33.1425 214.019C36.5842 212.871 38.7512 212.743 38.8787 212.743C39.2611 212.743 39.516 212.998 39.516 213.381C39.516 213.764 39.2611 214.019 38.8787 214.019C38.8787 214.019 36.8391 214.019 33.5249 215.167C30.848 216.06 29.8282 216.826 29.8282 216.826C29.5733 216.953 29.4458 216.953 29.4458 216.953Z" fill="#3C5F4D"/>
<path d="M154.75 162.984C155.132 161.963 171.704 161.835 172.723 162.601C173.743 163.367 171.576 174.339 170.811 175.36C170.174 176.381 158.701 176.508 157.554 175.998C156.407 175.615 154.24 164.515 154.75 162.984Z" fill="white"/>
<path d="M157.809 174.339C156.407 174.339 154.24 174.084 152.71 172.808C151.818 172.043 151.181 171.022 151.053 169.746C150.671 165.791 153.73 164.132 155.387 163.877L155.897 166.429C155.515 166.556 153.348 167.067 153.603 169.618C153.603 170.256 153.858 170.639 154.367 171.022C155.515 172.043 158.064 171.915 158.829 171.915L159.084 174.467C158.829 174.339 158.447 174.339 157.809 174.339Z" fill="white"/>
<path d="M149.778 165.918C149.778 165.918 153.73 166.429 154.112 167.96C154.495 169.491 153.348 170.256 151.308 170.384C149.269 170.511 148.759 170.384 148.759 170.129C148.759 169.873 148.759 166.429 148.759 166.429L149.778 165.918Z" fill="#FF8F54"/>
<path d="M38.8787 151.756C38.8787 151.756 43.2127 158.518 44.8698 158.773C46.7819 159.156 51.4983 154.18 51.4983 154.18L38.8787 151.756Z" fill="white"/>
<path d="M60.5487 151.373L51.4983 154.308C51.4983 154.308 57.2345 158.135 58.8916 157.753C59.9114 157.497 60.5487 151.373 60.5487 151.373Z" fill="white"/>
</g>
<g clip-path="url(#clip4)">
<path d="M338.679 309.869H256.571C255.524 309.869 254.607 308.954 254.607 307.908C254.607 306.862 255.524 305.946 256.571 305.946H338.679C339.726 305.946 340.643 306.862 340.643 307.908C340.643 308.954 339.857 309.869 338.679 309.869Z" fill="#1E1915"/>
<path d="M351.119 361C349.941 361 348.893 360.215 348.631 359.038L330.429 284.762C330.036 283.323 330.952 281.885 332.393 281.623C333.833 281.231 335.274 282.146 335.536 283.585L353.738 357.862C354.131 359.3 353.214 360.738 351.774 361C351.512 360.869 351.25 361 351.119 361Z" fill="#1E1915"/>
<path d="M328.988 361C327.81 361 326.762 360.215 326.5 359.038L308.298 284.762C307.905 283.323 308.821 281.885 310.262 281.623C311.702 281.231 313.143 282.146 313.405 283.585L331.476 357.731C331.869 359.169 330.952 360.608 329.512 360.869C329.381 360.869 329.119 361 328.988 361Z" fill="#1E1915"/>
<path d="M244.262 361C244 361 243.869 361 243.607 360.869C242.167 360.477 241.381 359.169 241.643 357.731L259.845 283.454C260.238 282.015 261.548 281.231 262.988 281.492C264.429 281.885 265.214 283.192 264.952 284.631L246.75 358.908C246.488 360.085 245.44 361 244.262 361Z" fill="#1E1915"/>
<path d="M267.964 361C267.702 361 267.571 361 267.31 360.869C265.869 360.477 265.083 359.169 265.345 357.731L283.548 283.454C283.94 282.015 285.25 281.231 286.69 281.492C288.131 281.885 288.917 283.192 288.655 284.631L270.452 358.908C270.19 360.085 269.143 361 267.964 361Z" fill="#1E1915"/>
<path d="M354.262 264.362C354.262 264.362 344.702 284.761 339.333 286.331C333.964 287.9 272.024 286.985 269.143 285.023C266.262 283.061 269.143 269.069 269.143 269.069L338.94 262.138L354.262 264.362Z" fill="#454659"/>
<path d="M343.524 153.992C343.524 153.992 374.429 153.731 382.94 164.062C391.452 174.262 385.167 190.608 377.964 212.054C370.762 233.369 350.202 275.085 347.19 275.085C344.179 275.085 327.94 272.862 327.94 272.862L343.524 153.992Z" fill="#454659"/>
<path d="M338.679 150.331C338.679 150.331 339.726 148.369 342.607 148.5C345.488 148.631 348.238 149.938 348.238 150.723C348.107 151.508 346.012 152.292 343.786 152.815C341.56 153.208 338.679 152.292 338.679 152.292V150.331Z" fill="#F2A841"/>
<path d="M280.536 173.215L279.75 163.015L273.202 163.277L273.595 175.177L280.536 173.215Z" fill="#FF8F54"/>
<path d="M309.476 159.615C306.202 160.4 303.845 163.015 302.012 165.762C297.167 172.692 294.024 180.669 290.226 188.254C290.75 183.023 286.952 177.662 286.69 172.3C286.69 171.385 286.56 170.339 286.036 169.554C285.381 168.508 284.202 167.985 283.155 167.592C280.929 166.677 276.345 166.808 273.988 166.546C272.94 166.415 271.893 166.415 270.845 166.808C269.536 167.331 268.619 168.377 267.964 169.554C266.524 172.169 268.226 179.231 267.964 182.108C267.702 185.115 270.321 201.069 271.762 207.739C272.417 210.485 273.202 213.231 275.167 215.192C277.786 217.677 281.714 217.939 285.381 217.415C291.929 216.5 298.214 213.623 303.06 209.046C304.238 208 305.286 206.823 305.94 205.385C306.726 203.946 306.988 202.508 307.381 200.939C309.345 192.962 311.31 184.854 311.31 176.615C311.31 170.862 310.393 165.239 309.476 159.615Z" fill="#F2AAC5"/>
<path d="M234.44 332.492L230.774 351.977L223.833 349.362L223.31 330.792L234.44 332.492Z" fill="#F07333"/>
<path d="M233.131 352.892C233.262 354.854 233.393 356.946 233.655 358.908C233.786 359.692 233.655 360.477 233.262 360.608C232.607 360.869 211.524 361.262 211.262 360.477C211 360.346 211 359.954 211 359.562C211 359.431 211 359.431 211 359.3C211.131 358.908 211.262 358.385 211.524 357.992C212.31 356.554 214.274 355.508 215.452 354.462C216.631 353.415 217.94 352.631 218.988 351.323C219.905 350.146 220.56 348.708 221.083 347.4C221.214 347.008 221.345 346.746 221.607 346.485C222.786 345.569 224.881 346.354 226.06 346.746C226.976 347.138 230.512 348.577 231.56 348.838C233.131 349.362 233 351.715 233.131 352.892Z" fill="#313247"/>
<path d="M233.524 359.039C233.655 359.823 233.524 360.608 233.131 360.739C232.476 361 211.393 361.392 211.131 360.608C211 360.346 211 359.954 211 359.562C214.667 359.431 229.464 359.169 233.524 359.039Z" fill="#F5EBDC"/>
<path d="M219.25 352.631C218.464 352.762 218.595 354.069 219.381 353.938C220.298 353.808 220.036 352.5 219.25 352.631Z" fill="#F5EBDC"/>
<path d="M221.214 350.277C220.429 350.408 220.56 351.715 221.345 351.585C222.262 351.454 222.131 350.277 221.214 350.277Z" fill="#F5EBDC"/>
<path d="M248.19 332.362L244.524 351.977L237.583 349.231L237.06 330.792L248.19 332.362Z" fill="#FF8F54"/>
<path d="M246.881 352.892C247.012 354.854 247.143 356.946 247.405 358.908C247.536 359.692 247.405 360.477 247.012 360.608C246.357 360.869 225.274 361.262 225.012 360.477C224.881 360.215 224.881 359.823 224.881 359.3C224.881 359.169 224.881 359.169 224.881 359.039C225.012 358.646 225.143 358.123 225.405 357.731C226.19 356.292 228.155 355.246 229.333 354.2C230.512 353.154 231.821 352.369 232.869 351.062C233.786 349.885 234.44 348.446 234.964 347.139C235.095 346.746 235.226 346.485 235.488 346.223C236.667 345.308 238.762 346.092 239.94 346.485C240.857 346.877 244.393 348.315 245.44 348.577C246.881 349.231 246.75 351.715 246.881 352.892Z" fill="#454659"/>
<path d="M247.274 358.908C247.405 359.692 247.274 360.477 246.881 360.608C246.226 360.869 225.143 361.262 224.881 360.477C224.75 360.215 224.75 359.823 224.75 359.3C228.417 359.431 243.345 359.038 247.274 358.908Z" fill="#F5EBDC"/>
<path d="M233 352.5C232.214 352.631 232.345 353.939 233.131 353.808C234.048 353.677 233.786 352.5 233 352.5Z" fill="#F5EBDC"/>
<path d="M234.964 350.277C234.179 350.408 234.31 351.715 235.095 351.585C236.012 351.454 235.881 350.146 234.964 350.277Z" fill="#F5EBDC"/>
<path d="M306.857 133.854C303.845 127.446 308.429 120.254 312.619 115.546C312.75 115.285 313.143 115.546 313.143 115.808C312.75 118.031 311.44 120.254 310.262 122.477C310.524 122.608 310.786 122.869 310.786 123.392C311.31 123.131 314.19 123.262 314.321 124.046C316.286 130.977 315.107 139.215 319.952 144.969C320.476 145.623 319.952 146.669 319.167 146.669C316.286 146.669 313.536 145.362 311.44 143.269C310.524 142.354 309.869 141.308 309.476 140C309.214 139.085 308.821 138.3 308.429 137.515C307.905 136.469 307.25 135.554 306.988 134.377C306.857 133.985 306.857 133.985 306.857 133.854Z" fill="#F5EBDC"/>
<path d="M339.988 133.462C342.738 132.939 345.881 135.815 346.929 138.039C347.583 139.346 347.714 140.523 347.583 141.7C347.714 141.569 347.976 141.439 348.107 141.308C349.417 139.869 349.81 138.3 350.071 136.6C350.071 136.208 350.726 136.208 350.726 136.6C351.512 139.477 350.202 142.092 347.714 143.792C344.833 145.623 341.952 147.846 338.155 147.192C331.476 146.015 334.619 134.639 339.988 133.462Z" fill="#F5EBDC"/>
<path d="M340.905 118.031C340.905 118.031 340.119 135.031 338.024 141.569C336.583 145.754 330.167 150.331 326.893 150.331C322.702 150.331 316.548 146.539 315.5 141.046C314.06 133.985 314.191 121.954 314.583 119.469C314.976 116.854 327.548 112.8 327.548 112.8L340.905 118.031Z" fill="#FF8F54"/>
<path d="M316.548 158.961L322.31 166.415L332.655 168.769C332.655 168.769 340.774 164.192 341.298 163.931C341.821 163.669 347.19 156.608 347.19 156.608C347.19 156.608 342.476 154.908 340.774 153.6C338.679 152.031 339.071 137.254 339.071 137.254L322.571 144.185L323.226 149.546C323.357 150.723 323.357 151.769 323.226 152.423C323.226 152.815 322.833 153.338 322.31 153.861C320.214 155.823 316.548 158.961 316.548 158.961Z" fill="#FF8F54"/>
<path d="M339.071 127.708C339.071 127.708 341.429 127.708 342.345 130.715C343.262 133.723 339.071 137.908 339.071 137.908L335.929 130.585L339.071 127.708Z" fill="#FF8F54"/>
<path d="M329.119 126.4C328.464 124.569 333.179 124.831 334.095 125.354C334.357 125.485 334.488 125.615 334.75 125.746C335.143 126.269 334.75 127.185 334.095 127.185C333.44 127.185 332.917 126.923 332.262 126.923C331.345 126.923 329.512 127.446 329.119 126.4Z" fill="#F5EBDC"/>
<path d="M317.464 127.708C316.81 127.838 316.286 128.1 315.631 128.1C314.976 128.231 314.452 127.315 314.714 126.792C314.845 126.531 314.976 126.4 315.238 126.269C316.155 125.746 320.738 124.962 320.345 126.792C320.083 127.838 318.25 127.708 317.464 127.708Z" fill="#F5EBDC"/>
<path d="M323.75 132.023C324.143 132.023 325.452 136.338 325.19 137.515C324.929 138.692 322.44 138.431 322.179 137.646C321.917 136.469 323.357 132.023 323.75 132.023Z" fill="#E66740"/>
<path d="M322.179 153.862C323.095 153.992 324.798 154.123 326.762 153.862C329.905 153.338 331.214 152.423 331.738 151.377C332.262 150.462 332 149.023 331.214 149.154C330.429 149.285 329.25 150.069 326.762 150.069C324.274 150.069 322.964 149.546 322.964 149.546C323.095 150.723 323.095 151.769 322.964 152.423C323.095 152.815 322.702 153.338 322.179 153.862Z" fill="#F07333"/>
<path d="M308.952 121.431C309.083 119.338 311.048 116.069 312.226 114.369C314.19 111.361 316.155 111.492 319.298 110.577C324.274 109.138 330.298 106.392 334.75 110.446C336.321 110.969 337.762 111.754 339.333 112.408C341.429 113.192 343.786 113.715 345.619 115.154C347.714 116.723 348.369 119.077 348.369 121.561C348.5 123.392 348.369 125.223 349.024 126.923C349.548 128.361 350.595 129.538 351.512 130.715C352.429 132.023 353.083 133.461 352.821 135.031C352.69 135.815 352.298 136.6 352.036 137.385C351.512 138.561 351.25 139.869 350.464 140.915C349.548 142.223 347.976 142.615 346.536 142.485C344.964 142.354 344.179 141.569 343.786 140.131C342.869 137.254 340.381 135.161 339.202 132.415C338.024 129.931 338.024 126.923 336.321 124.831C334.75 122.869 332.131 122.215 330.036 120.777C328.726 119.861 327.679 118.554 327.024 116.985C326.893 116.723 326.762 116.461 326.762 116.069C326.238 116.592 325.714 116.985 325.06 117.377C323.357 118.685 321 118.815 319.429 120.385C318.381 121.431 317.726 122.608 316.679 123.654C315.369 124.961 314.06 126.008 314.06 126.008C314.06 126.008 308.821 123.261 308.952 121.431Z" fill="#F5EBDC"/>
<path d="M309.345 119.6C309.345 119.6 309.345 111.754 315.5 108.746C321.655 105.738 324.798 106 328.595 106.131C332.393 106.262 334.881 106.654 338.94 108.223C343 109.792 346.405 116.069 346.405 116.069C346.405 116.069 334.226 113.977 332.655 113.977C331.083 113.977 319.036 114.5 317.464 115.677C315.893 116.854 309.345 119.6 309.345 119.6Z" fill="#F5EBDC"/>
<path d="M297.429 229.969C297.429 229.969 236.536 246.838 230.25 255.338C223.964 263.838 215.321 323.6 218.595 328.831C221.869 334.062 237.845 333.408 237.845 333.408C237.845 333.408 262.595 265.669 263.643 265.146C264.69 264.492 314.321 244.485 314.321 244.485L323.75 234.023L297.429 229.969Z" fill="#F0542E"/>
<path d="M333.571 129.931C333.179 129.931 332.786 130.192 332.393 130.192C332 130.192 331.607 130.192 331.214 130.192C330.69 130.323 330.69 130.977 331.214 131.238C332 131.5 333.44 131.631 333.964 130.846C334.226 130.454 333.964 129.931 333.571 129.931Z" fill="#1E1915"/>
<path d="M316.548 130.846C316.94 130.846 317.333 130.977 317.726 130.977C318.119 130.977 318.512 130.846 318.905 130.846C319.429 130.846 319.429 131.631 319.036 131.892C318.25 132.285 316.81 132.415 316.286 131.762C315.893 131.5 316.024 130.846 316.548 130.846Z" fill="#1E1915"/>
<path d="M301.881 238.077C301.881 238.077 246.357 248.538 237.19 259.654C228.024 270.769 227.107 321.769 228.548 328.308C229.988 334.846 230.25 335.238 236.405 336.154C242.56 337.069 249.107 338.769 252.512 337.069C256.048 335.369 265.869 284.108 270.714 283.846C279.75 283.192 319.821 271.031 320.083 269.985C320.345 268.938 317.988 238.077 317.988 238.077H301.881Z" fill="#FD7756"/>
<path d="M323.75 142.092C322.31 142.092 321.655 141.831 321.524 141.7C321.131 141.569 321 141.177 321.131 140.785C321.262 140.392 321.655 140.262 322.048 140.392C322.048 140.392 322.964 140.785 324.536 140.523C326.238 140.392 326.893 140 326.893 140C327.155 139.869 327.548 139.869 327.81 140.262C327.94 140.523 327.94 140.915 327.548 141.177C327.417 141.177 326.631 141.7 324.667 141.831C324.405 142.092 324.012 142.092 323.75 142.092Z" fill="#F07333"/>
<path d="M321.393 154.646C321.393 154.646 322.179 159.223 326.5 167.069C331.869 176.746 319.821 194.008 319.821 194.008L312.226 272.469C312.226 272.469 304.762 257.562 298.083 248.408C295.857 245.269 280.405 237.031 281.583 232.062C282.107 230.1 289.048 222.777 290.226 218.854C291.405 214.931 302.929 169.292 305.286 163.669C307.643 158.046 321.393 154.646 321.393 154.646Z" fill="#FFD5E5"/>
<path d="M340.643 153.469C340.643 153.469 337.238 159.877 322.44 169.815C314.321 175.308 315.631 235.985 314.19 240.954C312.75 245.923 309.345 257.823 309.607 265.669C309.738 273.515 318.119 278.223 327.155 278.615C336.19 278.877 343.524 274.954 343.393 270.115C343.262 265.146 340.643 260.438 343.393 248.015C346.143 235.592 363.952 178.185 360.155 166.808C356.357 155.431 340.643 153.469 340.643 153.469Z" fill="#FFD5E5"/>
<path d="M346.405 154.908C346.405 154.908 363.691 157.915 365.655 173.869C366.833 183.415 363.036 225 356.619 231.408C349.417 238.6 305.417 244.877 304.107 241.346C303.583 239.777 302.667 212.969 302.667 212.969L328.595 190.346L346.405 154.908Z" fill="#FFD5E5"/>
<path d="M283.417 148.238C283.81 147.192 300.833 147.454 301.881 148.238C302.929 149.023 300.441 160.269 299.655 161.185C299 162.231 287.214 162.1 286.036 161.577C284.857 161.185 282.762 149.808 283.417 148.238Z" fill="white"/>
<path d="M286.298 160.008C284.857 160.008 282.631 159.746 281.06 158.439C280.143 157.654 279.488 156.477 279.488 155.3C279.226 151.246 282.238 149.677 283.941 149.285L284.464 151.9L284.202 150.592L284.464 151.9C284.071 152.031 281.845 152.554 282.107 155.169C282.107 155.823 282.369 156.215 282.762 156.608C283.941 157.654 286.56 157.654 287.345 157.523L287.607 160.139C287.345 160.008 286.821 160.008 286.298 160.008Z" fill="white"/>
<path d="M273.202 163.277C273.202 163.277 272.679 154.515 272.81 153.208C272.94 151.9 276.607 150.331 277.917 150.2C279.095 150.069 282.5 150.985 282.893 151.508C283.286 152.031 282.893 153.077 282.893 153.077C282.893 153.077 284.071 153.731 283.679 154.515C283.286 155.3 282.5 155.692 282.5 155.692C282.5 155.692 283.81 156.085 283.155 157.131C282.762 157.785 280.798 158.177 280.798 161.838C280.798 162.885 279.881 164.323 279.881 164.323C279.881 164.323 276.869 164.454 276.607 164.454C276.476 164.323 273.202 163.277 273.202 163.277Z" fill="#FF8F54"/>
<path d="M314.583 219.769L308.821 220.292L308.69 227.746L316.548 227.877L314.583 219.769Z" fill="#FF8F54"/>
<path d="M308.821 220.292C308.821 220.292 305.94 217.677 303.845 217.415C301.75 217.154 296.512 219.508 296.119 220.292C295.726 221.077 296.381 221.992 298.214 221.731C300.048 221.339 301.226 221.992 301.619 222.385C302.012 222.777 301.881 223.039 300.571 223.562C299.262 224.085 295.988 223.431 294.417 223.431C292.845 223.431 290.619 223.169 290.095 223.431C290.095 223.431 291.536 225.915 293.5 226.7C295.333 227.485 308.821 227.877 308.821 227.877C308.821 227.877 314.321 225.131 314.059 225.131C313.667 225 308.821 220.292 308.821 220.292Z" fill="#FF8F54"/>
<path d="M300.702 223.692H282.369C281.583 223.692 281.06 223.169 281.06 222.385C281.06 221.6 281.583 221.077 282.369 221.077H300.702C301.488 221.077 302.012 221.6 302.012 222.385C302.012 223.039 301.488 223.692 300.702 223.692Z" fill="white"/>
<path d="M316.024 219.115C315.762 219.115 315.5 218.854 315.369 218.592C315.238 218.2 315.5 217.939 315.893 217.808C323.095 215.977 335.143 212.446 336.321 210.877C337.238 209.569 338.286 200.285 339.333 192.177C340.119 185.377 340.905 178.315 341.821 174.392C343.786 165.239 351.25 158.962 351.512 158.7C351.774 158.439 352.167 158.569 352.429 158.831C352.69 159.092 352.56 159.485 352.298 159.746C352.167 159.746 344.833 166.023 343 174.654C342.214 178.577 341.298 185.508 340.512 192.308C339.202 203.423 338.417 210.223 337.369 211.662C335.536 214.277 318.119 218.592 316.155 219.115H316.024Z" fill="#F2AAC5"/>
<path d="M322.44 241.215C321.262 241.215 320.345 241.085 319.821 240.823C316.548 238.992 316.679 230.885 316.679 229.969C316.679 229.577 316.94 229.315 317.333 229.315C317.726 229.315 317.988 229.577 317.988 229.969C317.988 232.323 318.25 238.469 320.476 239.646C322.571 240.692 336.19 238.077 344.44 236.115C344.833 235.985 345.095 236.246 345.226 236.638C345.357 237.031 345.095 237.292 344.702 237.423C342.869 237.815 328.726 241.215 322.44 241.215Z" fill="#F2AAC5"/>
<path d="M339.333 148.892C339.333 148.892 335.536 150.2 331.607 150.723C327.679 151.246 323.095 150.331 323.095 150.331C323.095 150.331 322.571 151.769 322.44 152.423C322.31 153.077 322.44 153.6 322.44 153.6C322.44 153.6 327.94 154.646 331.476 154.254C335.012 153.862 339.988 152.685 339.988 152.685C339.988 152.685 340.119 152.031 339.988 150.592C339.988 149.677 339.333 148.892 339.333 148.892Z" fill="#FFC370"/>
<path d="M338.417 149.415C338.417 149.415 336.845 146.538 339.333 144.054C341.821 141.569 344.31 141.962 346.143 141.7C347.976 141.438 348.238 142.615 347.845 143.4C347.452 144.185 345.881 146.931 343.131 148.369C340.512 149.938 338.417 149.415 338.417 149.415Z" fill="#FFC370"/>
<path d="M268.75 283.846C268.619 283.846 268.357 283.846 268.226 283.715L261.679 277.177C261.417 276.915 261.417 276.523 261.679 276.262C261.94 276 262.333 276 262.595 276.262L269.143 282.8C269.405 283.062 269.405 283.454 269.143 283.715C269.143 283.846 268.881 283.846 268.75 283.846Z" fill="#F0542E"/>
</g>
<defs>
<filter id="filter0_b" x="-3" y="-23.0001" width="92.9433" height="92.2245" filterUnits="userSpaceOnUse" color-interpolation-filters="sRGB">
<feFlood flood-opacity="0" result="BackgroundImageFix"/>
<feGaussianBlur in="BackgroundImage" stdDeviation="12"/>
<feComposite in2="SourceAlpha" operator="in" result="effect1_backgroundBlur"/>
<feBlend mode="normal" in="SourceGraphic" in2="effect1_backgroundBlur" result="shape"/>
</filter>
<filter id="filter1_b" x="-3" y="-24" width="402" height="395" filterUnits="userSpaceOnUse" color-interpolation-filters="sRGB">
<feFlood flood-opacity="0" result="BackgroundImageFix"/>
<feGaussianBlur in="BackgroundImage" stdDeviation="12"/>
<feComposite in2="SourceAlpha" operator="in" result="effect1_backgroundBlur"/>
<feBlend mode="normal" in="SourceGraphic" in2="effect1_backgroundBlur" result="shape"/>
</filter>
<linearGradient id="paint0_linear" x1="32.1906" y1="12.0092" x2="54.5801" y2="34.5746" gradientUnits="userSpaceOnUse">
<stop stop-color="#05AFE4"/>
<stop offset="1" stop-color="#56D347"/>
</linearGradient>
<clipPath id="clip0">
<rect width="31.395" height="31.6587" fill="white" transform="matrix(0.709868 -0.704335 0.715664 0.698444 21 23.1125)"/>
</clipPath>
<clipPath id="clip1">
<rect width="116" height="149.6" fill="white" transform="translate(140 208)"/>
</clipPath>
<clipPath id="clip2">
<rect width="263" height="197" fill="white" transform="translate(64 3)"/>
</clipPath>
<clipPath id="clip3">
<rect width="187" height="265" fill="white" transform="translate(0 96)"/>
</clipPath>
<clipPath id="clip4">
<rect width="176" height="255" fill="white" transform="translate(211 106)"/>
</clipPath>
</defs>
</svg>
