<svg xmlns="http://www.w3.org/2000/svg" viewBox="0 0 406.84 349.01"><defs><style>.cls-1{fill:#edddcc;}.cls-2{fill:none;}.cls-3{fill:#323960;}.cls-4{fill:#efb29d;}.cls-5{fill:#f7f6f4;}.cls-6{fill:#9d586c;}.cls-7{fill:#282e54;}.cls-8{fill:#f0eeeb;}</style></defs><g id="Слой_2" data-name="Слой 2"><g id="Слой_1-2" data-name="Слой 1"><g id="Слой_2-2" data-name="Слой 2"><g id="Слой_1-2-2" data-name="Слой 1-2"><path class="cls-1" d="M181.84,2c-97.75,0-177,77.68-177,173.5,0,3.66.13,7.28.36,10.89.93,8.45,1.61,16.86,3.67,25.21,1.71,6.92,3.51,13.83,5.66,20.63a171.71,171.71,0,0,0,25.41,47l.65.84A177.92,177.92,0,0,0,181.84,349c97.75,0,177-77.68,177-173.5S279.59,2,181.84,2Z"/><path class="cls-2" d="M0,0V145.19A4.6,4.6,0,0,1,4.88,150c0,1-.11,2.09-.22,3.13a5.08,5.08,0,0,1,.61,2.35A174.73,174.73,0,0,1,4,178.14a5.58,5.58,0,0,1,.28,1.07c1.56,10.88,1.92,21.69,4.56,32.4a265.46,265.46,0,0,0,8.53,29,128.93,128.93,0,0,0,15.17,29.07c4.88,7,11.22,13.11,14.67,21a6.06,6.06,0,0,1,.12,4.24c3.89,4.86-3,11.75-7.19,6.91-1.89-2.2-3.88-4.21-5.09-6.88a5.33,5.33,0,0,1,.25-5.2c-3.74-5.77-8.61-10.91-12.46-16.56A137.68,137.68,0,0,1,8.39,245,239.63,239.63,0,0,1,0,217.35V347.73H406.84V0Z"/><path class="cls-3" d="M49.59,115.5s-32.46,28.9-19.82,77.35l37.85-.3s8.28-46.8,6.49-63.46C74.09,129.09,70.36,99.32,49.59,115.5Z"/><path class="cls-4" d="M51.73,70.45s-9.95,1.89-10.1,14.06c-.07,5.21-4.38,8.78-.84,9.9s-.8,6.58,2.86,9.67,22.93,1.35,24.15-16C67.8,88,72.77,65,51.73,70.45Z"/><path class="cls-4" d="M48.62,105.36s5.15.07,4.4,8l12.34-.57s.74-17.7.74-17.73h0Z"/><path class="cls-5" d="M67,111.94l-.17-4a1.16,1.16,0,0,0-1.19-1.13h-.1l-14.9,1.44a1.21,1.21,0,0,0-1.07,1.1l-.37,5.18a1.17,1.17,0,0,0,1.07,1.26.94.94,0,0,0,.29,0L66,113.18A1.21,1.21,0,0,0,67,111.94Z"/><path class="cls-6" d="M45.86,76.36a4.91,4.91,0,0,1-5.45-4.3,1.23,1.23,0,0,1,0-.19,8,8,0,0,1,.77-3.57c2.63-6.06,6.27.93,10.87-.55s13.75-3.26,16.31,2.67c0,0,5.4-.57,5.47,5.44.1,10.5-4.65,17.28-7.61,19.2,0,0-1.91,1.44-2.46-4.29S60.13,85,57.3,84.71C52.52,84.16,57.85,75.11,45.86,76.36Z"/><path class="cls-4" d="M57.62,84.73s5.18-4.71,7.61-.14C66.4,86.8,63.77,95.9,58,94.08Z"/><path class="cls-5" d="M54.14,116.72c-16.74,7.49-13.08,34.56-27.63,40.77-4.05,1.73-12.57,1.78-21.23,1.24,0,5.68-.44,11.34-1,17,9.41,1.54,20.11,1.81,29.9-1.51C64.74,163.85,70.88,109.22,54.14,116.72Z"/><path class="cls-4" d="M163.38,152.18a25.21,25.21,0,0,1-18.68-6.38c-8.53-7.71,6.76-2.47,10.72-1.52,0,0-6.07-3.07-5.77-4.32.62-2.71,11.69,3,13.35,5.59Z"/><path class="cls-7" d="M162.88,143.35s34.17,4.44,48.25-14.78,20.32-40.24,35.59-40-1.62,43.06-20.74,56-31.84,15.44-67.43,8.7Z"/><path class="cls-6" d="M256.34,174.87l16.19-40.44a5.77,5.77,0,0,1,5.35-3.64h6.42a5.79,5.79,0,0,1,5.77,5.79,6.11,6.11,0,0,1-.23,1.59l-11.56,40.44a5.77,5.77,0,0,1-5.55,4.19h-11a5.77,5.77,0,0,1-5.81-5.73A5.93,5.93,0,0,1,256.34,174.87Z"/><path class="cls-4" d="M205.23,123.58s-11.71-6.46-16.51-16.25l-5.37-2.2-13.23,32.59S185.16,180.28,205.23,123.58Z"/><path class="cls-4" d="M156.81,103.39s15.49,8.15,23.15-.08l5.38,2.19L172.1,138.09S134.25,160.88,156.81,103.39Z"/><path class="cls-4" d="M158.23,120.34s12.36-5.24-7.76-24.24c-19.1-18-14.33-30.17-3.19-49.19s7.37-29,4.83-29.17-1.2,15.51-7.46,21.09S120.47,58.5,125.72,79.77,150,127.37,158.23,120.34Z"/><path class="cls-4" d="M165.31,95.28s11.84,3.57,2.37,17.43l26.51,1.84s-12.53-14.73-13.95-34.78Z"/><path class="cls-4" d="M162.93,63.52s-7.12,2.64-6.64,10.17c.57,9-5.82,9.35-1.55,11.82,4,2.34,1,10.69,6.84,10.32C171,95.21,179.49,88.18,181,76S172.05,58.8,162.93,63.52Z"/><path class="cls-3" d="M158.15,67.11c21.24-4,6.74,27.8,41,14.48,14.67-5.68,10.32,5.84,24.12,0s30.82,12,38.75-2.79c5.6-10.47-12.58-23.36-30.26-17.1-16.62,5.91-19.45-5.49-35.37-1.62C175.24,65.24,168.32,55.61,158.15,67.11Z"/><path class="cls-4" d="M194.91,126.67s-10.2-5.46,8.18-24.26c19.38-19.82,13.91-30.14,2.76-49.17s-7.36-29-4.82-29.17,1.19,15.51,7.46,21.09,24.18,19.68,18.93,41S203.09,133.68,194.91,126.67Z"/><path class="cls-5" d="M194,129.52c-5.42-7.68-19.7-1-19.7-1s-11.29-11-18.92-5.54c-17.19,12.35,9.47,32.87-5.3,54.63l15.52,2.62,15.52,2.62C174.27,157.44,206.18,146.84,194,129.52Z"/><path class="cls-7" d="M253.21,84s15.07,4.76,16.44,26.91c1.29,20.94-9.58,34.78-14.95,62.21l-9.35,41.73C207.65,201,212.74,168.39,218,141.28,227,95.48,253.21,84,253.21,84Z"/><path class="cls-8" d="M220,172.65s-1.69-52.76,29.79-86.74l14.4-1.2-11.91,87.94Z"/><path class="cls-3" d="M264.2,84.71s12.54,4.16,12.86,26.05c.3,20.73-9.35,34.84-14.9,62.21l-9.45,41.72c-31.26-12.24-25.74-44.81-20.29-71.86C241.64,97.1,264.2,84.71,264.2,84.71Z"/><path class="cls-3" d="M302.4,20.51S311,54,293.7,70.32s-37.36,25.16-35.24,40.32,42.43-6.88,52.87-27.53,11.39-33.56.35-68.14Z"/><path class="cls-8" d="M263.8,84.88l-.92-3.16a1.17,1.17,0,0,0-1.44-.83l-14.52,3.72a1.21,1.21,0,0,0-.9,1.22l.18,4.42a1.19,1.19,0,0,0,1.23,1.15,1.91,1.91,0,0,0,.33-.06l15.27-5A1.23,1.23,0,0,0,263.8,84.88Z"/><path class="cls-4" d="M252.21,42.35s-10.24,1-11.46,13.36c-.52,5.29-6.79,8-3.28,9.4s.2,7.16,3.6,10.6,23.11,3.39,25.87-14.14C266.94,61.55,274,38.66,252.21,42.35Z"/><path class="cls-4" d="M246,77.38s5.19.55,3.75,8.53l14.4-1.2s.45-16.16.48-16.21h0Z"/><path class="cls-3" d="M266.22,64.69s8.18-11.22,1.64-20S243.46,41,242.42,44s.27,5.28,6.79,5.16c7.85-.15,6.51,5.68,6.09,8C254.28,62.92,264.15,58.7,266.22,64.69Z"/><path class="cls-4" d="M255.07,56.88s5.68-4.31,7.71.53c1,2.34-2.48,11.32-8.15,9Z"/><path class="cls-5" d="M266.29,84.21l-.92-3.2a1.18,1.18,0,0,0-1.44-.82L249.4,83.94a1.21,1.21,0,0,0-.89,1.22l.17,4.41a1.2,1.2,0,0,0,1.24,1.16,1.91,1.91,0,0,0,.33-.06l15.27-5A1.21,1.21,0,0,0,266.29,84.21Z"/><path class="cls-6" d="M67.4,174.87l16.19-40.44a5.77,5.77,0,0,1,5.35-3.64h6.41a5.77,5.77,0,0,1,5.55,7.38L89.33,178.61a5.79,5.79,0,0,1-5.54,4.19H72.74a5.77,5.77,0,0,1-5.34-7.93Z"/><path class="cls-3" d="M371.08,173.25a43,43,0,0,0-7.59-.7H4.57q-.24,2.79-.54,5.58a5.49,5.49,0,0,1,.28,1.08c1.56,10.88,1.92,21.69,4.56,32.4a265.46,265.46,0,0,0,8.53,29,128.93,128.93,0,0,0,15.17,29.07c4,5.78,9.11,11,12.68,17.13H224.86a9.9,9.9,0,0,0,9.9-8.11,49.59,49.59,0,0,1,97.89,0,9.89,9.89,0,0,0,9.9,8.11H384.4a12.46,12.46,0,0,0,12.27-10.3l4.27-23.76,4.16-23.09,1-5.93A43.47,43.47,0,0,0,371.08,173.25Z"/><path class="cls-7" d="M381.1,213.64a21,21,0,0,0-20.94-20.57L5.9,192.9a140.82,140.82,0,0,0,3,18.71,265.46,265.46,0,0,0,8.53,29,128.93,128.93,0,0,0,15.17,29.07c4.06,5.79,9.12,11,12.7,17.15H224.86a9.91,9.91,0,0,0,9.9-8.1,49.59,49.59,0,0,1,97.89,0,9.89,9.89,0,0,0,9.9,8.1h39.89Z"/><path class="cls-4" d="M311.21,19.93a25.44,25.44,0,0,0-8.61-17.8c-8.6-7.53-1.6,7-.2,10.88,0,0-3.78-5.66-5-5.22-2.61,1,4.4,11.27,7.16,12.62Z"/><path class="cls-7" d="M325.71,286.87A42.06,42.06,0,1,0,283.65,329,42.06,42.06,0,0,0,325.71,286.87Z"/><path class="cls-8" d="M304.89,286.87a21.24,21.24,0,1,0-21.24,21.29,21.24,21.24,0,0,0,21.24-21.29Z"/><path class="cls-6" d="M404.2,234.66l-2.63,14.69a4.2,4.2,0,0,1-4.13,3.46h-24a8.25,8.25,0,0,1-8.21-8.29,8.34,8.34,0,0,1,1-3.88l3.61-6.63a8.21,8.21,0,0,1,7.21-4.29h23a4.18,4.18,0,0,1,4.23,4.13A4.43,4.43,0,0,1,404.2,234.66Z"/><path class="cls-8" d="M394.63,288.44H339.31a10.65,10.65,0,0,1,0-21.29h55.32a10.65,10.65,0,0,1,0,21.29Z"/></g></g></g></g></svg>