<svg width="50" height="50" viewBox="0 0 50 50" fill="none" xmlns="http://www.w3.org/2000/svg">
<path fill-rule="evenodd" clip-rule="evenodd" d="M25 46.875C30.8016 46.875 36.3656 44.5703 40.468 40.468C44.5703 36.3656 46.875 30.8016 46.875 25C46.875 19.1984 44.5703 13.6344 40.468 9.53204C36.3656 5.42968 30.8016 3.125 25 3.125C19.1984 3.125 13.6344 5.42968 9.53204 9.53204C5.42968 13.6344 3.125 19.1984 3.125 25C3.125 30.8016 5.42968 36.3656 9.53204 40.468C13.6344 44.5703 19.1984 46.875 25 46.875ZM25 50C31.6304 50 37.9893 47.3661 42.6777 42.6777C47.3661 37.9893 50 31.6304 50 25C50 18.3696 47.3661 12.0107 42.6777 7.32233C37.9893 2.63392 31.6304 0 25 0C18.3696 0 12.0107 2.63392 7.32233 7.32233C2.63392 12.0107 0 18.3696 0 25C0 31.6304 2.63392 37.9893 7.32233 42.6777C12.0107 47.3661 18.3696 50 25 50Z" fill="url(#paint0_linear)"/>
<path fill-rule="evenodd" clip-rule="evenodd" d="M23.8938 35.4813C23.7483 35.3362 23.6329 35.1637 23.5541 34.9739C23.4753 34.7841 23.4348 34.5806 23.4348 34.375C23.4348 34.1695 23.4753 33.966 23.5541 33.7762C23.6329 33.5864 23.7483 33.4139 23.8938 33.2688L32.1657 25L23.8938 16.7313C23.7486 16.586 23.6333 16.4136 23.5547 16.2237C23.4761 16.0339 23.4356 15.8305 23.4356 15.625C23.4356 15.4196 23.4761 15.2162 23.5547 15.0263C23.6333 14.8365 23.7486 14.6641 23.8938 14.5188C24.0391 14.3735 24.2116 14.2583 24.4014 14.1797C24.5912 14.101 24.7946 14.0606 25.0001 14.0606C25.2055 14.0606 25.409 14.101 25.5988 14.1797C25.7886 14.2583 25.9611 14.3735 26.1063 14.5188L35.4813 23.8938C35.6268 24.0389 35.7423 24.2114 35.8211 24.4012C35.8998 24.591 35.9404 24.7945 35.9404 25C35.9404 25.2056 35.8998 25.4091 35.8211 25.5989C35.7423 25.7887 35.6268 25.9612 35.4813 26.1063L26.1063 35.4813C25.9612 35.6268 25.7888 35.7423 25.5989 35.821C25.4091 35.8998 25.2056 35.9403 25.0001 35.9403C24.7946 35.9403 24.591 35.8998 24.4012 35.821C24.2114 35.7423 24.039 35.6268 23.8938 35.4813Z" fill="url(#paint1_linear)"/>
<path fill-rule="evenodd" clip-rule="evenodd" d="M14.0625 25C14.0625 24.5856 14.2271 24.1882 14.5201 23.8951C14.8132 23.6021 15.2106 23.4375 15.625 23.4375H31.25C31.6644 23.4375 32.0618 23.6021 32.3549 23.8951C32.6479 24.1882 32.8125 24.5856 32.8125 25C32.8125 25.4144 32.6479 25.8118 32.3549 26.1049C32.0618 26.3979 31.6644 26.5625 31.25 26.5625H15.625C15.2106 26.5625 14.8132 26.3979 14.5201 26.1049C14.2271 25.8118 14.0625 25.4144 14.0625 25Z" fill="url(#paint2_linear)"/>
<defs>
<linearGradient id="paint0_linear" x1="1.52838" y1="8.69567" x2="51.3613" y2="10.4091" gradientUnits="userSpaceOnUse">
<stop stop-color="#53D14D"/>
<stop offset="1" stop-color="#08B0DE"/>
</linearGradient>
<linearGradient id="paint1_linear" x1="23.8171" y1="17.8658" x2="36.2908" y2="18.1109" gradientUnits="userSpaceOnUse">
<stop stop-color="#53D14D"/>
<stop offset="1" stop-color="#08B0DE"/>
</linearGradient>
<linearGradient id="paint2_linear" x1="14.6356" y1="23.981" x2="32.5813" y2="27.6832" gradientUnits="userSpaceOnUse">
<stop stop-color="#53D14D"/>
<stop offset="1" stop-color="#08B0DE"/>
</linearGradient>
</defs>
</svg>
