<svg width="413" height="40" viewBox="0 0 413 40" fill="none" xmlns="http://www.w3.org/2000/svg">
<path d="M163.33 8.79919H159.022V32.6865H163.611L176.722 14.5134V32.6865H181.03V8.79919H176.348L163.33 26.6912V8.79919Z" fill="#333F48"/>
<path d="M204.537 32.6865H208.845V8.79919H204.537V18.4478H191.426V8.79919H187.118V32.6865H191.426V22.3821H204.537V32.6865Z" fill="#333F48"/>
<path d="M224.859 32.6865C230.666 32.6865 234.225 30.6256 234.225 25.7545C234.225 22.6632 232.914 20.7897 229.917 20.2276C232.352 19.2909 233.475 17.4173 233.475 14.7008C233.475 10.7664 230.76 8.79919 225.421 8.79919H215.026V32.6865H224.859ZM219.334 28.7521V22.1948H225.234C228.231 22.1948 229.917 23.0379 229.917 25.3798C229.917 27.628 228.418 28.7521 225.14 28.7521H219.334ZM219.334 18.9162V12.7336H224.953C227.95 12.7336 229.261 13.764 229.261 15.6375C229.261 17.6984 227.575 18.9162 224.859 18.9162H219.334Z" fill="#333F48"/>
<path d="M254.36 18.4478H243.403V12.7336H255.671V8.79919H239.095V32.6865H256.046V28.7521H243.403V22.2885H254.36V18.4478Z" fill="#333F48"/>
<path d="M280.676 24.8177C279.272 27.2532 276.368 29.1267 272.154 29.1267C266.628 29.0331 263.819 25.3797 263.819 20.6959C263.819 15.6375 267.003 12.2651 272.248 12.2651C275.806 12.2651 278.71 14.326 280.208 16.4805V10.579C278.803 9.54855 275.994 8.42444 272.248 8.42444C264.287 8.42444 259.23 13.4829 259.23 20.6959C259.23 28.3773 264.381 33.0611 272.248 33.0611C276.368 33.0611 279.552 31.4686 280.676 30.0635V24.8177Z" fill="#333F48"/>
<path d="M302.778 8.79919H282.549V12.7336H290.51V32.6865H294.818V12.7336H302.872V8.79919H302.778Z" fill="#333F48"/>
<path d="M310.645 8.79919H306.337V32.6865H310.926L324.037 14.5134V32.6865H328.345V8.79919H323.663L310.645 26.6912V8.79919Z" fill="#333F48"/>
<path d="M334.62 32.6865H354.287V37.0892H358.314V28.7521H355.505V8.79919H351.197V28.7521H338.834V8.79919H334.526V32.6865H334.62Z" fill="#333F48"/>
<path d="M366.462 8.79919H362.154V32.6865H366.743L379.854 14.5134V32.6865H384.162V8.79919H379.48L366.462 26.6912V8.79919Z" fill="#333F48"/>
<path d="M394.651 8.79919H390.343V32.6865H394.932L408.044 14.5134V32.6865H412.352V8.79919H407.669L394.651 26.6912V8.79919Z" fill="#333F48"/>
<path d="M117.677 12.3121L123.225 8.20605H104.66V32.755H123.225V28.6489H109.99V22.3588H121.259V18.2964H109.99V12.3121H117.677Z" fill="#21A038"/>
<path d="M89.7651 28.6489H84.2612V21.8783H89.7651C93.1286 21.8783 94.7011 23.014 94.7011 25.2854C94.7011 27.5569 93.0412 28.6489 89.7651 28.6489ZM90.6824 17.7723H84.2176V12.3121H94.5264L100.074 8.20605H78.9321V32.7113H89.9835C96.1863 32.7113 99.7244 29.9157 99.7244 24.9797C99.7681 20.3495 96.5357 17.7723 90.6824 17.7723Z" fill="#21A038"/>
<path d="M138.164 21.7036H133.49V12.3121H138.164C141.571 12.3121 143.406 13.972 143.406 17.0297C143.406 20.0437 141.527 21.7036 138.164 21.7036ZM138.251 8.20605H128.161V32.755H133.446V25.8096H138.251C144.716 25.8096 148.691 22.4025 148.691 16.986C148.691 11.5695 144.716 8.20605 138.251 8.20605Z" fill="#21A038"/>
<path d="M69.8464 27.4258C68.4486 28.1684 66.8761 28.5615 65.2599 28.5615C60.4986 28.5615 57.0041 25.1544 57.0041 20.4368C57.0041 15.7192 60.4986 12.3558 65.2599 12.3558C66.9635 12.3558 68.667 12.8799 70.0648 13.8846L73.8651 11.089L73.603 10.8706C71.3753 8.90494 68.4049 7.90027 65.0415 7.90027C61.3723 7.90027 58.0088 9.12335 55.65 11.3948C53.2039 13.7536 51.8934 16.986 51.9371 20.3494C51.8934 23.7566 53.2039 27.0327 55.65 29.4352C58.1835 31.8376 61.547 33.1481 64.9978 33.0607C68.7981 33.0607 72.1615 31.7503 74.3893 29.3041L70.9385 26.7706L69.8464 27.4258Z" fill="#21A038"/>
<g clip-path="url(#clip0)">
<path fill-rule="evenodd" clip-rule="evenodd" d="M19.875 0.125C24.651 0.125 29.0334 1.80841 32.4599 4.61675L29.0374 7.35354C26.4636 5.48529 23.2975 4.38421 19.873 4.38421C11.2473 4.38421 4.25722 11.3762 4.25722 20C4.25722 28.6257 11.2492 35.6158 19.873 35.6158C28.4988 35.6158 35.4888 28.6238 35.4888 20C35.4888 19.8012 35.4848 19.6025 35.4789 19.4037L39.4479 16.5378C39.6466 17.6627 39.748 18.8194 39.748 20C39.748 30.977 30.85 39.875 19.873 39.875C8.89605 39.875 0 30.977 0 20C0 9.02304 8.89804 0.125 19.875 0.125Z" fill="url(#paint0_linear)"/>
<path fill-rule="evenodd" clip-rule="evenodd" d="M12.3981 15.1564L19.875 19.9999L36.0096 8.17432L38.4065 12.0678L19.875 25.6106L12.3981 20.944V15.1564Z" fill="#229E39"/>
</g>
<defs>
<linearGradient id="paint0_linear" x1="23.1206" y1="0.124999" x2="2.06832" y2="28.5075" gradientUnits="userSpaceOnUse">
<stop stop-color="#0187C8"/>
<stop offset="0.31332" stop-color="#08A652"/>
<stop offset="0.72384" stop-color="#08A652"/>
<stop offset="1" stop-color="#FAEF23"/>
</linearGradient>
<clipPath id="clip0">
<rect width="39.75" height="39.75" fill="white" transform="translate(0 0.125)"/>
</clipPath>
</defs>
</svg>
