<svg width="220" height="160" viewBox="0 0 220 160" fill="none" xmlns="http://www.w3.org/2000/svg">
<circle cx="110" cy="40" r="110" fill="#F5EADF"/>
<g clip-path="url(#clip0)">
<path d="M158.396 58.9988C157.66 58.907 155.235 58.907 155.05 58.907C154.743 58.907 154.59 58.9988 154.59 58.6314C154.59 58.2028 154.621 57.4068 154.713 56.9782C154.774 56.5496 155.971 48.8956 155.971 48.6813C154.866 48.7119 153.178 48.7119 151.029 48.7119C145.903 48.7119 138.167 48.6813 129.387 48.6507C119.994 48.5895 109.403 48.5282 99.5801 48.467C90.862 48.4058 82.7579 48.3445 76.5877 48.3139C69.6194 48.2833 65.1376 48.2527 65.1376 48.2833C65.1376 48.3139 63.4492 56.7639 62.7432 60.9276C62.7432 60.9888 62.7739 61.0807 62.866 61.0807C64.4622 61.0807 69.251 61.1725 70.0799 61.2031C69.8036 62.1828 69.3431 64.5709 68.9747 66.5915C68.6985 68.0304 68.4836 69.3163 68.3608 69.7755C68.238 70.2654 68.0538 70.7859 68.0231 71.3063C67.9924 71.6125 68.0538 71.7656 68.3301 71.9186C69.1589 72.3473 84.7839 72.8677 86.7179 72.9596C88.2527 75.1333 90.5857 76.7559 93.0722 77.7662C97.5848 79.6032 102.588 79.5419 107.377 79.6338C112.78 79.7563 118.183 79.8481 123.586 79.9706C126.225 80.0318 128.865 80.1236 131.475 80.093C133.808 80.0624 136.141 79.8175 138.29 78.9296C140.684 77.9499 142.802 76.3579 144.398 74.3373C146.363 74.0617 148.297 73.7862 150.262 73.48C151.796 73.2351 153.331 73.0208 154.866 72.7453C155.388 72.6534 156.063 72.6534 156.524 72.3779C156.984 72.1023 157.046 71.5819 157.107 71.092C157.506 68.0917 158.581 60.4071 158.611 59.6724C158.581 59.305 158.857 59.0294 158.396 58.9988Z" fill="#B3AE60"/>
<path d="M76.557 48.3138C77.5393 49.7834 78.6444 51.1305 80.1486 52.1408C81.5914 53.0899 83.1877 53.7941 84.7225 54.5595C86.196 55.2942 87.5774 56.1515 88.8667 57.1924C91.4146 59.2437 93.7476 61.7848 96.9401 62.8563C97.9224 59.3049 98.6899 55.6616 99.1503 51.9877C99.3038 50.8243 99.4266 49.6609 99.5494 48.4975C90.8313 48.4057 82.7272 48.3445 76.557 48.3138Z" fill="#918D44"/>
<path d="M129.357 48.6506C129.326 52.8144 130.001 56.9781 131.321 60.9581C131.352 61.0194 131.413 61.05 131.475 61.0193C138.32 57.4985 144.828 53.3654 150.968 48.7119C145.903 48.7425 138.136 48.7119 129.357 48.6506Z" fill="#918D44"/>
<path d="M153.761 -27.6131C153.024 -29.695 150.814 -27.1539 148.543 -27.7356C145.933 -28.4091 143.631 -27.1539 141.482 -25.8068C141.359 -25.715 141.482 -25.5313 141.605 -25.6231C141.697 -25.6843 141.758 -25.715 141.851 -25.7762C142.495 -22.8371 140.162 -25.3476 141.359 -22.5922C143.877 -16.7139 143.784 -13.9585 143.539 -12.489C143.293 -11.05 142.649 -9.76417 141.851 -8.57016C140.224 -6.1209 138.474 -3.76348 136.785 -1.34484L131.505 6.18663C130.523 7.56433 129.572 8.94204 128.589 10.3197C128.098 11.0239 127.607 11.6975 127.146 12.4016C127.116 12.4322 127.054 12.5547 126.962 12.6772C126.164 11.3301 125.458 9.92175 124.752 8.51342C124.691 8.39096 124.476 8.48281 124.537 8.63588C125.243 10.0748 125.98 11.5138 126.809 12.8915C126.379 13.5344 125.673 14.5447 125.335 14.6366C125.397 14.606 125.427 14.4835 125.366 14.4223C124.967 14.1467 124.691 15.2489 125.489 14.9427C125.98 14.759 126.287 13.9936 126.532 13.6262C126.655 13.4426 126.778 13.2589 126.901 13.0752C127.699 14.4529 128.559 15.8306 129.479 17.1471C129.541 17.2083 129.633 17.2389 129.694 17.1471C131.966 13.2282 135.65 10.3504 139.364 7.71741C143.447 4.83953 147.468 1.99227 151.183 -1.31423C152.932 -2.87563 154.621 -4.49826 155.849 -6.48828C156.923 -8.23338 157.537 -10.1928 157.721 -12.2134C158.089 -16.2853 155.48 -22.6228 153.761 -27.6131Z" fill="#FDA455"/>
<path d="M91.1076 71.3982C91.0155 71.3982 90.8927 71.3982 90.8006 71.3982H90.4016C70.7245 71.2757 55.1916 71.2145 55.1609 71.2757C55.1609 71.3063 53.7181 78.5317 52.9507 82.9097C52.8893 83.2771 52.8279 83.6139 52.7665 83.92C52.7665 83.9813 52.7972 84.0731 52.8893 84.0731C53.626 84.0731 64.6771 84.165 79.6574 84.2262C87.4239 84.2568 96.2341 84.318 105.198 84.3486C130.247 84.4711 156.585 84.563 164.966 84.4711C166.715 84.4405 167.698 84.4099 167.698 84.3793C167.759 83.9506 169.939 71.9799 169.969 71.6737C162.817 71.7962 122.02 71.5819 91.1076 71.3982Z" fill="#B3AE60"/>
<path d="M103.018 83.1546C95.2825 83.124 87.6388 83.0628 80.7012 83.0321C67.9925 82.9709 57.6167 82.9097 52.9507 82.9097C51.2623 82.9097 50.3414 82.9097 50.3414 82.9403C50.3414 82.9709 48.6531 91.4208 47.947 95.5846C47.947 95.6458 47.9777 95.7377 48.0698 95.7377C48.3768 95.7377 50.5563 95.7683 54.1479 95.7683C57.9237 95.7989 63.265 95.8295 69.558 95.8601C84.8454 95.952 105.812 96.0438 124.015 96.1357C145.35 96.2275 162.878 96.2275 162.909 96.0438C162.909 96.0132 162.94 95.8907 162.97 95.707C163.247 94.115 164.505 87.2265 164.996 84.4711C165.119 83.7975 165.181 83.3995 165.211 83.3383C159.256 83.4301 130.339 83.3077 103.018 83.1546Z" fill="#B3AE60"/>
<path d="M162.97 95.707C154.467 95.707 139.487 95.6458 123.279 95.5846C104.338 95.4927 83.8017 95.3703 70.0799 95.309C60.5023 95.2478 54.2707 95.2478 54.2707 95.2784C54.2707 95.2784 54.24 95.4621 54.1787 95.7683C53.8103 97.5746 52.5824 103.973 51.9377 107.586C51.907 107.708 51.907 107.8 51.8763 107.923C51.8763 107.984 51.907 108.076 51.9991 108.076C52.3368 108.076 54.8847 108.106 58.9982 108.106C74.6845 108.198 113.148 108.443 139.64 108.504C149.31 108.535 157.383 108.535 162.142 108.504C165.119 108.474 166.808 108.443 166.838 108.382C166.9 107.953 169.079 95.9826 169.11 95.6764C167.913 95.707 165.795 95.707 162.97 95.707Z" fill="#B3AE60"/>
<path d="M146.24 108.045C144.061 108.045 141.697 108.045 139.241 108.015C114.867 107.923 78.184 107.708 59.3972 107.617C56.4195 107.617 53.8716 107.586 51.907 107.586C49.0214 107.586 47.3638 107.586 47.3638 107.617C47.3638 107.647 45.6754 116.097 44.9694 120.261C44.9694 120.322 45.0001 120.414 45.0922 120.414C45.3377 120.414 46.627 120.414 48.7451 120.445C49.1442 120.445 49.574 120.445 50.0344 120.445C64.7999 120.536 109.035 120.812 136.693 120.843C150.323 120.873 159.931 120.843 159.931 120.72C159.931 120.689 159.962 120.567 159.993 120.383C160.115 119.679 160.422 117.965 160.76 116.036C161.282 113.127 161.896 109.729 162.111 108.504C162.172 108.229 162.203 108.076 162.203 108.045C159.901 108.045 154.099 108.045 146.24 108.045Z" fill="#B3AE60"/>
<path d="M159.993 120.383C154.743 120.383 146.517 120.383 136.847 120.322C102.527 120.169 50.1573 119.832 50.1266 119.924C50.1266 119.924 50.0959 120.108 50.0345 120.414C49.6661 122.281 48.3461 129.017 47.7322 132.568C47.7322 132.63 47.7629 132.721 47.855 132.721C49.4512 132.721 99.3653 133.058 132.856 133.15C149.893 133.181 162.663 133.181 162.694 133.028C162.756 132.599 164.935 120.628 164.966 120.322C163.953 120.353 162.234 120.383 159.993 120.383Z" fill="#B3AE60"/>
<path d="M139.855 108.474C139.824 108.413 139.763 108.351 139.732 108.29C139.64 108.198 139.579 108.076 139.487 107.984C139.149 107.617 138.75 107.31 138.351 106.974C137.706 106.423 137.062 105.902 136.417 105.351C132.488 102.106 128.436 98.9829 124.261 96.0438C124.015 95.8601 123.739 95.6764 123.493 95.5233C122.665 94.9416 121.866 94.3905 121.038 93.8394C116.003 90.4411 110.785 87.2571 105.443 84.318C105.075 84.1343 104.707 83.92 104.369 83.7363C104 83.5219 103.632 83.3383 103.233 83.1239C99.0889 80.8584 94.7299 78.3173 92.182 74.2454C91.6908 73.4494 91.2918 72.6228 90.9848 71.7655C91.1076 71.6431 91.1997 71.5206 91.3225 71.3981C91.4145 71.2757 91.5066 71.1838 91.5987 71.0614C91.6908 70.9389 91.5373 70.7858 91.4452 70.9083C91.2918 71.0614 91.169 71.245 91.0155 71.3981C90.9848 71.4287 90.9541 71.49 90.9234 71.5206C90.9234 71.49 90.8927 71.4287 90.8927 71.3981C90.8313 71.2144 90.7699 71.0001 90.7085 70.7858C90.6778 70.6327 90.4629 70.694 90.4936 70.847C90.555 71.0307 90.5857 71.2144 90.6471 71.3981C90.6778 71.5206 90.7085 71.6124 90.7392 71.7349C87.4853 75.5006 84.2006 79.2664 80.916 83.0321C80.5783 83.4301 80.21 83.8281 79.8723 84.2261C76.6798 87.9306 73.4565 91.6045 70.264 95.2784C70.1105 95.4621 69.957 95.6458 69.7728 95.8295C69.0975 96.6255 68.3915 97.4215 67.7161 98.1869C65.0147 101.31 62.2827 104.432 59.612 107.586C59.4892 107.739 59.3357 107.923 59.1822 108.076C55.7441 112.148 52.3367 116.25 48.9907 120.414C49.3897 120.414 49.8195 120.414 50.28 120.414C49.9116 122.281 48.5916 129.017 47.9777 132.568C47.9777 132.63 48.0084 132.721 48.1005 132.721C49.6967 132.721 99.6108 133.058 133.102 133.15C134.207 129.568 135.343 125.955 136.448 122.373C136.601 121.853 136.755 121.363 136.939 120.843C137 120.689 137.031 120.506 137.092 120.353C137.921 117.689 138.75 115.026 139.579 112.362C139.947 111.076 140.623 109.698 139.855 108.474Z" fill="#918D44"/>
<path d="M118.336 93.1047C123.033 94.0844 127.76 94.8804 132.518 95.554C132.518 95.4928 132.549 95.4315 132.549 95.3703C132.58 95.2172 132.795 95.2785 132.764 95.4009C132.764 95.4621 132.733 95.5234 132.733 95.5846C133.071 95.6458 133.439 95.6764 133.777 95.7377C133.931 95.7683 133.869 95.9826 133.746 95.952C133.409 95.8908 133.04 95.8601 132.703 95.7989C131.198 104.739 131.045 113.801 130.799 122.833C130.738 125.006 130.677 127.18 130.585 129.354C130.155 129.262 129.756 129.201 129.326 129.139C126.993 128.374 124.66 127.639 122.296 126.904C121.252 118.363 120.209 109.821 119.196 101.279C118.858 98.5849 118.551 95.9214 118.213 93.2272C118.183 93.166 118.244 93.1047 118.336 93.1047Z" fill="#071024"/>
<path d="M137.645 64.8464C137.277 61.1725 136.847 57.5292 136.386 53.886C136.264 52.8144 136.11 51.7429 135.957 50.6407C135.865 49.8447 135.742 49.0487 135.65 48.2527C135.435 46.6913 135.22 45.1299 134.974 43.5685C134.667 41.3641 134.391 39.1598 133.838 36.9861C133.102 34.0164 131.352 30.8323 128.282 29.1791C128.988 28.9648 129.694 28.8117 130.431 28.6586C130.615 28.628 130.523 28.4137 130.37 28.4443C129.572 28.5974 128.773 28.8117 128.006 29.026C127.146 28.628 126.226 28.3218 125.151 28.1688C124.967 28.1381 124.906 28.3525 125.09 28.3831C126.011 28.5055 126.87 28.7811 127.638 29.1178C121.805 31.016 116.986 34.9654 113.21 39.0373C112.074 40.2926 111.061 41.6091 110.355 43.0786C109.618 44.6094 109.25 46.232 108.943 47.8547C108.206 51.5285 107.592 55.233 107.009 58.9375C105.842 66.1935 106.518 91.329 105.75 98.6155C105.72 98.8604 105.689 99.1054 105.658 99.3503C105.505 100.973 105.321 102.596 105.167 104.249C105.014 105.81 104.553 107.647 105.259 109.147C106.211 111.199 109.066 111.597 111.491 111.78C112.013 111.811 112.504 111.841 112.964 111.903C122.358 112.668 131.966 113.28 141.237 111.382C141.298 111.382 141.329 111.321 141.329 111.26C140.96 101.769 138.627 74.3372 137.645 64.8464Z" fill="#1F2B44"/>
<path d="M103.049 82.0219C98.2601 81.6851 93.502 81.1952 88.7439 80.5829C88.7439 80.5217 88.7439 80.4605 88.7746 80.3992C88.7746 80.2462 88.5597 80.2461 88.5597 80.3686C88.5597 80.4298 88.5597 80.4911 88.529 80.5523C88.1914 80.4911 87.823 80.4605 87.4853 80.3992C87.3318 80.3686 87.3318 80.6135 87.4546 80.6135C87.7923 80.6748 88.1607 80.7054 88.4983 80.7666C87.5467 89.7676 85.2137 98.5543 83.0035 107.31C82.4816 109.423 81.9598 111.535 81.4686 113.648C81.8984 113.679 82.3282 113.709 82.7579 113.77C85.2137 113.679 87.6695 113.556 90.1253 113.525C93.4406 105.565 96.7559 97.6359 100.071 89.6758C101.115 87.1959 102.159 84.6854 103.202 82.2056C103.172 82.0831 103.11 82.0219 103.049 82.0219Z" fill="#071024"/>
<path d="M113.148 18.6779C113.118 18.5248 113.087 18.3717 113.026 18.2493C112.995 18.1574 112.995 18.0962 112.964 18.035C111.982 14.3305 110.294 10.779 107.991 7.62561C105.72 4.50281 102.711 1.56369 98.8741 0.155371C98.0146 -0.150787 97.1243 -0.365089 96.2341 -0.487552C96.2341 -0.518168 96.2341 -0.548789 96.2341 -0.579405C96.2648 -0.732484 96.0192 -0.732484 95.9885 -0.579405C95.9885 -0.548789 95.9885 -0.548785 95.9885 -0.51817H95.9578C95.8043 -0.548785 95.8043 -0.303865 95.9578 -0.303865C95.3439 4.41096 93.5327 8.75839 90.8621 12.7997C89.5728 14.7897 88.2221 16.7491 87.0863 18.831C86.0119 20.8516 85.0909 22.9335 84.3849 25.0766C83.6482 27.2809 83.0649 29.5465 82.7272 31.812C82.3896 33.9551 82.144 36.1901 82.3282 38.3638C82.5124 40.4151 83.157 42.3438 84.4463 43.9971C84.8147 44.4563 85.2444 44.9156 85.6742 45.3136C86.6872 46.2626 87.8844 47.0893 89.1123 47.7628C89.6956 48.0996 90.2788 48.3751 90.8621 48.6813C90.8928 48.6813 90.8928 48.7119 90.9235 48.7119C90.9848 48.7425 91.0155 48.7731 91.0769 48.8038C92.5504 49.5079 94.0853 50.1508 95.5895 50.8244C96.7253 51.3449 97.8304 51.8959 98.9048 52.5083C99.6108 52.9369 100.47 53.5492 101.391 53.4267C102.343 53.3043 102.865 52.2021 103.356 51.5592C104.062 50.6101 104.768 49.6304 105.443 48.6813C106.794 46.7831 108.083 44.8237 109.25 42.8337C111.46 39.0373 113.118 34.9655 113.732 30.6486C114.315 26.638 114.1 22.5661 113.148 18.6779Z" fill="#1F2B44"/>
<path d="M136.141 23.7907C135.557 20.3005 134.237 16.7491 132.027 13.9324C129.971 11.2995 126.962 9.40129 123.278 9.30944C119.656 9.18698 116.065 10.779 113.762 13.5344C113.701 13.5956 113.639 13.6875 113.578 13.7487C108.789 16.6266 104.584 20.3923 101.33 24.7704C98.9968 27.8932 97.2778 31.2609 95.9271 34.8123C94.3308 39.0373 93.0415 43.3235 91.6294 47.5791L82.942 73.8474C81.4993 78.1948 80.0565 82.5422 78.6137 86.9203C77.9077 89.094 77.1709 91.2677 76.4649 93.4414C76.0351 94.7885 75.0221 96.7173 75.8202 98.0338C76.1579 98.6155 76.8333 98.8604 77.5086 98.9522C78.5523 99.0747 79.6574 99.0441 80.7318 99.0441C83.0955 99.0135 85.4899 98.8604 87.8536 98.7992C90.2173 98.7379 92.5503 98.7992 94.8834 99.0135C97.1857 99.1972 99.488 99.4727 101.79 99.534C103.97 99.5952 106.211 99.5033 108.36 98.9828C109.127 98.7992 109.864 98.493 110.416 97.9113C111.03 97.2378 111.306 96.3805 111.613 95.5845C113.21 91.3289 114.806 87.0733 116.402 82.8178C117.968 78.654 119.349 74.5515 120.239 70.2653C120.7 68.061 121.16 65.8567 121.805 63.6829C122.388 61.7235 123.125 59.8254 123.954 57.9272C127.269 50.5182 132.058 43.6296 134.729 35.9757C136.11 31.9651 136.816 27.8319 136.141 23.7907Z" fill="#1F2B44"/>
<path d="M136.325 -36.8897C135.373 -38.8797 134.237 -40.7779 133.163 -42.7067C130.953 -46.6561 128.651 -50.5749 126.318 -54.4631C125.151 -56.4225 123.985 -58.3513 122.818 -60.2801C122.45 -60.8618 122.081 -61.4129 121.314 -61.3517C120.393 -61.2598 119.411 -60.8618 118.52 -60.5863C114.714 -59.3923 111.061 -57.8002 107.592 -55.8408C105.812 -54.8305 104.093 -53.759 102.435 -52.5649C101.668 -52.0139 100.869 -51.4934 100.225 -50.8198C99.5187 -50.0851 99.181 -49.1666 98.7819 -48.2481C97.9531 -46.2887 97.1243 -44.3293 96.4489 -42.3393C96.4182 -42.2781 96.4182 -42.2168 96.3875 -42.1862C95.8043 -40.4105 95.3438 -38.6042 94.8834 -36.7979C94.7913 -36.4305 94.6992 -36.0631 94.6071 -35.7263C94.8834 -35.512 95.0675 -35.2058 95.0982 -34.7466C95.1289 -34.2261 95.0675 -33.6751 94.9755 -33.1546C95.1596 -32.879 95.221 -32.5423 95.0675 -32.1137C94.3001 -30.1543 93.901 -29.2052 93.7476 -28.9602C95.3438 -21.1838 97.3699 -5.93723 99.3959 1.41054C99.6722 1.59423 99.887 1.83916 100.041 2.14531C100.071 2.14531 100.133 2.14531 100.163 2.14531C100.654 2.14531 101.146 2.05347 101.637 2.02285C103.294 1.86977 104.983 1.83916 106.64 1.80855C110.201 1.74732 113.762 1.80854 117.354 1.74731C120.117 1.68608 122.91 1.50238 125.673 1.533C126.41 1.533 127.269 1.56362 128.129 1.62485C128.558 -5.47799 130.093 -12.489 132.273 -19.2551C133.47 -22.9596 136.448 -31.0115 136.54 -31.3176C136.785 -32.2667 137.031 -33.2158 137.062 -34.1955C137.031 -35.1446 136.755 -36.0325 136.325 -36.8897Z" fill="#FDA455"/>
<path d="M111.982 -65.4847C105.014 -60.9842 97.2778 -58.3206 90.0025 -54.3406C88.3448 -53.4221 86.6872 -52.4424 85.3672 -51.0647C84.0472 -49.7176 83.1263 -48.0338 82.3895 -46.3193C80.7626 -42.4617 79.197 -7.77409 87.4239 0.89016C88.6825 0.36969 96.4183 -8.1721 96.5718 -8.20272C93.9318 -13.8054 92.4583 -28.5622 94.0239 -33.5219C97.7076 -38.849 99.1503 -36.6753 102.159 -42.4005C103.786 -45.5233 105.259 -48.7073 106.763 -51.8913C108.206 -54.9529 109.772 -58.0145 111.03 -61.1679C111.614 -62.6681 112.135 -64.2295 112.381 -65.7909C112.074 -66.1583 112.32 -65.0867 111.982 -65.4847Z" fill="#FDA455"/>
<path d="M130.861 -47.8808C131.444 -45.2478 136.233 -32.6648 136.724 -32.0218C136.54 -31.3177 135.097 -26.1436 132.856 -19.1326C130.677 -12.3665 128.528 -5.44739 128.098 1.68607C127.238 1.59423 126.379 1.59423 125.642 1.59423C122.849 1.56361 120.086 1.77793 117.323 1.80854C113.762 1.86977 110.201 1.80854 106.61 1.86977C104.952 1.90039 103.264 1.931 101.606 2.08408C101.115 2.14532 100.624 2.20654 100.133 2.20654C100.102 2.20654 100.071 2.20654 100.01 2.20654C99.8564 1.90039 99.6415 1.65546 99.3652 1.47177C98.4443 -1.92657 97.2164 -7.19248 95.9885 -12.6115C95.2211 -16.0098 94.4843 -19.5 93.809 -22.6534C93.195 -25.5313 92.6732 -28.1642 92.2434 -30.1849C92.7039 -34.3486 94.208 -39.4614 95.2211 -44.2069C96.3262 -49.4422 97.6155 -56.0552 98.2908 -59.2086C98.3522 -59.4841 98.782 -59.3616 98.7206 -59.0861C97.4927 -53.514 96.9094 -52.4731 96.2341 -46.8398C96.3876 -46.8398 96.8173 -46.8398 97.0322 -46.8398C101.575 -46.8398 121.652 -47.1766 130.278 -47.9114C129.909 -50.6668 129.111 -48.9523 129.449 -51.7383C129.848 -55.1061 130.339 -58.4126 130.554 -61.8109C130.585 -62.1171 131.045 -62.1171 131.014 -61.8109C130.799 -58.6269 130.4 -55.4735 130.001 -52.2894C129.602 -49.3503 130.37 -50.9117 130.769 -47.9726C130.799 -47.942 130.83 -47.9114 130.861 -47.8808Z" fill="#F5DFC9"/>
<path d="M143.938 156.54C143.846 156.296 143.754 156.051 143.631 155.836C142.986 154.642 142.004 153.601 141.114 152.56C140.193 151.55 139.272 150.54 138.382 149.499C136.57 147.448 134.851 145.274 133.9 142.672C133.347 141.141 133.102 139.518 132.887 137.926C132.672 136.242 132.518 134.558 132.426 132.875C132.211 129.354 132.273 119.893 132.396 118.699C132.457 118.118 132.426 117.689 131.812 117.475C130.799 117.138 129.725 116.985 128.712 116.74C126.839 116.311 124.967 115.944 123.064 115.607C122.112 115.424 121.13 115.209 120.178 115.117C119.656 115.056 119.503 115.301 119.38 115.76C118.889 117.536 119.196 127.394 118.981 132.109C118.981 132.446 118.95 132.813 118.919 133.211C118.735 137.314 118.336 143.866 118.152 145.611C118.091 146.101 118.029 146.07 118.398 146.162C118.797 146.254 119.441 146.376 119.871 146.468C119.963 146.499 120.025 146.284 120.025 146.223C120.485 144.325 120.884 141.692 121.13 139.763C121.191 139.212 121.314 138.63 121.713 138.232C122.143 137.804 122.818 137.651 123.248 138.202C123.8 138.875 123.678 140.192 123.616 141.018C123.463 142.855 122.818 144.355 122.91 145.764C123.033 147.172 123.524 147.784 124.445 148.764C126.931 151.397 128.497 153.387 131.659 155.438C134.882 157.551 136.294 158.867 139.21 159.725C140.776 160.184 142.986 160.123 143.723 159.082C144.337 158.347 144.245 157.367 143.938 156.54Z" fill="#1F2B44"/>
<path d="M137.43 35.0573C137.031 27.6176 134.698 20.576 131.966 13.6875C130.799 10.7178 129.633 7.71742 128.804 4.65585C128.773 4.34969 128.743 4.01291 128.712 3.70676C128.497 1.77797 128.374 -0.150823 128.344 -2.11023C123.493 -2.07961 115.85 -1.98776 111 -1.71222C105.904 -1.43668 100.839 -1.00807 95.7736 -0.610061C95.9885 2.78828 95.9885 6.24787 94.7299 9.46252C94.2694 10.6259 93.6555 11.7587 92.8267 12.769C93.7476 14.5141 94.6378 16.2592 95.6201 17.9124C96.848 20.0249 98.2601 21.9843 99.9792 23.7907C101.913 25.8419 104.001 27.8013 105.996 29.822C107.93 31.812 109.802 33.8939 111.337 36.1594C112.872 38.3944 114.1 40.8436 115.174 43.2929C115.236 43.4154 115.266 43.5378 115.328 43.6603C119.134 43.3847 122.542 43.1398 125.09 42.9867C126.962 47.3035 129.541 51.3142 132.733 54.8044C132.795 54.8656 132.887 54.835 132.917 54.7738C136.509 48.865 137.798 41.8539 137.43 35.0573Z" fill="#1F2B44"/>
<path d="M98.475 -7.92716C97.3699 -8.50886 96.2034 -8.81501 95.0676 -9.33548C93.3179 -10.1621 92.1821 -11.7541 91.3225 -13.438C91.2611 -13.3461 91.1998 -13.2237 91.1384 -13.1318C89.5114 -10.4683 88.0072 -7.71284 86.9021 -4.68189C86.503 -3.61034 85.6128 -3.39603 85.2751 -2.29386C85.4593 -1.98771 86.1961 -0.763075 86.3803 -0.426302C87.5161 1.41064 88.9588 2.81897 90.8007 3.8599C92.6118 4.90084 118.029 12.9834 125.796 14.2386C125.305 11.7894 126.287 11.2995 125.919 8.88088C123.371 7.53379 99.5802 -7.34546 98.475 -7.92716Z" fill="#FDA455"/>
<path d="M95.2824 102.749C94.3308 102.596 93.3178 102.534 92.3662 102.443C90.4629 102.259 88.529 102.106 86.6257 102.014C85.582 101.953 84.4769 101.83 83.4332 101.891C82.7886 101.922 82.6351 102.351 82.543 102.902C82.3281 104.096 79.8416 113.25 78.7058 116.556C78.1533 118.148 77.5393 119.74 76.8947 121.271C76.2807 122.771 75.6054 124.272 74.6537 125.588C73.0268 127.823 70.7859 129.476 68.5143 130.946C67.3784 131.681 66.1812 132.415 65.0454 133.15C63.9096 133.885 62.6817 134.62 61.7301 135.599C61.3004 136.059 60.8706 136.64 60.6864 137.253C60.5329 137.712 60.5329 138.202 60.6864 138.692C61.1162 139.886 62.4669 139.518 63.4185 139.334C66.5803 138.692 69.7422 138.018 72.8733 137.161C75.8509 136.334 78.7672 135.324 81.5607 133.977C82.7579 133.395 83.863 132.813 84.3541 131.497C84.8453 130.15 84.6304 128.558 84.9681 126.751C85.1216 125.955 85.3672 124.639 86.0732 124.149C86.6257 123.751 87.2397 124.088 87.5467 124.608C87.8229 125.098 87.7616 125.71 87.6695 126.231C87.3625 128.16 87.0555 130.823 86.9941 132.752C86.9941 132.783 86.9941 133.028 87.0862 133.028C87.5467 133.058 88.1913 133.089 88.5904 133.119C88.9588 133.15 88.8974 133.15 88.9894 132.66C89.3271 130.854 90.8006 123.935 91.7215 119.985C91.7522 119.802 91.8136 119.618 91.8443 119.465C92.9494 114.873 95.8964 105.443 95.8964 103.606C95.8657 103.085 95.8043 102.81 95.2824 102.749Z" fill="#1F2B44"/>
<path d="M142.249 38.9455C140.5 37.2004 138.781 35.4247 137 33.6796C133.716 30.4343 134.268 30.8017 130.462 28.1382C132.795 26.638 135.312 25.4134 137.676 24.0969C137.798 24.0357 137.921 23.9744 138.044 23.8826C144.214 28.5055 145.964 30.1588 151.213 35.7921C152.042 36.68 152.871 37.5984 153.669 38.5169C154.007 38.8843 154.928 39.6191 154.16 40.0171C153.7 40.262 153.055 40.3232 152.564 40.4763C151.95 40.6294 151.336 40.8131 150.691 40.9662C149.463 41.3029 148.205 41.6397 146.977 41.9765C146.056 42.2214 145.534 42.2214 144.828 41.5479C143.969 40.66 143.109 39.8028 142.249 38.9455Z" fill="#B3AE60"/>
<path d="M145.964 41.058C141.912 36.5269 137.829 31.9652 132.918 28.3525C132.795 28.2607 132.672 28.475 132.795 28.5362C137.706 32.1489 141.758 36.7106 145.81 41.2111C145.903 41.3336 146.056 41.1805 145.964 41.058Z" fill="#7D7A3B"/>
<path d="M152.257 38.425C148.143 33.9551 143.999 29.424 139.026 25.8725C138.904 25.7807 138.781 25.995 138.904 26.0562C143.846 29.6076 147.99 34.1082 152.073 38.578C152.196 38.7005 152.349 38.5168 152.257 38.425Z" fill="#7D7A3B"/>
<path d="M139.241 23.1478C138.228 21.3415 136.724 19.0453 135.281 17.3002C134.483 16.2899 133.593 15.3102 132.733 14.3611C132.027 13.5651 128.006 10.5341 127.208 9.92181C126.778 9.58503 126.348 9.27887 125.918 8.97272C125.673 8.78902 123.064 8.42163 122.757 8.3604C122.173 8.23794 124.015 9.37072 123.77 9.76873C123.248 10.5647 122.787 11.3914 122.327 12.218C122.235 12.1874 122.143 12.3404 122.235 12.4323C122.235 12.4629 122.265 12.4935 122.327 12.5241C123.309 13.4732 123.401 14.8815 123.555 16.1674C123.678 17.392 124.015 18.4636 124.629 19.5351C124.813 19.8413 124.967 20.1475 125.151 20.4536C125.826 22.015 126.532 23.5458 127.208 25.1072C127.238 25.1378 127.238 25.1684 127.269 25.199C127.3 25.2909 127.3 25.3521 127.361 25.3827C127.392 25.4134 127.392 25.4746 127.423 25.5052C127.423 25.5052 127.423 25.5052 127.423 25.4746C127.791 26.2094 128.159 26.6992 128.466 27.4952C128.835 28.4749 129.172 29.5159 129.449 30.5262C129.602 31.1997 129.756 32.21 130.431 32.5774C130.953 32.853 131.352 32.4243 131.475 31.9345C131.69 31.0773 131.383 30.0975 131.137 29.2403C130.646 27.4646 129.909 25.7807 128.988 24.1581C129.203 24.0356 129.418 23.9132 129.664 23.7907C131.137 25.9338 132.15 28.3831 132.611 30.9548C132.733 31.7202 132.641 33.3428 133.624 33.6184C134.084 33.7408 134.452 33.5877 134.698 33.2816C134.944 33.6184 135.373 33.7408 135.803 33.4959C136.417 33.1285 136.509 32.21 136.601 31.5671C136.847 29.8832 136.693 28.1381 136.202 26.4849C135.926 25.5664 135.527 24.6786 135.036 23.852C134.575 23.1172 134.023 22.4436 133.501 21.7701C133.808 21.617 134.115 21.4639 134.422 21.3108C134.974 21.8313 135.496 22.3518 136.018 22.9029C136.417 23.3009 136.816 23.7295 137.123 24.1887C137.461 24.6786 137.584 25.2297 137.706 25.7807C137.921 27.0054 138.167 28.23 138.29 29.4852C138.351 30.0669 138.382 30.618 138.412 31.1997C138.443 31.5365 138.474 31.9039 138.689 32.1488C139.057 32.608 139.671 32.5468 139.947 31.9957C140.101 31.6896 140.101 31.3222 140.162 30.9854C140.224 30.4037 140.316 29.822 140.346 29.2403C140.408 27.1278 140.285 25.0153 139.241 23.1478Z" fill="#FDA455"/>
<path d="M114.499 17.3308C114.008 17.637 113.517 17.9431 112.995 18.2493C110.508 19.7494 108.022 21.2496 105.627 22.9029C103.172 24.5867 101.054 26.5461 99.5494 29.1485C98.0145 31.7814 96.8787 34.6899 95.6508 37.4759C94.0238 41.2111 92.489 45.0074 91.0462 48.8037C90.9848 48.7731 90.9234 48.7425 90.8313 48.7119C91.3225 47.4567 91.8136 46.2014 92.3048 44.9462C93.4713 42.0071 94.6992 39.0679 95.9885 36.1595C97.2164 33.3428 98.3829 30.3731 100.102 27.832C101.667 25.5052 103.878 23.7601 106.211 22.2293C108.421 20.7904 110.662 19.4127 112.933 18.035C113.425 17.7288 113.885 17.4533 114.376 17.1471C114.53 17.0553 114.653 17.239 114.499 17.3308Z" fill="#071024"/>
<path d="M127.791 54.2533C125.028 57.0393 122.572 60.1009 121.038 63.7442C120.27 65.5199 119.779 67.3568 119.226 69.1938C118.643 71.2144 118.029 73.2044 117.477 75.2251C116.31 79.2051 115.205 83.2158 114.161 87.257C113.609 89.4308 112.719 92.676 112.105 94.8497C111.828 95.7988 111.46 96.7785 110.723 97.4521C109.894 98.2175 108.82 98.5236 107.776 98.8298C107.623 98.8604 107.684 99.1053 107.838 99.0441C109.403 98.6155 110.877 98.0644 111.706 96.5642C112.534 95.0334 113.21 92.1556 113.609 90.4717C114.591 86.3692 115.696 82.2667 116.863 78.1948C117.999 74.1841 119.104 70.1122 120.393 66.1628C121.559 62.6114 123.432 59.4886 125.888 56.6719C126.563 55.9066 127.269 55.1411 127.975 54.437C127.883 54.3758 127.852 54.3145 127.791 54.2533Z" fill="#071024"/>
<path d="M90.3708 120.046C89.0508 120.138 87.6388 120.23 86.3495 120.628C85.2751 120.965 84.3848 121.547 83.8016 122.496C83.1569 123.598 82.9114 124.853 82.3588 125.986C79.7188 131.405 73.1803 133.303 67.9003 135.048C65.5059 135.844 63.0808 136.579 60.625 137.222C60.4715 137.681 60.4715 138.171 60.625 138.661C61.0548 139.855 62.4055 139.487 63.3571 139.304C66.5189 138.661 69.6807 137.987 72.8119 137.13C75.7895 136.303 78.7058 135.293 81.4993 133.946C82.6965 133.364 83.8016 132.783 84.2927 131.466C84.7839 130.119 84.569 128.527 84.9067 126.721C85.0602 125.925 85.3058 124.608 86.0118 124.118C86.5644 123.72 87.1783 124.057 87.4853 124.578C87.7615 125.067 87.7002 125.68 87.6081 126.2C87.3011 128.129 86.9941 130.793 86.9327 132.721C86.9327 132.752 86.9327 132.997 87.0248 132.997C87.4853 133.028 88.1299 133.058 88.529 133.089C88.8974 133.119 88.836 133.119 88.9281 132.629C89.2657 130.823 90.7392 123.904 91.6601 119.955C91.2611 119.985 90.8006 120.016 90.3708 120.046Z" fill="#071024"/>
<path d="M143.938 156.54C143.324 156.663 142.71 156.847 142.065 156.969C141.022 157.183 140.009 157.153 138.996 156.847C137.154 156.265 135.527 155.04 133.992 153.877C132.457 152.744 130.953 151.52 129.664 150.081C128.374 148.672 127.146 147.019 126.717 145.121C126.318 143.314 126.594 141.478 126.471 139.671C126.348 138.202 125.857 136.793 124.783 135.722C123.739 134.711 122.358 134.13 120.976 133.732C120.301 133.548 119.626 133.395 118.95 133.242C118.766 137.344 118.367 143.896 118.183 145.641C118.121 146.131 118.06 146.101 118.428 146.192C118.827 146.284 119.472 146.407 119.902 146.499C119.994 146.529 120.055 146.315 120.055 146.254C120.516 144.355 120.915 141.722 121.16 139.794C121.222 139.243 121.345 138.661 121.744 138.263C122.173 137.834 122.849 137.681 123.279 138.232C123.831 138.906 123.708 140.222 123.647 141.049C123.493 142.886 122.849 144.386 122.941 145.794C123.064 147.203 123.555 147.815 124.476 148.795C126.962 151.428 128.528 153.418 131.69 155.469C134.913 157.581 136.325 158.898 139.241 159.755C140.807 160.214 143.017 160.153 143.754 159.112C144.337 158.347 144.245 157.367 143.938 156.54Z" fill="#071024"/>
<path d="M100.839 26.8829C100.808 26.9135 95.3132 31.7202 93.2258 34.4144C90.9849 37.3229 88.8667 40.3232 86.8714 43.4154C86.4723 44.0584 86.0426 44.7013 85.6742 45.3442C86.6872 46.2933 87.8844 47.12 89.1123 47.7935C89.6956 48.1303 90.2788 48.4058 90.8621 48.712C90.8928 48.712 90.8928 48.7426 90.9235 48.7426C92.2741 45.3748 93.6248 42.0377 94.9755 38.67C96.6025 34.6287 98.3829 30.9548 100.747 27.2503C100.808 27.1278 100.931 26.7605 100.839 26.8829Z" fill="#071024"/>
<path d="M115.052 84.4711C115.021 84.4711 114.96 84.4711 114.929 84.4711C114.468 87.4408 113.24 90.8392 112.534 94.115C111.92 96.9011 110.355 98.5237 107.316 99.0748C106.947 99.136 106.364 99.2891 105.75 99.4116C105.597 101.034 105.413 102.657 105.259 104.31C105.106 105.871 104.645 107.708 105.351 109.209C106.303 111.26 109.158 111.658 111.583 111.842C112.074 104.677 113.363 97.6052 114.438 90.533C114.745 88.5124 115.052 85.7263 115.297 83.7057C115.236 83.6751 115.113 84.4711 115.052 84.4711Z" fill="#071024"/>
<path d="M116.986 62.1522C114.622 54.8963 111.215 48.0077 106.886 41.7315C106.794 41.609 106.61 41.7315 106.702 41.854C111 48.1302 114.407 54.9881 116.771 62.2134C116.801 62.3665 117.016 62.3053 116.986 62.1522Z" fill="#071024"/>
<path d="M135.987 50.6407C135.895 49.8447 135.772 49.0487 135.68 48.2527C132.273 50.1509 129.357 52.9063 126.563 55.5698C126.532 55.6004 126.532 55.6617 126.532 55.6923C126.502 55.7229 126.44 55.7535 126.41 55.7841C126.318 55.8454 126.348 55.9985 126.471 55.9985C128.037 55.9066 129.51 55.3861 130.984 54.9269C132.641 54.3758 134.299 54.1615 136.049 53.9166C136.171 53.886 136.294 53.886 136.417 53.8554C136.263 52.7838 136.11 51.7123 135.987 50.6407Z" fill="#071024"/>
<path d="M132.027 23.0253C131.935 22.9028 131.751 23.0865 131.874 23.1784C134.237 25.7195 134.575 29.2709 134.851 32.5468C134.851 32.6998 135.097 32.6998 135.066 32.5468C134.79 29.179 134.422 25.597 132.027 23.0253Z" fill="#C77B38"/>
<path d="M154.099 71.8574C149.709 71.9187 145.319 71.9799 140.93 72.0717C140.776 72.0717 140.776 72.3166 140.93 72.286C145.319 72.2248 149.709 72.1636 154.099 72.0717C154.252 72.1023 154.252 71.8574 154.099 71.8574Z" fill="#918D44"/>
<path d="M79.3505 83.3383C71.7376 83.3077 64.1246 83.3077 56.4809 83.2771C56.2354 83.2771 56.2354 83.4914 56.4809 83.4914C64.0939 83.522 71.7069 83.522 79.3505 83.5526C79.5961 83.5833 79.5961 83.3383 79.3505 83.3383Z" fill="#918D44"/>
<path d="M160.637 83.8894C154.897 83.9813 149.187 84.0425 143.447 84.1343C143.293 84.1343 143.293 84.3793 143.447 84.3487C149.187 84.2568 154.897 84.1956 160.637 84.1037C160.791 84.1343 160.791 83.8894 160.637 83.8894Z" fill="#918D44"/>
<path d="M73.4566 95.554C67.7161 95.6458 62.0064 95.707 56.266 95.7989C56.1125 95.7989 56.1125 96.0438 56.266 96.0132C62.0064 95.9214 67.7161 95.8601 73.4566 95.7683C73.6101 95.7683 73.6101 95.554 73.4566 95.554Z" fill="#918D44"/>
<path d="M160.3 95.7683C154.559 95.8602 148.85 95.9214 143.109 96.0132C142.956 96.0132 142.956 96.2581 143.109 96.2275C148.85 96.1357 154.559 96.0745 160.3 95.9826C160.423 96.0132 160.423 95.7683 160.3 95.7683Z" fill="#918D44"/>
<path d="M146.24 108.045C151.06 110.862 155.879 113.525 160.76 116.036C161.282 113.127 161.896 109.729 162.111 108.504C162.172 108.229 162.203 108.076 162.203 108.045C159.901 108.045 154.099 108.045 146.24 108.045Z" fill="#918D44"/>
<path d="M70.0492 61.1725C69.7729 62.1522 69.3125 64.5402 68.9441 66.5609C71.3692 65.1832 81.8677 60.897 81.8677 60.897C81.8677 60.897 69.2204 61.1725 70.0492 61.1725Z" fill="#918D44"/>
<path d="M144.92 32.2713C145.104 33.1592 144.214 34.0776 142.925 34.3532C141.636 34.6287 140.438 34.1389 140.254 33.2816C140.07 32.3938 140.96 31.4753 142.25 31.1998C143.539 30.9242 144.736 31.3835 144.92 32.2713Z" fill="#7D7A3B"/>
</g>
<defs>
<clipPath id="clip0">
<rect width="125" height="270" fill="white" transform="translate(45 -110)"/>
</clipPath>
</defs>
</svg>
