<svg width="320" height="361" viewBox="0 0 320 361" fill="none" xmlns="http://www.w3.org/2000/svg">
<circle cx="160" cy="201" r="160" fill="#EDDDCC" fill-opacity="0.45"/>
<g clip-path="url(#clip0)">
<path d="M171.903 163.579L203.774 60.9369C204.316 59.2424 207.057 59.6701 206.499 61.3811C195.815 94.4818 185.311 130.922 174.627 164.023C174.085 165.718 171.361 165.273 171.903 163.579Z" fill="#1F2144"/>
<path d="M116.382 40.9646C116.973 40.7014 119.008 39.7307 119.746 39.451L220.104 0.411244C220.563 0.0986627 221.072 -0.016499 221.564 0.0164043C222.401 -0.016499 223.107 0.361889 223.567 0.970601C223.796 1.18447 223.977 1.4477 224.108 1.76028C224.108 1.76028 286.276 87.638 284.897 92.9354C284.52 94.4983 282.6 95.5841 281.09 94.8274C262.068 91.9154 242.67 92.6886 223.928 97.0483C223.074 97.2458 220.104 95.9296 219.808 94.9754C201.148 86.7331 181.044 82.3405 160.661 81.9457C160.431 81.9457 160.217 81.9128 160.004 81.847C159.266 82.0115 158.445 81.8305 157.756 81.1067C148.106 71.0711 137.635 61.9405 126.426 53.7475C124.013 52.3162 116.612 46.953 115.036 45.933C112.706 44.4359 113.756 42.1491 116.382 40.9646Z" fill="#FFEDDE"/>
<path d="M233.135 28.2475C235.055 27.4743 238.222 25.8456 240.618 24.8091L234.431 16.1062C230.082 18.1462 224.617 20.8607 219.956 19.4623C214.36 17.7843 210.437 12.5855 207.253 7.99551C206.778 7.32099 206.318 6.64647 205.858 5.9884C202.822 7.12357 199.409 8.42325 195.716 9.82164C197.521 12.4375 199.228 15.1355 201.132 17.5704C204.907 22.4072 209.42 26.7833 215.213 29.0536C221.187 31.3898 227.276 30.6166 233.135 28.2475ZM134.747 33.6108C140.917 36.3417 147.302 40.0269 152.373 44.5182C157.657 49.1905 161.317 54.8992 166.011 60.0651C174.135 68.9983 186.887 68.8996 197.374 73.2593C207.894 77.6354 217.166 85.2032 228.096 88.5264C239.716 92.0635 248.66 85.6638 259.164 81.9458C264.875 79.9222 271.062 78.5567 277.003 78.0632L270.488 68.0606C265.515 68.8667 259.869 70.3473 255.159 72.1077C250.236 73.9503 245.624 76.6977 240.602 78.2277C235.629 79.7577 231.1 78.7212 226.504 76.5003C216.247 71.5154 206.925 65.1486 196.028 61.447C190.809 59.6702 185.196 59.045 180.059 57.0215C174.381 54.8005 171.542 49.8815 167.865 45.3408C162.384 38.5792 155.655 32.8704 148.188 28.4449C143.576 30.3204 138.603 31.9327 134.747 33.6108ZM242.243 59.5057C247.725 57.7618 253.649 53.7147 258.885 50.9179L252.96 42.3631C249.497 44.3043 245.197 46.9366 241.423 48.4995C237.024 50.3092 232.724 50.885 228.441 48.4995C223.567 45.785 219.3 42.5276 214.048 40.4711C211.389 39.4347 208.698 38.5463 205.908 37.954C203.364 37.4111 200.541 37.3453 198.243 36.0292C195.716 34.5814 193.714 31.8011 191.744 29.6953C189.972 27.8033 188.183 25.9278 186.329 24.1346C183.621 21.4859 180.913 19.1168 177.893 16.8465C173.905 18.393 169.835 19.9559 165.798 21.5517C172.346 25.2369 177.794 30.4685 183.03 35.9634C187.001 40.1421 190.596 44.7979 196.225 46.7392C201.657 48.6147 207.286 48.8779 212.587 51.395C217.97 53.9615 222.484 58.2883 228.244 59.9992C232.79 61.3483 237.746 60.937 242.243 59.5057Z" fill="#CA5B45"/>
<path d="M61.9278 300.802C61.8621 301.263 62.4858 301.625 63.0109 301.641C80.7848 302.02 98.493 303.303 116.152 304.882C147.498 307.695 155.918 309.703 187.395 311.496C219.119 313.305 250.908 314.161 282.682 315C283.289 315.016 283.748 314.605 283.765 314.161L284.536 294.912C284.996 283.709 285.127 272.472 286.505 261.318C287.835 250.641 290.641 239.882 287.736 229.221C287.671 228.974 287.539 228.777 287.359 228.662C287.162 228.53 286.883 228.464 286.538 228.464C268.551 228.267 250.547 228.168 232.56 227.839C216.624 227.559 200.82 226.589 184.983 225.207C169.227 223.825 176.268 223.66 160.414 223.2C131.464 222.361 100.938 226.638 73.3339 217.935C72.6282 217.721 72.0045 218.264 71.9717 218.741C71.4465 224.812 70.8557 230.883 70.2321 236.953C68.0329 258.275 65.2593 279.563 61.9278 300.802Z" fill="#FFCC8F"/>
<path d="M256.21 171.064C253.059 171.443 249.891 171.788 246.74 172.101C243.638 172.413 240.553 172.693 237.451 172.956C235.925 173.071 234.398 173.203 232.889 173.318C232.757 173.335 232.626 173.335 232.495 173.351C225.454 173.894 218.413 174.289 211.373 174.618C210.831 174.651 210.273 174.667 209.715 174.7C208.977 174.733 208.255 174.766 207.516 174.799C206.318 174.848 205.12 174.898 203.905 174.947C203.397 174.963 202.872 174.98 202.363 174.996H202.117C202.035 174.996 201.969 175.013 201.887 175.013L200.18 175.079C186.082 175.556 195.306 173.104 181.192 173.302C164.796 173.516 148.401 173.73 132.006 173.943C115.693 174.157 99.3793 174.503 83.0333 172.019C75.5988 170.9 68.2135 169.979 60.8118 170.143C59.1543 170.176 57.5131 170.275 55.8555 170.423C55.8063 170.423 55.757 170.439 55.7078 170.439C54.9857 170.505 54.2636 170.571 53.5414 170.62C45.3192 171.245 37.8026 170.999 28.6613 169.419C28.4315 169.386 28.3167 170.011 28.2838 170.127C22.5397 193.406 16.1064 215.648 9.01649 236.69C8.91802 236.97 9.00008 237.365 9.14779 237.381C26.0026 240.096 42.8246 238.45 59.6138 237.151C76.4194 235.851 93.225 235.933 110.08 237.381C143.363 240.227 176.761 246.364 209.929 241.412C210.273 241.379 210.601 241.313 210.946 241.264C211.898 241.116 212.899 240.967 213.933 240.819C214.425 240.754 214.934 240.688 215.459 240.606C221.302 239.783 228.08 238.977 234.677 238.236C237.287 237.957 239.864 237.677 242.325 237.414C253.731 236.196 263.037 235.325 263.381 235.226C268.387 214.234 251.335 192.731 256.341 171.739C256.439 171.41 256.341 171.031 256.21 171.064Z" fill="#D3ECF2"/>
<path d="M135.715 161.572C134.861 159.565 133.795 157.64 132.596 155.814C132.662 155.715 132.728 155.616 132.793 155.518C133.237 154.843 132.235 154.07 131.776 154.744C125.26 164.665 115.479 172.084 104.204 175.704C103.646 175.885 103.761 176.674 104.221 176.872C108.11 178.649 112.394 180.524 116.759 179.784C120.977 179.06 125.129 176.411 128.789 174.289C130.611 173.236 132.465 172.167 134.172 170.916C135.485 169.962 136.716 168.728 136.962 167.067C137.257 165.175 136.437 163.25 135.715 161.572Z" fill="#D9937C"/>
<path d="M150.814 193.077C151.093 192.649 155.77 199.23 155.097 199.131C139.916 196.828 121.896 180.853 107.109 177.168C103.663 176.312 99.6254 175.21 96.0805 176.049C92.5028 176.888 89.0727 179.027 85.8068 180.639C78.52 184.259 71.3317 188.075 64.2746 192.106C56.4627 196.564 49.4056 201.303 41.8891 206.254C41.528 206.485 40.888 207.028 41.1506 207.34C44.2031 211.108 46.2874 209.199 49.7995 207.521C55.0185 205.037 87.5464 193.702 90.1723 193.57C92.831 193.439 95.0466 195.248 96.8847 196.943C98.7392 198.654 121.387 214.628 130.283 218.445C134.845 220.403 139.588 222.065 144.429 223.183C146.826 223.743 149.419 224.22 151.88 223.957C153.899 223.743 145.266 221.143 146.596 219.679C150.091 215.846 152.422 210.96 153.292 205.86C154.03 201.549 153.833 196.499 150.814 193.077Z" fill="#FBB89E"/>
<path d="M68.6401 200.463C69.0176 200.134 69.3787 199.789 69.7561 199.46C72.5461 196.877 75.172 194.113 77.6173 191.185C78.7826 189.786 79.9806 188.372 80.9653 186.842C81.6218 185.822 82.4588 184.407 82.1798 183.14C82.1306 182.926 82.0649 182.745 81.9664 182.581C78.0112 184.588 74.1052 186.661 70.2157 188.799C69.0832 190.346 67.9672 191.909 66.9169 193.504C64.9967 196.433 62.6991 199.624 61.4846 203.014C63.733 202.191 66.1784 201.335 68.6401 200.463Z" fill="#D9937C"/>
<path d="M130.397 218.577C134.976 220.518 139.719 222.163 144.577 223.266C146.973 223.808 149.566 224.286 152.028 224.022C154.047 223.808 145.398 221.226 146.727 219.778C147.072 219.383 147.416 218.988 147.744 218.577C147.186 218.215 146.678 217.902 146.3 217.656C136.65 211.009 126.672 204.823 117.186 197.93C112.377 194.426 107.848 190.115 102.481 187.467C101.447 186.957 100.036 186.134 98.8541 186.151C97.935 186.151 97.2949 186.924 96.6549 187.5C94.4885 189.457 92.4371 191.563 90.5005 193.751C90.3364 193.488 89.8604 193.57 89.9097 193.916C90.0246 193.899 90.123 193.883 90.1887 193.883C92.8474 193.735 95.063 195.528 96.9175 197.223C98.7884 198.901 121.502 214.793 130.397 218.577Z" fill="#D9937C"/>
<path d="M41.3311 218.922C43.8257 218.182 49.2743 216.668 52.8849 213.559C52.9013 213.526 63.0109 205.136 63.0438 205.119C64.4552 206.238 67.3272 208.212 69.1489 208.623C68.9191 208.788 57.3325 215.879 57.152 216.01C56.3642 217.359 57.6607 219.942 55.3467 221.341C54.5425 221.818 43.8093 224.269 41.2162 224.582C39.8376 224.746 37.2282 224.68 36.1614 223.594C33.2894 220.666 39.8704 219.35 41.3311 218.922Z" fill="#FBB89E"/>
<path d="M52.1135 201.122C51.933 200.809 51.7689 200.48 51.6048 200.151C48.9297 201.796 46.353 203.392 46.3366 203.392C42.3322 205.958 36.7194 206.699 34.1592 207.077C32.6329 207.307 25.9533 207.686 28.3658 210.96C29.2685 212.177 31.8287 212.621 33.2237 212.654C35.8331 212.72 46.7962 211.799 47.666 211.437C50.1441 210.384 49.2415 207.636 50.2098 206.419C50.2918 206.386 52.212 205.547 54.5589 204.527C53.5578 203.523 52.77 202.29 52.1135 201.122Z" fill="#FBB89E"/>
<path d="M117.088 117.761C116.579 122.285 116.579 133.769 121.978 134.427C128.051 135.15 133.155 132.551 137.159 127.895C140.917 123.536 143.084 116.922 140.326 111.526C140.195 111.263 139.982 111.147 139.768 111.131C137.389 106.936 129.856 104.238 124.916 105.077C118.499 106.163 117.793 111.493 117.088 117.761Z" fill="#FBB89E"/>
<path d="M142.394 139.082C140.917 139.872 137.898 140.744 136.224 140.711C135.994 140.711 135.78 140.678 135.567 140.645L127.328 131.844L137.044 123.42L147.597 134.706C146.35 136.598 144.347 138.029 142.394 139.082Z" fill="#FBB89E"/>
<path d="M118.696 118.929C118.597 119.669 118.876 120.327 119.336 120.393C119.795 120.459 120.255 119.916 120.37 119.176C120.468 118.435 120.189 117.777 119.73 117.712C119.27 117.646 118.811 118.189 118.696 118.929Z" fill="#1F2144"/>
<path d="M117.727 116.363C118.039 116.774 118.958 116.511 119.385 116.527C120.206 116.56 120.944 116.79 121.683 117.119C121.995 117.251 122.388 117.366 122.651 117.004C123.406 115.984 121.65 115.211 121.141 115.03C120.042 114.652 118.745 114.652 117.842 115.622C117.727 115.705 117.563 116.149 117.727 116.363Z" fill="#1F2144"/>
<path d="M116.497 125.082C117.383 125.296 118.63 125.74 118.909 124.638C119.369 122.877 118.4 120.377 117.646 118.83C117.596 118.748 117.531 118.682 117.465 118.666C117.662 118.222 117.842 117.761 117.99 117.284C118.105 116.889 117.514 116.659 117.399 117.054C116.759 119.11 115.479 120.887 114.757 122.943C114.248 124.407 115.085 124.753 116.497 125.082Z" fill="#FBB89E"/>
<path d="M131.776 121.199C132.974 119.719 134.812 121.018 134.96 122.565C135.14 124.424 134.123 126.546 132.17 126.892C131.53 127.007 131.152 126.431 131.202 125.954C130.053 124.95 131.021 122.121 131.776 121.199Z" fill="#FBB89E"/>
<path d="M120.517 127.698C120.698 127.435 120.435 127.106 120.14 127.221C119.992 127.27 119.861 127.319 119.713 127.369C119.697 127.254 119.615 127.155 119.516 127.106C119.09 126.892 118.581 126.99 118.072 127.122C118.056 127.007 117.957 126.892 117.81 126.892C117.695 126.892 117.596 126.908 117.481 126.925C117.465 126.776 117.317 126.645 117.17 126.628C117.284 127.418 117.416 128.208 117.596 128.948C118.696 128.932 119.894 128.603 120.517 127.698Z" fill="#D9937C"/>
<path d="M147.909 114.076C147.745 113.961 147.449 113.994 147.318 113.878C146.678 113.977 146.579 113.665 147.039 112.957C147.203 112.875 147.351 112.793 147.515 112.694C148.713 111.476 150.157 110.637 149.911 108.663C149.73 107.281 148.828 105.883 147.58 105.225C144.774 103.761 141.393 105.587 139.67 107.972C136.765 105.62 132.613 104.55 128.953 104.452C125.392 104.353 121.945 105.439 119.418 108.022C119.303 108.137 119.319 108.268 119.401 108.367C119.336 108.515 119.369 108.696 119.566 108.745C122.602 109.568 126.048 110.522 127.706 113.484C128.247 114.438 128.543 121.907 127.771 124.457C127.181 126.398 125.999 127.928 124.62 129.326C123.504 128.142 122.405 126.892 121.174 125.888C119.927 124.868 118.056 125.098 116.529 125.246C116.48 125.246 116.415 125.246 116.365 125.263C116.152 125.312 115.971 125.543 115.939 125.756C115.906 125.937 115.955 126.086 116.053 126.217C116.07 126.25 116.086 126.266 116.103 126.299C116.874 127.188 117.81 127.467 118.909 127.747C120.747 128.191 122.356 129.063 124.03 129.935C123.783 130.182 123.521 130.429 123.258 130.659C122.126 131.712 120.435 132.716 120.009 134.311C119.746 135.315 119.615 137.519 120.895 137.832C122.306 138.177 123.915 136.911 125.031 136.236C126.491 135.348 128.674 134.591 129.15 132.781C129.741 130.495 129.79 127.912 130.069 125.559C130.282 123.7 130.463 121.841 130.447 119.982C131.005 120.081 131.595 120.13 132.104 120.344C133.138 120.805 133.877 121.775 134.549 122.664C135.665 124.161 136.699 125.773 138.554 126.382C138.603 126.398 138.669 126.398 138.702 126.398C138.784 126.415 138.866 126.415 138.964 126.332C141.196 124.309 142.723 121.265 143.182 118.123C143.855 118.501 144.61 118.649 145.447 118.386C146.694 117.991 148.565 116.757 148.532 115.244C148.45 114.75 148.286 114.339 147.909 114.076Z" fill="#1F2144"/>
<path d="M139.703 137.914C139.539 137.75 139.358 137.667 139.178 137.635C139.178 137.009 137.208 135.595 136.47 135.924C126.77 140.333 116.185 149.924 104.483 156.554C91.2719 164.039 77.125 168.662 70.1008 174.799C69.8218 175.046 69.6084 175.572 69.8218 175.934C70.4454 177.02 69.1653 176.839 70.1336 177.694C71.1675 178.616 70.5275 176.642 71.6271 176.082C74.9586 174.404 97.2129 171.821 104.089 168.893C110.851 165.997 131.661 156.784 137.914 153.346C140.737 151.799 143.592 149.463 143.921 146.008C144.216 142.702 141.869 140.086 139.703 137.914Z" fill="#FBB89E"/>
<path d="M52.2127 215.649C52.2127 215.632 52.2294 215.632 52.2294 215.615C52.1793 215.632 52.1459 215.649 52.2127 215.649Z" fill="#FF9C87"/>
<path d="M171.132 212.358C174.972 188.289 166.717 165.52 154.835 145.449C151.421 139.675 147.565 133.538 142.132 129.442C141.657 129.08 141.082 129.804 141.542 130.182C141.476 130.231 141.41 130.281 141.361 130.379C138.719 135.496 134.534 139.642 132.105 144.857C131.892 144.857 131.695 144.989 131.662 145.252C131.629 145.548 131.58 145.86 131.547 146.157C131.531 146.189 131.514 146.239 131.498 146.272C131.448 146.387 131.448 146.502 131.498 146.601C130.808 152.49 130.694 158.512 131.465 164.385C131.826 167.132 132.499 169.831 133.861 172.265C135.256 174.766 137.143 176.921 138.834 179.208C142.313 183.897 144.955 189.194 146.646 194.788C146.679 194.903 146.711 195.034 146.744 195.15C138.374 188.635 129.692 182.531 120.699 176.888C116.744 174.404 112.723 172.002 108.669 169.699C105.124 167.692 101.07 165.208 96.8198 165.899C93.0451 166.524 90.5833 169.65 88.3513 172.479C85.2495 176.395 82.1477 180.31 79.1116 184.259C74.2701 190.56 56.5947 208.936 52.2456 215.616C52.3933 215.583 52.738 215.566 52.6395 215.747C51.425 218.1 56.447 213.098 54.6253 215.023C54.2478 215.418 54.5925 215.895 55.0192 215.977C54.9043 216.208 54.9207 216.438 55.0192 216.619C54.7566 216.784 54.4776 216.948 54.215 217.113C53.5257 217.54 54.3135 218.544 55.0028 218.116C62.8968 213.197 76.2067 203.672 84.0843 198.769C88.8765 195.775 95.195 192.55 97.9522 187.352C98.5922 188.52 99.3472 189.638 100.201 190.724C105.518 197.404 112.329 203.227 119.205 208.212C126.115 213.23 133.582 217.491 141.427 220.847C148.714 223.973 157.674 226.918 164.879 222.015C167.768 220.057 171.148 212.539 171.132 212.358Z" fill="#FBB89E"/>
<path d="M171.591 208.772C170.836 208.146 169.999 207.62 169.211 207.11C167.045 205.712 164.862 204.33 162.663 202.981C157.903 200.085 147.301 195.347 147.252 195.232C147.137 195.001 146.858 195.018 146.727 195.15C146.727 195.166 146.743 195.182 146.743 195.199C146.727 195.182 146.727 195.182 146.711 195.166C146.645 195.248 146.612 195.347 146.678 195.479C148.795 199.953 149.074 204.889 148.992 209.775C148.91 214.365 148.746 218.955 148.598 223.529C154.112 225.092 159.906 225.437 164.878 222.065C167.767 220.09 171.148 212.572 171.131 212.407C171.312 211.19 171.459 209.989 171.591 208.772Z" fill="#CA705D"/>
<path d="M133.22 119.538C132.514 118.797 131.185 119.061 130.414 119.604C130.332 120.854 130.381 121.956 130.299 123.223C130.299 123.272 130.299 123.305 130.299 123.354C130.315 123.371 130.315 123.387 130.332 123.404C130.315 123.42 130.299 123.42 130.299 123.437C130.282 123.815 130.25 124.177 130.233 124.555C130.988 124.901 132.646 123.568 132.99 123.223C133.86 122.302 134.188 120.558 133.22 119.538Z" fill="#FBB89E"/>
<path d="M142.558 146.272C141.787 149.661 139.473 152.392 136.289 153.757C135.912 153.922 136.158 154.498 136.535 154.333C139.949 152.869 142.361 149.957 143.182 146.338C143.28 145.943 142.64 145.877 142.558 146.272Z" fill="#D9937C"/>
<path d="M100.758 169.847C96.7206 171.048 92.8474 172.644 89.1384 174.667C88.7773 174.865 89.0235 175.44 89.3846 175.243C93.0772 173.236 96.9668 171.624 101.004 170.423C101.398 170.308 101.152 169.732 100.758 169.847Z" fill="#D9937C"/>
<path d="M99.97 177.958C99.9865 177.546 99.3464 177.481 99.3464 177.875C99.2643 180.573 98.6407 183.123 97.4754 185.542C97.2949 185.904 97.8857 186.151 98.0663 185.789C99.2643 183.304 99.888 180.705 99.97 177.958Z" fill="#D9937C"/>
<path d="M76.4686 170.554C74.3843 172.068 72.1687 173.187 69.789 174.157C67.8688 174.947 66.162 175.835 64.8819 177.513C63.6018 179.224 62.6991 181.297 61.895 183.271C61.2877 184.736 60.1389 186.99 60.6805 188.585C60.7625 188.816 61.0908 188.832 61.2221 188.651C62.1575 187.45 62.6991 186.068 63.3392 184.703C63.3556 184.67 63.372 184.637 63.3884 184.604C63.3556 184.917 63.3392 185.229 63.3392 185.558C63.3392 186.216 63.2571 187.977 64.2254 188.19C65.0952 188.388 65.3578 187.055 65.5876 186.496C66.1784 184.982 66.5723 183.42 66.7856 181.807C67.4093 181.379 74.7453 178.336 75.5495 177.053C76.5834 175.408 77.6502 173.154 76.2388 171.492C76.4522 171.344 76.6491 171.196 76.8624 171.048C77.1907 170.801 76.7968 170.308 76.4686 170.554Z" fill="#FBB89E"/>
<path d="M184.999 184.785C184.458 181.478 182.406 178.78 180.404 176.214C180.289 176.066 180.141 175.967 179.994 175.918C180.568 175.111 181.274 174.42 182.193 173.927C183.26 173.335 182.455 171.607 181.372 172.2C177.647 174.24 176.744 178.336 175.858 182.186C174.775 186.957 173.741 191.728 172.74 196.515C171.722 201.418 170.721 206.337 169.753 211.239C169.507 212.473 169.244 213.691 169.014 214.925C168.899 215.583 168.702 216.241 169.08 216.866C169.474 217.491 170.294 217.672 170.934 217.902C172.149 218.346 173.38 218.791 174.594 219.251C175.07 219.416 175.661 219.186 175.809 218.692C178.369 210.861 180.995 203.03 183.506 195.183C184.589 191.859 185.574 188.322 184.999 184.785Z" fill="#FF9C87"/>
<path d="M201.099 174.075C202.675 173.483 204.677 172.627 205.76 171.344C205.908 171.163 206.039 170.982 206.137 170.801L204.102 154.777L191.991 155.748L194.387 175.144C196.635 175.424 199.031 174.865 201.099 174.075Z" fill="#FF9C87"/>
<path d="M204.857 151.372C204.267 150.302 203.856 149.167 203.364 148.048C203.101 147.473 202.822 146.897 202.527 146.337C202.494 146.272 202.346 145.976 202.248 145.762C202.232 145.762 202.232 145.762 202.215 145.762C202.182 145.745 202.133 145.745 202.117 145.729C201.92 145.696 201.706 145.647 201.509 145.614C199.967 145.301 198.44 144.939 196.914 144.561C194.288 143.919 193.336 140.596 194.058 138.326C194.19 137.931 194.354 137.602 194.551 137.289C193.73 137.256 192.926 137.289 192.188 137.388C185.771 138.342 184.999 143.557 184.211 149.694C183.653 154.119 183.522 165.372 188.922 166.096C194.978 166.902 200.131 164.434 204.185 159.927C205.76 158.183 207.057 156.06 207.861 153.79C206.663 153.428 205.563 152.638 204.857 151.372Z" fill="#FF9C87"/>
<path d="M205.924 168.86C202.149 168.679 200.771 168.498 197.013 168.564C196.848 168.448 196.635 168.383 196.389 168.399C195.01 168.498 190.087 168.679 185.377 170.34C181.077 171.854 178.664 173.022 177.581 178.007C177.089 180.31 179.255 188.881 180.371 197.486C181.586 206.88 181.782 216.339 182.275 218.593C171.952 222.443 164.271 227.642 154.752 233.35C150.239 236.065 145.102 239.668 142.427 244.34C141.557 245.87 139.309 247.663 143.051 252.961C146.744 258.028 153.817 263.967 158.921 267.586C167.783 273.871 176.038 280.961 183.621 288.76C184.408 289.566 185.541 288.76 185.213 287.74C181.175 275.648 164.337 259.821 156.115 250.115C162.876 249.391 205.12 247.943 208.862 242.975C210.569 240.704 211.225 237.842 211.75 235.094C212.456 231.442 211.98 223.71 216.362 209.545C218.446 202.816 219.628 195.84 220.547 188.865C221.171 183.749 221.975 169.6 205.924 168.86Z" fill="#FF9C87"/>
<path d="M187.477 297.841C186.509 295.422 184.458 290.125 181.044 286.835C181.011 286.818 171.706 277.539 171.673 277.523C172.658 276.009 175.727 274.348 175.956 272.505C176.137 272.719 182.915 282.179 183.063 282.36C184.474 283.001 186.919 281.471 188.528 283.643C189.086 284.4 192.565 294.88 193.107 297.43C193.402 298.795 193.583 301.394 192.614 302.562C189.988 305.705 188.052 299.272 187.477 297.841Z" fill="#FF9C87"/>
<path d="M114.774 268.277C116.841 266.714 121.42 263.358 123.685 259.179C123.701 259.147 130.2 247.713 130.217 247.68C131.94 248.223 134.664 250.559 136.503 250.296C136.355 250.526 128.658 259.755 128.526 259.953C128.264 261.483 130.381 263.457 128.707 265.579C128.116 266.319 118.942 272.407 116.628 273.608C115.397 274.249 112.935 275.105 111.557 274.463C107.864 272.769 113.543 269.198 114.774 268.277Z" fill="#FF9C87"/>
<path d="M188.364 221.324C188.298 221.193 188.183 221.077 188.019 220.979C182.423 217.836 176.432 215.5 170.524 213.016C167.422 211.716 164.304 210.417 161.202 209.101L156.837 207.274C155.474 206.699 153.997 205.843 152.471 205.86C150.157 205.876 148.565 207.817 147.63 209.709C146.218 212.539 145.086 215.55 143.806 218.445C141.163 224.417 138.423 230.356 135.6 236.262C132.432 242.892 129.134 249.473 125.753 256.004C125.54 256.432 125.671 256.794 125.966 257.008C125.983 257.255 126.098 257.485 126.409 257.649C129.298 259.196 131.595 257.074 133.237 254.803C135.698 251.431 138.094 248.025 140.54 244.636C145.201 238.138 148.385 233.4 153.062 226.901C156.147 229.303 159.643 231.047 163.024 232.988C164.813 234.008 168.062 233.317 169.671 234.584C171.115 235.719 172.411 237.184 174.282 237.562C177.893 238.286 181.274 235.308 183.522 232.873C186.214 229.961 188.134 226.424 189.184 222.591C189.348 221.933 188.872 221.439 188.364 221.324Z" fill="#FF9C87"/>
<path d="M185.508 152.194C185.426 152.935 185.738 153.576 186.214 153.626C186.673 153.675 187.116 153.116 187.198 152.375C187.28 151.635 186.969 150.993 186.493 150.944C186.017 150.878 185.574 151.454 185.508 152.194Z" fill="#1F2144"/>
<path d="M187.313 148.016C186.608 147.555 185.557 147.703 184.868 148.295C184.819 148.345 184.655 149.299 185.278 149.463C185.754 149.595 186.247 149.644 186.706 149.644C186.952 149.644 187.428 149.792 187.642 149.447C188.035 148.871 187.592 148.196 187.313 148.016Z" fill="#FFD0C2"/>
<path d="M218.971 198.522C218.709 198.999 218.446 199.46 218.184 199.937C218.134 199.953 218.102 199.97 218.069 199.986L217.987 200.052C217.872 200.151 217.855 200.299 217.921 200.431C216.001 203.869 214.097 207.307 212.177 210.746C210.864 213.098 209.551 215.451 208.255 217.803L206.449 221.061C206.055 221.752 205.169 222.755 205.186 223.594C205.202 224.713 207.467 225.371 208.287 225.733C209.403 226.243 210.569 226.654 211.75 227C211.947 227.066 212.226 227.164 212.522 227.247C212.998 222.969 213.949 217.178 216.329 209.495C217.429 205.909 218.282 202.224 218.971 198.522Z" fill="#DD8576"/>
<path d="M205.383 222.509C203.315 222.015 200.886 221.143 198.752 221.275C197.685 221.341 196.75 221.9 195.798 222.344C194.6 222.92 193.386 223.479 192.188 224.055C191.826 224.236 192.089 224.812 192.467 224.631C192.483 224.631 192.499 224.615 192.516 224.615C192.549 224.647 192.581 224.68 192.631 224.697C200.886 228.283 203.085 237.365 203.085 245.656C206.039 244.85 208.123 243.978 208.845 243.008C210.552 240.737 211.209 237.875 211.734 235.127C212.128 233.087 212.144 229.813 212.85 224.861C210.683 223.496 207.614 223.035 205.383 222.509Z" fill="#1F2144"/>
<path d="M211.553 153.823C210.962 152.392 209.978 150.746 208.501 150.187C208.632 149.546 208.747 148.887 208.796 148.213C209.059 145.186 208.517 141.632 205.842 139.806C203.036 137.881 198.9 137.075 195.552 137.042C192.302 136.993 189.118 137.931 186.64 140.086C186.542 140.185 186.509 140.3 186.542 140.398C186.493 140.464 186.476 140.53 186.493 140.629C187.33 145.038 190.185 148.904 194.19 150.927C195.404 151.536 196.766 151.734 197.964 152.342C199.359 153.033 199.704 154.415 200.278 155.731C201.083 157.574 202.445 158.808 204.365 159.301C204.628 161.012 205.612 162.641 207.467 162.954C209.371 163.266 210.766 161.736 211.52 160.14C212.456 158.133 212.374 155.846 211.553 153.823Z" fill="#FFD0C2"/>
<path d="M184.917 156.603C184.835 155.369 184.72 154.168 184.704 152.935C184.704 152.589 184.326 152.507 184.146 152.721C184.474 151.734 184.802 150.763 185.13 149.776C185.262 149.381 184.671 149.167 184.54 149.562C183.916 151.405 183.309 153.231 182.685 155.073C182.423 155.863 181.832 156.801 182.669 157.393C183.128 157.722 184.392 157.952 184.835 157.459C185.048 157.245 184.934 156.867 184.917 156.603Z" fill="#FF9C87"/>
<path d="M186.575 159.137C186.181 159.055 185.738 159.17 185.344 159.203C185.016 159.236 184.687 159.268 184.359 159.301C184.49 160.124 184.671 160.914 184.901 161.654C185.311 161.456 185.672 161.144 185.984 160.831C186.345 160.486 186.87 159.927 186.772 159.367C186.772 159.285 186.69 159.17 186.575 159.137Z" fill="#DD8576"/>
<path d="M196.701 153.28C196.29 153.247 196.241 153.889 196.651 153.905C197.653 153.971 197.521 156.34 196.356 156.044C195.962 155.945 195.749 156.538 196.143 156.636C198.227 157.196 198.605 153.412 196.701 153.28Z" fill="#DD8576"/>
<path d="M206.695 207.192C206.581 206.09 205.891 205.58 204.907 205.202C203.085 204.494 203.151 205.202 201.723 205.942C201.608 205.909 201.477 205.925 201.378 206.041C198.785 208.952 195.076 211.091 191.958 213.378C188.708 215.78 185.492 218.215 182.455 220.88C182.242 221.077 182.373 221.39 182.636 221.439C186.411 222.114 190.448 221.341 194.091 220.354C195.864 219.876 197.603 219.301 199.327 218.675C200.738 218.165 202.084 217.672 203.085 216.504C204.086 215.369 204.693 213.904 205.3 212.523C206.023 210.96 206.876 209.002 206.695 207.192Z" fill="#DD8576"/>
<path d="M209.387 199.213C209.486 198.16 209.486 197.124 209.387 196.071C209.387 196.005 209.354 195.956 209.321 195.923C209.026 194.08 207.844 192.583 206.613 191.168C206.728 187.582 207.024 183.995 207.533 180.442C207.779 178.698 208.074 176.954 208.419 175.227C208.55 174.569 209.289 169.649 209.781 169.633C209.945 169.633 210.044 169.534 210.093 169.403C209.83 169.353 209.568 169.271 209.338 169.189C208.78 169.649 208.747 170.834 208.599 171.443C208.107 173.483 207.697 175.556 207.336 177.629C206.581 182.087 206.138 186.578 205.99 191.102C203.709 192.961 201.493 194.886 199.376 196.926C198.391 197.864 197.489 198.966 196.438 199.855C195.536 200.612 195.01 200.677 193.878 200.579L191.81 200.398C191.794 200.348 191.761 200.299 191.728 200.266C191.712 200.2 191.679 200.134 191.613 200.069C187.773 196.926 184.408 193.307 181.553 189.26C182.62 182.548 184.49 176.016 187.133 169.781C186.87 169.896 186.608 169.979 186.329 170.044C183.785 176.181 181.979 182.58 180.929 189.145C180.896 189.178 180.863 189.211 180.847 189.26C179.764 192.188 178.96 195.265 178.648 198.374C178.418 200.661 178.418 203.836 180.24 205.531C181.897 207.061 184.786 206.715 186.64 205.794C188.725 204.741 190.218 202.882 191.564 201.023C192.778 201.154 194.534 201.648 195.7 201.302H195.716C195.716 201.319 195.716 201.319 195.716 201.335C197.144 204.346 199.573 208.525 203.577 207.505C205.104 207.11 206.252 205.925 207.139 204.692C208.271 203.145 209.42 201.352 209.42 199.378C209.42 199.295 209.403 199.246 209.387 199.213Z" fill="#1F2144"/>
<path d="M217.56 196.844C217.544 196.186 217.461 195.117 217.347 194.097C217.232 193.027 217.084 191.974 216.969 190.905C216.723 188.487 216.641 186.052 216.592 183.617C216.542 181.297 216.657 178.978 216.575 176.674C216.559 175.967 216.477 175.062 216.411 174.108C214.31 175.589 212.669 177.777 211.553 180.146C210.372 182.63 209.682 185.328 208.944 187.977L206.597 196.466C205.809 199.295 205.038 202.125 204.25 204.955C203.577 207.406 203.2 210.548 201.723 212.671C200.344 214.645 197.866 215.533 195.65 216.175C193.205 216.866 181.684 221.423 175.415 223.644C174.397 223.808 173.33 223.002 172.28 223.019C170.934 223.052 169.523 222.969 168.226 223.463C166.815 223.989 165.88 225.19 164.878 226.26C164.009 227.181 163.04 228.004 162.761 229.287C162.729 229.435 162.86 229.55 162.975 229.616C164.107 230.175 165.404 230.735 166.667 230.389C168.259 229.961 169.113 228.267 170.754 227.839C172.28 227.444 173.856 228.398 175.316 227.592C175.694 227.378 176.006 227.099 176.285 226.77C177.056 226.951 177.909 226.951 178.664 226.852C182.012 226.424 197.16 226.951 203.708 225.717C204.841 225.503 205.957 225.223 206.843 224.45C207.943 223.479 212.144 215.484 213.227 212.72C214.934 208.36 216.608 203.984 218.233 199.575C217.806 198.736 217.576 197.782 217.56 196.844Z" fill="#FF9C87"/>
<path d="M194.846 225.717C193.468 224.466 191.958 223.381 190.317 222.492C188.511 221.505 186.591 220.781 184.605 220.321C181.356 221.554 178.024 222.805 175.53 223.677C174.512 223.841 173.445 223.035 172.395 223.052C171.049 223.084 169.638 223.002 168.341 223.496C166.93 224.022 165.994 225.223 164.993 226.293C164.123 227.214 163.155 228.037 162.876 229.32C162.843 229.468 162.975 229.583 163.089 229.649C164.222 230.208 165.518 230.768 166.782 230.422C168.374 229.994 169.227 228.3 170.869 227.872C172.395 227.477 173.97 228.431 175.431 227.625C175.809 227.411 176.12 227.132 176.399 226.803C177.171 226.984 178.024 226.984 178.779 226.885C181.06 226.589 188.839 226.737 195.634 226.474C195.371 226.194 195.092 225.947 194.846 225.717Z" fill="#DD8576"/>
<path d="M212.948 176.888C210.667 180.886 209.715 185.377 208.829 189.852C208.747 190.247 209.387 190.296 209.453 189.901C210.306 185.542 211.225 181.149 213.457 177.25C213.67 176.905 213.162 176.526 212.948 176.888Z" fill="#DD8576"/>
<path d="M153.883 215.237C153.801 214.842 153.177 214.957 153.259 215.352C153.85 218.396 153.669 221.406 152.717 224.351C152.586 224.746 153.193 224.96 153.308 224.565C154.309 221.521 154.49 218.379 153.883 215.237Z" fill="#DD8576"/>
<path d="M153.784 248.848C152.455 247.91 151.027 247.203 149.468 246.742C149.074 246.627 148.861 247.219 149.254 247.334C150.764 247.795 152.143 248.453 153.423 249.374C153.751 249.588 154.112 249.078 153.784 248.848Z" fill="#DD8576"/>
<path d="M192.27 191.086C192.023 192.748 191.695 194.393 191.318 196.021C191.219 196.416 191.826 196.647 191.908 196.235C192.302 194.541 192.631 192.846 192.893 191.135C192.975 190.74 192.335 190.691 192.27 191.086Z" fill="#DD8576"/>
<path d="M196.274 191.991C196.34 191.58 195.716 191.53 195.65 191.942C195.339 193.801 195.125 195.66 195.027 197.552C195.01 197.963 195.634 198.012 195.65 197.601C195.749 195.709 195.962 193.85 196.274 191.991Z" fill="#DD8576"/>
<path d="M176.826 215.632C174.512 214.694 172.182 213.789 169.851 212.917C169.474 212.769 169.244 213.378 169.638 213.51C171.968 214.382 174.299 215.286 176.613 216.224C176.974 216.389 177.204 215.78 176.826 215.632Z" fill="#DD8576"/>
<path d="M255.83 286.585C264.579 277.815 264.579 263.597 255.83 254.827C247.082 246.057 232.898 246.057 224.149 254.827C215.401 263.597 215.401 277.815 224.149 286.585C232.898 295.355 247.082 295.355 255.83 286.585Z" fill="white"/>
<path d="M259.869 260.397C256.718 254.343 250.908 249.901 243.983 248.65C242.489 251.875 241.16 256.35 240.832 257.468C240.684 257.946 235.449 258.521 234.727 258.669C231.428 259.344 228.228 260.528 225.339 262.256C222.303 264.066 220.12 266.517 217.675 269.001C217.626 269.577 217.609 270.153 217.609 270.745C217.609 283.15 227.637 293.201 240.011 293.201C240.438 293.201 240.848 293.185 241.275 293.169C238.764 288.644 236.401 283.989 235.777 278.773C235.055 272.818 236.384 267.093 239.191 261.845C239.732 260.825 241.127 258.998 240.963 257.765C241.012 258.094 246.609 257.633 247.216 257.6C251.811 257.32 255.733 258.324 259.869 260.397Z" fill="#70A2D4"/>
<path d="M240.832 256.942C240.011 256.942 240.011 258.209 240.832 258.209C241.652 258.209 241.652 256.942 240.832 256.942Z" fill="#1F2144"/>
<path d="M113.001 244.85C112.903 243.616 109.571 239.651 102.908 239.569C95.2108 239.47 92.5029 243.057 92.2895 243.995C91.4689 247.4 91.2063 251.645 92.8147 254.869C94.5215 258.291 98.4931 260.101 102.202 260.002C105.714 259.903 109.029 258.291 111.097 255.428C113.313 252.368 113.28 248.437 113.001 244.85Z" fill="#6B3131"/>
<path d="M113.018 245.146C113.018 245.048 113.001 244.949 113.001 244.85C112.903 243.616 109.571 239.651 102.908 239.569C95.2108 239.47 92.5029 243.057 92.2895 243.995C92.191 244.373 92.1254 244.751 92.0433 245.146C98.3619 248.124 107.191 249.276 113.018 245.146Z" fill="#FFEDDE"/>
<path d="M106.732 242.744C106.748 242.267 106.486 241.954 106.141 241.79C106.059 241.691 105.928 241.609 105.747 241.576C105.698 241.56 105.632 241.56 105.567 241.543C105.55 240.326 105.55 239.092 105.534 237.875C105.517 236.904 105.829 235.357 105.419 234.486C105.058 233.729 104.221 233.465 103.499 233.071C102.12 232.314 100.807 231.475 99.5106 230.57C98.9362 230.175 98.411 231.113 98.969 231.508C99.888 232.149 100.824 232.758 101.792 233.334C102.76 233.91 104.204 234.272 104.434 235.44C104.631 236.525 104.451 237.825 104.467 238.927C104.467 239.816 104.483 240.704 104.483 241.593C104.089 241.691 103.728 241.872 103.531 242.201C102.973 243.09 104.057 243.731 104.812 243.814C105.534 243.929 106.715 243.649 106.732 242.744Z" fill="#1F2144"/>
<path d="M107.076 241.445C107.569 241.28 108.094 241.313 108.603 241.461C107.388 240.276 107.52 238.615 108.964 237.727C110.244 236.937 112.016 236.065 113.297 237.381C113.674 237.759 113.871 238.269 113.969 238.779C114.806 237.282 116.464 236.986 117.695 238.204C118.762 239.257 120.042 240.77 119.073 242.333C118.811 242.744 118.433 243.057 118.007 243.271C119.681 243.567 120.501 245.031 119.779 246.594C119.139 247.959 118.154 249.687 116.366 249.292C115.824 249.177 115.348 248.848 114.987 248.436C115.003 248.502 115.02 248.585 115.036 248.65C115.381 250.345 114.298 251.645 112.591 251.529C111.097 251.431 109.128 251.118 108.865 249.292C108.75 248.502 109.079 247.696 109.571 247.087C109.276 247.236 108.997 247.367 108.701 247.482C107.076 248.075 105.632 247.219 105.485 245.492C105.32 243.995 105.337 242.004 107.076 241.445Z" fill="#CA5B45"/>
<path d="M112.427 240.589C112.837 241.181 113.116 241.839 113.28 242.53C113.346 242.547 113.395 242.563 113.461 242.596C113.887 242.81 114.232 243.386 114.068 243.863C113.986 244.093 113.904 244.307 113.723 244.455C113.362 244.85 112.738 244.998 112.213 244.735C111.278 244.241 111.458 242.876 112.41 242.53C112.443 242.514 112.492 242.514 112.525 242.497C112.377 241.954 112.148 241.461 111.819 240.984C111.557 240.605 112.164 240.194 112.427 240.589Z" fill="#38394D"/>
<path d="M87.7433 214.168C86.2991 211.963 84.658 209.857 82.984 207.817C82.3439 207.044 81.2607 208.146 81.8844 208.92C83.4599 210.861 85.019 212.868 86.3976 214.957C86.9556 215.78 88.3013 215.007 87.7433 214.168Z" fill="white"/>
<path d="M99.2973 205.728C97.9351 205.761 96.573 205.711 95.2272 205.596C95.2108 205.596 95.178 205.596 95.1616 205.596C95.1451 205.596 95.1287 205.596 95.0959 205.596C94.9974 205.596 94.9482 205.596 94.8825 205.613C94.5871 205.662 94.423 205.892 94.3738 206.156C93.0116 208.854 91.6494 211.552 90.2873 214.25C89.8277 215.138 91.1735 215.928 91.633 215.04C92.9624 212.424 94.2753 209.808 95.6047 207.192C96.7699 207.274 97.9351 207.324 99.084 207.291C99.1004 207.291 99.1004 207.291 99.1168 207.291C99.1824 207.291 99.2317 207.291 99.2973 207.291C100.298 207.258 100.298 205.695 99.2973 205.728Z" fill="#1F2144"/>
<path d="M92.4864 226.013H83.3942C81.9336 226.013 80.752 224.828 80.752 223.364V211.618H95.1122V223.364C95.1287 224.812 93.947 226.013 92.4864 226.013Z" fill="#1F2144"/>
<path d="M86.611 206.337C85.0026 205.827 83.2958 205.3 81.7039 204.741C81.31 204.543 80.752 204.642 80.5551 205.169C79.8822 207.044 79.6196 208.854 79.2093 210.812C79.0616 211.519 79.6688 211.864 80.1776 211.716C80.3417 211.815 86.0858 209.89 87.1526 207.291C87.3167 206.896 87.0049 206.468 86.611 206.337Z" fill="white"/>
</g>
<defs>
<clipPath id="clip0">
<rect width="280" height="315" fill="white" transform="translate(9)"/>
</clipPath>
</defs>
</svg>
