<svg width="383" height="347" viewBox="0 0 383 347" fill="none" xmlns="http://www.w3.org/2000/svg">
<g filter="url(#filter0_b)">
<ellipse cx="206" cy="173.5" rx="177" ry="173.5" fill="#FFF8F2"/>
</g>
<g clip-path="url(#clip0)">
<path d="M55.9837 244.97C55.9837 241.829 55.6431 238.807 55.0211 235.991V216.323H38.2852V216.338C37.8557 216.294 37.4262 216.235 36.9967 216.235C36.3746 216.235 35.7526 216.279 35.1454 216.367C32.3758 216.765 29.7839 218.063 27.5031 220.083C21.8307 225.037 18.0096 234.34 18.0096 244.97C18.0096 255.614 21.8307 264.917 27.5031 269.871C29.7247 271.817 32.2277 273.071 34.9084 273.513L34.8936 273.719H55.0211V253.963C55.6431 251.132 55.9837 248.125 55.9837 244.97Z" fill="#734E40"/>
<path d="M71.6829 244.97C71.6829 260.848 63.1817 273.719 52.681 273.719C49.2153 273.719 45.9718 272.319 43.1875 269.871C37.515 264.917 33.6939 255.614 33.6939 244.97C33.6939 234.325 37.515 225.037 43.1875 220.083C45.4683 218.063 48.0601 216.765 50.8297 216.367C51.4369 216.279 52.059 216.235 52.681 216.235C63.1817 216.235 71.6829 229.106 71.6829 244.97Z" fill="#543A30"/>
<path opacity="0.16" d="M91.1884 221.631C95.1872 222.678 99.5859 224.005 101.837 227.396C104.947 232.069 102.4 238.202 98.7713 242.286C92.0918 249.805 82.0799 254.096 71.7718 255.437C61.4785 256.779 50.8741 255.349 40.6845 252.798C31.6205 250.528 22.4231 247.166 15.8621 240.606C5.65762 230.403 2.13272 203.452 20.2312 202.995C30.3023 202.745 43.8539 209.202 53.7474 211.812C66.2326 215.085 78.7031 218.358 91.1884 221.631Z" fill="url(#paint0_linear)"/>
<path opacity="0.16" d="M69.9353 207.389C71.9792 208.465 65.0923 211.856 56.7243 209.055C49.4079 206.607 47.0975 201.624 49.8374 201.712C51.8665 201.786 54.3991 204.352 58.7386 205.531C61.4489 206.268 67.2102 205.959 69.9353 207.389Z" fill="url(#paint1_linear)"/>
<path d="M312.769 124.722C312.754 124.722 205.748 108.711 147.365 125.961C116.767 134.999 102.756 143.388 78.0222 154.342C58.6204 162.952 17.8915 186.836 3.30311 204.293C-4.39836 213.492 2.74031 242.994 11.0638 247.343C24.9265 254.582 115.878 261.291 169.033 259.079C187.739 258.298 346.907 259.02 372.47 248.847C381.86 245.117 381.919 237.775 382.467 230.683C383.978 211.089 385.829 137.933 312.769 124.722Z" fill="#CC4943"/>
<g opacity="0.16">
<g opacity="0.16">
<path opacity="0.16" d="M345.589 219.862C355.467 227.44 359.688 239.028 362.147 251.206C366.56 250.439 370.085 249.599 372.44 248.655C381.86 244.94 381.904 237.583 382.452 230.506C382.674 227.779 382.911 224.122 383 219.847H345.589V219.862Z" fill="url(#paint2_linear)"/>
</g>
<g opacity="0.16">
<path opacity="0.16" d="M345.589 219.862C355.467 227.44 359.688 239.028 362.147 251.206C366.56 250.439 370.085 249.599 372.44 248.655C381.86 244.94 381.904 237.583 382.452 230.506C382.674 227.779 382.911 224.122 383 219.847H345.589V219.862Z" fill="#CC4943"/>
</g>
</g>
<path d="M201.586 196.67C204.015 196.449 205.466 199.339 203.734 200.961C203.734 200.961 156.829 233.101 157.436 211.93C157.747 201.565 186.213 198.056 201.586 196.67Z" fill="#CFCFCF"/>
<path d="M184.865 208.318C178.704 212.814 171.402 217.09 163.508 212.844C161.672 211.856 159.939 210.529 158.428 208.981C163.093 201.477 184.273 198.366 198.357 196.965C193.929 200.798 189.649 204.838 184.865 208.318Z" fill="white"/>
<path d="M177.519 208.008C177.267 209.792 178.096 211.399 179.37 211.605C180.644 211.812 181.873 210.529 182.11 208.76C182.362 206.976 181.533 205.369 180.259 205.162C178.985 204.956 177.756 206.224 177.519 208.008Z" fill="white"/>
<path d="M163.019 210.072C162.294 212.976 163.908 215.91 166.603 216.618C169.299 217.326 172.083 215.542 172.794 212.637C173.52 209.733 171.906 206.799 169.21 206.091C166.515 205.384 163.745 207.168 163.019 210.072Z" fill="white"/>
<path d="M20.6163 196.906C17.9504 196.95 15.5955 197.909 15.0179 201.02C14.7513 202.435 14.8846 203.909 15.1956 205.325C15.6843 206.504 16.4249 207.551 17.2987 208.524C17.743 209.025 18.3206 209.423 18.9427 209.703C24.0523 211.885 28.1252 211.709 28.9398 206.209C29.3989 203.216 25.4001 197.481 20.6163 196.906Z" fill="#CFCFCF"/>
<path d="M20.5875 196.906C17.9364 196.95 15.5963 197.923 15.0187 201.02C14.7521 202.45 14.8854 203.924 15.2112 205.339C15.2112 205.354 15.2261 205.369 15.2261 205.384C17.8475 206.711 20.78 207.212 24.1272 206.106C25.6823 205.59 27.2078 204.794 28.5851 203.791C27.578 201.285 24.6752 197.275 20.5875 196.906Z" fill="white"/>
<path d="M24.8669 204.012C25.0298 206.357 23.3858 208.421 21.2087 208.598C19.0167 208.789 17.1062 207.035 16.9433 204.676C16.7803 202.332 18.4243 200.268 20.6015 200.091C22.7934 199.914 24.704 201.668 24.8669 204.012Z" fill="white"/>
<path d="M215.849 172.358C217.804 167.08 256.178 136.325 265.494 132.536C274.455 128.88 277.283 129.249 303.172 129.278C331.268 129.308 346.33 142.577 348.729 147.84C355.157 161.905 337.281 166.741 326.173 170.796C312.607 175.749 298.374 177.563 284.052 178.506C271.122 179.361 231.682 179.966 225.106 179.76C221.152 179.627 214.472 179.244 215.849 172.358Z" fill="url(#paint3_linear)"/>
<path d="M215.848 172.358C216.737 169.955 223.269 163.188 230.911 157.63C239.012 167.183 251.409 167.287 263.005 167.198C275.861 167.095 288.716 167.596 301.513 166.535C316.797 165.267 343.041 160.401 342.123 140.734C346.255 143.712 348.003 146.292 348.714 147.825C355.141 161.891 337.265 166.726 326.157 170.781C312.591 175.735 298.358 177.548 284.036 178.492C271.092 179.347 231.666 179.951 225.09 179.745C221.151 179.627 214.471 179.244 215.848 172.358Z" fill="#D4A9AE"/>
<path d="M231.814 156.878C243.663 152.646 251.379 156.671 264.057 158.721C271.966 160.003 281.207 160.549 289.249 158.057C290.701 157.6 292.167 157.217 293.678 156.996C301.083 155.919 308.503 154.18 316.471 153.177C327.283 151.821 339.087 151.452 348.891 157.866C348.891 157.88 348.891 157.895 348.906 157.91C345.322 164.603 334.066 167.906 326.172 170.781C312.606 175.735 298.373 177.548 284.051 178.492C271.107 179.347 231.681 179.951 225.105 179.745C221.136 179.612 214.471 179.229 215.849 172.358C216.678 170.117 224.868 162.009 231.814 156.878Z" fill="url(#paint4_linear)"/>
<path d="M238.82 247.329C238.82 244.395 238.494 241.564 237.916 238.925V220.525H222.261V220.54C221.862 220.496 221.462 220.452 221.062 220.452C220.469 220.452 219.907 220.496 219.329 220.584C216.737 220.953 214.323 222.177 212.175 224.064C206.873 228.708 203.304 237.392 203.304 247.344C203.304 257.295 206.873 265.994 212.175 270.638C214.249 272.466 216.604 273.631 219.107 274.044L219.092 274.236H237.916V255.747C238.494 253.093 238.82 250.263 238.82 247.329Z" fill="#734E40"/>
<path d="M253.497 247.329C253.497 262.175 245.544 274.221 235.739 274.221C232.495 274.221 229.474 272.908 226.868 270.623C221.565 265.979 217.996 257.28 217.996 247.329C217.996 237.377 221.565 228.693 226.868 224.049C229 222.162 231.429 220.953 234.021 220.569C234.599 220.481 235.161 220.437 235.754 220.437C245.544 220.451 253.497 232.482 253.497 247.329Z" fill="#543A30"/>
<path d="M247.721 247.329C247.721 255.998 243.663 263.03 238.672 263.03C237.028 263.03 235.472 262.264 234.14 260.922C231.429 258.209 229.607 253.137 229.607 247.329C229.607 241.52 231.429 236.448 234.14 233.735C235.235 232.629 236.465 231.922 237.783 231.715C238.079 231.671 238.36 231.642 238.672 231.642C243.663 231.642 247.721 238.659 247.721 247.329Z" fill="url(#paint5_linear)"/>
<path d="M354.83 247.329C354.83 244.395 354.505 241.564 353.927 238.925V220.525H338.272V220.54C337.872 220.496 337.472 220.452 337.073 220.452C336.48 220.452 335.917 220.496 335.34 220.584C332.748 220.953 330.334 222.177 328.186 224.064C322.884 228.708 319.315 237.392 319.315 247.344C319.315 257.295 322.884 265.994 328.186 270.638C330.26 272.466 332.615 273.631 335.118 274.044L335.103 274.236H353.927V255.747C354.505 253.093 354.83 250.263 354.83 247.329Z" fill="#734E40"/>
<path d="M369.508 247.329C369.508 262.175 361.554 274.221 351.75 274.221C348.506 274.221 345.485 272.908 342.878 270.623C337.576 265.979 334.007 257.28 334.007 247.329C334.007 237.377 337.576 228.693 342.878 224.049C345.011 222.162 347.44 220.953 350.032 220.569C350.609 220.481 351.172 220.437 351.765 220.437C361.554 220.451 369.508 232.482 369.508 247.329Z" fill="#543A30"/>
<path d="M363.732 247.329C363.732 255.998 359.673 263.03 354.682 263.03C353.038 263.03 351.483 262.264 350.15 260.922C347.44 258.209 345.618 253.137 345.618 247.329C345.618 241.52 347.44 236.448 350.15 233.735C351.246 232.629 352.476 231.922 353.794 231.715C354.09 231.671 354.371 231.642 354.682 231.642C359.673 231.642 363.732 238.659 363.732 247.329Z" fill="url(#paint6_linear)"/>
<path d="M306.237 250.174L317.686 248.479C317.686 248.479 316.219 221.94 333.503 219.375C350.802 216.81 342.33 214.392 342.33 214.392L322.825 213.743L310.192 222.899L306.237 250.174Z" fill="#CC4943"/>
<path opacity="0.16" d="M231.34 191.053C227.771 194.193 226.705 201.757 229.978 205.192C234.451 209.91 242.818 210.78 248.994 211.532C260.413 212.917 270.396 213.021 281.874 213.404C292.567 213.758 305.037 212.859 315.538 211.178C322.706 210.028 368.826 198.705 360.858 180.821C358.548 175.646 354.327 174.511 349.291 175.027C338.317 176.162 328.305 181.779 317.449 183.755C296.344 187.588 274.854 188.576 253.349 189.741C247.01 190.08 236.243 188.738 231.34 191.053Z" fill="url(#paint7_linear)"/>
<path d="M68.6764 168.54C128.17 131.74 177.771 114.977 245.958 126.02C248.328 126.403 248.906 129.499 246.847 130.708C216.352 148.68 202.845 172.358 173.283 177.843C161.346 180.054 148.979 179.509 136.76 178.949C113.478 177.887 92.9953 176.944 70.587 175.912C66.677 175.735 65.344 170.604 68.6764 168.54Z" fill="url(#paint8_linear)"/>
<path d="M124.749 164.589C142.003 163.38 161.864 167.198 176.142 155.846C187.19 147.059 192.774 134.365 200.416 122.732C205.289 122.614 209.45 122.629 214.753 122.821C210.813 130.974 208.636 139.982 207.288 149.108C192.152 161.787 179.592 173.449 159.983 177.091C148.046 179.302 135.679 178.757 123.461 178.197C104.666 177.342 87.6783 176.575 70.0538 175.764C68.4394 175.69 68.2765 173.39 69.8612 173.096C88.0486 169.749 106.443 165.871 124.749 164.589Z" fill="#D4A9AE"/>
<path d="M90.9218 155.551C92.9508 155.109 94.6689 154.077 96.2684 152.646C111.982 144.316 127.296 137.608 142.788 132.654C142.847 132.669 142.907 132.684 142.966 132.699C146.18 136.266 146.565 140.336 147.616 144.611C148.564 148.489 149.557 152.543 152.83 155.3C160.028 161.36 169.64 151.85 175.49 148.164C183.443 143.137 190.685 137.918 200.757 142.252C206.459 144.714 210.917 149.698 215.389 154.224C202.43 165.134 190.611 174.614 173.283 177.828C161.346 180.04 148.979 179.494 136.76 178.934C113.463 177.872 92.9656 176.929 70.5425 175.897C66.6325 175.72 65.2996 170.604 68.632 168.555C76.2001 163.896 83.6054 159.561 90.9218 155.551Z" fill="url(#paint9_linear)"/>
<path d="M90.3293 163.527C94.7133 163.365 93.0545 162.2 96.1943 161.08C105.421 157.792 106.073 156.067 113.034 160.711C115.093 162.082 116.796 163.896 118.899 165.237C128.17 171.105 140.152 169.424 150.623 170.456C164.115 171.798 177.326 172.801 190.685 171.887C185.413 174.57 179.74 176.634 173.283 177.843C161.346 180.054 148.979 179.509 136.76 178.949C113.449 177.887 92.936 176.944 70.4833 175.912C66.6029 175.735 65.2551 170.663 68.5579 168.628C72.3346 166.314 76.0668 164.073 79.7694 161.905C83.3832 162.746 87.1007 163.645 90.3293 163.527Z" fill="#D4A9AE"/>
<path opacity="0.53" d="M117.951 142.061C117.951 142.061 123.801 148.371 125.801 154.224C129.177 164.087 123.49 178.329 123.49 178.329L151.6 179.42C151.6 179.42 152.785 155.418 146.757 147.707C140.73 140.011 132.125 136.325 132.125 136.325L117.951 142.061Z" fill="white"/>
<path opacity="0.53" d="M142.803 132.654C142.803 132.654 157.051 141.692 162.649 149.373C171.032 160.888 172.409 177.976 172.409 177.976C182.717 176.118 189.856 172.299 189.856 172.299C189.856 172.299 184.791 157.866 167.329 142.547C158.295 134.615 149.127 130.679 149.127 130.679L142.803 132.654Z" fill="white"/>
<path opacity="0.91" d="M68.706 168.51C128.215 131.711 177.83 114.962 246.047 126.035C248.387 126.418 248.95 129.47 246.921 130.664C216.367 148.636 202.86 172.358 173.283 177.843C161.346 180.054 148.979 179.509 136.76 178.949C113.493 177.887 93.0249 176.944 70.6314 175.926C66.7066 175.735 65.3588 170.589 68.706 168.51Z" fill="#96615C"/>
<path d="M86.76 157.866C86.76 157.866 78.0218 162.76 79.8287 166.092C81.6356 169.41 162.856 172.668 162.856 172.668C162.856 172.668 188.879 172.609 198.372 167.685C209.406 161.964 203.793 168.982 203.793 168.982L162.856 185.657L107.658 187.456L75.2967 185.052L49.3635 177.489L76.4815 163.778L86.76 157.866Z" fill="#CC4943"/>
<path opacity="0.16" d="M179.814 176.811C148.535 175.764 118.647 174.791 87.7375 173.376C85.1457 172.919 76.6444 171.297 72.5715 168.997C67.7285 166.269 72.5715 161.684 72.5715 161.684L53.7622 171.651C47.3048 175.912 42.1655 180.025 39.3071 183.696C27.0884 199.427 37.1151 201.005 49.3634 202.98C93.4395 210.131 128.777 210.308 142.803 206.121C153.659 202.877 184.776 186.984 200.801 177.519L210.043 170.221C210.058 170.221 195.143 176.074 179.814 176.811Z" fill="url(#paint10_linear)"/>
<path d="M376.572 178.919C376.572 178.919 368.56 177.74 362.917 176.221C361.021 175.705 359.451 177.622 360.444 179.288C363.465 184.374 370.145 191.702 380.26 191.215C380.275 191.215 378.557 183.696 376.572 178.919Z" fill="#E69239"/>
<path d="M219.67 201.565C219.67 203.378 216.115 204.72 211.731 204.573C207.347 204.425 203.793 202.848 203.793 201.034C203.793 199.221 207.347 197.879 211.731 198.027C216.115 198.159 219.67 199.752 219.67 201.565Z" fill="#CC4943"/>
<path d="M189.071 258.828L209.687 258.637C209.687 258.637 205.822 237.878 217.981 225.243C223.905 219.095 233.073 220.451 233.073 220.451L226.394 210.042L207.377 219.095L192.64 241.579L189.071 258.828Z" fill="#CC4943"/>
<path d="M300.52 256.248L323.876 256.027C323.876 256.027 320.603 237.863 332.763 225.243C338.687 219.095 347.855 220.451 347.855 220.451L341.175 210.042L322.158 219.095L307.422 241.579L300.52 256.248Z" fill="#CC4943"/>
<path opacity="0.16" d="M211.85 222.398H125.06C90.5515 222.398 13.1962 211.974 7.46452 210.559C1.98462 209.202 5.67244 201.904 6.04271 201.211C5.0504 202.258 4.13215 203.29 3.30276 204.278C-4.39871 213.478 2.72515 242.979 11.0635 247.329C24.9261 254.568 115.878 261.276 169.018 259.079C172.78 258.917 182.273 258.828 195.203 258.681C197.172 245.265 202.282 231.686 211.85 222.398Z" fill="url(#paint11_linear)"/>
<path opacity="0.16" d="M46.2088 242.906L84.3607 245.781C89.263 246.149 93.8246 243.363 96.2832 239.382L98.2974 235.49C100.267 231.317 99.3934 225.567 95.2168 225.199L37.6928 220.392C34.1827 220.186 30.7318 224.314 31.7242 227.543L33.4866 233.293C35.3675 238.63 40.3587 242.404 46.2088 242.906Z" fill="url(#paint12_linear)"/>
<path d="M372.307 182.015C370.87 182.959 370.707 184.934 371.863 186.202C372.336 186.718 373.225 187.824 373.921 188.06C374.884 188.384 376.069 187.986 376.528 185.215C377.091 181.794 376.217 181.057 375.106 181.057C374.365 181.027 372.307 182.015 372.307 182.015Z" fill="#DF8C32"/>
<path d="M365.687 180.261C365.968 179.332 367.582 179.052 368.234 179.288C368.826 179.509 369.774 180.688 369.359 181.956C368.93 183.209 367.73 183.637 367.094 183.416C366.279 183.136 365.464 181.027 365.687 180.261Z" fill="#DF8C32"/>
<path opacity="0.24" d="M374.765 188.753C371.078 185.716 367.953 181.514 366.086 177.003C365.005 176.752 363.924 176.501 362.932 176.236C361.036 175.72 359.466 177.636 360.458 179.302C363.302 184.094 369.374 190.847 378.512 191.23C377.194 190.522 375.935 189.726 374.765 188.753Z" fill="white"/>
<path opacity="0.91" d="M215.849 172.358C216.959 167.036 256.711 136.296 265.493 132.536C274.394 128.718 277.283 129.249 303.171 129.278C331.267 129.308 346.329 142.577 348.728 147.84C355.156 161.905 337.28 166.741 326.172 170.796C312.606 175.749 298.373 177.563 284.051 178.506C271.121 179.361 231.681 179.966 225.105 179.76C221.151 179.627 214.471 179.244 215.849 172.358Z" fill="#96615C"/>
<path d="M224.972 162.51C224.972 162.51 217.655 168.437 219.67 171.813C222.765 177.003 279.386 175.44 287.398 174.909C295.411 174.378 314.427 173.155 322.247 171.061C340.909 166.092 345.826 161.684 345.826 161.684L342.893 177.99C342.893 177.99 235.769 188.93 235.724 188.724C235.68 188.517 202.43 179.435 202.43 179.435L217.966 166.078L224.972 162.51Z" fill="#CC4943"/>
<path d="M309.836 233.588L302.638 232.659C302.638 232.659 304.815 216.058 308.311 188.443C311.702 161.684 306.163 127.642 306.104 127.288L313.257 126.108C313.494 127.538 319.019 161.507 315.494 189.328C312.028 216.972 309.836 233.588 309.836 233.588Z" fill="#CC4943"/>
<path d="M278.245 106.765L279.726 103.536C279.726 103.536 279.874 103.212 280.926 103.035C281.977 102.858 287.502 102.652 288.775 102.711C290.049 102.769 290.982 102.976 291.456 103.374C291.945 103.757 293.263 105.187 293.263 105.187L292.671 109.389L290.819 111.424L285.532 109.861L278.245 106.942V106.765Z" fill="#DBD7D7"/>
<path d="M279.252 103.743C279.252 103.743 279.045 103.536 279.86 103.079C280.674 102.622 289.871 102.18 290.908 102.755C291.93 103.33 293.293 104.775 293.293 104.775L292.597 105.202C292.597 105.202 292.922 104.863 292.256 104.376C291.575 103.89 290.938 103.079 289.916 103.02C288.894 102.961 281.859 103.05 280.837 103.256C279.445 103.551 280.111 104.391 280.111 104.391L279.252 103.743Z" fill="#FAFAFA"/>
<path d="M268.455 187.426C268.455 187.426 284.243 186.365 296.906 187.426C309.584 188.488 319.033 184.183 319.033 184.183L306.045 153.546L274.735 171.208L268.455 187.426Z" fill="#CA8E20"/>
<path d="M273.639 111.424L277.564 107.93L294.566 107.694L296.906 107.959L302.594 131.416V160.682H279.223L272.928 110.318L273.639 111.424Z" fill="#FAFAFA"/>
<path d="M280.097 105.482C280.659 102.357 280.348 99.1131 280.334 95.9433C280.334 93.3042 281 90.7241 280.882 88.0703C280.822 86.8024 281.074 85.4755 280.926 84.2075C280.852 83.5441 280.511 82.9986 280.57 82.3204C280.615 81.7896 280.793 81.2883 281.015 80.7871C281.429 79.8582 281.622 79.0031 282.511 78.4134C283.799 77.5583 285.858 77.2044 287.339 76.9096C288.761 76.6294 290.301 76.7031 291.752 76.7031C293.145 76.7031 294.196 77.9268 294.463 79.239C294.759 80.6839 294.863 82.1582 294.996 83.6178C295.085 84.6056 295.055 85.505 295.366 86.4338C295.529 86.9056 296.744 88.203 296.892 88.6306C297.173 89.4562 296.018 90.0902 295.499 90.5325C294.818 91.1222 294.877 91.019 294.64 91.8889C294.374 92.8619 294.344 94.0414 294.64 94.8965C295.129 96.3561 294.566 97.2407 293.352 98.0958C292.937 98.3907 292.552 98.7445 292.078 98.9215C291.664 99.0689 291.175 99.0836 290.775 99.2163C290.02 99.467 290.212 99.865 290.405 100.691C290.997 103.271 291.723 105.748 292.478 108.284C292.73 109.109 292.982 109.64 292.078 109.846C290.745 110.156 291.027 110.009 290.508 111.262C290.034 112.397 288.672 115.891 288.524 116.348C287.991 113.842 286.791 110.834 284.925 109.05C284.081 108.239 283.266 107.266 282.185 106.765C281.696 106.544 281.148 106.514 280.748 106.19C280.393 105.925 280.052 105.482 280.097 105.482Z" fill="#FF8C66"/>
<path d="M290.597 113.798C290.805 114.977 293.248 112.117 294.137 111.144C294.137 111.144 295.233 109.95 294.922 108.623C294.196 106.957 293.204 103.477 292.685 104.878C291.515 108.033 289.368 108.151 289.457 108.873C289.649 110.377 289.797 110.303 290.597 113.798Z" fill="#FAFAFA"/>
<path d="M294.196 158.618C293.796 158.618 293.47 158.293 293.47 157.895C293.47 157.217 293.515 156.568 293.574 155.919C293.693 154.268 293.811 152.72 293.085 151.143C292.641 150.184 292.063 149.3 291.515 148.445C290.36 146.661 289.146 144.818 289.146 142.311C289.131 140.586 289.501 138.891 289.842 137.24C290.257 135.264 290.656 133.406 290.449 131.519C290.271 129.868 289.723 128.261 289.146 126.58C288.701 125.297 288.242 123.956 287.976 122.599C287.887 122.128 287.813 121.449 287.724 120.609C287.457 118.073 287.013 113.842 285.117 109.876C284.94 109.522 285.103 109.08 285.458 108.917C285.813 108.741 286.243 108.903 286.421 109.257C288.42 113.444 288.879 117.837 289.161 120.462C289.235 121.243 289.309 121.877 289.398 122.319C289.649 123.587 290.094 124.87 290.523 126.108C291.101 127.804 291.708 129.544 291.886 131.357C292.108 133.465 291.678 135.529 291.249 137.534C290.908 139.171 290.582 140.719 290.582 142.297C290.597 144.375 291.634 145.968 292.73 147.648C293.322 148.548 293.93 149.477 294.403 150.523C295.277 152.425 295.144 154.253 295.025 156.008C294.981 156.627 294.937 157.246 294.937 157.895C294.922 158.308 294.596 158.618 294.196 158.618Z" fill="url(#paint13_linear)"/>
<path d="M277.564 107.93C279.178 109.699 284.169 114.373 284.717 113.886C285.887 113.237 287.146 109.168 286.006 108.726C279.978 106.382 279.741 102.666 279.252 103.743C278.586 105.187 276.897 107.193 277.564 107.93Z" fill="#FAFAFA"/>
<path d="M316.96 260.878L319.433 273.749L325.402 274.972L324.306 263.517L316.96 260.878Z" fill="#FF8C66"/>
<path d="M275.061 265.109L276.053 275.488L281.237 276.565L281.977 262.367L275.061 265.109Z" fill="#FF8C66"/>
<path d="M275.624 157.556C275.15 164.22 271.788 188.075 271.803 194.606C271.817 202.553 272.365 214.333 271.803 222.162C271.225 230.079 271.729 238.453 271.729 246.414C271.714 255.054 272.484 258.283 273.002 266.701C273.002 266.701 279.771 266.716 283.296 267.026C283.296 267.026 285.695 257.089 286.45 248.272C287.857 232.025 291.649 212.269 293.915 196.11C295.011 188.311 294.107 184.124 295.544 175.764C298.95 188.016 302.238 199.221 305.141 211.428C307.97 223.371 310.088 233.204 311.302 245.382C311.939 251.722 315.894 267.026 315.894 267.026C319.655 267.542 325.106 266.097 328.557 265.802C326.779 256.307 325.476 219.685 323.24 211.06C320.781 201.609 320.722 189.107 317.523 179.701C315.76 174.526 314.635 169.469 313.509 164.205C313.065 162.112 312.65 159.959 312.383 157.718L275.624 157.556Z" fill="#57201E"/>
<path d="M280.778 76.2903C279.001 76.9243 277.697 78.7819 277.638 79.5928C277.549 80.6396 277.653 81.5095 277.194 82.512C276.809 83.3524 276.187 84.0011 275.653 84.7383C273.595 87.51 277.682 91.6972 279.075 94.1741C279.652 95.1914 280.97 95.501 282.17 95.1914C283.829 94.7638 284.925 92.051 285.043 90.5619C285.206 88.6748 284.658 86.1242 286.391 84.9152C288.005 83.7947 289.501 82.8069 289.294 80.6396C289.116 78.8114 287.887 77.2634 286.184 76.6884C284.466 76.1281 283.103 75.6858 280.778 76.2903Z" fill="#7D3226"/>
<path d="M281.933 77.9121C282.096 76.1576 282.333 75.1993 283.621 73.9461C285.206 72.3981 287.546 71.2186 289.131 72.6192C290.375 73.7397 291.738 73.9166 293.396 73.2827C295.144 72.6045 296.951 71.9852 298.269 73.9461C298.921 74.9044 299.158 76.8653 298.595 77.8236C300.328 77.5288 300.298 80.1826 299.765 81.1851C298.921 82.7479 296.773 83.2492 295.144 83.0133C293.737 82.8069 293.619 82.1877 292.908 81.1409C291.886 79.6076 291.441 80.0941 289.916 80.3742C287.413 80.8313 284.243 78.4281 281.933 77.9121Z" fill="#7D3226"/>
<path opacity="0.38" d="M295.529 175.749L294.64 184.684C294.64 184.684 294.655 190.139 294.167 193.928C293.678 197.717 290.331 219.065 290.331 219.065L291.323 184.389C291.427 181.042 292.952 177.902 295.529 175.749Z" fill="url(#paint14_linear)"/>
<path d="M276.646 107.826C276.646 107.826 278.067 113.164 278.423 114.903C279.519 120.388 283.103 125.283 283.162 131.003C283.192 133.495 283.34 136.119 282.97 138.552C282.585 141.132 281.829 143.697 282.096 146.395C282.629 151.644 285.532 156.2 285.517 161.64C285.502 168.363 285.695 175.248 285.058 181.912C284.969 182.782 284.999 185.052 284.51 185.731C283.873 186.615 281.607 186.807 280.63 187.028C277.594 187.706 276.053 187.78 272.913 187.618C269.122 187.411 266.708 187.972 266.663 185.495C266.604 182.119 266.545 178.123 266.545 174.732C266.545 168.024 267.671 159.885 267.967 153.192C268.53 140.572 271.373 127.524 269.551 115.051C269.389 113.974 268.781 112.014 268.87 110.908C268.87 110.893 273.846 107.62 276.646 107.826Z" fill="#DBA035"/>
<path d="M280.082 133.878C280.052 133.878 280.008 133.878 279.978 133.878C278.393 133.642 277.312 133.156 275.994 132.035C275.683 131.77 275.653 131.327 275.92 131.018C276.187 130.708 276.631 130.679 276.942 130.944C278.053 131.888 278.867 132.271 280.2 132.463C280.6 132.522 280.867 132.89 280.807 133.274C280.748 133.627 280.437 133.878 280.082 133.878Z" fill="url(#paint15_linear)"/>
<path d="M279.163 139.54C278.245 139.54 277.238 139.156 276.468 138.507C276.157 138.242 276.127 137.8 276.394 137.49C276.66 137.181 277.105 137.151 277.416 137.416C277.993 137.903 278.778 138.168 279.386 138.095C279.771 138.05 280.141 138.331 280.2 138.714C280.245 139.112 279.963 139.466 279.578 139.525C279.445 139.54 279.312 139.54 279.163 139.54Z" fill="url(#paint16_linear)"/>
<path d="M272.158 143.992C272.41 145.584 272.884 147.383 273.698 148.769C274.928 150.877 275.979 158.028 276.527 159.944C277.09 161.92 277.031 163.969 277.742 165.857C278.897 168.894 278.616 170.339 278.616 170.339C276.231 173.331 270.114 174.083 270.114 174.083C268.115 170.663 264.96 166.992 263.627 163.055C262.161 158.691 261.08 154.224 259.776 149.86C258.695 146.189 257.125 144.036 258.562 140.277C259.777 137.077 260.384 134.261 260.858 130.9C261.791 124.265 266.486 117.454 268.663 111.262C268.663 111.262 270.662 110.2 273.002 109.404L272.158 143.992Z" fill="#DBA035"/>
<path opacity="0.48" d="M273.002 163.719C271.166 161.153 270.751 157.217 269.848 154.253C268.752 150.671 268.026 146.941 266.693 143.432C264.353 137.313 265.671 130.915 267.508 124.781C268.663 120.904 269.226 117.336 269.403 113.296C269.448 112.426 269.522 111.586 269.655 110.76C269.048 111.055 268.663 111.247 268.663 111.247C266.486 117.439 261.791 124.251 260.858 130.885C260.384 134.247 259.776 137.063 258.562 140.262C257.125 144.022 258.695 146.174 259.776 149.845C261.08 154.209 262.146 158.691 263.627 163.041C264.96 166.977 268.115 170.663 270.114 174.069C270.114 174.069 276.246 173.317 278.615 170.324C278.615 170.324 278.867 168.938 277.816 166.048C275.935 165.974 274.217 165.399 273.002 163.719Z" fill="url(#paint17_linear)"/>
<path d="M270.647 174.924C270.381 174.924 270.129 174.776 270.011 174.54C269.833 174.187 269.966 173.744 270.322 173.567C271.21 173.11 272.484 172.521 273.832 171.887C275.89 170.928 278.23 169.822 279.608 169.041C279.948 168.835 280.393 168.953 280.6 169.306C280.807 169.646 280.689 170.088 280.334 170.294C278.912 171.12 276.542 172.226 274.454 173.199C273.121 173.818 271.862 174.408 270.988 174.865C270.87 174.894 270.751 174.924 270.647 174.924Z" fill="url(#paint18_linear)"/>
<path opacity="0.48" d="M272.158 143.992C272.41 145.584 272.884 147.383 273.698 148.769C274.928 150.877 275.979 158.028 276.527 159.944C277.09 161.92 277.031 163.969 277.742 165.857C278.897 168.894 278.616 170.339 278.616 170.339C276.231 173.331 270.114 174.083 270.114 174.083C268.115 170.663 264.96 166.992 263.627 163.055C262.161 158.691 261.08 154.224 259.776 149.86C258.695 146.189 257.125 144.036 258.562 140.277C259.777 137.077 260.384 134.261 260.858 130.9C261.791 124.265 266.486 117.454 268.663 111.262C268.663 111.262 270.662 110.2 273.002 109.404L272.158 143.992Z" fill="url(#paint19_linear)"/>
<path d="M276.379 181.75C276.261 181.75 276.142 181.72 276.038 181.661C275.683 181.47 275.564 181.028 275.742 180.688C276.187 179.878 276.853 179.229 277.505 178.61C277.875 178.256 278.245 177.902 278.541 177.533C278.838 177.165 279.089 176.781 279.356 176.398C279.608 176.015 279.86 175.646 280.156 175.278C280.408 174.968 280.852 174.909 281.178 175.16C281.489 175.41 281.548 175.853 281.296 176.177C281.03 176.516 280.793 176.855 280.57 177.209C280.289 177.637 280.008 178.049 279.682 178.447C279.326 178.875 278.926 179.273 278.527 179.656C277.934 180.231 277.371 180.777 277.031 181.396C276.883 181.603 276.631 181.75 276.379 181.75Z" fill="url(#paint20_linear)"/>
<path d="M279.001 185.613C278.882 185.613 278.749 185.583 278.63 185.509C278.29 185.303 278.171 184.861 278.379 184.522C278.986 183.49 279.697 182.517 280.378 181.573C281.089 180.585 281.829 179.568 282.451 178.492C282.644 178.153 283.088 178.035 283.444 178.226C283.784 178.418 283.918 178.86 283.71 179.214C283.059 180.349 282.303 181.396 281.563 182.413C280.896 183.327 280.215 184.286 279.637 185.259C279.489 185.495 279.238 185.613 279.001 185.613Z" fill="url(#paint21_linear)"/>
<path opacity="0.48" d="M322.603 140.174C321.551 143.594 320.337 148.091 317.375 150.479C314.516 152.779 312.235 150.538 310.473 147.604C310.665 149.86 310.932 152.175 311.021 153.531C311.347 157.969 317.064 157.998 318.16 157.556C320.381 156.686 322.736 152.293 323.432 151.113C324.928 148.636 325.891 143.314 325.876 140.424C325.861 138.508 326.276 134.306 326.72 130.428C325.032 133.524 323.654 136.783 322.603 140.174Z" fill="url(#paint22_linear)"/>
<path d="M306.104 110.687C307.881 111.94 309.11 113.193 310.236 114.623C311.732 116.51 312.946 118.825 314.087 120.889C315.123 122.747 315.109 124.855 316.027 126.742C317.049 128.836 320.426 134.306 320.426 137.903C320.426 137.903 323.773 147 323.432 149.359C323.106 151.718 319.122 157.571 316.353 156.568C313.583 155.566 309.288 154.312 309.288 154.312L299.943 125.622L306.104 110.687Z" fill="url(#paint23_linear)"/>
<path d="M297.736 111.394C298.417 114.933 297.706 118.53 298.373 122.142C298.847 124.737 299.706 126.963 300.52 129.455C301.364 132.02 301.276 134.6 301.276 137.299C301.276 142.695 300.505 147.899 300.565 153.295C300.624 158.514 304.312 162.893 305.437 167.935C306.133 171.09 305.941 174.319 305.941 177.563C305.941 179.686 305.674 183.386 306.83 185.215C308.014 186.35 312.398 184.153 315.035 184.168C315.805 184.168 319.389 184.463 319.952 183.873C320.574 183.224 319.833 181.263 319.715 180.423C318.722 173.538 317.301 166.505 316.19 159.635C315.035 152.44 313.154 145.23 311.643 138.109C310.34 131.947 310.191 125.872 309.525 119.665C309.244 117.056 308.651 113.016 306.667 111.114C305.304 109.802 298.654 107.325 296.921 108.387L297.736 111.394Z" fill="#DBA035"/>
<path d="M316.19 170.383C316.116 170.383 316.042 170.368 315.968 170.353C315.538 170.206 315.094 170.088 314.664 169.97C313.983 169.778 313.272 169.587 312.561 169.306C312.028 169.085 311.421 168.982 310.769 168.864C309.703 168.673 308.592 168.466 307.659 167.758C307.333 167.523 307.274 167.065 307.511 166.756C307.748 166.432 308.207 166.373 308.518 166.608C309.184 167.11 310.073 167.272 311.021 167.449C311.717 167.581 312.428 167.699 313.094 167.98C313.716 168.23 314.368 168.407 315.035 168.599C315.494 168.731 315.953 168.849 316.412 168.997C316.797 169.115 317.004 169.528 316.871 169.911C316.767 170.191 316.486 170.383 316.19 170.383Z" fill="url(#paint24_linear)"/>
<path d="M318.944 98.0368C319.404 95.8106 326.187 97.226 326.824 98.0368C327.461 98.8477 325.728 108.844 323.477 110.421C322.247 111.291 318.322 110.672 317.004 109.832C315.953 109.168 318.944 98.0368 318.944 98.0368Z" fill="#7D3226"/>
<path d="M326.394 114.8C326.305 111.837 327.846 108.254 327.446 105.187C327.135 102.799 323.876 98.1105 323.758 100.145C323.758 101.384 325.698 102.003 325.165 105.187C324.972 106.323 323.506 109.021 323.106 110.112C322.721 111.188 321.803 111.955 321.877 113.164L326.394 114.8Z" fill="#FF8C66"/>
<path d="M325.905 107.104C325.683 106.323 325.668 105.512 325.402 104.745C325.18 104.126 324.809 103.551 324.528 102.946C324.187 102.224 323.388 100.853 322.41 100.882C321.788 101.089 322.825 102.106 323.225 102.799C323.536 103.33 323.862 103.654 324.113 104.2C324.454 104.907 325.209 105.88 324.676 105.925C323.906 105.689 323.595 104.598 323.166 103.964C322.899 103.566 321.299 101.531 321.003 102.593C320.825 103.241 321.744 104.111 322.07 104.539C322.647 105.305 323.003 106.205 323.417 107.06C323.758 107.768 324.75 109.773 325.891 109.257V107.104H325.905Z" fill="#FF8C66"/>
<path d="M319.715 115.862C319.685 114.785 320.248 112.928 320.9 112.058C321.492 111.262 322.469 111.955 323.225 112.308C324.232 112.795 326.764 113.075 326.957 114.358C327.09 115.316 326.794 116.407 326.646 117.351C326.572 117.852 326.572 118.442 326.409 118.899C325.12 119.09 323.832 118.501 322.618 118.029C322.07 117.808 321.492 117.557 321.003 117.233C320.574 116.967 320.159 116.437 319.715 115.862Z" fill="white"/>
<path d="M319.344 114.122C321.522 113.768 326.291 115.464 328.512 115.464C328.66 118.221 327.934 120.904 327.564 123.617C327.061 127.199 325.861 137.151 325.876 140.424C325.891 143.314 324.928 148.636 323.432 151.113C322.736 152.278 320.381 156.671 318.16 157.556C317.064 157.984 311.347 157.969 311.021 153.531C310.814 150.671 309.895 143.447 310.31 141.751C310.754 139.908 311.347 135.854 311.954 133.495C312.428 131.667 315.109 126.403 315.612 124.575C316.175 122.585 318.648 115.508 319.344 114.122Z" fill="#DBA035"/>
<path opacity="0.48" d="M319.344 114.122C321.522 113.768 326.291 115.464 328.512 115.464C328.66 118.221 327.934 120.904 327.564 123.617C327.061 127.199 325.861 137.151 325.876 140.424C325.891 143.314 324.928 148.636 323.432 151.113C322.736 152.278 320.381 156.671 318.16 157.556C317.064 157.984 311.347 157.969 311.021 153.531C310.814 150.671 309.895 143.447 310.31 141.751C310.754 139.908 311.347 135.854 311.954 133.495C312.428 131.667 315.109 126.403 315.612 124.575C316.175 122.585 318.648 115.508 319.344 114.122Z" fill="url(#paint25_linear)"/>
<path d="M283.399 279.867L274.706 280C274.706 280 271.877 280.147 272.499 278.555C273.106 276.963 273.358 274.383 275.905 273.852C278.453 273.321 282.659 273.867 283.429 275.592C284.717 278.452 285.399 279.823 283.399 279.867Z" fill="#231F20"/>
<path d="M335.917 276.638C334.244 274.619 327.224 274.633 325.683 273.719C325.639 273.69 322.825 272.982 321.418 272.923C320.174 272.864 318.767 272.923 318.559 274.884C318.397 277.154 318.397 279.322 319.67 279.528L335.369 279.602C335.784 279.41 337.413 278.452 335.917 276.638Z" fill="#231F20"/>
<path d="M290.775 99.2311C290.775 99.2311 289.072 99.408 288.079 99.2311C287.087 99.0541 287.087 99.0541 287.087 99.0541L291.353 104.435C291.353 104.435 290.345 100.661 290.257 100.057C290.153 99.4375 290.775 99.2311 290.775 99.2311Z" fill="#F7754A"/>
</g>
<g clip-path="url(#clip1)">
<path d="M100.123 94C84.0809 94 71 106.97 71 123.122C71 139.03 84.0809 152.245 100.123 152.245C116.166 152.245 129.247 139.274 129.247 123.122C129 106.97 116.166 94 100.123 94Z" fill="#07B0DE"/>
</g>
<g clip-path="url(#clip2)" filter="url(#filter1_b)">
<path d="M289.136 25.9164C282.972 32.0326 283.013 41.9646 289.322 48.1223C295.536 54.1867 305.725 54.2378 311.889 48.1215C318.053 42.0053 318.013 32.0733 311.703 25.9156C305.299 19.8519 295.301 19.8001 289.136 25.9164Z" fill="url(#paint26_linear)"/>
</g>
<defs>
<filter id="filter0_b" x="5" y="-24" width="402" height="395" filterUnits="userSpaceOnUse" color-interpolation-filters="sRGB">
<feFlood flood-opacity="0" result="BackgroundImageFix"/>
<feGaussianBlur in="BackgroundImage" stdDeviation="12"/>
<feComposite in2="SourceAlpha" operator="in" result="effect1_backgroundBlur"/>
<feBlend mode="normal" in="SourceGraphic" in2="effect1_backgroundBlur" result="shape"/>
</filter>
<filter id="filter1_b" x="253.946" y="-9.0929" width="92.9433" height="92.2245" filterUnits="userSpaceOnUse" color-interpolation-filters="sRGB">
<feFlood flood-opacity="0" result="BackgroundImageFix"/>
<feGaussianBlur in="BackgroundImage" stdDeviation="12"/>
<feComposite in2="SourceAlpha" operator="in" result="effect1_backgroundBlur"/>
<feBlend mode="normal" in="SourceGraphic" in2="effect1_backgroundBlur" result="shape"/>
</filter>
<linearGradient id="paint0_linear" x1="51.4362" y1="252.082" x2="36.9061" y2="333.316" gradientUnits="userSpaceOnUse">
<stop offset="0.0480508" stop-color="#710600"/>
<stop offset="0.1473" stop-color="#89120D"/>
<stop offset="0.3364" stop-color="#B52626"/>
<stop offset="0.4349" stop-color="#CD6C6C"/>
<stop offset="0.5327" stop-color="#E2ABAB"/>
<stop offset="0.6148" stop-color="#F2D9D9"/>
<stop offset="0.6779" stop-color="#FBF5F5"/>
<stop offset="0.7145" stop-color="white"/>
<stop offset="0.7416" stop-color="white"/>
<stop offset="0.8039" stop-color="white"/>
</linearGradient>
<linearGradient id="paint1_linear" x1="58.9236" y1="209.289" x2="56.9564" y2="220.288" gradientUnits="userSpaceOnUse">
<stop offset="0.0480508" stop-color="#710600"/>
<stop offset="0.1473" stop-color="#89120D"/>
<stop offset="0.3364" stop-color="#B52626"/>
<stop offset="0.4349" stop-color="#CD6C6C"/>
<stop offset="0.5327" stop-color="#E2ABAB"/>
<stop offset="0.6148" stop-color="#F2D9D9"/>
<stop offset="0.6779" stop-color="#FBF5F5"/>
<stop offset="0.7145" stop-color="white"/>
<stop offset="0.7416" stop-color="white"/>
<stop offset="0.8039" stop-color="white"/>
</linearGradient>
<linearGradient id="paint2_linear" x1="391.218" y1="254.936" x2="341.516" y2="202.758" gradientUnits="userSpaceOnUse">
<stop offset="0.1473" stop-color="#80240B"/>
<stop offset="0.319" stop-color="#A1331B"/>
<stop offset="0.3794" stop-color="#AC3A20"/>
<stop offset="0.4718" stop-color="#C87E6C"/>
<stop offset="0.5567" stop-color="#E0B5AB"/>
<stop offset="0.628" stop-color="#F1DDD9"/>
<stop offset="0.6828" stop-color="#FBF6F5"/>
<stop offset="0.7145" stop-color="white"/>
<stop offset="0.7416" stop-color="white"/>
<stop offset="0.8039" stop-color="white"/>
</linearGradient>
<linearGradient id="paint3_linear" x1="216.465" y1="151.096" x2="350.005" y2="155.764" gradientUnits="userSpaceOnUse">
<stop offset="0.8649" stop-color="#E8E7E1"/>
<stop offset="1" stop-color="#E3E2DC"/>
</linearGradient>
<linearGradient id="paint4_linear" x1="350.515" y1="166.041" x2="215.544" y2="170.747" gradientUnits="userSpaceOnUse">
<stop offset="0.8649" stop-color="#C4C3BE"/>
<stop offset="1" stop-color="#C4C3BE"/>
</linearGradient>
<linearGradient id="paint5_linear" x1="229.601" y1="247.015" x2="247.721" y2="247.654" gradientUnits="userSpaceOnUse">
<stop offset="0.8649" stop-color="#E5E5E5"/>
<stop offset="1" stop-color="#E0E0E0"/>
</linearGradient>
<linearGradient id="paint6_linear" x1="345.616" y1="247.015" x2="363.736" y2="247.654" gradientUnits="userSpaceOnUse">
<stop offset="0.8649" stop-color="#E5E5E5"/>
<stop offset="1" stop-color="#E0E0E0"/>
</linearGradient>
<linearGradient id="paint7_linear" x1="191.699" y1="233.813" x2="351.65" y2="168.248" gradientUnits="userSpaceOnUse">
<stop offset="0.0480508" stop-color="#681900"/>
<stop offset="0.1473" stop-color="#80240B"/>
<stop offset="0.3794" stop-color="#AC3A20"/>
<stop offset="0.4286" stop-color="#AD3D24"/>
<stop offset="0.4774" stop-color="#B24830"/>
<stop offset="0.526" stop-color="#B95A44"/>
<stop offset="0.5746" stop-color="#C47260"/>
<stop offset="0.6231" stop-color="#D19284"/>
<stop offset="0.6716" stop-color="#E2B9B0"/>
<stop offset="0.7191" stop-color="#F5E6E3"/>
<stop offset="0.7425" stop-color="white"/>
</linearGradient>
<linearGradient id="paint8_linear" x1="65.3773" y1="160.141" x2="249.301" y2="138.595" gradientUnits="userSpaceOnUse">
<stop offset="0.8649" stop-color="#E8E7E1"/>
<stop offset="1" stop-color="#E3E2DC"/>
</linearGradient>
<linearGradient id="paint9_linear" x1="213.979" y1="146.767" x2="67.16" y2="174.456" gradientUnits="userSpaceOnUse">
<stop offset="0.8649" stop-color="#C4C3BE"/>
<stop offset="1" stop-color="#C4C3BE"/>
</linearGradient>
<linearGradient id="paint10_linear" x1="68.1112" y1="231.966" x2="258.037" y2="45.004" gradientUnits="userSpaceOnUse">
<stop offset="0.0480508" stop-color="#411000"/>
<stop offset="0.1473" stop-color="#591908"/>
<stop offset="0.3364" stop-color="#852D19"/>
<stop offset="0.3417" stop-color="#87311D"/>
<stop offset="0.447" stop-color="#B1796C"/>
<stop offset="0.5406" stop-color="#D3B3AB"/>
<stop offset="0.6191" stop-color="#EBDCD9"/>
<stop offset="0.6795" stop-color="#F9F6F5"/>
<stop offset="0.7145" stop-color="white"/>
<stop offset="0.7416" stop-color="white"/>
<stop offset="0.8039" stop-color="white"/>
</linearGradient>
<linearGradient id="paint11_linear" x1="210.782" y1="338.469" x2="0.468406" y2="117.681" gradientUnits="userSpaceOnUse">
<stop offset="0.1473" stop-color="#80240B"/>
<stop offset="0.319" stop-color="#A1331B"/>
<stop offset="0.3794" stop-color="#AC3A20"/>
<stop offset="0.4718" stop-color="#C87E6C"/>
<stop offset="0.5567" stop-color="#E0B5AB"/>
<stop offset="0.628" stop-color="#F1DDD9"/>
<stop offset="0.6828" stop-color="#FBF6F5"/>
<stop offset="0.7145" stop-color="white"/>
<stop offset="0.7416" stop-color="white"/>
<stop offset="0.8039" stop-color="white"/>
</linearGradient>
<linearGradient id="paint12_linear" x1="101.573" y1="266.619" x2="30.4787" y2="195.198" gradientUnits="userSpaceOnUse">
<stop offset="0.1473" stop-color="#591908"/>
<stop offset="0.319" stop-color="#7A2715"/>
<stop offset="0.3794" stop-color="#852D19"/>
<stop offset="0.3841" stop-color="#87311D"/>
<stop offset="0.4774" stop-color="#B1796C"/>
<stop offset="0.5604" stop-color="#D3B3AB"/>
<stop offset="0.63" stop-color="#EBDCD9"/>
<stop offset="0.6835" stop-color="#F9F6F5"/>
<stop offset="0.7145" stop-color="white"/>
<stop offset="0.7416" stop-color="white"/>
<stop offset="0.8039" stop-color="white"/>
</linearGradient>
<linearGradient id="paint13_linear" x1="287.279" y1="108.678" x2="293.35" y2="158.731" gradientUnits="userSpaceOnUse">
<stop offset="0.0198569" stop-color="#E8E8E8"/>
<stop offset="1" stop-color="#E8E8E8"/>
</linearGradient>
<linearGradient id="paint14_linear" x1="292.006" y1="189.821" x2="294.619" y2="211.361" gradientUnits="userSpaceOnUse">
<stop offset="0.0198569" stop-color="#CF3F32"/>
<stop offset="0.1701" stop-color="#CD3C2F"/>
<stop offset="1" stop-color="#C42F21"/>
</linearGradient>
<linearGradient id="paint15_linear" x1="278.057" y1="130.559" x2="278.484" y2="134.08" gradientUnits="userSpaceOnUse">
<stop offset="0.0198569" stop-color="#D79113"/>
<stop offset="1" stop-color="#D79113"/>
</linearGradient>
<linearGradient id="paint16_linear" x1="278.055" y1="137.104" x2="278.366" y2="139.666" gradientUnits="userSpaceOnUse">
<stop offset="0.0198569" stop-color="#D79113"/>
<stop offset="1" stop-color="#D79113"/>
</linearGradient>
<linearGradient id="paint17_linear" x1="261.697" y1="102.527" x2="268.223" y2="156.338" gradientUnits="userSpaceOnUse">
<stop offset="0.0198569" stop-color="#DBA035"/>
<stop offset="0.1701" stop-color="#DA9E32"/>
<stop offset="1" stop-color="#D39424"/>
</linearGradient>
<linearGradient id="paint18_linear" x1="275.009" y1="169.527" x2="275.591" y2="174.33" gradientUnits="userSpaceOnUse">
<stop offset="0.0198569" stop-color="#D79113"/>
<stop offset="1" stop-color="#D79113"/>
</linearGradient>
<linearGradient id="paint19_linear" x1="262.541" y1="102.424" x2="269.067" y2="156.235" gradientUnits="userSpaceOnUse">
<stop offset="0.0198569" stop-color="#DBA035"/>
<stop offset="0.1701" stop-color="#DA9E32"/>
<stop offset="1" stop-color="#D39424"/>
</linearGradient>
<linearGradient id="paint20_linear" x1="278.168" y1="175.291" x2="278.914" y2="181.44" gradientUnits="userSpaceOnUse">
<stop offset="0.0198569" stop-color="#D79113"/>
<stop offset="1" stop-color="#D79113"/>
</linearGradient>
<linearGradient id="paint21_linear" x1="280.611" y1="178.433" x2="281.447" y2="185.325" gradientUnits="userSpaceOnUse">
<stop offset="0.0198569" stop-color="#D79113"/>
<stop offset="1" stop-color="#D79113"/>
</linearGradient>
<linearGradient id="paint22_linear" x1="317.185" y1="128.238" x2="319.837" y2="150.108" gradientUnits="userSpaceOnUse">
<stop offset="0.0198569" stop-color="#3268CF"/>
<stop offset="0.1701" stop-color="#2F65CD"/>
<stop offset="1" stop-color="#215AC4"/>
</linearGradient>
<linearGradient id="paint23_linear" x1="308.167" y1="108.307" x2="312.298" y2="142.371" gradientUnits="userSpaceOnUse">
<stop offset="0.0198569" stop-color="#DBA035"/>
<stop offset="0.5131" stop-color="#D59829"/>
<stop offset="1" stop-color="#D39424"/>
</linearGradient>
<linearGradient id="paint24_linear" x1="311.829" y1="165.981" x2="312.418" y2="170.839" gradientUnits="userSpaceOnUse">
<stop offset="0.0198569" stop-color="#D79113"/>
<stop offset="1" stop-color="#D79113"/>
</linearGradient>
<linearGradient id="paint25_linear" x1="316.632" y1="108.901" x2="321.03" y2="145.158" gradientUnits="userSpaceOnUse">
<stop offset="0.0198569" stop-color="#DBA035"/>
<stop offset="0.1701" stop-color="#DA9E32"/>
<stop offset="1" stop-color="#D39424"/>
</linearGradient>
<linearGradient id="paint26_linear" x1="289.136" y1="25.9164" x2="311.526" y2="48.4818" gradientUnits="userSpaceOnUse">
<stop stop-color="#05AFE4"/>
<stop offset="1" stop-color="#56D347"/>
</linearGradient>
<clipPath id="clip0">
<rect width="383" height="208" fill="white" transform="translate(0 72)"/>
</clipPath>
<clipPath id="clip1">
<rect width="58" height="58" fill="white" transform="translate(71 94)"/>
</clipPath>
<clipPath id="clip2">
<rect width="31.395" height="31.6587" fill="white" transform="matrix(0.709868 -0.704335 0.715664 0.698444 277.946 37.0197)"/>
</clipPath>
</defs>
</svg>
