<svg width="419" height="367" viewBox="0 0 419 367" fill="none" xmlns="http://www.w3.org/2000/svg">
<g filter="url(#filter0_b)">
<ellipse cx="222" cy="173.5" rx="177" ry="173.5" fill="#FFF2E6"/>
</g>
<g clip-path="url(#clip0)" filter="url(#filter1_b)">
<path d="M55.1906 22.0092C49.0263 28.1254 49.0668 38.0574 55.3763 44.2151C61.5902 50.2796 71.7789 50.3306 77.9432 44.2143C84.1075 38.0981 84.067 28.1661 77.7575 22.0084C71.3531 15.9448 61.3549 15.8929 55.1906 22.0092Z" fill="#F9EB34"/>
</g>
<g clip-path="url(#clip1)">
<path d="M382.581 118.576C381.552 107.345 380.612 96.137 379.74 84.9062C379.672 84.0319 378.666 83.0007 377.547 83.4267C333.343 99.6565 284.374 91.8778 238 93.5367C212.587 94.4558 223.862 94.7248 198.628 97.3475C173.26 99.9703 147.914 101.808 122.389 102.414C93.5758 103.086 64.7178 103.355 35.9045 103.781C35.3676 103.781 34.9202 103.916 34.5847 104.162C34.2939 104.386 34.0702 104.745 33.9807 105.193C29.35 124.943 33.8912 144.849 36.0611 164.576C38.3206 185.222 38.5666 206.025 39.3496 226.738L40.6695 262.358C40.6918 263.165 41.4301 263.927 42.392 263.905C93.3297 262.201 144.267 260.498 195.093 257.023C245.539 253.571 259.028 249.827 309.25 244.469C337.526 241.466 365.915 239.022 394.392 238.238C395.242 238.215 396.249 237.543 396.115 236.691C390.701 197.394 386.182 158.03 382.581 118.576Z" fill="#F9EB34"/>
<path d="M179.165 68.923C162.723 69.9093 155.676 71.075 140.084 76.4775C133.328 78.8088 127.243 81.5885 122.747 87.3721C118.519 92.8194 114.045 99.9031 112.882 106.808C112.658 108.153 114.515 108.78 115.007 107.727C118.183 107.054 125.7 110.484 128.362 108.489C130.867 106.628 128.63 107.211 129.525 104.252C133.172 92.102 141.516 88.1343 147.735 84.3458C153.82 80.647 160.352 77.7328 167.152 75.6929C174.468 73.496 172.745 74.1686 179.747 71.075C180.821 70.6267 180.284 68.8558 179.165 68.923Z" fill="#F79884"/>
<path d="M63.4427 186.5C54.7182 183.563 45.9937 180.671 37.2692 177.802C37.3363 178.833 37.4258 179.864 37.4929 180.918C64.606 189.862 91.6296 199.053 118.564 208.49C159.323 222.748 199.881 237.588 240.215 252.965C242.295 252.719 244.331 252.472 246.344 252.226C228.067 245.232 209.724 238.35 191.357 231.58C148.943 215.933 106.282 200.914 63.4427 186.5ZM59.0581 103.49C50.3783 115.348 41.6314 127.162 32.8622 138.953C32.9964 140.343 33.1754 141.733 33.332 143.123C43.175 129.942 52.9509 116.716 62.6597 103.445C61.4517 103.467 60.2661 103.467 59.0581 103.49ZM41.7209 103.736C38.4772 107.906 35.323 112.143 32.2582 116.447C32.124 118.24 32.0345 120.034 31.9897 121.827C36.2625 115.64 40.7366 109.587 45.3897 103.692C44.1817 103.692 42.9513 103.714 41.7209 103.736ZM396.025 236.713C395.958 236.265 395.913 235.817 395.846 235.368C368.577 226.245 341.24 217.39 313.814 208.759C313.366 204.523 312.941 200.286 312.471 196.027C327.572 200.779 342.627 205.576 357.682 210.463C369.829 214.409 381.977 218.421 394.101 222.479C393.967 221.425 393.833 220.349 393.699 219.295C366.608 210.239 339.406 201.452 312.158 192.888C311.756 189.145 311.353 185.424 310.95 181.68C326.117 186.455 341.262 191.274 356.385 196.206C368.353 200.107 380.299 204.052 392.245 208.042C392.11 206.989 391.976 205.935 391.842 204.881C364.841 195.87 337.772 187.105 310.615 178.586C310.234 175.224 309.854 171.839 309.474 168.476C325.558 173.52 341.62 178.654 357.66 183.854C368.644 187.419 379.605 191.028 390.567 194.682C390.433 193.628 390.276 192.574 390.142 191.498C363.208 182.532 336.207 173.812 309.138 165.316C308.892 163.186 308.668 161.056 308.422 158.927C332.404 157.156 356.407 155.542 380.433 154.13C382.29 154.017 384.147 153.928 386.003 153.816C385.914 152.852 385.802 151.91 385.69 150.946C364.125 152.202 342.582 153.569 321.039 155.116C275.963 158.344 230.908 162.2 185.944 166.705C160.553 169.239 135.207 171.996 109.862 174.955C109.437 175 109.146 175.201 108.967 175.448C101.025 172.713 93.0837 169.978 85.1197 167.266C129.302 162.132 173.573 157.627 217.866 153.748C262.898 149.803 307.975 146.485 353.096 143.84C363.655 143.213 374.214 142.63 384.773 142.092C384.683 141.128 384.572 140.186 384.482 139.222C354.192 140.814 323.925 142.675 293.68 144.827C248.604 148.055 203.549 151.91 158.585 156.416C133.507 158.927 108.452 161.639 83.4196 164.553C86.9765 159.801 90.5334 155.026 94.068 150.274C138.966 145.051 183.93 140.455 228.962 136.51C273.994 132.565 319.071 129.247 364.192 126.602C370.501 126.221 376.831 125.862 383.14 125.526C383.05 124.562 382.961 123.62 382.871 122.656C356.832 124.091 330.793 125.727 304.798 127.588C259.722 130.838 214.667 134.694 169.703 139.2C145.252 141.666 120.823 144.311 96.4169 147.135C99.2132 143.369 102.009 139.581 104.806 135.793C149.592 130.592 194.445 125.996 239.365 122.051C284.396 118.106 329.473 114.788 374.594 112.143C377.033 112.008 379.449 111.874 381.887 111.739C381.798 110.775 381.708 109.834 381.641 108.87C359.494 110.148 337.347 111.56 315.201 113.152C270.124 116.38 225.07 120.235 180.105 124.741C155.766 127.184 131.449 129.807 107.155 132.632C109.862 128.955 112.568 125.279 115.253 121.58C159.949 116.38 204.735 111.807 249.565 107.884C293.233 104.05 336.967 100.845 380.724 98.2219C380.634 97.258 380.567 96.3165 380.5 95.3525C362.134 96.451 343.768 97.6391 325.402 98.9617C280.325 102.19 235.271 106.045 190.306 110.551C166.034 112.972 141.807 115.617 117.579 118.419C121.517 113.039 125.409 107.659 129.324 102.257C128.116 102.302 126.908 102.324 125.7 102.369C125.342 102.862 124.984 103.378 124.604 103.871C120.935 108.937 117.244 114.003 113.553 119.047C113.329 119.204 113.195 119.406 113.105 119.652C101.92 134.941 90.6453 150.184 79.2587 165.338C76.5518 164.419 73.8226 163.5 71.1158 162.581C70.7802 162.469 70.4671 162.357 70.1315 162.244C84.9632 142.473 99.6159 122.589 114.134 102.593C112.926 102.616 111.741 102.638 110.533 102.66C96.3945 122.186 82.0997 141.554 67.6484 160.81C67.5141 160.989 67.4247 161.168 67.4023 161.348C64.0243 160.227 60.6688 159.084 57.2908 157.963C70.9592 139.716 84.5157 121.356 97.9157 102.907C96.7077 102.929 95.522 102.952 94.314 102.974C81.1378 121.087 67.8497 139.088 54.4274 156.999C50.5797 155.721 46.7319 154.466 42.8842 153.188C55.3222 136.6 67.626 119.944 79.8403 103.198C78.6323 103.221 77.4467 103.243 76.2386 103.243C64.2704 119.652 52.1903 135.994 39.9984 152.247C38.0745 151.619 36.173 150.991 34.2492 150.364C34.3834 151.417 34.54 152.493 34.6742 153.547C41.2064 155.676 47.7162 157.828 54.226 160.003C54.3155 160.048 54.405 160.07 54.4945 160.092C78.4757 168.05 102.39 176.21 126.237 184.549C168.897 199.479 211.357 215.036 253.592 231.199C255.583 231.961 257.552 232.723 259.543 233.485C259.901 236.893 260.236 240.322 260.594 243.73C239.611 235.66 218.582 227.747 197.509 219.99C155.095 204.366 112.434 189.346 69.5722 174.932C58.387 171.166 47.1793 167.445 35.9717 163.769C35.9941 164.038 36.0388 164.329 36.0612 164.598C36.1507 165.383 36.2178 166.145 36.3073 166.93C65.8811 176.636 95.3431 186.612 124.716 196.901C167.376 211.831 209.835 227.388 252.071 243.55C255.024 244.671 257.977 245.815 260.93 246.958C261.042 248.079 261.153 249.177 261.265 250.298C262.205 250.163 263.167 250.051 264.129 249.917C264.062 249.312 264.017 248.706 263.95 248.101C265.135 248.549 266.299 249.02 267.484 249.468C269.43 249.222 271.421 248.953 273.457 248.684C270.169 247.406 266.903 246.151 263.614 244.873C263.279 241.466 262.921 238.036 262.563 234.629C266.5 236.153 270.437 237.655 274.374 239.179C274.688 242.273 275.001 245.344 275.292 248.437C276.231 248.325 277.193 248.191 278.155 248.079C277.909 245.501 277.64 242.945 277.394 240.367C281.309 241.892 285.202 243.394 289.117 244.94C289.184 245.523 289.228 246.128 289.296 246.734C290.235 246.622 291.197 246.509 292.159 246.397C292.159 246.308 292.137 246.218 292.137 246.128C292.316 246.196 292.472 246.263 292.651 246.33C294.62 246.106 296.633 245.859 298.714 245.635C296.409 244.739 294.128 243.819 291.823 242.923C289.631 220.685 287.282 198.448 284.777 176.233C287.707 173.117 290.615 169.978 293.524 166.862C293.703 168.454 293.882 170.046 294.06 171.637C296.812 196.184 299.362 220.73 301.734 245.299C302.673 245.187 303.635 245.097 304.619 244.985C302.002 217.995 299.183 191.028 296.096 164.083C297.506 162.581 298.892 161.079 300.302 159.577C302.047 159.442 303.792 159.308 305.537 159.196C305.894 162.312 306.252 165.428 306.61 168.544C309.429 193.65 312.024 218.802 314.44 243.954C315.402 243.864 316.364 243.752 317.326 243.663C316.789 238.081 316.23 232.477 315.67 226.895C328.824 231.042 343.32 235.772 356.385 240.009C356.541 240.053 356.698 240.121 356.855 240.165C358.152 240.076 359.427 239.986 360.725 239.896C361.485 239.852 362.268 239.784 363.029 239.74C363.543 239.717 364.058 239.672 364.55 239.627C348.667 234.427 331.307 228.778 315.335 223.734C314.932 219.721 314.529 215.731 314.104 211.718C328.153 216.157 342.627 220.909 356.653 225.46C369.293 229.562 381.887 233.732 394.504 237.946C394.549 237.946 394.571 237.946 394.616 237.946C395.019 237.924 395.421 237.767 395.757 237.52C395.981 237.319 396.07 237.027 396.025 236.713ZM237.418 164.778C227.396 175.426 217.307 186.006 207.196 196.565C205.473 193.135 203.751 189.705 202.028 186.298C208.404 179.64 214.735 172.96 221.065 166.279C226.524 165.764 231.982 165.271 237.418 164.778ZM216.748 166.661C211.401 172.31 206.032 177.959 200.664 183.563C198.225 178.676 195.787 173.789 193.348 168.902C201.156 168.14 208.941 167.4 216.748 166.661ZM114.403 177.376C120.778 176.636 127.176 175.919 133.552 175.201C133.574 175.313 133.619 175.426 133.664 175.515C135.386 178.99 137.131 182.464 138.854 185.917C130.711 183.07 122.568 180.223 114.403 177.376ZM142.769 187.329C140.688 183.182 138.63 179.035 136.55 174.888C139.86 174.529 143.194 174.148 146.504 173.789C149.502 179.819 152.522 185.849 155.542 191.88C151.292 190.355 147.019 188.831 142.769 187.329ZM159.479 193.269C156.169 186.679 152.858 180.066 149.569 173.453C153.238 173.049 156.907 172.668 160.576 172.265C164.893 180.985 169.255 189.683 173.64 198.38C168.92 196.677 164.2 194.973 159.479 193.269ZM177.577 199.815C172.902 190.535 168.249 181.254 163.618 171.951C167.555 171.547 171.47 171.122 175.407 170.718C181.156 182.285 186.95 193.83 192.789 205.352C187.733 203.491 182.655 201.653 177.577 199.815ZM211.938 212.413C207.643 210.822 203.348 209.23 199.053 207.639C198.292 207.347 197.509 207.078 196.749 206.787C190.597 194.682 184.512 182.554 178.472 170.404C182.409 170.001 186.346 169.62 190.306 169.216C197.465 183.63 204.713 198.022 212.005 212.346C211.983 212.391 211.961 212.391 211.938 212.413ZM208.583 199.277C219.701 187.71 230.752 176.076 241.736 164.374C242.877 164.262 244.018 164.172 245.181 164.06C249.812 163.657 254.42 163.253 259.051 162.872C258.648 163.298 258.268 163.724 257.865 164.15C243.391 179.595 228.806 194.928 214.108 210.172C212.251 206.54 210.417 202.909 208.583 199.277ZM240.282 223.061C245.74 217.39 251.199 211.696 256.635 206.002C257.529 214.095 258.379 222.187 259.23 230.302C252.921 227.859 246.59 225.46 240.282 223.061ZM262.25 231.423C261.265 222.03 260.281 212.638 259.23 203.245C262.63 199.681 266.03 196.094 269.431 192.507C271.041 206.989 272.585 221.492 274.061 235.996C270.124 234.472 266.187 232.947 262.25 231.423ZM288.803 241.757C284.889 240.233 280.974 238.708 277.081 237.184C275.471 221.38 273.793 205.576 272.025 189.795C275.426 186.208 278.804 182.599 282.182 178.99C284.531 199.882 286.745 220.82 288.803 241.757ZM296.588 160.092C296.298 160.16 296.029 160.205 295.738 160.272C291.242 165.114 286.723 169.933 282.204 174.753C267.35 190.579 252.407 206.294 237.351 221.918C234.242 220.752 231.132 219.564 228.023 218.399C245.897 199.86 263.637 181.164 281.22 162.334C279.833 162.469 278.423 162.558 277.036 162.603C275.157 164.598 273.301 166.616 271.421 168.611C256.098 184.953 240.662 201.16 225.115 217.278C222.094 216.135 219.052 215.014 216.032 213.87C215.853 213.512 215.674 213.176 215.495 212.817C231.557 196.139 247.507 179.371 263.323 162.469C274.867 161.505 286.432 160.586 297.975 159.689C297.506 159.891 297.036 160.003 296.588 160.092ZM58.4317 199.613C51.6758 197.349 44.9199 195.085 38.1416 192.843C38.1864 193.875 38.2311 194.906 38.2759 195.937C63.4427 204.276 88.5201 212.817 113.553 221.582C145.386 232.723 177.085 244.201 208.672 256.037C210.976 255.857 213.213 255.656 215.383 255.476C205.719 251.845 196.055 248.236 186.369 244.671C143.932 229.047 101.271 214.027 58.4317 199.613ZM38.7233 208.065C38.768 209.096 38.7904 210.127 38.8351 211.136C46.4187 213.669 54.0023 216.202 61.5636 218.757C61.407 218.869 61.2728 219.004 61.1609 219.183C54.2484 229.966 47.2688 240.726 40.2668 251.441L40.4458 256.44C48.2307 244.537 55.971 232.611 63.644 220.663C63.8901 220.259 63.9349 219.878 63.823 219.542C67.6036 220.82 71.3619 222.097 75.1201 223.398C75.0754 223.465 75.0306 223.51 74.9859 223.577C66.3732 237.005 57.6935 250.388 48.9466 263.726C50.1099 263.681 51.2955 263.636 52.4588 263.614C60.8477 250.791 69.1919 237.946 77.469 225.057C77.648 224.788 77.6927 224.519 77.6927 224.272C81.6299 225.617 85.5672 226.984 89.5044 228.329C89.3254 228.441 89.1688 228.576 89.0346 228.8C81.6747 240.278 74.2477 251.71 66.7983 263.12C67.9839 263.076 69.1472 263.031 70.3328 263.008C77.4467 252.136 84.4934 241.219 91.5177 230.28C91.7862 229.854 91.8085 229.45 91.6743 229.092C95.2089 230.324 98.7434 231.535 102.278 232.768C95.88 242.721 89.4596 252.652 82.9945 262.538C84.1802 262.493 85.3434 262.448 86.5291 262.403C92.7481 252.876 98.9224 243.304 105.074 233.732C106.372 234.18 107.647 234.629 108.944 235.077C110.667 235.682 112.389 236.287 114.134 236.893C108.765 245.277 103.352 253.638 97.9157 261.977C99.1013 261.932 100.265 261.887 101.45 261.843C106.64 253.862 111.808 245.882 116.931 237.879C120.465 239.112 124 240.367 127.512 241.623C124.156 247.765 120.98 254.086 117.199 259.96C116.931 260.385 116.64 260.811 116.349 261.237C117.535 261.193 118.72 261.148 119.884 261.08C123.664 255.14 126.863 248.774 130.241 242.587C134.782 244.201 139.324 245.837 143.842 247.473C141.561 251.777 139.212 256.059 136.84 260.341C137.981 260.296 139.1 260.229 140.241 260.184C142.388 256.306 144.513 252.405 146.594 248.482C155.721 251.755 164.826 255.05 173.931 258.39C176.324 258.256 178.718 258.099 181.112 257.942C138.876 242.385 96.4392 227.455 53.7786 213.108C48.79 211.427 43.7566 209.746 38.7233 208.065Z" fill="#78C2D9"/>
<path d="M251.87 92.6848C242.698 93.2677 233.28 93.3125 224.175 94.5678C219.343 95.2404 213.75 98.3115 213.46 103.333C213.102 107.547 216.502 107.032 216.055 105.597C215.987 105.395 215.943 105.193 215.92 105.014C222.788 105.776 227.62 106.135 234.13 103.669C237.486 102.391 250.886 98.558 254.331 97.5045C257.06 96.6526 251.355 96.944 252.877 94.4333C253.302 93.716 252.742 92.64 251.87 92.6848Z" fill="#F79884"/>
<path d="M319.563 100.845C319.205 102.391 318.713 103.893 318.109 105.328C317.908 105.238 317.684 105.238 317.482 105.395C311.666 109.991 305.559 114.362 300.078 119.361C295.515 123.531 291.689 128.417 290.079 134.47C290.011 134.761 290.168 135.12 290.481 135.187C294.061 135.949 296.499 133.035 298.803 130.704C301.957 127.476 305.156 124.293 308.288 121.042C313.747 115.304 318.869 109.049 320.681 101.158C320.838 100.419 319.72 100.105 319.563 100.845Z" fill="#1F2144"/>
<path d="M281.421 91.5416C282.965 94.0299 277.238 93.7609 279.967 94.6127C283.412 95.6887 296.812 99.4996 300.168 100.777C306.655 103.243 306.744 107.077 313.612 106.314C313.568 106.516 316.409 107.749 316.364 107.951C315.916 109.385 321.196 104.655 320.838 100.441C320.525 95.4197 314.954 92.3486 310.122 91.6761C301.018 90.4208 291.6 90.3759 282.428 89.7931C281.555 89.7483 280.996 90.8243 281.421 91.5416Z" fill="#F79884"/>
<path d="M157.198 98.1994C157.108 97.9753 156.884 97.7959 156.638 97.7287C156.683 96.9889 155.632 96.5854 155.095 97.1907C154.737 96.9665 154.2 97.0113 153.887 97.4597C153.574 97.37 153.238 97.4373 152.992 97.7063C153.149 97.3252 153.328 96.9665 153.484 96.5854C153.82 95.7784 153.037 95.2628 152.41 95.4646C152.477 95.2852 152.522 95.1059 152.589 94.949C152.656 94.7024 152.634 94.4782 152.567 94.2989C152.656 93.5367 151.538 92.9763 151.023 93.6936C150.867 93.8954 150.733 94.1196 150.576 94.3213C150.486 93.6264 149.636 93.178 149.055 93.8506C148.697 94.2765 148.361 94.7248 148.048 95.1732C147.847 95.1956 147.645 95.2852 147.489 95.487C147.466 95.5094 147.444 95.5542 147.422 95.5767C147.064 95.4197 146.572 95.4646 146.281 95.8681C146.012 95.8008 145.722 95.8905 145.498 96.2043C143.015 100.082 141.046 104.14 139.547 108.489C139.256 109.341 140.151 109.946 140.778 109.587C140.285 110.618 141.807 111.201 142.366 110.282C142.478 110.103 142.567 109.923 142.679 109.722C142.836 109.767 142.992 109.767 143.149 109.744C143.216 109.923 143.373 110.08 143.552 110.17C143.484 110.349 143.44 110.506 143.373 110.686C143.037 111.762 144.402 112.344 144.961 111.381C145.006 111.291 145.073 111.201 145.118 111.112C145.229 111.134 145.364 111.156 145.498 111.134C145.565 111.358 145.744 111.537 145.968 111.627C145.923 111.717 145.878 111.784 145.856 111.874C145.341 112.882 146.907 113.533 147.444 112.569C147.489 112.479 147.556 112.389 147.601 112.3C147.78 112.434 148.003 112.524 148.227 112.524C148.451 113.129 149.457 113.353 149.86 112.591C149.882 112.569 149.882 112.546 149.905 112.501C150.263 112.972 152.5 114.317 152.813 113.757C154.759 110.327 156.504 106.807 158.115 103.198C158.249 102.907 158.227 102.638 158.092 102.436C158.406 101.853 158.719 101.293 159.032 100.71C159.211 100.217 157.556 98.4012 157.198 98.1994Z" fill="#F79884"/>
<path d="M168.271 71.8372C161.18 66.8606 153.842 75.11 150.643 80.7591C148.518 84.5251 147.109 88.6946 146.505 92.9987C145.99 96.7423 145.654 101.046 148.428 104.005C148.742 104.342 149.144 104.319 149.435 104.14C149.569 104.207 149.681 104.252 149.838 104.274C149.882 104.274 149.905 104.274 149.95 104.297C150.017 104.566 150.196 104.79 150.531 104.88C154.58 106.045 159.3 107.256 163.215 104.992C166.638 102.997 168.786 99.0288 169.949 95.3749C171.381 90.8915 171.716 85.9374 171.739 81.2522C171.783 77.8449 171.269 73.9443 168.271 71.8372Z" fill="#F79884"/>
<path d="M134.984 186.387C137.445 179.931 136.639 176.165 141.471 171.637C146.438 166.997 169.255 139.559 174.378 135.098C177.622 132.251 171.492 134.403 171.627 129.695C171.806 123.665 172.566 123.463 168.316 120.146C162.097 115.303 152.231 108.444 145.99 103.602C145.431 103.176 144.715 103.512 144.514 104.005C128.206 102.324 126.394 102.212 116.953 101.36C116.282 101.293 113.777 103.019 113.933 103.535C110.98 108.04 104.157 156.102 101.517 161.818C98.833 167.647 88.0952 164.71 46.0609 233.059C42.8843 236.22 39.5511 239.964 35.9942 242.699C21.1178 254.041 14.1382 280.718 10.7379 292.083C4.63072 296.701 0.850102 311.182 0.425062 314.477C0.134245 316.764 -0.715835 320.306 1.40936 321.942C1.87915 322.301 2.32656 322.503 2.7516 322.547C3.08715 322.839 3.62405 322.772 3.91486 322.368C6.89014 321.045 8.61267 313.222 9.17194 311.249C10.3128 307.259 11.4761 303.269 12.5946 299.279C13.2881 296.858 13.6908 296.006 13.9145 293.54C16.1963 291.971 56.15 247.204 58.745 244.559C67.4024 235.749 93.6654 208.356 98.3409 203.693C100.086 201.945 83.5763 242.654 79.997 260.767C73.0174 268.612 66.2392 275.225 61.944 291.253C60.0201 298.427 53.5774 316.831 53.0182 318.355C51.8773 320.328 49.685 319.768 48.3875 321.673C46.5307 324.386 47.0229 327.703 47.3361 330.864C47.7164 334.877 48.3204 337.096 49.1481 341.019C49.7073 343.664 50.0653 348.551 52.4365 350.21C57.6489 353.909 56.6422 340.189 56.4856 338.306C56.1724 334.652 56.9554 321.987 56.7764 321.382C65.9483 306.833 73.3754 298.135 83.5763 284.371" fill="#F79884"/>
<path d="M289.765 347.408C290.213 350.031 288.736 352.272 287.461 354.492C285.85 357.294 284.642 358.706 282.719 361.306C281.421 363.055 279.542 366.507 277.238 366.933C272.182 367.874 277.506 358.19 278.267 356.868C279.721 354.312 283.39 344.763 283.725 344.404C284.575 343.575 289.452 345.57 289.765 347.408Z" fill="#F79884"/>
<path d="M196.972 105.844C190.664 101.741 184.266 106.897 179.165 110.327C175.743 112.636 168.025 117.635 164.177 119.204C161.359 120.37 164.736 121.782 162.007 120.213C160.508 119.361 157.466 114.698 155.833 114.183C155.341 114.026 154.67 114.452 154.737 115.012C155.744 124.001 156.124 132.878 159.793 141.24C160.061 141.845 160.687 141.778 161.068 141.419C161.224 141.486 163.461 144.019 163.64 143.863C172.163 137.07 176.436 133.506 186.436 124.293C189.836 121.154 193.035 117.59 195.205 113.443C195.787 112.344 198.605 106.897 196.972 105.844Z" fill="#F79884"/>
<path d="M187.89 97.1682C180.732 93.7608 173.193 91.026 165.855 88.0221C165.475 87.8652 165.094 88.1342 164.871 88.4256C163.998 89.5689 161.717 91.5191 161.851 93.1107C161.985 94.5903 164.11 96.1594 165.027 97.1458C168.428 100.8 172.141 104.162 176.078 107.233C179.009 109.52 182.566 112.815 186.346 113.488C189.702 114.071 195.451 112.322 197.174 109.161C197.241 109.049 197.263 108.937 197.286 108.847C197.308 108.803 197.353 108.758 197.375 108.69C199.635 103.4 191.671 98.984 187.89 97.1682Z" fill="#F79884"/>
<path d="M172.745 69.7973C171.47 69.08 170.217 69.5283 168.92 69.1696C167.309 68.7213 166.705 67.2194 165.475 66.3003C163.372 64.7311 161.045 65.1346 158.719 65.8743C157.242 66.3451 155.9 66.8383 154.267 66.502C153.82 66.4124 153.417 66.1433 152.947 66.0761C151.918 65.9192 150.867 66.1433 149.95 66.5469C147.243 67.7798 145.006 70.6267 143.686 73.0477C142.992 74.3479 141.896 75.4239 141.248 76.7241C140.532 78.1588 140.733 79.8401 141.874 81.1851C141.896 81.2075 141.896 81.2523 141.896 81.2747C140.375 86.6548 143.462 97.0786 144.916 98.2667C147.578 100.441 150.308 100.665 151.985 100.374C155.028 99.8359 157.735 98.2219 158.898 95.7336C159.882 93.6264 161.135 91.5417 163.148 90.2863C164.267 89.5914 165.788 89.3448 166.526 88.1343C166.862 87.5739 166.817 87.0359 166.996 86.453C167.466 84.9063 168.137 84.0096 169.076 82.687C169.792 81.7007 170.284 80.8936 170.486 79.8625C171.582 79.5711 172.544 79.0106 173.148 77.9122C173.551 77.1724 173.439 76.6344 173.551 75.8274C173.64 75.1101 173.349 75.3118 173.506 74.7963C173.372 75.2894 174.58 73.2047 174.445 73.5857C175.005 72.039 174.065 70.5595 172.745 69.7973Z" fill="#1F2144"/>
<path d="M123.418 174.91C118.071 171.906 112.635 168.925 106.797 166.974C104.224 166.123 101.271 165.136 98.4302 164.979C95.5667 167.288 90.5557 170.897 81.876 181.187C89.7728 184.46 96.1484 190.512 99.8619 198.313C99.9961 198.582 100.22 198.649 100.444 198.582C100.488 198.605 100.555 198.605 100.622 198.605C109.75 198.268 119.324 201.631 126.281 207.616C129.123 200.981 132.008 193.897 134.894 186.32C135.252 185.379 135.543 184.504 135.789 183.675C132.143 179.931 128.026 177.51 123.418 174.91Z" fill="#1F2144"/>
<path d="M296.23 118.375C295.134 116.85 293.456 116.29 291.711 115.819C289.161 115.102 286.566 114.519 283.994 113.869C278.11 112.389 272.227 110.887 266.343 109.408C265.851 109.273 265.448 109.408 265.135 109.655C264.889 109.542 264.576 109.498 264.24 109.565C257.216 110.955 250.281 112.703 243.436 114.833C241.311 115.483 245.986 116.088 244.935 118.285C243.771 120.728 240.147 136.532 240.461 139.065C241.311 145.925 245.002 145.253 247.105 152.09C249.454 159.689 247.574 162.289 249.208 169.821C249.476 171.054 250.841 171.099 251.556 170.427C257.216 170.853 258.827 171.054 264.487 170.942C269.363 170.853 272.629 171.099 277.372 169.821C281.645 168.678 279.833 174.865 280.996 171.077C280.996 171.077 292.562 130.48 294.217 125.1C295.201 121.917 298.423 121.423 296.23 118.375Z" fill="#F79884"/>
<path d="M295 209.522C293.859 190.893 289.228 179.057 281.153 165.271C280.728 164.553 278.804 165.047 278.043 165.181C273.86 165.854 269.677 166.526 265.493 167.199C261.534 164.217 256.299 164.284 251.534 164.621C250.818 164.352 250.058 164.643 249.543 165.495C244.577 174.058 241.244 180.671 238.872 186.612C234.577 197.394 227.642 256.552 235.338 288.115C235.472 288.653 235.83 288.967 236.255 289.079C236.993 291.366 239.454 292.733 241.937 292.643C245.83 292.509 243.57 287.196 244.778 283.968C249.118 272.535 243.324 284.551 247.664 273.118C255.024 253.75 258.156 238.327 264.218 218.354C265.113 221.066 277.708 316.943 284.038 327.479C284.732 328.645 289.161 286.927 289.609 285.829C293.009 277.803 295.582 218.937 295 209.522Z" fill="#F79884"/>
<path d="M297.259 242.542C284.307 247.563 271.802 253.638 259.923 260.856C250.975 266.281 238.447 272.804 235.696 283.856C235.271 284.058 234.98 284.461 234.98 285.089C235.159 290.962 240.215 295.782 246.187 294.997C249.275 294.593 251.937 292.8 254.263 290.827C257.664 287.958 260.728 284.663 263.905 281.569C270.415 275.225 276.947 268.859 283.457 262.515C289.094 257.023 295 251.62 298.892 244.671C299.452 243.662 298.49 242.071 297.259 242.542Z" fill="#F79884"/>
<path d="M287.282 346.377C291.197 333.039 292.763 319.656 294.284 305.824C295.425 295.423 297.013 279.754 289.944 270.832C290.034 270.383 289.9 269.89 289.407 269.532C284.665 266.102 276.455 257.337 273.457 262.56C271.914 265.272 276.142 291.724 276.679 296.118C277.752 305.174 283.188 338.8 283.569 345.928C283.613 347.071 286.902 347.654 287.282 346.377Z" fill="#F79884"/>
<path d="M321.554 237.856C320.346 236.803 316.901 236.937 315.424 236.982C312.069 237.072 308.847 237.296 305.514 237.61C303.434 237.812 300.593 238.439 298.758 239.47C296.812 240.569 295.917 243.461 294.485 245.097C293.747 245.927 294.978 247.159 295.716 246.33C296.051 245.949 296.342 245.568 296.633 245.164C296.745 245.209 296.857 245.254 296.991 245.254C303.12 245.232 309.474 244.492 315.469 243.281C316.811 242.99 324.842 240.703 321.554 237.856Z" fill="#F79884"/>
<path d="M252.071 114.833C245.673 110.17 238.783 106.292 231.468 103.288C227.844 101.809 223.996 100.307 220.171 99.4772C216.703 98.7374 215.607 101.674 213.795 104.274C213.437 104.79 213.571 105.283 213.929 105.597C213.929 105.866 214.019 106.135 214.243 106.359C221.96 114.519 238.559 126.221 247.396 133.147C247.754 133.439 249.364 121.334 252.496 116.38C252.854 115.842 252.563 115.191 252.071 114.833Z" fill="#F79884"/>
<path d="M279.922 116.985C283.054 121.916 286.969 126.108 291.667 129.583C291.846 129.718 292.025 129.785 292.204 129.785C292.562 129.897 292.987 129.874 293.345 129.583C302.159 122.656 310.458 115.079 318.176 106.942C318.4 106.695 318.489 106.426 318.489 106.18C318.847 105.866 318.981 105.373 318.623 104.857C316.811 102.279 315.715 99.3202 312.248 100.06C308.4 100.889 304.575 102.369 300.951 103.871C293.636 106.875 286.723 110.73 280.347 115.416C279.855 115.752 279.564 116.424 279.922 116.985Z" fill="#F79884"/>
<path d="M298.96 100.576C298.423 99.6565 297.528 99.2082 296.857 98.446C295.626 97.0114 295.962 95.2628 295.738 93.4919C295.47 91.2951 294.62 89.1655 292.897 87.7084C289.698 85.0407 284.754 86.3858 281.153 85.2201C281.13 85.108 281.108 84.9735 281.063 84.839C278.424 78.495 272.451 73.5633 265.359 73.6306C258.67 73.6754 252.608 78.3381 250.841 84.7942C250.684 85.3322 246.053 101.36 255.561 111.403C256.948 112.86 258.849 113.196 260.84 113.039C263.905 112.793 265.672 113.398 268.491 114.541C270.84 115.483 273.39 113.712 275.538 112.793C281.309 115.393 287.506 114.205 292.852 111.425C296.611 109.453 301.711 105.395 298.96 100.576Z" fill="#1F2144"/>
<path d="M288.848 180.671C287.305 180.559 285.761 180.469 284.217 180.425C279.408 180.245 274.576 180.088 269.766 179.976C260.438 179.73 251.087 179.64 241.758 179.999C240.64 182.33 239.7 184.527 238.85 186.612C244.241 188.921 248.134 193.74 252.093 198.156C257.574 204.276 261.713 210.329 263.994 218.085C264.106 218.444 264.531 218.287 264.598 218.018C266.366 210.934 270.907 204.949 275.94 199.501C280.616 194.458 285.314 190.804 291.756 189.279C290.951 186.298 289.967 183.451 288.848 180.671Z" fill="#1F2144"/>
<path d="M391.529 152.605C387.815 146.149 383.118 140.253 377.659 135.21C375.735 133.439 373.588 130.928 370.769 130.95C367.056 130.973 362.962 132.116 359.36 132.99C350.994 135.008 344.193 135.725 335.513 136.375C334.954 136.42 334.618 136.712 334.395 137.227C333.41 139.626 330.927 146.037 330.39 149.086C330.211 150.094 330.122 150.341 330.659 151.193C335.983 159.487 350.971 181.59 354.125 188.853C354.55 189.817 364.237 187.15 368.04 186.051C372.738 184.684 377.435 183.316 382.133 181.971C384.303 181.344 386.473 180.738 388.643 180.088C390.097 179.64 391.439 179.393 392.155 177.914C392.916 176.322 393.095 174.26 393.475 172.534C393.99 170.292 396.16 168.14 396.674 165.898C396.115 157.627 392.357 154.062 391.529 152.605Z" fill="#E8B290"/>
<path d="M392.67 165.069C388.509 165.696 384.393 167.064 380.277 167.961C375.825 168.947 371.328 169.821 366.832 170.606C364.438 171.009 359.494 170.673 358.801 173.587C358.174 176.3 358.197 178.9 357.168 181.545C356.251 183.921 355.065 186.23 353.946 188.517C353.991 188.629 354.036 188.719 354.081 188.831C354.506 189.795 364.192 187.127 367.995 186.029C372.693 184.661 377.391 183.294 382.089 181.949C384.258 181.321 386.428 180.716 388.598 180.066C390.052 179.617 391.395 179.371 392.111 177.891C392.871 176.3 393.05 174.237 393.43 172.511C393.923 170.314 396.048 168.185 396.585 165.988C395.981 164.912 394.638 164.777 392.67 165.069Z" fill="#1F2144"/>
<path d="M384.415 161.594C383.654 160.765 382.446 161.998 383.185 162.827C386.026 165.943 391.618 177.04 384.437 178.654C377.749 180.155 373.588 172.803 371.418 167.759C370.97 166.728 369.494 167.624 369.919 168.633C372.402 174.417 378.934 183.989 386.607 179.707C393.095 176.076 387.905 165.428 384.415 161.594Z" fill="#E8B290"/>
<path d="M380.813 180.38C380.276 179.393 378.8 180.29 379.337 181.276C381.328 184.998 384.035 197.125 376.697 196.946C369.829 196.766 367.592 188.629 366.742 183.182C366.563 182.083 364.908 182.577 365.087 183.675C366.071 189.907 370.075 200.779 378.554 198.492C385.69 196.542 383.274 184.953 380.813 180.38Z" fill="#1F2144"/>
<path d="M286.991 138.326C288.311 133.663 289.072 128.866 289.206 124.001C289.296 120.953 289.273 117.725 288.199 114.9C287.327 114.676 286.477 114.474 285.604 114.272C285.962 118.061 286.052 121.849 285.85 125.638C285.604 129.919 285.47 135.12 283.434 139.065C278.021 139.962 272.428 140.029 266.925 139.94C263.211 139.872 258.2 140.141 253.615 139.514C255.717 134.717 255.986 128.462 256.031 123.508C256.075 120.347 255.852 117.164 255.382 114.048C255.27 113.353 255.225 112.389 254.957 111.65C254.308 111.807 253.682 111.963 253.033 112.143C254.532 121.177 253.547 130.368 250.192 138.841C245.919 137.653 242.541 135.21 241.781 130.233C240.93 134.246 240.304 137.967 240.438 139.088C241.087 144.244 243.302 145.14 245.27 148.167C250.684 150.072 257.328 149.781 262.786 150.005C270.124 150.296 277.506 150.117 284.777 148.929C285.627 148.794 286.544 148.637 287.461 148.503C288.557 144.647 289.676 140.769 290.683 137.295C289.475 137.653 288.244 138.012 286.991 138.326Z" fill="#1F2144"/>
<path d="M193.416 68.0038C189.903 66.7933 186.794 64.5068 183.058 65.0896C181.403 65.3586 179.792 65.8967 178.383 66.7933C176.839 67.7797 175.72 69.3489 174.02 70.0438C173.685 70.1783 173.819 70.7387 174.177 70.6042C174.378 70.5145 174.557 70.4249 174.736 70.3352C174.736 70.4249 174.736 70.5145 174.781 70.6042L175.318 71.9044C175.34 71.9716 175.385 72.0389 175.43 72.1061C175.385 72.2406 175.43 72.42 175.609 72.4424C175.698 72.4648 175.765 72.4648 175.855 72.4872C175.967 72.532 176.101 72.5545 176.213 72.532C178.584 72.8683 180.933 73.1821 183.304 73.5184C184.825 73.7201 187.04 74.5047 188.337 73.3391C188.405 73.2718 188.449 73.1597 188.405 73.0476C188.114 72.1958 187.51 71.7699 186.682 71.4785C185.586 71.0749 184.4 70.8508 183.215 70.649C186.235 70.0662 189.188 71.1646 192.252 70.6939C194.445 70.38 195.921 68.8781 193.416 68.0038Z" fill="#F79884"/>
<path d="M128.094 137.07C125.185 143.661 122.255 150.274 119.347 156.864C119.19 157.2 119.705 157.492 119.839 157.156C122.747 150.565 125.678 143.952 128.586 137.362C128.742 137.025 128.228 136.734 128.094 137.07Z" fill="#1F2144"/>
<path d="M140.42 107.413C138.653 109.475 137.266 111.762 136.281 114.272C136.147 114.609 136.706 114.765 136.841 114.429C137.802 111.986 139.122 109.789 140.845 107.816C141.069 107.525 140.666 107.121 140.42 107.413Z" fill="#1F2144"/>
<path d="M92.0546 259.601C89.6163 260.027 87.1779 260.475 84.7395 260.901C84.3815 260.968 84.5381 261.529 84.8961 261.461C87.3345 261.036 89.7728 260.587 92.2112 260.161C92.5915 260.094 92.4349 259.556 92.0546 259.601Z" fill="#1F2144"/>
<path d="M51.6982 239.807C49.4612 238.798 47.0451 238.664 44.7186 239.515C44.3607 239.65 44.5173 240.21 44.8752 240.076C47.0451 239.291 49.3046 239.358 51.4074 240.322C51.7429 240.479 52.0338 239.964 51.6982 239.807Z" fill="#1F2144"/>
<path d="M286.544 247.563C281.488 249.827 276.432 252.114 271.377 254.378C271.041 254.535 271.332 255.028 271.668 254.871C276.723 252.607 281.779 250.32 286.835 248.056C287.17 247.922 286.88 247.429 286.544 247.563Z" fill="#1F2144"/>
<path d="M287.282 258.435C284.105 261.417 280.772 264.196 277.26 266.797C276.969 267.021 277.26 267.514 277.551 267.29C281.085 264.667 284.463 261.843 287.685 258.839C287.976 258.592 287.551 258.189 287.282 258.435Z" fill="#1F2144"/>
<path d="M246.009 268.164C243.481 270.697 241.669 273.768 240.662 277.22C240.55 277.579 241.109 277.736 241.221 277.377C242.183 274.015 243.95 271.033 246.411 268.568C246.68 268.299 246.277 267.895 246.009 268.164Z" fill="#1F2144"/>
<path d="M269.632 160.944C268.67 165.091 268.401 169.328 268.849 173.565C268.894 173.923 269.475 173.946 269.43 173.565C268.983 169.373 269.229 165.203 270.191 161.101C270.258 160.72 269.721 160.563 269.632 160.944Z" fill="#1F2144"/>
<g clip-path="url(#clip2)" filter="url(#filter2_b)">
<path d="M371.335 217.88C352.965 220.176 339.671 237.051 341.769 255.733C343.836 274.132 360.531 287.545 378.902 285.248C397.272 282.952 410.566 266.077 408.468 247.395C406.087 228.748 389.706 215.583 371.335 217.88Z" fill="url(#paint0_linear)"/>
</g>
<path d="M46.1503 122.096C47.6268 123.082 49.0809 124.068 50.5573 125.077C51.5192 125.727 52.7049 126.938 53.8458 127.207C55.7025 127.655 56.2171 126.064 56.4184 124.539C57.4251 117.321 60.3556 109.699 62.7045 102.84C62.973 102.055 62.1453 101.069 61.5636 100.8C56.1276 98.3563 55.8368 98.7822 54.4274 101.786C53.197 104.409 51.4521 109.094 50.5797 111.784C49.4612 115.259 47.6939 117.388 45.7924 120.504C45.4568 121.042 45.6358 121.737 46.1503 122.096Z" fill="#53D14C"/>
<path d="M61.4295 106.426C59.7293 105.888 58.0291 105.306 56.3513 104.655C55.9263 104.498 55.3894 104.633 55.2104 105.104C54.0024 108.242 52.7944 111.358 51.6088 114.496C51.4746 114.81 51.5193 115.326 51.8549 115.528C53.6892 116.671 55.9263 116.828 57.7383 117.949C58.7674 114.048 60.0872 110.237 61.4295 106.426Z" fill="white"/>
<path d="M60.8926 101.427L57.6712 100.217C57.4027 100.105 57.2685 99.8134 57.3804 99.5444L58.8568 95.6663C58.9687 95.3973 59.2595 95.2628 59.5279 95.3748L62.7493 96.5854C63.0177 96.6974 63.152 96.9889 63.0401 97.2579L61.586 101.136C61.4742 101.405 61.161 101.539 60.8926 101.427Z" fill="#1F2144"/>
<path d="M29.0816 160.563C30.4239 162.043 31.341 163.119 33.2202 162.132C33.3991 162.043 33.5781 161.931 33.7571 161.819C34.3611 164.24 35.0098 166.661 36.531 168.656C38.5667 171.323 40.9604 173.767 43.1751 176.3C44.2712 177.555 46.1503 180.604 48.0742 180.694C49.7296 180.783 51.5864 178.474 52.6825 177.443C54.1814 176.031 57.358 173.52 57.5146 171.278C57.6488 169.418 54.763 167.154 53.7116 165.943C51.4745 163.343 49.327 160.294 46.7767 158.008C45.2331 156.618 42.9737 156.461 41.3183 155.43C43.3316 153.323 42.6382 152.493 40.9827 150.184C39.0812 147.561 36.8889 144.468 34.2716 142.495C32.0569 140.836 29.7975 141.554 27.2249 141.621C27.0012 141.621 26.8669 141.733 26.7775 141.89C23.3995 142.809 21.8336 149.601 23.2205 152.381C24.6299 155.183 26.9564 158.209 29.0816 160.563Z" fill="#78C2D9"/>
<path d="M23.5113 143.795C23.735 144.132 23.8916 144.513 24.2272 144.311C24.943 143.863 26.6879 142.63 27.4038 142.024C27.5604 141.89 27.717 141.666 27.5828 141.419C27.0235 140.545 25.5023 138.505 24.8759 137.653C24.6075 137.294 24.3838 137.25 24.0258 137.519C23.1758 138.169 21.8559 138.998 21.0058 139.648C20.894 139.738 20.8269 139.917 20.9163 140.052C21.5651 140.971 22.8626 142.876 23.5113 143.795Z" fill="#1F2144"/>
<path d="M38.0299 162.603C37.7167 161.841 40.7143 159.487 41.8329 158.501C42.5711 157.851 43.3317 157.201 44.0699 156.573C45.0319 156.909 45.9714 157.29 46.732 157.985C49.2823 160.294 51.4298 163.32 53.6669 165.921C54.3604 166.705 55.8145 167.961 56.7316 169.261C54.4946 171.323 52.1681 173.251 49.752 175.089C49.3717 175.381 48.8572 175.358 48.5217 175C46.3293 172.601 44.1147 170.225 41.9224 167.826C40.8933 166.683 38.3431 163.365 38.0299 162.603Z" fill="white"/>
</g>
<defs>
<filter id="filter0_b" x="21" y="-24" width="402" height="395" filterUnits="userSpaceOnUse" color-interpolation-filters="sRGB">
<feFlood flood-opacity="0" result="BackgroundImageFix"/>
<feGaussianBlur in="BackgroundImage" stdDeviation="12"/>
<feComposite in2="SourceAlpha" operator="in" result="effect1_backgroundBlur"/>
<feBlend mode="normal" in="SourceGraphic" in2="effect1_backgroundBlur" result="shape"/>
</filter>
<filter id="filter1_b" x="20" y="-13.0001" width="92.9433" height="92.2245" filterUnits="userSpaceOnUse" color-interpolation-filters="sRGB">
<feFlood flood-opacity="0" result="BackgroundImageFix"/>
<feGaussianBlur in="BackgroundImage" stdDeviation="12"/>
<feComposite in2="SourceAlpha" operator="in" result="effect1_backgroundBlur"/>
<feBlend mode="normal" in="SourceGraphic" in2="effect1_backgroundBlur" result="shape"/>
</filter>
<filter id="filter2_b" x="303" y="176" width="152.276" height="150.623" filterUnits="userSpaceOnUse" color-interpolation-filters="sRGB">
<feFlood flood-opacity="0" result="BackgroundImageFix"/>
<feGaussianBlur in="BackgroundImage" stdDeviation="12"/>
<feComposite in2="SourceAlpha" operator="in" result="effect1_backgroundBlur"/>
<feBlend mode="normal" in="SourceGraphic" in2="effect1_backgroundBlur" result="shape"/>
</filter>
<linearGradient id="paint0_linear" x1="371.335" y1="217.88" x2="379.744" y2="285.143" gradientUnits="userSpaceOnUse">
<stop stop-color="#05AFE4"/>
<stop offset="1" stop-color="#56D347"/>
</linearGradient>
<clipPath id="clip0">
<rect width="31.395" height="31.6587" fill="white" transform="matrix(0.709868 -0.704335 0.715664 0.698444 44 33.1125)"/>
</clipPath>
<clipPath id="clip1">
<rect width="419" height="302" fill="white" transform="translate(0 65)"/>
</clipPath>
<clipPath id="clip2">
<rect width="74.173" height="72.1324" fill="white" transform="matrix(0.709868 -0.704335 0.715664 0.698444 327 252.243)"/>
</clipPath>
</defs>
</svg>
