<svg width="628" height="349" viewBox="0 0 628 349" fill="none" xmlns="http://www.w3.org/2000/svg">
<g filter="url(#filter0_b)">
<ellipse cx="403" cy="175.5" rx="177" ry="173.5" fill="#EDDDCC"/>
</g>
<g clip-path="url(#clip0)">
<mask id="mask0" mask-type="alpha" maskUnits="userSpaceOnUse" x="224" y="-66" width="453" height="453">
<circle cx="450.5" cy="160.5" r="226.5" fill="#C4C4C4"/>
</mask>
<g mask="url(#mask0)">
<path d="M270.751 115.493C270.751 115.493 238.294 144.391 250.929 192.837L288.783 192.538C288.783 192.538 297.065 145.737 295.274 129.082C295.249 129.082 291.519 99.3109 270.751 115.493Z" fill="#323960"/>
<path d="M272.89 70.4377C272.89 70.4377 262.941 72.3326 262.792 84.5003C262.718 89.7114 258.415 93.2769 261.947 94.3989C265.478 95.521 261.151 100.981 264.807 104.073C268.438 107.165 287.738 105.42 288.957 88.0159C288.957 88.0409 293.931 65.0021 272.89 70.4377Z" fill="#EFB29D"/>
<path d="M269.781 105.345C269.781 105.345 274.929 105.42 274.183 113.374L286.519 112.8C286.519 112.8 287.266 95.0971 287.266 95.0721C287.29 95.0472 287.29 95.0472 287.29 95.0472L269.781 105.345Z" fill="#EFB29D"/>
<path d="M288.136 111.927L287.962 107.938C287.937 107.265 287.34 106.741 286.669 106.816L271.771 108.262C271.199 108.312 270.751 108.786 270.701 109.359L270.328 114.545C270.279 115.318 270.95 115.917 271.696 115.792L287.141 113.174C287.738 113.049 288.161 112.526 288.136 111.927Z" fill="#F7F6F4"/>
<path d="M267.02 76.347C264.285 76.6462 261.673 74.6016 261.549 71.8589C261.499 70.8366 261.723 69.6647 262.32 68.2934C264.956 62.2345 268.587 69.2159 273.188 67.7448C277.79 66.2737 286.942 64.4785 289.504 70.4127C289.504 70.4127 294.901 69.8393 294.975 75.8483C295.075 86.3454 290.325 93.1273 287.365 95.0472C287.365 95.0472 285.45 96.4934 284.903 90.7586C284.356 85.0488 281.296 85.0239 278.461 84.6997C273.686 84.1512 279.008 75.1003 267.02 76.347Z" fill="#9D586C"/>
<path d="M278.784 84.7247C278.784 84.7247 283.958 80.0122 286.395 84.5751C287.564 86.7942 284.928 95.895 279.157 94.0748L278.784 84.7247Z" fill="#EFB29D"/>
<path d="M200.963 155.91C200.963 155.91 237.747 161.72 247.671 157.481C262.22 151.273 258.564 124.195 275.303 116.715C292.041 109.21 285.898 163.839 255.331 174.187C230.336 182.664 199.346 167.829 199.346 167.829L200.963 155.91Z" fill="#F7F6F4"/>
<path d="M384.537 152.17C384.537 152.17 374.389 153.492 365.858 145.787C357.327 138.083 372.623 143.319 376.578 144.266C376.578 144.266 370.509 141.199 370.808 139.953C371.429 137.235 382.497 142.945 384.164 145.538L384.537 152.17Z" fill="#EFB29D"/>
<path d="M384.039 143.344C384.039 143.344 418.212 147.782 432.289 128.558C446.366 109.359 452.609 88.3151 467.88 88.5395C483.15 88.7639 466.263 131.6 447.137 144.541C427.986 157.456 415.302 159.975 379.711 153.242L384.039 143.344Z" fill="#282E54"/>
<path d="M477.505 174.86L493.696 134.418C494.566 132.223 496.705 130.777 499.043 130.777H505.46C509.29 130.777 512.076 134.467 511.006 138.158L499.441 178.6C498.72 181.093 496.457 182.789 493.895 182.789H482.852C478.773 182.814 475.988 178.675 477.505 174.86Z" fill="#9D586C"/>
<path d="M426.395 123.571C426.395 123.571 414.68 117.114 409.88 107.315L404.508 105.12L391.277 137.709C391.277 137.734 406.324 180.271 426.395 123.571Z" fill="#EFB29D"/>
<path d="M377.97 103.375C377.97 103.375 393.465 111.528 401.126 103.3L406.498 105.494L393.266 138.083C393.266 138.083 355.412 160.872 377.97 103.375Z" fill="#EFB29D"/>
<path d="M379.388 120.33C379.388 120.33 391.749 115.094 371.628 96.0944C352.527 78.0424 357.303 65.9247 368.445 46.9003C379.587 27.8759 375.807 17.8775 373.27 17.7279C370.733 17.5783 372.076 33.2366 365.808 38.8218C359.541 44.4069 341.634 58.4944 346.882 79.7629C352.129 101.031 371.205 127.361 379.388 120.33Z" fill="#EFB29D"/>
<path d="M386.476 95.2716C386.476 95.2716 398.315 98.8371 388.839 112.7L415.352 114.545C415.352 114.545 402.817 99.8095 401.399 79.7629L386.476 95.2716Z" fill="#EFB29D"/>
<path d="M384.089 63.5061C384.089 63.5061 376.976 66.1491 377.448 73.6791C378.02 82.7051 371.628 83.0292 375.906 85.4976C379.935 87.8414 376.951 96.1942 382.746 95.8202C392.197 95.1968 400.653 88.1655 402.12 75.9979C403.588 63.8801 393.216 58.7936 384.089 63.5061Z" fill="#EFB29D"/>
<path d="M379.313 67.0965C400.553 63.0573 386.054 94.8976 420.351 81.583C435.025 75.8981 430.672 87.4175 444.476 81.583C458.279 75.7485 475.291 93.601 483.225 78.7904C488.821 68.3183 470.64 55.4276 452.957 61.6859C436.343 67.5952 433.508 56.2005 417.59 60.0652C396.4 65.2265 389.486 55.6021 379.313 67.0965Z" fill="#323960"/>
<path d="M416.073 126.663C416.073 126.663 405.876 121.203 424.256 102.403C443.63 82.5804 438.159 72.2578 427.016 53.2334C415.874 34.209 419.654 24.2106 422.191 24.061C424.728 23.9114 423.385 39.5698 429.653 45.1549C435.92 50.74 453.827 64.8276 448.58 86.096C443.332 107.339 424.256 133.669 416.073 126.663Z" fill="#EFB29D"/>
<path d="M415.153 129.506C409.731 121.826 395.455 128.508 395.455 128.508C395.455 128.508 384.163 117.488 376.528 122.973C359.342 135.315 386.004 155.836 371.23 177.603L386.75 180.221L402.27 182.839C395.43 157.431 427.34 146.834 415.153 129.506Z" fill="#F7F6F4"/>
<path d="M474.371 83.9517C474.371 83.9517 489.443 88.7141 490.811 110.855C492.104 131.799 481.235 145.638 475.863 173.065L466.512 214.804C428.807 201.015 433.906 168.377 439.203 141.274C448.132 95.4711 474.371 83.9517 474.371 83.9517Z" fill="#282E54"/>
<path d="M441.118 172.641C441.118 172.641 439.427 119.881 470.914 85.8966L485.314 84.6997L473.401 172.641H441.118Z" fill="#F0EEEB"/>
<path d="M485.364 84.6997C485.364 84.6997 497.899 88.8637 498.222 110.755C498.521 131.475 488.871 145.588 483.325 172.965L473.874 214.679C442.611 202.437 448.132 169.873 453.579 142.82C462.806 97.0918 485.364 84.6997 485.364 84.6997Z" fill="#323960"/>
<path d="M523.566 20.4955C523.566 20.4955 532.147 53.9565 514.861 70.313C497.576 86.6695 477.505 95.4711 479.619 110.631C481.733 125.79 522.049 103.749 532.495 83.104C542.941 62.4838 543.886 49.5432 532.843 14.9602L523.566 20.4955Z" fill="#323960"/>
<path d="M484.966 84.8743L484.046 81.7077C483.872 81.0844 483.225 80.7103 482.604 80.8849L468.079 84.6C467.532 84.7496 467.158 85.2483 467.183 85.8218L467.357 90.235C467.382 91.0329 468.178 91.5814 468.924 91.3321L484.195 86.3703C484.792 86.1708 485.14 85.4976 484.966 84.8743Z" fill="#F0EEEB"/>
<path d="M473.376 42.3374C473.376 42.3374 463.129 43.3597 461.911 55.7018C461.388 60.9878 455.121 63.6557 458.628 65.1019C462.11 66.548 458.827 72.2578 462.234 75.6987C465.641 79.1645 485.339 79.0897 488.1 61.5613C488.1 61.5363 495.163 38.6472 473.376 42.3374Z" fill="#EFB29D"/>
<path d="M467.158 77.3692C467.158 77.3692 472.356 77.9178 470.914 85.8966L485.314 84.6997C485.314 84.6997 485.762 68.5427 485.787 68.4928C485.812 68.4679 485.812 68.4679 485.812 68.4679L467.158 77.3692Z" fill="#EFB29D"/>
<path d="M487.379 64.678C487.379 64.678 495.561 53.4578 489.02 44.7061C482.479 35.9793 464.622 40.991 463.577 44.0079C462.532 47.0249 463.851 49.2939 470.367 49.1692C478.226 49.0196 476.883 54.8541 476.46 57.1729C475.44 62.9077 485.314 58.6939 487.379 64.678Z" fill="#323960"/>
<path d="M476.236 56.8737C476.236 56.8737 481.907 52.5602 483.946 57.3973C484.941 59.7411 481.459 68.7172 475.789 66.3735L476.236 56.8737Z" fill="#EFB29D"/>
<path d="M487.453 84.2011L486.533 81.0345C486.359 80.4111 485.712 80.0371 485.091 80.2117L470.566 83.9268C470.019 84.0764 469.645 84.5751 469.67 85.1485L469.845 89.5618C469.869 90.3597 470.665 90.9082 471.411 90.6589L486.682 85.6971C487.304 85.4727 487.652 84.8244 487.453 84.2011Z" fill="#F7F6F4"/>
<path d="M288.559 174.86L304.75 134.418C305.62 132.223 307.759 130.777 310.097 130.777H316.514C320.344 130.777 323.13 134.467 322.06 138.158L310.495 178.6C309.774 181.093 307.511 182.789 304.949 182.789H293.906C289.827 182.814 287.042 178.675 288.559 174.86Z" fill="#9D586C"/>
<path d="M627.303 223.755L626.259 229.689L622.105 252.778L617.828 276.54C616.783 282.524 611.585 286.837 605.566 286.837H563.708C558.883 286.837 554.58 283.496 553.809 278.734C549.929 255.146 529.51 237.119 504.838 237.119C480.216 237.119 459.772 255.122 455.917 278.734C455.146 283.496 450.843 286.837 446.018 286.837H70.4139C65.5889 286.837 61.2862 283.496 60.5152 278.734C56.6353 255.146 36.2161 237.119 11.544 237.119C-13.0785 237.119 -33.5225 255.122 -37.3776 278.734C-38.1486 283.496 -42.4513 286.837 -47.2763 286.837H-121.442C-129.326 286.837 -135.022 279.257 -132.833 271.653L-127.361 252.778L-124.476 242.904C-123.059 238.092 -120.969 233.679 -118.184 229.689C-111.518 219.915 -101.172 212.959 -89.2339 210.665L105.855 172.865C106.95 172.691 108.094 172.541 109.238 172.541H584.649C611.66 172.541 632.079 197.101 627.303 223.755Z" fill="#323960"/>
<path d="M603.602 286.862H563.708C558.883 286.862 554.581 283.521 553.809 278.759C549.93 255.171 529.51 237.144 504.838 237.144C480.216 237.144 459.772 255.146 455.917 278.759C455.146 283.521 450.843 286.862 446.018 286.862H70.4141C65.5891 286.862 61.2864 283.521 60.5153 278.759C56.6354 255.171 36.2163 237.144 11.5441 237.144C-13.0783 237.144 -33.5224 255.146 -37.3774 278.759C-38.1484 283.521 -42.4512 286.862 -47.2762 286.862H-94.979V239.363C-94.979 228.941 -87.3187 220.065 -77.0469 218.619L99.0656 193.061C100.06 192.937 101.08 192.837 102.075 192.837L581.317 193.061C592.708 193.061 602.01 202.212 602.258 213.632L603.602 286.862Z" fill="#282E54"/>
<path d="M532.371 19.922C532.371 19.922 532.42 9.67427 523.765 2.11936C515.11 -5.41061 522.149 9.15066 523.566 12.9655C523.566 12.9655 519.786 7.30557 518.592 7.75438C515.98 8.70186 522.994 19.0244 525.755 20.3708L532.371 19.922Z" fill="#EFB29D"/>
<path d="M546.87 286.862C546.87 263.574 528.043 244.699 504.813 244.699C481.584 244.699 462.756 263.574 462.756 286.862C462.756 310.15 481.584 329.025 504.813 329.025C528.043 329 546.87 310.125 546.87 286.862Z" fill="#282E54"/>
<path d="M526.053 286.862C526.053 275.093 516.552 265.569 504.813 265.569C493.074 265.569 483.573 275.093 483.573 286.862C483.573 298.606 493.074 308.155 504.813 308.155C516.552 308.131 526.053 298.606 526.053 286.862Z" fill="#F0EEEB"/>
<path d="M625.364 234.651L622.727 249.337C622.379 251.332 620.638 252.803 618.599 252.803H594.598C588.38 252.803 584.426 246.12 587.385 240.635L590.992 234.003C592.434 231.36 595.195 229.714 598.204 229.714H621.21C623.846 229.689 625.836 232.058 625.364 234.651Z" fill="#9D586C"/>
<path d="M615.788 288.433H560.475C554.605 288.433 549.855 283.671 549.855 277.786C549.855 271.902 554.605 267.14 560.475 267.14H615.788C621.658 267.14 626.408 271.902 626.408 277.786C626.408 283.646 621.633 288.433 615.788 288.433Z" fill="#F0EEEB"/>
</g>
</g>
<defs>
<filter id="filter0_b" x="202" y="-22" width="402" height="395" filterUnits="userSpaceOnUse" color-interpolation-filters="sRGB">
<feFlood flood-opacity="0" result="BackgroundImageFix"/>
<feGaussianBlur in="BackgroundImage" stdDeviation="12"/>
<feComposite in2="SourceAlpha" operator="in" result="effect1_backgroundBlur"/>
<feBlend mode="normal" in="SourceGraphic" in2="effect1_backgroundBlur" result="shape"/>
</filter>
<clipPath id="clip0">
<rect width="772" height="329" fill="white" transform="translate(-144)"/>
</clipPath>
</defs>
</svg>
